<svg xmlns="http://www.w3.org/2000/svg" viewBox="0 0 133.46 927.63"><defs><style>.cls-1{fill:#fff;}.cls-2{fill:none;stroke:#27a9e0;stroke-miterlimit:10;stroke-width:3px;}</style></defs><g id="Layer_2" data-name="Layer 2"><g id="Layer_1-2" data-name="Layer 1"><path class="cls-1" d="M62.43,25.86A16.53,16.53,0,0,0,45.89,42.39a16.21,16.21,0,0,0,7.56,14.13A2.74,2.74,0,0,1,55,59.27V69.83a29.12,29.12,0,0,0,14.83,0V59.27a2.75,2.75,0,0,1,1.56-2.75A16.2,16.2,0,0,0,79,42.39,16.54,16.54,0,0,0,62.43,25.86M48.64,42.39A13.93,13.93,0,0,1,62.43,28.6,13.78,13.78,0,0,1,76.21,42.39c0,4.81-2.38,9.42-6.32,11.63a6,6,0,0,0-2.79,5.25v7.89a23.08,23.08,0,0,1-4.67.61,23.08,23.08,0,0,1-4.68-.61V59.27A6,6,0,0,0,55,54C51,51.81,48.64,47.2,48.64,42.39"/><path class="cls-1" d="M41.74,32.61l-15.5-9a1.59,1.59,0,0,1,1.6-2.74l15.49,9a1.58,1.58,0,0,1-1.59,2.74"/><path class="cls-1" d="M50,23,40.49,7.79a1.59,1.59,0,0,1,2.69-1.68l9.46,15.22A1.58,1.58,0,0,1,50,23"/><path class="cls-1" d="M83.1,32.61l15.5-9A1.58,1.58,0,0,0,97,20.88l-15.5,9a1.58,1.58,0,0,0,1.59,2.74"/><path class="cls-1" d="M74.9,23,84.35,7.79a1.58,1.58,0,1,0-2.68-1.68L72.2,21.33A1.59,1.59,0,0,0,74.9,23"/><path class="cls-1" d="M64,19.5l0-17.92a1.59,1.59,0,0,0-3.17,0l0,17.91a1.58,1.58,0,1,0,3.16,0"/><path class="cls-1" d="M40,262.21A19.64,19.64,0,0,1,39,260c-.21-.5-.38-1-.55-1.51l-8.71,3.52a2,2,0,1,0,1.51,3.72l8.73-3.54.05,0m2.86,4L40.11,269a1.37,1.37,0,0,0,0,1.92,1.35,1.35,0,0,0,1.46.29,1.23,1.23,0,0,0,.45-.3l2.77-2.77a21.64,21.64,0,0,1-1.95-1.88M57.28,273v3.87a1.34,1.34,0,0,0,1.35,1.35,1.22,1.22,0,0,0,.51-.1,1.32,1.32,0,0,0,.84-1.25V273a22.28,22.28,0,0,1-2.71,0m-23.7-21.81a1.36,1.36,0,0,0,0,2.71H37.5a20.46,20.46,0,0,1,0-2.71ZM45,279.38A2,2,0,0,0,46.09,282a2.05,2.05,0,0,0,1.54,0,2,2,0,0,0,1.09-1.08l3.68-8.68a.07.07,0,0,0,0-.05,20.21,20.21,0,0,1-3.72-1.49ZM29.55,242.66l8.68,3.68h.05a20.94,20.94,0,0,1,1.49-3.72L31.12,239a2,2,0,1,0-1.57,3.69m18.7-8.77,0,0a19.64,19.64,0,0,1,2.17-1c.5-.21,1-.39,1.51-.55l-3.52-8.71a2,2,0,0,0-3.73,1.51Zm-5.88,4.85a21.64,21.64,0,0,1,1.88-2l-2.74-2.74A1.35,1.35,0,1,0,39.6,236Zm16.89-7.35v-3.87a1.36,1.36,0,0,0-2.71,0v3.92a20.34,20.34,0,0,1,2.7-.05"/><path class="cls-1" d="M42.75,252.22a15.52,15.52,0,0,0,15.43,15.52v3.15a18.67,18.67,0,0,1,0-37.34v3.14a15.52,15.52,0,0,0-15.43,15.53"/><path class="cls-1" d="M94.64,256.93l-12.39,3,7.1,4.44a1.59,1.59,0,0,1-1.68,2.69l-7-4.38,3.06,12.64a1.58,1.58,0,1,1-3.08.74l-3.83-15.78-9.41-5.88v11.08l11.33,11.08a1.58,1.58,0,1,1-2.21,2.26l-9.12-8.91v8.37a1.58,1.58,0,1,1-3.16,0V225.5a1.58,1.58,0,1,1,3.16,0V233l9.09-9.29a1.58,1.58,0,1,1,2.27,2.21L67.42,237.52v11.39l10-5.31,4.47-15.2a1.58,1.58,0,1,1,3,.89l-3.59,12.24,7.4-3.94a1.58,1.58,0,1,1,1.48,2.8l-7.29,3.87,12.47,3.67a1.58,1.58,0,1,1-.89,3L78.9,246.39,69,251.65l9.5,5.93,15.39-3.73a1.59,1.59,0,1,1,.75,3.08"/><path class="cls-1" d="M62.42,433.77a31.17,31.17,0,0,0-17.36,5.12,32.65,32.65,0,0,0-15.59,27.84,33,33,0,1,0,56.1-23.17,32.5,32.5,0,0,0-23.15-9.79m-18.26,9.75a29.72,29.72,0,0,1,18.26-6.32h2.24l-1.49,4.47-7.73,22.95L44,451.74l-3.91-4.43,1.44-1.44,1.19-1.16a15.73,15.73,0,0,1,1.4-1.19m39.12,44.06a38.81,38.81,0,0,1-8,5.84,30.61,30.61,0,0,1-12.91,2.83H60.19l1.48-4.46,7.73-23,6.16,7,9,10.2a3.35,3.35,0,0,1-.9,1.27Zm3.4-4.27-12.31-14-6.59-7.65,22.54-4.51a29.22,29.22,0,0,1,1.62,9.59c0,6.28-1.86,11.36-5.26,16.58m2.5-29.24-28.39,5.48.88-2.66,6.38-19.13a23.55,23.55,0,0,1,7.28,2.5c6.56,3.28,10.37,7.46,13.85,13.81m-51-3.93,7.07,8.08,11.85,13.59-12.29,2.3-10.26,2.2a29.21,29.21,0,0,1-1.63-9.58c0-6.29,1.86-11.37,5.26-16.59m-2.53,29.49,8.84-1.82,19.6-3.92-.9,2.66-6.38,19.14a31.07,31.07,0,0,1-12.63-5.76,35.28,35.28,0,0,1-8.53-10.3M59.54,463.3l2.73-.54,1.6-.32,2.86,3.43-1.42,4.28L61,471l-2.87-3.43Z"/><path class="cls-1" d="M70.92,716.06H35.05a1.28,1.28,0,0,1-1.25-1.25V686.55h-8c-1.43,0-1.9-1.22-.84-2.18l36.48-32.81a1.37,1.37,0,0,1,1.67,0l9.48,8.51v-3.36a1.28,1.28,0,0,1,1.25-1.25h8.29a1.28,1.28,0,0,1,1.25,1.25v13.07l16.42,14.69c1.06,1,.6,2.18-.83,2.18H91.75V715a1.28,1.28,0,0,1-1.25,1.24H80.24c-4.48,0-3.54-12.53-3.48-13.25.89-10.85-1-18.82-11.83-25.39a39.3,39.3,0,0,0-11.78-4.72c1.72,6.75,1.23,13.93,2.31,20.81,1.41,9,7.38,13.5,14.37,13.36.28-9.24-3.15-17.71-10.39-25.44a1.25,1.25,0,0,1,1.81-1.71c8,8.48,11.67,18,11,28.41a1.41,1.41,0,0,1-1.14,1.16c-8.83.77-16.45-4.73-18.13-15.4-1.17-7.38-.45-15.4-2.85-22.53-.38-1.14.32-1.9,1.48-1.61,40.73,10,22.49,37.12,29.07,43.82h8.56V685.4a1.28,1.28,0,0,1,1.24-1.25h5.24l-14.4-12.88a2.9,2.9,0,0,1-.42-.93V658H75.13v4.9c0,1.35-1.09,1.83-2.09.93l-10.72-9.63L29.09,684.05h6a1.28,1.28,0,0,1,1.25,1.25v28.26H70.92a1.25,1.25,0,0,1,0,2.5"/><path class="cls-1" d="M89.13,871H35.71v53.43H89.13Zm3.18-3.17h0Zm-59.78,0H92.31v59.77H32.53Z"/><path class="cls-1" d="M64,877.75V896.9a1.59,1.59,0,0,1-3.18,0V877.75a1.59,1.59,0,0,1,3.18,0"/><path class="cls-1" d="M76.8,899.4a14.39,14.39,0,0,0-8.9-13.31l1.4-2.86a17.57,17.57,0,1,1-13.75,0l1.39,2.86A14.39,14.39,0,1,0,76.8,899.4"/><line class="cls-2" y1="152.58" x2="133.46" y2="152.58"/><line class="cls-2" y1="367.01" x2="133.46" y2="367.01"/><line class="cls-2" y1="581.43" x2="133.46" y2="581.43"/><line class="cls-2" y1="795.85" x2="133.46" y2="795.85"/></g></g></svg>