<?xml version="1.0" encoding="UTF-8"?><svg id="Layer_1" xmlns="http://www.w3.org/2000/svg" viewBox="0 0 94.53 97.69"><rect x="5.02" y="27.61" width="40.81" height="18.69" fill="#414142" stroke-width="0"/><rect x="5.02" y="4.57" width="40.81" height="18.69" fill="#414142" stroke-width="0"/><rect x="5.02" y="73.68" width="40.81" height="18.69" fill="#414142" stroke-width="0"/><rect x="5.02" y="50.64" width="40.81" height="18.69" fill="#414142" stroke-width="0"/><rect x="49.22" y="27.61" width="40.81" height="18.69" fill="#414142" stroke-width="0"/><rect x="49.22" y="4.57" width="40.81" height="18.69" fill="#414142" stroke-width="0"/><rect x="49.22" y="73.68" width="40.81" height="18.69" fill="#414142" stroke-width="0"/><rect x="49.22" y="50.64" width="40.81" height="18.69" fill="#414142" stroke-width="0"/><path d="M92.47,2.05v93.57H2.05V2.05h90.42M94.21,0H.32c-.17,0-.32.14-.32.32v97.05c0,.17.14.32.32.32h93.89c.17,0,.32-.14.32-.32V.32c0-.17-.14-.32-.32-.32h0Z" fill="#414142" stroke-width="0"/></svg>