<?xml version="1.0" encoding="UTF-8"?><svg id="Layer_2" xmlns="http://www.w3.org/2000/svg" viewBox="0 0 96.22 96.22"><g id="Layer_1-2"><g id="select_all"><path d="M0,10.69h10.69V0C4.81,0,0,4.81,0,10.69ZM0,53.46h10.69v-10.69H0v10.69ZM21.38,96.22h10.69v-10.69h-10.69v10.69ZM0,32.07h10.69v-10.69H0v10.69ZM53.46,0h-10.69v10.69h10.69V0ZM85.53,0v10.69h10.69c0-5.88-4.81-10.69-10.69-10.69ZM10.69,96.22v-10.69H0c0,5.88,4.81,10.69,10.69,10.69ZM0,74.84h10.69v-10.69H0v10.69ZM32.07,0h-10.69v10.69h10.69V0ZM42.77,96.22h10.69v-10.69h-10.69v10.69ZM85.53,53.46h10.69v-10.69h-10.69v10.69ZM85.53,96.22c5.88,0,10.69-4.81,10.69-10.69h-10.69v10.69ZM85.53,32.07h10.69v-10.69h-10.69v10.69ZM85.53,74.84h10.69v-10.69h-10.69v10.69ZM64.15,96.22h10.69v-10.69h-10.69v10.69ZM64.15,10.69h10.69V0h-10.69v10.69ZM26.73,74.84h42.77c2.94,0,5.35-2.41,5.35-5.35V26.73c0-2.94-2.41-5.35-5.35-5.35H26.73c-2.94,0-5.35,2.41-5.35,5.35v42.77c0,2.94,2.41,5.35,5.35,5.35ZM32.07,32.07h32.07v32.07h-32.07v-32.07Z" stroke-width="0"/></g></g></svg>