<?xml version="1.0" encoding="UTF-8"?><svg id="Layer_1" xmlns="http://www.w3.org/2000/svg" viewBox="0 0 94.53 141.74"><rect x="4.49" y="72.58" width="40.81" height="18.69" fill="#414142" stroke-width="0"/><rect x="4.49" y="50" width="40.81" height="18.69" fill="#414142" stroke-width="0"/><rect x="4.49" y="117.74" width="40.81" height="18.69" fill="#414142" stroke-width="0"/><rect x="4.49" y="95.16" width="40.81" height="18.69" fill="#414142" stroke-width="0"/><rect x="4.49" y="27.42" width="40.81" height="18.69" fill="#414142" stroke-width="0"/><rect x="4.49" y="4.84" width="40.81" height="18.69" fill="#414142" stroke-width="0"/><rect x="49.15" y="72.58" width="40.81" height="18.69" fill="#414142" stroke-width="0"/><rect x="49.15" y="50" width="40.81" height="18.69" fill="#414142" stroke-width="0"/><rect x="49.15" y="117.74" width="40.81" height="18.69" fill="#414142" stroke-width="0"/><rect x="49.15" y="95.16" width="40.81" height="18.69" fill="#414142" stroke-width="0"/><rect x="49.15" y="27.42" width="40.81" height="18.69" fill="#414142" stroke-width="0"/><rect x="49.15" y="4.84" width="40.81" height="18.69" fill="#414142" stroke-width="0"/><path d="M92.47,2.05v137.63H2.05V2.05h90.42M94.21,0H.32c-.17,0-.32.14-.32.32v141.11c0,.17.14.32.32.32h93.89c.17,0,.32-.14.32-.32V.32c0-.17-.14-.32-.32-.32h0Z" fill="#414142" stroke-width="0"/></svg>