<?xml version="1.0" encoding="UTF-8"?><svg id="Layer_1" xmlns="http://www.w3.org/2000/svg" viewBox="0 0 94.53 141.75"><rect x="4.49" y="73.27" width="40.81" height="18.69" fill="#414142" stroke-width="0"/><rect x="4.49" y="51.04" width="40.81" height="18.69" fill="#414142" stroke-width="0"/><rect x="4.49" y="117.74" width="40.81" height="18.69" fill="#414142" stroke-width="0"/><rect x="4.49" y="95.51" width="40.81" height="18.69" fill="#414142" stroke-width="0"/><rect x="48.92" y="73.27" width="40.81" height="18.69" fill="#414142" stroke-width="0"/><rect x="48.92" y="51.04" width="40.81" height="18.69" fill="#414142" stroke-width="0"/><rect x="48.92" y="117.74" width="40.81" height="18.69" fill="#414142" stroke-width="0"/><rect x="48.92" y="95.51" width="40.81" height="18.69" fill="#414142" stroke-width="0"/><path d="M92.47,2.05v137.63H2.05V2.05h90.42M94.21,0H.32c-.17,0-.32.14-.32.32v141.11c0,.17.14.32.32.32h93.89c.17,0,.32-.14.32-.32V.32c0-.17-.14-.32-.32-.32h0Z" fill="#414142" stroke-width="0"/><rect x="5.44" y="5.31" width="83.64" height="42.12" fill="#232323" stroke-width="0"/><path d="M76.27,31.98h-4.3c-.2,0-.36-.16-.36-.36s.16-.36.36-.36h4.3c.2,0,.36.16.36.36s-.16.36-.36.36Z" fill="#fff" stroke-width="0"/><path d="M76.27,18.08h-4.3c-.2,0-.36-.16-.36-.36s.16-.36.36-.36h4.3c.2,0,.36.16.36.36s-.16.36-.36.36Z" fill="#fff" stroke-width="0"/><path d="M74.12,20.23c-.2,0-.36-.16-.36-.36v-4.3c0-.2.16-.36.36-.36s.36.16.36.36v4.3c0,.2-.16.36-.36.36Z" fill="#fff" stroke-width="0"/><rect x="53.05" y="31.25" width="2.02" height="2.02" rx=".13" ry=".13" fill="#fff" stroke-width="0"/><polygon points="58.43 32.03 60.02 32.03 60.92 32.93 60.73 33.14 57.72 33.14 57.53 32.93 58.43 32.03" fill="#fff" stroke-width="0"/><polygon points="58.43 26.29 60.02 26.29 60.92 25.38 60.73 25.18 57.72 25.18 57.53 25.38 58.43 26.29" fill="#fff" stroke-width="0"/><polygon points="61.26 32.68 61.47 32.49 61.47 29.48 61.26 29.29 60.36 30.19 60.36 31.78 61.26 32.68" fill="#fff" stroke-width="0"/><polygon points="61.26 29.02 61.47 28.83 61.47 25.83 61.26 25.64 60.36 26.54 60.36 28.12 61.26 29.02" fill="#fff" stroke-width="0"/><path d="M60.6,19.76c-.13-.16-.29-.29-.48-.38-.19-.09-.39-.13-.6-.13-.25,0-.48.05-.69.14-.2.09-.38.22-.52.39-.15.16-.26.36-.34.58s-.12.46-.12.71.04.46.11.67.19.4.33.56c.14.16.32.29.52.38.21.09.44.14.7.14s.48-.05.68-.16c.19-.11.36-.25.49-.44l.51.39s-.09.11-.18.2c-.08.09-.2.17-.34.26s-.31.16-.5.23c-.2.07-.42.1-.68.1-.35,0-.67-.07-.96-.2-.28-.13-.53-.31-.73-.53s-.35-.47-.46-.74-.16-.56-.16-.84c0-.35.06-.66.17-.96.11-.29.27-.55.48-.76.2-.21.45-.38.74-.5s.6-.18.95-.18c.29,0,.58.06.87.17.28.11.52.29.7.52l-.51.39h.02Z" fill="#fff" stroke-width="0"/><path d="M55.82,20.58c-.52,0-.94-.42-.94-.94s.42-.94.94-.94.94.42.94.94-.42.94-.94.94ZM55.82,19.08c-.31,0-.56.25-.56.56s.25.56.56.56.56-.25.56-.56-.25-.56-.56-.56Z" fill="#fff" stroke-width="0"/><path d="M64.2,10.21c-.05-.06-.1-.1-.17-.14-.07-.03-.14-.05-.21-.05-.09,0-.17.02-.25.05-.07.03-.14.08-.19.14s-.09.13-.12.21-.04.16-.04.25c0,.08,0,.16.04.24s.07.14.12.2c.05.06.11.1.19.14.07.03.16.05.25.05s.17-.02.24-.06.13-.09.18-.16l.18.14s-.03.04-.06.07-.07.06-.12.09-.11.06-.18.08c-.07.02-.15.04-.24.04-.13,0-.24-.02-.34-.07-.1-.05-.19-.11-.26-.19s-.13-.17-.16-.27-.06-.2-.06-.3c0-.12.02-.24.06-.34s.1-.2.17-.27c.07-.08.16-.14.26-.18s.22-.06.34-.06c.11,0,.21.02.31.06s.18.1.25.19l-.18.14h0Z" fill="#fff" stroke-width="0"/><path d="M62.49,10.5c-.19,0-.34-.15-.34-.34s.15-.34.34-.34.34.15.34.34-.15.34-.34.34ZM62.49,9.97c-.11,0-.2.09-.2.2s.09.2.2.2.2-.09.2-.2-.09-.2-.2-.2Z" fill="#fff" stroke-width="0"/><polygon points="20.94 12.59 20.94 10.29 20.87 10.11 20.68 10.03 20.57 10.03 20.38 10.11 20.3 10.29 20.3 12.59 20.38 12.78 20.57 12.85 20.68 12.85 20.87 12.78 20.94 12.59" fill="#fff" stroke-width="0"/><path d="M20.63,15.27c-1.34,0-2.43-1.09-2.43-2.43,0-.68.29-1.33.78-1.79.12-.11.31-.1.42.02.11.12.1.31-.02.42-.37.35-.59.84-.59,1.35,0,1.01.82,1.83,1.83,1.83s1.83-.82,1.83-1.83c0-.52-.22-1.02-.61-1.37-.12-.11-.13-.3-.02-.42.11-.12.3-.13.42-.02.52.46.81,1.12.81,1.81,0,1.34-1.09,2.43-2.43,2.43h.01Z" fill="#fff" stroke-width="0"/><polygon points="20.8 28.33 22.02 24.57 22.02 28.33 22.56 28.33 22.56 24 21.65 24 20.63 27.21 19.58 24 18.7 24 18.7 28.33 19.24 28.33 19.24 24.61 20.43 28.33 20.8 28.33" fill="#fff" stroke-width="0"/><path d="M21.26,39.83c.34-.24.49-.55.32-.96.05,0,.11,0,.16.02.17,0,.33-.05.48-.13.14-.07.28-.15.44-.2.51-.15.92.16,1.02.63.06.26-.03.48-.17.69-.19.27-.44.46-.77.52-.28.06-.55,0-.8-.1-.26-.11-.47-.27-.67-.47h-.01Z" fill="#fff" stroke-width="0"/><path d="M20.63,39.93c-.11.12-.18.26-.21.42-.02.11-.02.22-.03.33,0,.21-.03.41-.14.59-.17.28-.47.39-.75.35-.21-.02-.39-.1-.53-.26-.1-.11-.17-.24-.22-.38-.18-.48-.06-.98.31-1.34.25-.23.54-.37.87-.47.04,0,.04,0,.04.04,0,.1.03.2.07.29.1.24.29.37.54.41h.04v.02Z" fill="#fff" stroke-width="0"/><path d="M20.19,38.57c-.07-.25-.25-.4-.45-.53-.11-.07-.22-.13-.31-.22-.17-.15-.29-.33-.29-.56-.01-.32.14-.56.39-.74.15-.1.31-.13.49-.13.28,0,.53.08.75.25.28.21.43.49.48.83.05.29.02.58-.05.87,0,.03-.01.04-.05.02-.18-.08-.37-.12-.57-.07-.15.04-.27.13-.37.25,0,0-.01.02-.03.02h.01Z" fill="#fff" stroke-width="0"/><path d="M20.3,39.12c0-.28.23-.5.5-.5s.5.23.5.51-.23.5-.5.5-.5-.23-.5-.51Z" fill="#fff" stroke-width="0"/><polygon points="28.37 41.48 28.37 40.73 31.61 40.14 31.61 41.48 28.37 41.48" fill="#fff" stroke-width="0"/><polygon points="32.29 41.48 36.94 41.48 36.94 39.16 32.29 40 32.29 41.48" fill="#fff" stroke-width="0"/><path d="M29.44,36.13h.3l1.03,2.41h-.38l-.24-.6h-1.15l-.24.6h-.38s1.06-2.41,1.06-2.41ZM30.03,37.66l-.45-1.11h0l-.46,1.11h.91Z" fill="#fff" stroke-width="0"/><path d="M32.44,38.54h-.31v-.25h0c-.04.09-.11.16-.2.21s-.21.08-.33.08c-.08,0-.15,0-.22-.04-.07-.02-.13-.06-.19-.11-.05-.05-.1-.11-.13-.19-.03-.08-.05-.17-.05-.28v-1.04h.31v.95c0,.08.01.14.03.19s.05.1.08.13c.03.03.07.06.12.07.04,0,.09.02.14.02.06,0,.12,0,.18-.03.05-.02.1-.05.14-.1.04-.05.07-.1.1-.17.02-.07.03-.15.03-.24v-.83h.31v1.62h0Z" fill="#fff" stroke-width="0"/><path d="M33.77,37.19h-.44v.86s0,.08.03.12c0,.04.04.06.07.09.03.02.08.03.13.03.04,0,.07,0,.11,0s.07-.02.11-.04v.28s-.08.03-.14.04c-.06,0-.1,0-.13,0-.12,0-.21-.02-.27-.05s-.11-.08-.14-.13-.05-.11-.05-.18v-1.04h-.35v-.27h.35v-.45h.31v.45h.44v.27l-.03.02Z" fill="#fff" stroke-width="0"/><path d="M34.08,37.73c0-.12.02-.23.07-.33.04-.1.11-.19.18-.27.08-.08.17-.14.27-.18.1-.04.22-.07.34-.07s.23.02.34.07c.1.04.2.1.27.18s.14.17.18.27c.04.1.07.21.07.33s-.02.23-.07.33c-.04.1-.11.19-.18.27s-.17.14-.27.18c-.1.04-.22.07-.34.07s-.23-.02-.34-.07c-.1-.04-.2-.1-.27-.18-.08-.08-.14-.17-.18-.27s-.07-.21-.07-.33ZM34.41,37.73c0,.08,0,.16.04.23.02.07.06.13.11.18s.1.09.17.12.14.04.22.04.16,0,.22-.04c.07-.03.12-.07.17-.12s.08-.11.11-.18c.02-.07.04-.14.04-.23s0-.16-.04-.23c-.02-.07-.06-.13-.11-.18-.04-.05-.1-.09-.17-.12s-.14-.04-.22-.04-.16,0-.22.04c-.07.03-.12.07-.17.12s-.08.11-.11.18c-.02.07-.04.14-.04.23Z" fill="#fff" stroke-width="0"/><path d="M34.31,15.75h-3.73c-.1,0-.19-.08-.19-.19v-2.5h-.51c-.08,0-.14-.05-.17-.12s-.01-.15.04-.2l2.57-2.57c.07-.07.19-.07.26,0l2.57,2.57c.05.05.07.13.04.2s-.1.12-.17.12h-.51v2.5c0,.1-.08.19-.19.19h-.01ZM30.77,15.38h3.36v-2.5c0-.1.08-.19.19-.19h.25l-2.11-2.11-2.11,2.11h.25c.1,0,.19.08.19.19v2.5h-.02Z" fill="#fff" stroke-width="0"/><path d="M32.83,13.98h0v-1.02s.03-.04.05-.04c.03,0,.05.01.06.04v.9s.07.06.11.05c.05-.01.07-.05.07-.1v-1c0-.16-.11-.28-.28-.29h-.83c-.16,0-.28.12-.28.29v1c0,.07.04.11.1.11s.09-.04.09-.11v-.84s.03-.04.05-.04c.03,0,.05.01.05.04v2.07c.03.08.1.12.18.11s.13-.08.14-.17v-1.13s.03-.06.07-.06.04.03.04.07v1.12c0,.13.12.21.23.16.07-.03.1-.09.1-.17v-.97l.05-.02Z" fill="#fff" stroke-width="0"/><path d="M32.13,12.06c0,.18.14.32.32.32s.32-.14.32-.32-.14-.32-.32-.32-.32.14-.32.32Z" fill="#fff" stroke-width="0"/><path d="M73.32,40.46h-.01c-.1,0-.2-.06-.25-.14-.35-.54-.95-1.05-.96-1.05-.13-.11-.15-.31-.04-.44.11-.13.31-.15.44-.04.02.02.46.38.84.86.38-.43,1.18-1.24,2.42-2.04.15-.09.34-.05.43.09.09.15.05.34-.09.43-1.69,1.09-2.52,2.19-2.53,2.21-.06.08-.15.13-.25.13h0Z" fill="#5fb046" stroke-width="0"/><path d="M39.36,21.07v2.89l1.64,1.64.38-.35v-5.48l-.38-.35-1.64,1.64h0ZM39.36,27.74v2.89l1.64,1.64.38-.35v-5.48l-.38-.35-1.64,1.64h0Z" fill="#fff" stroke-width="0"/><polygon points="48.39 20.6 45.49 20.6 43.85 18.96 44.2 18.58 49.68 18.58 50.03 18.96 48.39 20.6" fill="#fff" stroke-width="0"/><polygon points="48.39 31.09 45.49 31.09 43.85 32.74 44.2 33.12 49.68 33.12 50.03 32.74 48.39 31.09" fill="#fff" stroke-width="0"/><polygon points="43.22 19.43 42.84 19.78 42.84 25.26 43.22 25.6 44.86 23.96 44.86 21.07 43.22 19.43" fill="#fff" stroke-width="0"/><polygon points="43.22 26.09 42.84 26.44 42.84 31.92 43.22 32.27 44.86 30.63 44.86 27.74 43.22 26.09" fill="#fff" stroke-width="0"/><polygon points="49.02 27.74 49.02 30.63 50.66 32.27 51.04 31.92 51.04 26.44 50.66 26.09 49.02 27.74" fill="#fff" stroke-width="0"/><polygon points="48.22 24.84 45.66 24.84 44.38 25.85 45.66 26.86 48.22 26.86 49.5 25.85 48.22 24.84" fill="#fff" stroke-width="0"/><polygon points="60.11 28.52 58.44 28.52 57.61 29.18 58.44 29.84 60.11 29.84 60.94 29.18 60.11 28.52" fill="#fff" stroke-width="0"/><path d="M39.36,27.74v2.89l1.64,1.64.38-.35v-5.48l-.38-.35-1.64,1.64h0Z" fill="#fff" stroke-width="0"/><polygon points="58.3 10.11 58.15 10.24 58.15 12.39 58.3 12.53 58.95 11.88 58.95 10.75 58.3 10.11" fill="#fff" stroke-width="0"/><polygon points="60.58 10.75 60.58 11.88 61.22 12.53 61.37 12.39 61.37 10.24 61.22 10.11 60.58 10.75" fill="#fff" stroke-width="0"/><polygon points="60.58 13.37 60.58 14.5 61.22 15.14 61.37 15.01 61.37 12.86 61.22 12.72 60.58 13.37" fill="#fff" stroke-width="0"/><polygon points="60.26 12.23 59.26 12.23 58.76 12.62 59.26 13.02 60.26 13.02 60.77 12.62 60.26 12.23" fill="#fff" stroke-width="0"/><polygon points="56.27 10.57 55.13 10.57 54.49 9.92 54.62 9.77 56.78 9.77 56.91 9.92 56.27 10.57" fill="#fff" stroke-width="0"/><polygon points="56.27 14.68 55.13 14.68 54.49 15.33 54.62 15.48 56.78 15.48 56.91 15.33 56.27 14.68" fill="#fff" stroke-width="0"/><polygon points="54.24 12.72 54.09 12.86 54.09 15.01 54.24 15.14 54.88 14.5 54.88 13.37 54.24 12.72" fill="#fff" stroke-width="0"/><polygon points="56.51 10.75 56.51 11.88 57.16 12.53 57.31 12.39 57.31 10.24 57.16 10.11 56.51 10.75" fill="#fff" stroke-width="0"/><polygon points="56.2 12.23 55.2 12.23 54.69 12.62 55.2 13.02 56.2 13.02 56.71 12.62 56.2 12.23" fill="#fff" stroke-width="0"/><polygon points="55.9 39.2 55.86 40.09 56.92 39.69 55.9 39.2" fill="#fbe908" stroke-width="0"/><polygon points="54.61 41.3 55.46 42.03 55.38 40.89 54.61 41.3" fill="#fbe908" stroke-width="0"/><polygon points="52.74 41.93 53.68 41.28 52.9 40.83 52.74 41.93" fill="#fbe908" stroke-width="0"/><polygon points="52.45 40.02 52.49 39.12 51.44 39.53 52.45 40.02" fill="#fbe908" stroke-width="0"/><polygon points="53.75 37.92 52.85 37.18 52.98 38.32 53.75 37.92" fill="#fbe908" stroke-width="0"/><polygon points="55.42 38.38 55.62 37.27 54.68 37.93 55.42 38.38" fill="#fbe908" stroke-width="0"/><polygon points="55.35 38.92 55.13 38.65 54.86 38.44 54.54 38.28 54.16 38.25 53.81 38.28 53.49 38.44 53.22 38.65 52.98 38.92 52.85 39.24 52.82 39.62 52.85 39.97 52.98 40.29 53.22 40.56 53.49 40.81 53.81 40.94 54.16 40.97 54.54 40.94 54.86 40.81 55.13 40.56 55.35 40.29 55.51 39.97 55.54 39.62 55.51 39.24 55.35 38.92" fill="#fbe908" stroke-width="0"/><polygon points="61.17 38.57 61.79 38.63 61.81 38.36 61.44 38.3 61.6 38.14 61.41 37.95 61.22 38.11 61.19 37.74 60.93 37.76 60.98 38.36 60.31 39.03 60.06 38.95 60.06 37.98 60.55 37.6 60.36 37.39 60.06 37.63 60.06 37.39 59.8 37.39 59.8 37.63 59.5 37.39 59.34 37.6 59.8 37.98 59.8 38.95 59.55 39.03 58.88 38.36 58.96 37.76 58.69 37.74 58.64 38.11 58.48 37.95 58.29 38.14 58.45 38.3 58.07 38.36 58.1 38.63 58.69 38.57 59.37 39.24 59.26 39.46 58.32 39.46 57.94 39 57.72 39.16 57.97 39.46 57.72 39.46 57.72 39.76 57.97 39.76 57.72 40.05 57.94 40.21 58.32 39.76 59.26 39.76 59.37 40 58.69 40.64 58.1 40.59 58.07 40.86 58.45 40.91 58.29 41.07 58.48 41.26 58.64 41.1 58.69 41.48 58.96 41.45 58.88 40.86 59.55 40.19 59.8 40.27 59.8 41.24 59.34 41.61 59.5 41.83 59.8 41.59 59.8 41.83 60.06 41.83 60.06 41.59 60.36 41.83 60.55 41.61 60.06 41.24 60.06 40.27 60.31 40.19 60.98 40.86 60.93 41.45 61.19 41.48 61.22 41.1 61.41 41.26 61.6 41.07 61.44 40.91 61.81 40.86 61.79 40.59 61.17 40.64 60.5 40 60.6 39.76 61.54 39.76 61.95 40.21 62.14 40.05 61.89 39.76 62.14 39.76 62.14 39.46 61.89 39.46 62.14 39.16 61.95 39 61.54 39.46 60.6 39.46 60.5 39.24 61.17 38.57" fill="#4abfe2" stroke-width="0"/><path d="M46.94,40.82s-.07,0-.1-.03c-.1-.06-.14-.18-.08-.29.4-.73.2-1.03-.06-1.42-.28-.43-.6-.91.03-1.86.06-.1.19-.12.29-.06.1.06.12.19.06.29-.48.72-.29,1-.03,1.4.27.4.6.91.07,1.86-.04.07-.11.11-.18.11Z" fill="#e32726" stroke-width="0"/><path d="M48.46,40.82s-.07,0-.1-.03c-.1-.06-.14-.18-.08-.29.4-.73.2-1.03-.06-1.42-.28-.43-.6-.91.03-1.86.06-.1.19-.12.29-.06.1.06.12.19.06.29-.48.72-.29,1-.03,1.4.27.4.6.91.07,1.86-.04.07-.11.11-.18.11Z" fill="#e32726" stroke-width="0"/><path d="M49.97,40.82s-.07,0-.1-.03c-.1-.06-.14-.18-.08-.29.4-.73.2-1.03-.06-1.42-.28-.43-.6-.91.03-1.86.06-.1.19-.12.29-.06.1.06.12.19.06.29-.48.72-.29,1-.03,1.4.27.4.6.91.07,1.86-.04.07-.11.11-.18.11Z" fill="#e32726" stroke-width="0"/><path d="M50.75,42.08h-4.67c-.17,0-.31-.14-.31-.31s.14-.31.31-.31h4.67c.17,0,.31.14.31.31s-.14.31-.31.31Z" fill="#e32726" stroke-width="0"/></svg>