<svg id="Layer_1" data-name="Layer 1" xmlns="http://www.w3.org/2000/svg" viewBox="0 0 315.28 60.92"><defs><style>.cls-1{fill:#fff;}</style></defs><path class="cls-1" d="M29.81,59.73A29.82,29.82,0,1,1,59.63,29.92,29.84,29.84,0,0,1,29.81,59.73Zm0-57.49A27.68,27.68,0,1,0,57.49,29.92,27.71,27.71,0,0,0,29.81,2.24Z"/><path class="cls-1" d="M20.65,22.29h3V38.93h-3Z"/><path class="cls-1" d="M27.25,22.29h5.59a11.7,11.7,0,0,1,2.32.23,5.72,5.72,0,0,1,2,.79,3.93,3.93,0,0,1,1.35,1.48A4.77,4.77,0,0,1,39,27.11a5.14,5.14,0,0,1-.54,2.53A3.9,3.9,0,0,1,37,31.14a6,6,0,0,1-2.13.71,15.8,15.8,0,0,1-2.52.19H30.21v6.89h-3ZM32,29.5c.42,0,.86,0,1.31,0a4.15,4.15,0,0,0,1.26-.29,2.14,2.14,0,0,0,.94-.7,2.12,2.12,0,0,0,.37-1.32,2.06,2.06,0,0,0-.33-1.23,2.18,2.18,0,0,0-.85-.71,3.48,3.48,0,0,0-1.15-.31,10.33,10.33,0,0,0-1.22-.07H30.21V29.5Z"/><path class="cls-1" d="M113.28,59.71a29.8,29.8,0,1,1,29.8-29.79A29.83,29.83,0,0,1,113.28,59.71Zm0-57.46A27.67,27.67,0,1,0,141,29.92,27.7,27.7,0,0,0,113.28,2.25Z"/><path class="cls-1" d="M95.89,24.64H98l2.87,8,3-8h2l-4.25,10.52H100Z"/><path class="cls-1" d="M106.45,29.94a6,6,0,0,1,.42-2.29A5.12,5.12,0,0,1,108,25.89a5,5,0,0,1,1.76-1.12,5.94,5.94,0,0,1,2.23-.4,6.1,6.1,0,0,1,2.26.37,5,5,0,0,1,1.77,1.1,5.24,5.24,0,0,1,1.16,1.76,6.13,6.13,0,0,1,.41,2.28,6,6,0,0,1-.41,2.25A5.36,5.36,0,0,1,116,33.87,5.42,5.42,0,0,1,114.27,35a6.1,6.1,0,0,1-2.26.43,5.94,5.94,0,0,1-2.23-.4A5.07,5.07,0,0,1,108,33.92a5.19,5.19,0,0,1-1.15-1.73A5.82,5.82,0,0,1,106.45,29.94Zm2-.11a4.41,4.41,0,0,0,.26,1.56,3.62,3.62,0,0,0,.73,1.23,3.46,3.46,0,0,0,1.14.82,3.92,3.92,0,0,0,3,0,3.4,3.4,0,0,0,1.15-.82,3.79,3.79,0,0,0,.73-1.23,4.41,4.41,0,0,0,.26-1.56,4,4,0,0,0-.26-1.48,3.71,3.71,0,0,0-.73-1.19,3.35,3.35,0,0,0-1.15-.8,3.92,3.92,0,0,0-3,0,3.41,3.41,0,0,0-1.14.8,3.54,3.54,0,0,0-.73,1.19A4,4,0,0,0,108.42,29.83Z"/><path class="cls-1" d="M119.35,24.64h1.87V35.16h-1.87Z"/><path class="cls-1" d="M123.53,24.64h3.53a7,7,0,0,1,1.47.15,3.51,3.51,0,0,1,1.24.5,2.46,2.46,0,0,1,.85.93,3,3,0,0,1,.32,1.47,3.25,3.25,0,0,1-.34,1.6,2.38,2.38,0,0,1-.92.94,3.78,3.78,0,0,1-1.35.46,10.25,10.25,0,0,1-1.59.12H125.4v4.35h-1.87Zm3,4.56.83,0a2.6,2.6,0,0,0,.8-.18,1.23,1.23,0,0,0,.82-1.27,1.26,1.26,0,0,0-.74-1.23,2.38,2.38,0,0,0-.73-.2,7.09,7.09,0,0,0-.77-.05H125.4v3Z"/><path class="cls-1" d="M198,60.92A30.46,30.46,0,1,1,228.5,30.46,30.49,30.49,0,0,1,198,60.92Zm0-58.74a28.28,28.28,0,1,0,28.28,28.28A28.31,28.31,0,0,0,198,2.18Z"/><path class="cls-1" d="M190.21,17.53c0-.54,1-1.16,2.27-1.16h10.57c1.28,0,2.27.62,2.27,1.16v8H207V17.53c0-1.61-1.75-2.88-4-2.88H192.48c-2.24,0-4,1.27-4,2.88v8h1.72Z"/><path class="cls-1" d="M205.32,43.4c0,.53-1,1.15-2.27,1.15H192.48c-1.28,0-2.27-.62-2.27-1.15v-8h-1.72v8c0,1.61,1.75,2.87,4,2.87h10.57c2.24,0,4-1.26,4-2.87v-8h-1.72Z"/><path class="cls-1" d="M216,31a8.42,8.42,0,0,0-3.83-7.06l-.43-.28-.94,1.44.43.28a6.7,6.7,0,0,1-.14,11.33l-.43.27.9,1.47.44-.27A8.4,8.4,0,0,0,216,31Z"/><path class="cls-1" d="M215.16,22.27l-.43-.28-.94,1.45.43.28A8.68,8.68,0,0,1,214,38.36l-.44.27.91,1.46.43-.26a10.4,10.4,0,0,0,.22-17.56Z"/><path class="cls-1" d="M181.76,31.09a6.58,6.58,0,0,1,3.15-5.64l.43-.27-.91-1.47L184,24a8.35,8.35,0,0,0-.17,14.11l.43.28.94-1.44-.43-.28A6.61,6.61,0,0,1,181.76,31.09Z"/><path class="cls-1" d="M182,38.41a8.82,8.82,0,0,1-4.06-7.57,8.55,8.55,0,0,1,4.07-7l.4-.25a0,0,0,0,0,0,0l-.87-1.41a0,0,0,0,0,0,0l-.41.25a10.27,10.27,0,0,0-4.89,9,10.55,10.55,0,0,0,4.87,8.57l.21.14a0,0,0,0,0,.05,0l.9-1.39a0,0,0,0,0,0-.05Z"/><path class="cls-1" d="M190.37,34.34l-.44-1.67-.56.27a2.68,2.68,0,0,1-1.13.22,1.85,1.85,0,0,1-2-2.08,1.89,1.89,0,0,1,2-2.15,2.54,2.54,0,0,1,1.08.21l.54.27.49-1.67-.37-.19a3.91,3.91,0,0,0-1.77-.35,3.72,3.72,0,0,0-3.88,3.91,3.53,3.53,0,0,0,3.7,3.77,4.58,4.58,0,0,0,1.93-.36Z"/><path class="cls-1" d="M191.11,34.79h1.94l.67-2h1.56l.69,2h2l-2.55-7.48h-1.74Zm4.36-3.2h-1.94l1-3Z"/><path class="cls-1" d="M204.1,29.53a2.12,2.12,0,0,0-.67-1.61,3.14,3.14,0,0,0-2.21-.66,9.29,9.29,0,0,0-1.71.15l-.41.08v7.3H201V32h.26c.44,0,.65.1.81.86a7.08,7.08,0,0,0,.49,1.68l.14.26h2l-.41-.76a12.4,12.4,0,0,1-.45-1.64,2.72,2.72,0,0,0-.52-1.15A2.15,2.15,0,0,0,204.1,29.53Zm-1.57-.63a1.09,1.09,0,0,1,.23.72h0a1.11,1.11,0,0,1-.33.82,1.4,1.4,0,0,1-.89.28h-1.09V28.57h1.05A1.35,1.35,0,0,1,202.53,28.9Z"/><path class="cls-1" d="M212.07,30.9A3.51,3.51,0,0,0,211,28.2a4.18,4.18,0,0,0-3-.94,12.7,12.7,0,0,0-1.85.14l-.44.07v7.24l.46,0a12.45,12.45,0,0,0,1.57.08A4.44,4.44,0,0,0,211,33.77,3.91,3.91,0,0,0,212.07,30.9Zm-2.38-1.42a2,2,0,0,1,.49,1.44,2,2,0,0,1-2.24,2.23h-.33V29h.47A2.16,2.16,0,0,1,209.69,29.48Z"/><path class="cls-1" d="M284.82,60.92a30.46,30.46,0,1,1,30.46-30.46A30.5,30.5,0,0,1,284.82,60.92Zm0-58.74A28.28,28.28,0,1,0,313.1,30.46,28.32,28.32,0,0,0,284.82,2.18Z"/><path class="cls-1" d="M259.66,34.36l.52-.41a2.37,2.37,0,0,0,2,.95c.88,0,1.54-.47,1.54-1.14,0-.47-.31-.75-1.25-1.11-1.12-.45-1.67-.84-1.67-1.63,0-1,.93-1.77,2.24-1.77a2.82,2.82,0,0,1,2.17.92l-.51.46a2.2,2.2,0,0,0-1.72-.76c-.91,0-1.46.51-1.46,1.07s.39.75,1.35,1.12,1.58.83,1.58,1.62a2.06,2.06,0,0,1-2.31,1.84A2.9,2.9,0,0,1,259.66,34.36Z"/><path class="cls-1" d="M265.67,30.93h.67l-.19.73a1.92,1.92,0,0,1,1.49-.82,1.25,1.25,0,0,1,1.28,1,2.13,2.13,0,0,1,1.82-1,1.31,1.31,0,0,1,1.37,1.39,3.81,3.81,0,0,1-.12.7l-.67,2.51h-.67l.69-2.56a2.84,2.84,0,0,0,.06-.5.86.86,0,0,0-.93-.94,1.82,1.82,0,0,0-1.56,1.45l-.67,2.55h-.67l.67-2.56a1.73,1.73,0,0,0,.07-.5.86.86,0,0,0-.94-.94,1.84,1.84,0,0,0-1.56,1.45l-.68,2.55h-.67Z"/><path class="cls-1" d="M272,34.29c0-1,.85-1.63,2-1.63a6.13,6.13,0,0,1,1.6.24l0-.1a2.13,2.13,0,0,0,.06-.42c0-.59-.4-.92-1.22-.92a3.68,3.68,0,0,0-1.27.24l-.12-.56a4,4,0,0,1,1.49-.27c1.14,0,1.77.52,1.77,1.39a2.27,2.27,0,0,1-.09.62l-.68,2.56h-.66l.19-.71a2.14,2.14,0,0,1-1.68.8A1.29,1.29,0,0,1,272,34.29Zm3.41-.62.09-.32a5.55,5.55,0,0,0-1.47-.2c-.8,0-1.35.44-1.35,1.06s.38.8,1,.8A1.9,1.9,0,0,0,275.42,33.67Z"/><path class="cls-1" d="M277.19,30.93h.67l-.3,1.18a2.44,2.44,0,0,1,2.14-1.26l-.19.73h-.05a2.51,2.51,0,0,0-2.32,2.08l-.48,1.78H276Z"/><path class="cls-1" d="M279.7,34.63a2.23,2.23,0,0,1,.06-.47l.71-2.64h-.62l.15-.59h.63l.37-1.36h.66l-.37,1.36h1.42l-.15.59h-1.42l-.7,2.6a2,2,0,0,0,0,.33c0,.31.24.46.62.46a1.74,1.74,0,0,0,.66-.14l-.17.61a1.69,1.69,0,0,1-.71.13C280.15,35.51,279.7,35.21,279.7,34.63Z"/><path class="cls-1" d="M286.45,35.52a1.82,1.82,0,0,1-1.46-.69v.61h-1.32V29.08H285v2.36a1.72,1.72,0,0,1,1.46-.76,2.2,2.2,0,0,1,2.13,2.41v0A2.19,2.19,0,0,1,286.45,35.52Zm.8-2.43a1.14,1.14,0,1,0-2.27,0v0a1.14,1.14,0,1,0,2.27,0Z"/><path class="cls-1" d="M291.64,32.06c-.88,0-1.42.54-1.42,1.65v1.73h-1.33V30.77h1.33v.94a1.43,1.43,0,0,1,1.49-1v1.38Z"/><path class="cls-1" d="M292,30.25V29.08h1.39v1.17Zm0,5.19V30.77h1.32v4.67Z"/><path class="cls-1" d="M297.26,35.44v-.68a1.71,1.71,0,0,1-1.46.76,2.19,2.19,0,0,1-2.12-2.41v0a2.18,2.18,0,0,1,2.12-2.41,1.78,1.78,0,0,1,1.46.7v-2.3h1.32v6.36Zm0-2.35a1.15,1.15,0,1,0-2.28,0v0a1.15,1.15,0,1,0,2.28,0Z"/><path class="cls-1" d="M301.16,36.85a4.44,4.44,0,0,1-2.06-.49l.45-1a3.05,3.05,0,0,0,1.58.42c.9,0,1.33-.43,1.33-1.27v-.23a1.83,1.83,0,0,1-1.52.76,2.05,2.05,0,0,1-2.08-2.18h0a2.05,2.05,0,0,1,2.08-2.18,1.86,1.86,0,0,1,1.5.7v-.61h1.33v3.61C303.77,36.14,302.9,36.85,301.16,36.85Zm1.3-4a1.08,1.08,0,0,0-1.14-1.08,1.06,1.06,0,0,0-1.13,1.08h0A1.06,1.06,0,0,0,301.32,34a1.08,1.08,0,0,0,1.14-1.08Z"/><path class="cls-1" d="M308.57,33.56h-3.25a1.09,1.09,0,0,0,1.14.92A1.54,1.54,0,0,0,307.6,34l.76.67a2.35,2.35,0,0,1-1.91.87A2.33,2.33,0,0,1,304,33.13v0a2.33,2.33,0,0,1,2.31-2.43,2.27,2.27,0,0,1,2.27,2.53v0C308.59,33.36,308.58,33.44,308.57,33.56Zm-2.25-1.82a1,1,0,0,0-1,1h2A1,1,0,0,0,306.32,31.74Z"/><path class="cls-1" d="M309,30.9a.93.93,0,0,1-.94-.94.95.95,0,1,1,.94.94Zm0-1.78a.84.84,0,1,0,.83.84A.82.82,0,0,0,309,29.12Zm.23.95.24.36h-.26l-.21-.32h-.17v.32h-.23v-1h.45c.24,0,.39.12.39.33A.3.3,0,0,1,309.27,30.07Zm-.19-.45h-.21v.3h.22c.11,0,.17-.06.17-.15S309.19,29.62,309.08,29.62Z"/><path class="cls-1" d="M300.28,26.9h-.85V25.63a8.58,8.58,0,0,0,1.64.32.15.15,0,0,0,0-.3,9.59,9.59,0,0,1-2.4-.56,9.42,9.42,0,0,1-4.3-3.07v-1.6a.15.15,0,0,0-.07-.12.14.14,0,0,0-.14,0l-2.22.84a.15.15,0,0,0-.1.15v.54a10.11,10.11,0,0,1-2.74,2.11,14.13,14.13,0,0,1-2.25.92h0l-.09,0-.52.15a13.74,13.74,0,0,1-3.12.43c-.32-.06-.67-.13-1-.22a12.83,12.83,0,0,1-2.88-1.09,9.94,9.94,0,0,1-2.66-2v-.86a.15.15,0,0,0-.1-.15l-2.22-.84a.14.14,0,0,0-.14,0,.15.15,0,0,0-.07.12v1.43A8.78,8.78,0,0,1,272,23.77a9.93,9.93,0,0,1-2.18,1.11,9.48,9.48,0,0,1-2.39.56.15.15,0,0,0-.14.16.14.14,0,0,0,.16.13,9.32,9.32,0,0,0,2.46-.58c.24-.08.48-.18.71-.28v.59a7.49,7.49,0,0,1-1.14.19.15.15,0,0,0-.14.16.16.16,0,0,0,.16.14,7.5,7.5,0,0,0,1.12-.18V26.9h-2.46a.15.15,0,0,0-.15.15.15.15,0,0,0,.15.14H274V30a.15.15,0,0,0,.15.15.16.16,0,0,0,.16-.15V27.19h1.91v3.33a.16.16,0,0,0,.15.16.16.16,0,0,0,.16-.16V27.19h15.31v1.38a.15.15,0,0,0,.15.15.15.15,0,0,0,.16-.15V27.19h1.91v3.18a.15.15,0,0,0,.15.15.15.15,0,0,0,.16-.15V27.19h5.89a.15.15,0,0,0,.15-.14A.15.15,0,0,0,300.28,26.9Zm-1.15,0h-.95V25.65a4.33,4.33,0,0,0,.62.08.15.15,0,0,0,.16-.13.17.17,0,0,0,0-.12l.22.07Zm-22.06-2.66c.31.15.62.3.95.44V26.9h-.95Zm1.24.55c.31.12.63.23.95.33V26.9h-.95Zm1.24.41.34.09c.21.06.42.1.61.14V26.9h-.95Zm1.25.29c.34.07.66.12.94.15V26.9h-.94Zm1.24.18a8.91,8.91,0,0,0,.95.06V26.9H282Zm1.24.1,1,.12v1h-1Zm1.24.15c.37,0,.62,0,.71,0h.24v.95h-1Zm1.24,0c.25,0,.57,0,.95-.09V26.9h-.95ZM287,25.8a9.43,9.43,0,0,0,.94-.17V26.9H287Zm0-.29V25.1c.32-.1.64-.21.94-.33v.56C287.62,25.41,287.3,25.46,287,25.51Zm1.24.06.25-.06.7-.2V26.9h-.95Zm1.24-.35c.32-.11.64-.22.95-.35v2h-.95Zm0-1.17c.33-.19.65-.39.95-.6v1.1c-.31.13-.62.25-.95.36Zm1.24.69.73-.35.22-.12V26.9h-.95Zm1.44-2.45a7.14,7.14,0,0,0,.76.8c-.25.19-.5.38-.76.55Zm1.91,1.36a6.9,6.9,0,0,1-.7-.54c.24-.21.48-.43.7-.65Zm.38.61c.3.18.62.35,1,.51V26.9h-1Zm1.24.64c.21.09.42.18.63.25l.32.11V26.9h-.95Zm1.24.46.95.24v1.3h-.95Zm1.85.08c-.07,0-.29,0-.61-.09v-.14l.41.16Zm-2.46-1.21a10.2,10.2,0,0,0,1.56.86v.21a11.81,11.81,0,0,1-1.45-.42c-.24-.09-.5-.19-.77-.31a.14.14,0,0,0-.12-.06h0a9.73,9.73,0,0,1-1.15-.65V22.49A8.73,8.73,0,0,0,296.33,24.23Zm-2.25-3.58V22a11,11,0,0,1-.92.88,8,8,0,0,1-1-1.09v-.45Zm-2.4,1.77v1.51l-.36.2-.59.29V23.24A10.76,10.76,0,0,0,291.68,22.42Zm-2.48,1.79V25l-.76.21-.19.05v-.62C288.57,24.51,288.89,24.37,289.2,24.21Zm-2.88,1.08.39-.1v.36c-.38.05-.7.07-.95.09v-.22Zm-.85.19v.17h-.21s-.25,0-.68,0Zm-6.4-1.09a13.48,13.48,0,0,0,2.09.87c-.36-.06-.77-.14-1.2-.25a12.93,12.93,0,0,1-2.87-1.09c-.18-.1-.37-.2-.54-.31V22.55A10.42,10.42,0,0,0,279.07,24.39Zm-4.48-1.91c.2.19.41.38.64.56-.21.19-.42.38-.64.55Zm0,1.48a10.18,10.18,0,0,0,.87-.73.18.18,0,0,1,.07.05V26.9h-.94Zm1.08-.94c.2-.21.39-.42.57-.64v1Zm.57-1.65v.57a.12.12,0,0,0-.07,0,9.66,9.66,0,0,1-.73.85,10.1,10.1,0,0,1-1.11-1.05V20.65Zm-2.22.94V24a7.66,7.66,0,0,1-.68.41V23A7.83,7.83,0,0,0,274,22.31Zm-1,1v1.27a9.1,9.1,0,0,1-.95.42V24h0A8.23,8.23,0,0,0,273.05,23.3Zm-.95,2c.33-.13.64-.26.95-.41v2h-.95Zm-1.22-.58a10.45,10.45,0,0,0,.93-.51v.88c-.34.12-.65.22-.93.29Zm0,1c.28-.08.59-.17.93-.29V26.9h-.93Zm2.46,1.2V24.75c.24-.13.46-.26.68-.4V26.9Zm2.49,0V23.49a3.62,3.62,0,0,0,.41.27V26.9Zm.72-2.95.23.13V26.9h-.23Zm15.62,0q.39-.24.75-.51V26.9h-.75Zm1.05,2.92V23.35a7.84,7.84,0,0,0,.86.66V26.9Z"/></svg>