<svg id="Layer_1" data-name="Layer 1" xmlns="http://www.w3.org/2000/svg" viewBox="0 0 508.6 64.17"><defs><style>.cls-1,.cls-2,.cls-3{fill:#fff;}.cls-2{stroke:#4e4e4e;stroke-miterlimit:10;}.cls-3{font-size:13.95px;font-family:Usual-Regular, Usual;letter-spacing:-0.06em;}.cls-4{letter-spacing:-0.07em;}.cls-5{letter-spacing:-0.08em;}.cls-6{letter-spacing:-0.06em;}.cls-7{letter-spacing:-0.07em;}</style></defs><path class="cls-1" d="M31.37,62.92A31.37,31.37,0,1,1,62.73,31.55,31.4,31.4,0,0,1,31.37,62.92Zm0-60.49A29.12,29.12,0,1,0,60.49,31.55,29.16,29.16,0,0,0,31.37,2.43Z"/><path class="cls-1" d="M21.72,23.52h3.12V41H21.72Z"/><path class="cls-1" d="M28.67,23.52h5.89a12.06,12.06,0,0,1,2.43.25,6.16,6.16,0,0,1,2.07.83,4.36,4.36,0,0,1,1.42,1.56A5.08,5.08,0,0,1,41,28.59a5.4,5.4,0,0,1-.57,2.67,4.05,4.05,0,0,1-1.53,1.57,6.37,6.37,0,0,1-2.24.76,17.51,17.51,0,0,1-2.66.2H31.79V41H28.67Zm5,7.59c.44,0,.9,0,1.38,0a4.55,4.55,0,0,0,1.32-.3,2.32,2.32,0,0,0,1-.74,2.19,2.19,0,0,0,.39-1.39,2.22,2.22,0,0,0-.35-1.3,2.38,2.38,0,0,0-.89-.74,3.86,3.86,0,0,0-1.21-.33A11.74,11.74,0,0,0,34,26.19H31.79v4.92Z"/><path class="cls-1" d="M119.19,62.9a31.35,31.35,0,1,1,31.35-31.35A31.39,31.39,0,0,1,119.19,62.9Zm0-60.45a29.11,29.11,0,1,0,29.1,29.1A29.14,29.14,0,0,0,119.19,2.45Z"/><path class="cls-1" d="M100.89,26h2.26l3,8.36L109.28,26h2.13l-4.47,11.07h-1.71Z"/><path class="cls-1" d="M112,31.58a6.48,6.48,0,0,1,.44-2.42,5.5,5.5,0,0,1,1.21-1.85,5.38,5.38,0,0,1,1.85-1.18,7.28,7.28,0,0,1,4.73,0,5.23,5.23,0,0,1,1.86,1.16,5.63,5.63,0,0,1,1.22,1.85,6.39,6.39,0,0,1,.43,2.41,6.2,6.2,0,0,1-.43,2.36,5.54,5.54,0,0,1-1.22,1.83,5.45,5.45,0,0,1-1.86,1.19,6.55,6.55,0,0,1-2.38.45,6.38,6.38,0,0,1-2.35-.42,5.21,5.21,0,0,1-1.85-1.17,5.37,5.37,0,0,1-1.21-1.82A6.16,6.16,0,0,1,112,31.58Zm2.07-.13a4.84,4.84,0,0,0,.27,1.65,3.79,3.79,0,0,0,.77,1.29,3.53,3.53,0,0,0,1.2.86,3.72,3.72,0,0,0,1.56.32,3.78,3.78,0,0,0,1.56-.32,3.35,3.35,0,0,0,1.2-.86,3.81,3.81,0,0,0,.78-1.29,4.84,4.84,0,0,0,.27-1.65,4.34,4.34,0,0,0-.27-1.54,3.87,3.87,0,0,0-.78-1.26,3.58,3.58,0,0,0-1.2-.85,3.94,3.94,0,0,0-1.56-.3,3.88,3.88,0,0,0-1.56.3,3.79,3.79,0,0,0-1.2.85,3.85,3.85,0,0,0-.77,1.26A4.34,4.34,0,0,0,114.07,31.45Z"/><path class="cls-1" d="M125.57,26h2V37.07h-2Z"/><path class="cls-1" d="M130,26h3.72a7.81,7.81,0,0,1,1.54.15,3.78,3.78,0,0,1,1.3.53,2.58,2.58,0,0,1,.9,1,3.16,3.16,0,0,1,.34,1.54,3.45,3.45,0,0,1-.36,1.69,2.5,2.5,0,0,1-1,1,3.91,3.91,0,0,1-1.42.48,10,10,0,0,1-1.68.13h-1.4v4.58h-2Zm3.15,4.8.88,0a2.86,2.86,0,0,0,.84-.19,1.45,1.45,0,0,0,.62-.47,1.42,1.42,0,0,0,.24-.88,1.45,1.45,0,0,0-.21-.82,1.53,1.53,0,0,0-.57-.47,2.58,2.58,0,0,0-.76-.21,7.88,7.88,0,0,0-.82,0h-1.4V30.8Z"/><path class="cls-1" d="M208.13,62.22A30.67,30.67,0,1,1,238.8,31.55,30.71,30.71,0,0,1,208.13,62.22Zm0-59.15a28.48,28.48,0,1,0,28.48,28.48A28.51,28.51,0,0,0,208.13,3.07Z"/><path class="cls-1" d="M298.54,64.17a32.05,32.05,0,1,1,32-32.05A32.08,32.08,0,0,1,298.54,64.17Zm0-61.8A29.76,29.76,0,1,0,328.3,32.12,29.79,29.79,0,0,0,298.54,2.37Z"/><path class="cls-1" d="M290.3,18.52c0-.56,1.05-1.22,2.39-1.22h11.12c1.34,0,2.39.66,2.39,1.22v8.36H308V18.52c0-1.7-1.85-3-4.2-3H292.69c-2.35,0-4.2,1.33-4.2,3v8.36h1.81Z"/><path class="cls-1" d="M306.2,45.73c0,.56-1.05,1.22-2.39,1.22H292.69c-1.34,0-2.39-.66-2.39-1.22V37.36h-1.81v8.37c0,1.7,1.85,3,4.2,3h11.12c2.35,0,4.2-1.33,4.2-3V37.36H306.2Z"/><path class="cls-1" d="M317.44,32.68a8.86,8.86,0,0,0-4-7.43L313,25l-1,1.52.45.29a7.06,7.06,0,0,1-.15,11.92l-.46.28,1,1.54.45-.28A8.81,8.81,0,0,0,317.44,32.68Z"/><path class="cls-1" d="M316.55,23.51l-.45-.3-1,1.52.45.3a9.13,9.13,0,0,1-.19,15.41l-.46.28,1,1.54.45-.28a10.94,10.94,0,0,0,.23-18.47Z"/><path class="cls-1" d="M281.41,32.79a6.94,6.94,0,0,1,3.31-5.94l.46-.28-1-1.55-.45.29a8.79,8.79,0,0,0-.18,14.84l.45.3,1-1.52-.45-.29A7,7,0,0,1,281.41,32.79Z"/><path class="cls-1" d="M281.66,40.48a9.24,9.24,0,0,1-4.28-8,9,9,0,0,1,4.28-7.4l.43-.26a0,0,0,0,0,0-.05l-.92-1.48s0,0-.05,0l-.42.26A10.77,10.77,0,0,0,275.57,33a11.08,11.08,0,0,0,5.12,9l.22.15s0,0,0,0l1-1.46a0,0,0,0,0,0,0Z"/><path class="cls-1" d="M290.47,36.2,290,34.45l-.59.29a3.12,3.12,0,0,1-1.19.22,1.94,1.94,0,0,1-2.07-2.19,2,2,0,0,1,2.11-2.26,2.48,2.48,0,0,1,1.13.23L290,31l.52-1.74-.39-.21a4.08,4.08,0,0,0-1.86-.36,3.92,3.92,0,0,0-4.09,4.1,3.73,3.73,0,0,0,3.9,4,5,5,0,0,0,2-.38Z"/><path class="cls-1" d="M291.25,36.68h2l.71-2.14h1.63l.73,2.14h2.07l-2.68-7.87h-1.83Zm4.59-3.36h-2l1-3.2Z"/><path class="cls-1" d="M304.92,31.14a2.24,2.24,0,0,0-.71-1.69,3.27,3.27,0,0,0-2.33-.69,9.21,9.21,0,0,0-1.79.15l-.43.09v7.68h1.95v-3h.27c.46,0,.69.11.86.9a7.52,7.52,0,0,0,.51,1.78l.15.27h2.12l-.42-.8a11.42,11.42,0,0,1-.48-1.73,2.78,2.78,0,0,0-.55-1.2A2.29,2.29,0,0,0,304.92,31.14Zm-1.65-.66a1.19,1.19,0,0,1,.23.76h0a1.17,1.17,0,0,1-.35.87,1.43,1.43,0,0,1-.92.29h-1.16V30.14l1.11,0A1.45,1.45,0,0,1,303.27,30.48Z"/><path class="cls-1" d="M313.3,32.58a3.68,3.68,0,0,0-1.12-2.83,4.38,4.38,0,0,0-3.12-1,14.21,14.21,0,0,0-1.95.14l-.45.07V36.6l.47,0a13.85,13.85,0,0,0,1.66.09,4.68,4.68,0,0,0,3.38-1.14A4.11,4.11,0,0,0,313.3,32.58Zm-2.5-1.49a2.08,2.08,0,0,1,.51,1.52A2.08,2.08,0,0,1,309,35h-.35v-4.4l.49,0A2.32,2.32,0,0,1,310.8,31.09Z"/><path class="cls-1" d="M476.55,64.17A32.05,32.05,0,1,1,508.6,32.12,32.08,32.08,0,0,1,476.55,64.17Zm0-61.8A29.76,29.76,0,1,0,506.3,32.12,29.79,29.79,0,0,0,476.55,2.37Z"/><path class="cls-1" d="M450.08,36.23l.55-.43a2.51,2.51,0,0,0,2.11,1c.93,0,1.63-.51,1.63-1.2,0-.5-.33-.79-1.32-1.18-1.19-.46-1.76-.88-1.76-1.71,0-1.06,1-1.86,2.36-1.86a2.91,2.91,0,0,1,2.27,1l-.53.48a2.29,2.29,0,0,0-1.8-.8c-1,0-1.54.54-1.54,1.13s.41.79,1.42,1.18,1.66.87,1.66,1.7a2.18,2.18,0,0,1-2.43,1.94A3.08,3.08,0,0,1,450.08,36.23Z"/><path class="cls-1" d="M456.4,32.62h.7l-.2.77a2,2,0,0,1,1.58-.87,1.32,1.32,0,0,1,1.35,1.07,2.2,2.2,0,0,1,1.9-1.07A1.38,1.38,0,0,1,463.18,34a3.5,3.5,0,0,1-.13.74l-.7,2.64h-.71l.73-2.69a3.07,3.07,0,0,0,.06-.53.91.91,0,0,0-1-1,1.92,1.92,0,0,0-1.64,1.53l-.71,2.68h-.7l.71-2.69a1.89,1.89,0,0,0,.08-.53.92.92,0,0,0-1-1,1.93,1.93,0,0,0-1.65,1.53l-.71,2.68h-.71Z"/><path class="cls-1" d="M463.08,36.15c0-1.07.89-1.72,2.11-1.72a6.24,6.24,0,0,1,1.68.26l0-.11a1.72,1.72,0,0,0,.06-.44c0-.61-.42-1-1.28-1a4.09,4.09,0,0,0-1.34.24l-.12-.58a4.23,4.23,0,0,1,1.57-.29c1.19,0,1.86.55,1.86,1.47a2.57,2.57,0,0,1-.1.65l-.71,2.69h-.69l.2-.75a2.27,2.27,0,0,1-1.77.85A1.36,1.36,0,0,1,463.08,36.15Zm3.58-.65.09-.33a5.62,5.62,0,0,0-1.54-.21c-.84,0-1.42.45-1.42,1.1s.4.85,1,.85A2,2,0,0,0,466.66,35.5Z"/><path class="cls-1" d="M468.52,32.62h.71l-.32,1.24a2.56,2.56,0,0,1,2.25-1.32l-.2.76h0a2.64,2.64,0,0,0-2.45,2.19L468,37.36h-.7Z"/><path class="cls-1" d="M471.16,36.5a2,2,0,0,1,.07-.49l.74-2.77h-.65l.16-.62h.66l.39-1.43h.7l-.39,1.43h1.5l-.17.62h-1.49L471.94,36a2.16,2.16,0,0,0,0,.35c0,.33.24.49.65.49a1.82,1.82,0,0,0,.68-.15l-.17.64a1.92,1.92,0,0,1-.75.14C471.64,37.44,471.16,37.12,471.16,36.5Z"/><path class="cls-1" d="M478.27,37.45a1.88,1.88,0,0,1-1.53-.73v.64h-1.4V30.67h1.4v2.48a1.78,1.78,0,0,1,1.53-.8,2.31,2.31,0,0,1,2.23,2.54v0A2.3,2.3,0,0,1,478.27,37.45Zm.84-2.56a1.21,1.21,0,1,0-2.39,0v0a1.21,1.21,0,1,0,2.39,0Z"/><path class="cls-1" d="M483.72,33.81c-.92,0-1.49.56-1.49,1.73v1.82h-1.39V32.44h1.39v1a1.53,1.53,0,0,1,1.57-1.08v1.46Z"/><path class="cls-1" d="M484.06,31.9V30.67h1.47V31.9Zm0,5.46V32.44h1.39v4.92Z"/><path class="cls-1" d="M489.64,37.36v-.71a1.81,1.81,0,0,1-1.53.8,2.31,2.31,0,0,1-2.24-2.54v0a2.3,2.3,0,0,1,2.24-2.54,1.88,1.88,0,0,1,1.53.74V30.67H491v6.69Zm0-2.47a1.21,1.21,0,1,0-2.4,0v0a1.21,1.21,0,1,0,2.4,0Z"/><path class="cls-1" d="M493.74,38.84a4.69,4.69,0,0,1-2.17-.51l.48-1a3.15,3.15,0,0,0,1.66.45c1,0,1.4-.46,1.4-1.34v-.23a1.92,1.92,0,0,1-1.6.79,2.16,2.16,0,0,1-2.19-2.29v0a2.17,2.17,0,0,1,2.19-2.29,2,2,0,0,1,1.58.74v-.65h1.4v3.81C496.49,38.1,495.57,38.84,493.74,38.84Zm1.37-4.2a1.2,1.2,0,0,0-2.39,0v0a1.12,1.12,0,0,0,1.19,1.14,1.14,1.14,0,0,0,1.2-1.14Z"/><path class="cls-1" d="M501.54,35.39h-3.42a1.14,1.14,0,0,0,1.2,1,1.63,1.63,0,0,0,1.2-.51l.79.71a2.43,2.43,0,0,1-2,.92,2.46,2.46,0,0,1-2.57-2.54v0a2.45,2.45,0,0,1,2.43-2.56A2.39,2.39,0,0,1,501.56,35v0C501.56,35.18,501.55,35.26,501.54,35.39Zm-2.37-1.92c-.58,0-.95.41-1.06,1.05h2.09A1,1,0,0,0,499.17,33.47Z"/><path class="cls-1" d="M502,32.59a1,1,0,1,1,1-1A1,1,0,0,1,502,32.59Zm0-1.88a.88.88,0,0,0-.88.89.86.86,0,0,0,.87.88.87.87,0,0,0,.88-.89A.86.86,0,0,0,502,30.71Zm.24,1,.26.37h-.27l-.23-.34h-.18v.34h-.23V31h.47c.25,0,.41.13.41.35A.33.33,0,0,1,502.27,31.72Zm-.19-.48h-.23v.31h.23c.12,0,.18-.06.18-.15A.16.16,0,0,0,502.08,31.24Z"/><path class="cls-1" d="M492.82,28.38h-.9V27.05a9.49,9.49,0,0,0,1.73.32.15.15,0,0,0,.17-.14.16.16,0,0,0-.15-.16,10.22,10.22,0,0,1-2.53-.6,10,10,0,0,1-4.52-3.22V21.56a.17.17,0,0,0-.07-.13.16.16,0,0,0-.15,0l-2.34.89a.15.15,0,0,0-.1.15V23a10.86,10.86,0,0,1-2.89,2.21,12.5,12.5,0,0,1-2.37,1h0a.19.19,0,0,0-.09,0,5.62,5.62,0,0,1-.55.15,14.16,14.16,0,0,1-3.28.46c-.34-.06-.71-.13-1.1-.23a13.68,13.68,0,0,1-3-1.15,10.59,10.59,0,0,1-2.8-2.1v-.91a.15.15,0,0,0-.11-.15l-2.33-.89a.16.16,0,0,0-.15,0,.17.17,0,0,0-.07.13v1.5a9.33,9.33,0,0,1-2.17,2,10.7,10.7,0,0,1-2.29,1.16,10.32,10.32,0,0,1-2.52.59.16.16,0,0,0-.15.17.16.16,0,0,0,.17.14,10.13,10.13,0,0,0,2.59-.61q.39-.13.75-.3v.62a8.78,8.78,0,0,1-1.2.21.16.16,0,0,0-.15.16.15.15,0,0,0,.17.14,7.55,7.55,0,0,0,1.18-.19v1.2H459a.15.15,0,1,0,0,.3h6.21v3a.16.16,0,0,0,.32,0v-3h2v3.51a.16.16,0,1,0,.32,0V28.68H484v1.45a.16.16,0,1,0,.32,0V28.68h2V32a.16.16,0,0,0,.16.16.17.17,0,0,0,.17-.16V28.68h6.2a.15.15,0,0,0,0-.3Zm-1.21,0h-1V27.06a6.3,6.3,0,0,0,.65.09.16.16,0,0,0,.17-.14.16.16,0,0,0-.06-.13l.24.08Zm-23.21-2.8c.32.16.65.32,1,.46v2.34h-1Zm1.3.58c.33.12.66.24,1,.34v1.88h-1Zm1.31.43.36.1.64.14v1.55h-1Zm1.31.31c.36.06.7.12,1,.15v1.33h-1Zm1.3.19c.48,0,.83.06,1,.06v1.23h-1Zm1.31.09c.37.06.71.11,1,.14v1.06h-1Zm1.31.16.75,0h.25v1h-1Zm1.3,0c.26,0,.6,0,1-.09v1.11h-1Zm1.31-.14c.31,0,.64-.1,1-.18v1.34h-1Zm0-.31v-.43c.34-.1.68-.22,1-.34v.59Zm1.31.06.26-.06.74-.2v1.67h-1Zm1.3-.36c.35-.11.68-.24,1-.37v2.14h-1Zm0-1.23c.35-.2.69-.41,1-.63V25.9a9.86,9.86,0,0,1-1,.38Zm1.31.73c.26-.12.52-.24.76-.37l.24-.13v2.77h-1Zm1.51-2.59a8,8,0,0,0,.8.85c-.26.2-.52.39-.8.57Zm2,1.44a9.25,9.25,0,0,1-.73-.58,9.33,9.33,0,0,0,.73-.68Zm.4.63a8.72,8.72,0,0,0,1,.54v2.25h-1Zm1.31.68c.22.1.44.19.67.27l.33.12v1.72h-1Zm1.31.48a9.88,9.88,0,0,0,1,.26v1.37h-1Zm1.94.09c-.07,0-.3,0-.64-.09V26.6l.43.17Zm-2.59-1.27a11.26,11.26,0,0,0,1.64.9v.22a12.27,12.27,0,0,1-1.53-.44c-.25-.09-.52-.2-.8-.33a.15.15,0,0,0-.13-.06h0a10.71,10.71,0,0,1-1.21-.68V23.74A9.41,9.41,0,0,0,488.66,25.57Zm-2.37-3.77v1.45a9.49,9.49,0,0,1-1,.93,9.71,9.71,0,0,1-1-1.15v-.47Zm-2.52,1.86v1.59l-.38.21c-.2.11-.41.21-.62.31V24.52A9.23,9.23,0,0,0,483.77,23.66Zm-2.61,1.88v.84l-.8.23-.2.05V26C480.5,25.87,480.83,25.71,481.16,25.54Zm-3,1.15.41-.12V27l-1,.1v-.23Zm-.89.19v.18H477s-.27,0-.72,0C476.59,27,476.9,27,477.24,26.88Zm-6.73-1.14a13.8,13.8,0,0,0,2.19.91c-.38-.06-.81-.15-1.26-.26a13.6,13.6,0,0,1-3-1.15,6.48,6.48,0,0,1-.57-.33V23.8A10.91,10.91,0,0,0,470.51,25.74Zm-4.73-2c.22.21.44.41.68.6-.22.2-.44.39-.68.58Zm0,1.57a8.79,8.79,0,0,0,.92-.78l.08.06v3.81h-1Zm1.15-1c.21-.21.41-.44.6-.67v1.09A6.42,6.42,0,0,1,466.93,24.29Zm.6-1.73v.6s-.06,0-.07.05a9.37,9.37,0,0,1-.78.89,11.1,11.1,0,0,1-1.17-1.1V21.8Zm-2.34,1v1.78c-.23.15-.47.29-.71.43V24.31A8.51,8.51,0,0,0,465.19,23.55Zm-1,1v1.33a9,9,0,0,1-1,.45v-1h0A12.19,12.19,0,0,0,464.17,24.59Zm-1,2.11c.34-.13.68-.27,1-.43v2.11h-1Zm-1.29-.61a10.18,10.18,0,0,0,1-.53v.93c-.35.12-.68.22-1,.3Zm0,1c.3-.08.63-.17,1-.3v1.57h-1Zm2.6,1.27V26.11c.24-.13.48-.27.71-.42v2.69Zm2.61,0V24.79l.44.29v3.3Zm.76-3.11.24.14v3h-.24Zm16.43,0c.28-.17.54-.35.8-.54v3.61h-.8Zm1.1,3.07V24.65c.29.24.59.47.91.69v3Z"/><path class="cls-1" d="M387.48,63.1A31.55,31.55,0,1,1,419,31.55,31.58,31.58,0,0,1,387.48,63.1Zm0-60.84a29.29,29.29,0,1,0,29.29,29.29A29.33,29.33,0,0,0,387.48,2.26Z"/><rect class="cls-1" x="373.79" y="12.12" width="6.84" height="6.84" rx="1.36"/><rect class="cls-1" x="382.88" y="12.12" width="6.84" height="6.84" rx="1.36"/><rect class="cls-1" x="391.97" y="12.12" width="6.84" height="6.84" rx="1.36"/><rect class="cls-1" x="373.79" y="21.69" width="6.84" height="6.84" rx="1.36"/><rect class="cls-1" x="382.88" y="21.69" width="6.84" height="6.84" rx="1.36"/><rect class="cls-1" x="391.97" y="21.69" width="6.84" height="6.84" rx="1.36"/><rect class="cls-1" x="373.79" y="31.25" width="6.84" height="6.84" rx="1.36"/><rect class="cls-1" x="382.88" y="31.25" width="6.84" height="6.84" rx="1.36"/><rect class="cls-1" x="391.97" y="31.25" width="6.84" height="6.84" rx="1.36"/><g id="g931"><g id="g1952"><g id="path923"><path class="cls-2" d="M383.4,36.71V33.83a2.46,2.46,0,0,1,2.41-2.51h0a2.45,2.45,0,0,1,2.41,2.51v3.56"/><path class="cls-2" d="M388.32,37.39h-.19V33.83a2.32,2.32,0,1,0-4.64,0v2.88h-.18V33.83a2.51,2.51,0,1,1,5,0Z"/></g><g id="path925"><path class="cls-2" d="M388.22,37.39V34.52A2.46,2.46,0,0,1,390.64,32h0a2.46,2.46,0,0,1,2.41,2.51v3.55"/><path class="cls-2" d="M393.14,38.07H393V34.52a2.32,2.32,0,1,0-4.64,0v2.87h-.19V34.52a2.51,2.51,0,1,1,5,0Z"/></g><g id="path927"><path class="cls-2" d="M393.05,38.07V35.21a2.45,2.45,0,0,1,2.41-2.51h0a2.45,2.45,0,0,1,2.41,2.51v3.54"/><path class="cls-2" d="M398,38.75h-.18V35.21a2.32,2.32,0,1,0-4.64,0v2.86H393V35.21a2.5,2.5,0,1,1,5,0Z"/></g><g id="path929"><path class="cls-2" d="M397.87,38.75l.15,7.34c.2,9.81-12.57,12.61-19,6a17.38,17.38,0,0,1-3.09-4.7l-4.55-8.82a2.46,2.46,0,0,1,.84-3.38h0a2.45,2.45,0,0,1,3.34,1s3.05,5.42,3.05,5.22V22.79A2.45,2.45,0,0,1,381,20.28h0a2.45,2.45,0,0,1,2.41,2.51V36.71"/><path class="cls-2" d="M387.75,55.78a12.43,12.43,0,0,1-8.83-3.62A16.64,16.64,0,0,1,376,47.71l-4.7-9.09a2.56,2.56,0,0,1,.87-3.51,2.44,2.44,0,0,1,1.87-.24,2.64,2.64,0,0,1,1.6,1.24c1,1.74,2.41,4.26,2.88,5V22.79a2.5,2.5,0,1,1,5,0V36.71h-.18V22.79a2.32,2.32,0,1,0-4.64,0V41.45l-.07,0c-.09,0-.17,0-3.15-5.27A2.44,2.44,0,0,0,374,35a2.27,2.27,0,0,0-1.73.23,2.38,2.38,0,0,0-.8,3.26l4.7,9.1a16.53,16.53,0,0,0,2.92,4.4,12.27,12.27,0,0,0,13.26,2.67,8.77,8.77,0,0,0,5.62-8.61l-.15-7.34H398l.15,7.34a8.92,8.92,0,0,1-5.73,8.78A11.91,11.91,0,0,1,387.75,55.78Z"/></g></g></g><text class="cls-3" transform="translate(187.92 29.35)">Calling<tspan x="-3.74" y="12.97">El</tspan><tspan class="cls-4" x="6.76" y="12.97">e</tspan><tspan class="cls-5" x="13.79" y="12.97">v</tspan><tspan class="cls-6" x="20.38" y="12.97">a</tspan><tspan class="cls-7" x="27.26" y="12.97">t</tspan><tspan x="31.43" y="12.97">or</tspan></text></svg>