<svg id="Layer_1" data-name="Layer 1" xmlns="http://www.w3.org/2000/svg" viewBox="0 0 543.14 38.33"><defs><style>.cls-1{fill:#fff;}</style></defs><path class="cls-1" d="M25.63,37.17H18.21V31.92A3,3,0,0,0,17,29.56a8.14,8.14,0,0,1,3.19-14.42h0a8.17,8.17,0,0,1,9.92,8,8,8,0,0,1-3.24,6.46A3,3,0,0,0,25.63,32Zm-7-.44H25.2V32a3.39,3.39,0,0,1,1.4-2.71,7.69,7.69,0,0,0,.19-12.13,7.74,7.74,0,0,0-6.52-1.54h0a7.71,7.71,0,0,0-5.7,5.23h0a6.13,6.13,0,0,0-.21.87,7.69,7.69,0,0,0,2.9,7.54,3.44,3.44,0,0,1,1.39,2.71Z"/><path class="cls-1" d="M25.88,37.41H18V31.92a2.76,2.76,0,0,0-1.12-2.17,8.39,8.39,0,1,1,10.16,0A2.73,2.73,0,0,0,25.88,32Zm-7-.92H25V32A3.67,3.67,0,0,1,26.45,29a7.43,7.43,0,0,0,.19-11.74,7.46,7.46,0,0,0-11.83,3.54v0a8.52,8.52,0,0,0-.2.84A7.46,7.46,0,0,0,17.4,29a3.65,3.65,0,0,1,1.49,2.9Z"/><rect class="cls-1" x="21.69" y="1.2" width="0.42" height="10.8"/><rect class="cls-1" x="21.45" y="0.96" width="0.91" height="11.28"/><rect class="cls-1" x="32.31" y="22.76" width="10.8" height="0.42"/><rect class="cls-1" x="32.07" y="22.52" width="11.28" height="0.91"/><rect class="cls-1" x="0.7" y="22.76" width="10.8" height="0.42"/><rect class="cls-1" x="0.46" y="22.52" width="11.28" height="0.91"/><polygon class="cls-1" points="27.43 13.38 27.07 13.16 32.68 3.94 33.05 4.16 27.43 13.38"/><polygon class="cls-1" points="27.51 13.71 26.73 13.24 32.6 3.61 33.38 4.08 27.51 13.71"/><rect class="cls-1" x="30.69" y="14.7" width="10.79" height="0.42" transform="translate(-2.55 20.54) rotate(-30.74)"/><rect class="cls-1" x="30.45" y="14.46" width="11.27" height="0.91" transform="translate(-2.55 20.54) rotate(-30.74)"/><polygon class="cls-1" points="16.46 13.38 10.84 4.16 11.2 3.94 16.82 13.16 16.46 13.38"/><polygon class="cls-1" points="16.38 13.71 10.51 4.08 11.28 3.61 17.15 13.24 16.38 13.71"/><rect class="cls-1" x="7.59" y="9.51" width="0.42" height="10.79" transform="translate(-9 14.01) rotate(-59.31)"/><rect class="cls-1" x="7.34" y="9.27" width="0.91" height="11.27" transform="translate(-9 14.01) rotate(-59.31)"/><path class="cls-1" d="M96,5.55V2.68H79.18l.1.34a22.57,22.57,0,0,0,5.77,10.15c-.91,15.39,9.42,22.2,9.53,22.26l.4.26V17.94c.4,0,.65,0,.7,0H96V5.55ZM94.45,34.7C92.6,33.3,85,26.54,85.54,13.6a17,17,0,0,0,8.93,4.28Zm1-17.25a15.36,15.36,0,0,1-6.09-1.75c-3.08-1.62-7.21-5.1-9.46-12.49H95.43Z"/><path class="cls-1" d="M95.22,36.13l-.77-.49a21,21,0,0,1-5.22-5.45,25.25,25.25,0,0,1-3.32-7,28.72,28.72,0,0,1-1.1-9.94A23.16,23.16,0,0,1,79,3.09l-.18-.65H96.19V18.22h-.51l-.46,0ZM79.5,2.92V3A22.52,22.52,0,0,0,85.22,13l.08.07v.11a28.37,28.37,0,0,0,1.07,9.88,24.82,24.82,0,0,0,3.26,6.85,20.46,20.46,0,0,0,5.08,5.32l0,0V17.67l.26,0,.68,0h0V2.92ZM94.7,35.19l-.39-.3a22.36,22.36,0,0,1-5.42-6.29,26.78,26.78,0,0,1-3.59-15l0-.51.38.35c.24.21.48.42.72.61A21.54,21.54,0,0,1,79.65,3.28L79.55,3H95.67V17.7h-.25a15.35,15.35,0,0,1-5.77-1.57,15.89,15.89,0,0,0,4.85,1.52l.21,0ZM85.76,14.12a26.17,26.17,0,0,0,3.55,14.24,22.58,22.58,0,0,0,4.9,5.84l0-16.11A17.2,17.2,0,0,1,85.76,14.12ZM80.21,3.45c2.25,7.11,6.26,10.47,9.25,12a15.16,15.16,0,0,0,5.73,1.71V3.45Z"/><path class="cls-1" d="M59.57,6.08V18h.29c.09,0,.33,0,.68,0V35.69l.4-.26c.11-.06,10.43-6.86,9.53-22.24A22.83,22.83,0,0,0,76.24,3l.1-.34H59.57v3.4Zm1.5,28.62V17.89a16.3,16.3,0,0,0,5.33-1.72c.44-.23.91-.51,1.39-.82A14.59,14.59,0,0,0,70,13.71C70.54,26.7,62.92,33.29,61.07,34.7Zm-1-31.49H75.64a22.16,22.16,0,0,1-5.22,9.25h0l0,.05a17,17,0,0,1-3.17,2.56c-.25.15-.49.3-.77.45l-.08,0a18.79,18.79,0,0,1-5.51,1.83c-.31,0-.59.06-.76.07Z"/><path class="cls-1" d="M60.3,36.13V18.21h-1V2.44H76.66l-.18.65a23.4,23.4,0,0,1-5.77,10.19,28.69,28.69,0,0,1-1.1,9.93,25.21,25.21,0,0,1-3.33,7,21.38,21.38,0,0,1-5.2,5.45Zm.48-18.45V35.25l0,0a20.49,20.49,0,0,0,5.08-5.31,24.65,24.65,0,0,0,3.25-6.85,28.34,28.34,0,0,0,1.09-9.87v-.11L70.3,13A22.73,22.73,0,0,0,76,3v0H59.81V17.74h0c.06,0,.3,0,.66,0Zm0,17.51V17.68l.21,0A15.79,15.79,0,0,0,66.28,16a15.25,15.25,0,0,0,1.38-.81,14.31,14.31,0,0,0,2.15-1.62l.38-.36,0,.53a26.34,26.34,0,0,1-3.57,15,22.09,22.09,0,0,1-5.43,6.22Zm.49-17.09V34.21a22.64,22.64,0,0,0,4.91-5.78,25.74,25.74,0,0,0,3.53-14.2,16,16,0,0,1-1.83,1.32c-.5.33-1,.61-1.41.84A16.63,16.63,0,0,1,61.31,18.1Zm-1.46-.4V3H76l-.1.32a22.66,22.66,0,0,1-5.27,9.35l-.38.38h0a17,17,0,0,1-2.88,2.26l-.14.09c-.2.12-.41.25-.65.37l-.07,0a18.77,18.77,0,0,1-5.59,1.85h0l-.77.08Zm.48-14.25V17.19l.49-.05a18.67,18.67,0,0,0,5.43-1.81l.07,0c.23-.12.42-.24.63-.36l.14-.09a17,17,0,0,0,3.11-2.51l.42-.48v0a22.35,22.35,0,0,0,4.68-8.45Z"/><rect class="cls-1" x="74.99" y="5.52" width="5.53" height="0.52"/><path class="cls-1" d="M80.76,6.29h-6v-1h6Zm-5.53-.48h5v0h-5Z"/><path class="cls-1" d="M124,19.16h-.46a8.75,8.75,0,0,1,8.67-8.73v.46A8.27,8.27,0,0,0,124,19.16Z"/><path class="cls-1" d="M124.23,19.4h-.94v-.24a9,9,0,0,1,8.91-9h.24v.94h-.24a8,8,0,0,0-8,8Z"/><path class="cls-1" d="M132.2,27.89a8.75,8.75,0,0,1-8.67-8.73H124a8.27,8.27,0,0,0,8.21,8.27Z"/><path class="cls-1" d="M132.44,28.13h-.24a9,9,0,0,1-8.91-9v-.24h.94v.24a8,8,0,0,0,8,8h.24Z"/><rect class="cls-1" x="134.1" y="3.71" width="0.48" height="30.59"/><rect class="cls-1" x="134.12" y="3.71" width="0.45" height="30.59"/><rect class="cls-1" x="133.87" y="3.47" width="0.93" height="31.07"/><line class="cls-1" x1="141.76" y1="33.56" x2="134.34" y2="26.82"/><rect class="cls-1" x="137.81" y="25.18" width="0.48" height="10.02" transform="translate(22.92 112.13) rotate(-47.77)"/><polygon class="cls-1" points="141.61 33.72 134.19 26.99 134.49 26.66 141.91 33.39 141.61 33.72"/><polygon class="cls-1" points="141.62 34.06 133.85 27.01 134.48 26.32 142.25 33.37 141.62 34.06"/><line class="cls-1" x1="141.76" y1="3.7" x2="134.34" y2="10.61"/><rect class="cls-1" x="132.98" y="6.91" width="10.14" height="0.48" transform="translate(32.19 96.05) rotate(-42.99)"/><polygon class="cls-1" points="134.5 10.78 134.19 10.44 141.61 3.53 141.91 3.86 134.5 10.78"/><polygon class="cls-1" points="134.48 11.12 133.85 10.43 141.62 3.19 142.25 3.88 134.48 11.12"/><line class="cls-1" x1="144.28" y1="5.52" x2="141.76" y2="14.83"/><rect class="cls-1" x="138.19" y="9.93" width="9.65" height="0.48" transform="translate(95.86 145.58) rotate(-74.87)"/><polygon class="cls-1" points="141.98 14.89 141.54 14.78 144.06 5.46 144.5 5.58 141.98 14.89"/><polygon class="cls-1" points="142.15 15.19 141.25 14.95 143.89 5.16 144.79 5.41 142.15 15.19"/><path class="cls-1" d="M147.49,27.31l-13.05-8.2a.37.37,0,0,1,0-.64l13.61-7.26.21.4L134.79,18.8l12.94,8.13Z"/><path class="cls-1" d="M147.57,27.65l-13.26-8.34a.59.59,0,0,1-.29-.54.63.63,0,0,1,.32-.52l13.83-7.37.43.83-13.33,7.11,12.79,8Z"/><line class="cls-1" x1="151.3" y1="17.93" x2="141.76" y2="14.83"/><rect class="cls-1" x="146.29" y="11.37" width="0.48" height="10.03" transform="translate(85.76 150.72) rotate(-72.04)"/><rect class="cls-1" x="146.3" y="11.37" width="0.45" height="10.03" transform="translate(85.77 150.72) rotate(-72.04)"/><rect class="cls-1" x="146.06" y="11.13" width="0.94" height="10.51" transform="translate(85.77 150.72) rotate(-72.04)"/><polygon class="cls-1" points="143.48 32.91 140.98 22.96 150.91 20.49 151.02 20.93 141.53 23.29 143.92 32.8 143.48 32.91"/><polygon class="cls-1" points="143.31 33.2 140.69 22.79 151.09 20.2 151.31 21.11 141.82 23.47 144.21 32.98 143.31 33.2"/><rect class="cls-1" x="131.8" y="4.9" width="0.48" height="2.85"/><rect class="cls-1" x="126.48" y="2.64" width="0.45" height="6.21" transform="translate(8.64 52.1) rotate(-24.03)"/><rect class="cls-1" x="126.24" y="2.4" width="0.93" height="6.69" transform="translate(8.64 52.1) rotate(-24.03)"/><polygon class="cls-1" points="123.92 11.37 121.88 9.38 122.19 9.06 124.23 11.05 123.92 11.37"/><polygon class="cls-1" points="123.92 11.71 121.53 9.39 122.19 8.71 124.57 11.04 123.92 11.71"/><rect class="cls-1" x="118.59" y="10.59" width="0.45" height="6.21" transform="translate(59.9 117.79) rotate(-67.07)"/><rect class="cls-1" x="118.35" y="10.35" width="0.94" height="6.69" transform="translate(59.9 117.79) rotate(-67.07)"/><rect class="cls-1" x="118" y="19.13" width="2.85" height="0.45"/><rect class="cls-1" x="117.76" y="18.89" width="3.33" height="0.93"/><polygon class="cls-1" points="116.11 26.18 115.93 25.77 121.59 23.23 121.78 23.65 116.11 26.18"/><polygon class="cls-1" points="115.99 26.5 115.61 25.65 121.72 22.92 122.1 23.77 115.99 26.5"/><polygon class="cls-1" points="122.48 29.54 122.16 29.23 124.11 27.16 124.44 27.47 122.48 29.54"/><polygon class="cls-1" points="122.49 29.89 121.81 29.24 124.1 26.82 124.78 27.46 122.49 29.89"/><rect class="cls-1" x="123.67" y="32.38" width="6.22" height="0.45" transform="translate(48.01 137.16) rotate(-67.43)"/><rect class="cls-1" x="123.43" y="32.14" width="6.7" height="0.93" transform="translate(48.03 137.17) rotate(-67.44)"/><rect class="cls-1" x="132.21" y="30.57" width="0.48" height="2.85"/><path class="cls-1" d="M196.39,27l-.42-.28a4.47,4.47,0,0,0,.72-2.53,4.78,4.78,0,0,0-.72-2.54l.42-.28a5.23,5.23,0,0,1,.81,2.82A4.93,4.93,0,0,1,196.39,27Z"/><path class="cls-1" d="M196.46,27.3l-.82-.54.13-.2a4.27,4.27,0,0,0,.68-2.4,4.5,4.5,0,0,0-.68-2.41l-.13-.2.82-.54.13.2a5.54,5.54,0,0,1,.85,2.95,5.21,5.21,0,0,1-.85,2.94Zm-.16-.68h0a4.83,4.83,0,0,0,.64-2.47,5.17,5.17,0,0,0-.64-2.48h0a5.12,5.12,0,0,1,.63,2.47A4.77,4.77,0,0,1,196.3,26.62Z"/><path class="cls-1" d="M201.11,29.62l-.44-.24A10.89,10.89,0,0,0,202,24.16a10.17,10.17,0,0,0-1.37-5.1l.44-.25a10.56,10.56,0,0,1,1.43,5.35A11.42,11.42,0,0,1,201.11,29.62Z"/><path class="cls-1" d="M201.21,30l-.87-.47.12-.21a10.8,10.8,0,0,0,1.34-5.11,9.94,9.94,0,0,0-1.34-5l-.12-.2.85-.5.13.2a11,11,0,0,1,1.46,5.48,11.65,11.65,0,0,1-1.46,5.58Zm-.22-.66h0a11.09,11.09,0,0,0,1.29-5.14,10.38,10.38,0,0,0-1.28-5h0a10.34,10.34,0,0,1,1.28,5A11.08,11.08,0,0,1,201,29.29Z"/><path class="cls-1" d="M205.81,32.18l-.43-.25a15.26,15.26,0,0,0,0-15.55l.43-.25a15.74,15.74,0,0,1,0,16.05Z"/><path class="cls-1" d="M205.9,32.51l-.85-.5.12-.2a15,15,0,0,0,0-15.3l-.12-.21.85-.5L206,16a16,16,0,0,1,0,16.29Zm-.19-.67h0a15.53,15.53,0,0,0,0-15.39h0a15.5,15.5,0,0,1,0,15.37Z"/><path class="cls-1" d="M192.74,36.06H170.92V17.59h2.35V10.87a8.57,8.57,0,0,1,8.56-8.56h.22a8.46,8.46,0,0,1,8.33,8.56v6.72h2.36Zm-21.32-.5h20.81V18.09h-2.35V10.87a8,8,0,0,0-7.83-8.06h-.22a8.07,8.07,0,0,0-8.06,8.06v7.22h-2.35Z"/><path class="cls-1" d="M193,36.31H170.67v-19H173V10.87a8.81,8.81,0,0,1,8.8-8.8h.22a8.7,8.7,0,0,1,8.57,8.8v6.48H193Zm-21.82-.49H192.5v-18h-2.36v-7a8.22,8.22,0,0,0-8.09-8.32h-.22a8.33,8.33,0,0,0-8.32,8.32v7h-2.35Zm21.32,0h-21.3V17.85h2.35v-7a8.31,8.31,0,0,1,8.3-8.3h.22a8.2,8.2,0,0,1,8.07,8.3v7h2.36Zm-20.82-.48H192v-17h-2.35V10.87a7.72,7.72,0,0,0-7.59-7.82h-.22A7.82,7.82,0,0,0,174,10.87v7.46h-2.36Z"/><path class="cls-1" d="M184.43,32h-5.2l.92-4.83a2.82,2.82,0,0,1-1.48-2,3,3,0,0,1,.91-2.61,3.74,3.74,0,0,1,2.31-.75,3.28,3.28,0,0,1,2.07.74,2.72,2.72,0,0,1,.49,3.82,6.25,6.25,0,0,1-.83.76Zm-4.59-.5h4l-.77-4.59.14-.09a6,6,0,0,0,.86-.75,2.23,2.23,0,0,0-.44-3.12,2.79,2.79,0,0,0-1.74-.61,3.22,3.22,0,0,0-2,.62,2.4,2.4,0,0,0-.75,2.14,2.36,2.36,0,0,0,1.37,1.7l.18.08Z"/><path class="cls-1" d="M184.72,32.26h-5.78l.94-4.95a3.05,3.05,0,0,1-1.45-2.06,3.24,3.24,0,0,1,1-2.82h0a3.91,3.91,0,0,1,2.46-.81,3.54,3.54,0,0,1,2.22.79h0a3,3,0,0,1,.53,4.14l0,0a10,10,0,0,1-.74.69Zm-5.2-.48h4.63l-.79-4.72.12-.09a9,9,0,0,0,.79-.71,2.51,2.51,0,0,0-.47-3.49,3.08,3.08,0,0,0-1.91-.67,3.51,3.51,0,0,0-2.14.68,2.71,2.71,0,0,0-.84,2.38A2.56,2.56,0,0,0,180.27,27l.15.08Zm4.6,0h-4.57l.9-4.72h0a2.57,2.57,0,0,1-1.51-1.88,2.65,2.65,0,0,1,.82-2.35l0,0a3.42,3.42,0,0,1,2.12-.67,3,3,0,0,1,1.89.66h0a2.48,2.48,0,0,1,.48,3.44l0,0a6,6,0,0,1-.9.78h0Zm-4-.49h3.42l-.74-4.46.27-.17a5.71,5.71,0,0,0,.81-.71,2,2,0,0,0-.41-2.77,2.55,2.55,0,0,0-1.59-.56,2.93,2.93,0,0,0-1.81.56,2.21,2.21,0,0,0-.68,1.92,2.12,2.12,0,0,0,1.24,1.52l.35.16Z"/><rect class="cls-1" x="173.52" y="17.59" width="16.61" height="0.5"/><path class="cls-1" d="M190.37,18.33H173.28v-1h17.09Zm-16.61-.48h16.13v0H173.76Z"/><path class="cls-1" d="M245.31,23.36A4.4,4.4,0,0,1,241,18.93V12.5a4.37,4.37,0,1,1,8.73,0v6.43A4.41,4.41,0,0,1,245.31,23.36Zm0-14.86a4,4,0,0,0-3.94,4v6.43a3.95,3.95,0,1,0,7.89,0V12.5A4,4,0,0,0,245.31,8.5Z"/><path class="cls-1" d="M245.31,23.6a4.64,4.64,0,0,1-4.6-4.67V12.5a4.61,4.61,0,1,1,9.21,0v6.43A4.64,4.64,0,0,1,245.31,23.6Zm0-14.86a3.74,3.74,0,0,0-3.7,3.76v6.43a3.71,3.71,0,1,0,7.41,0V12.5A3.74,3.74,0,0,0,245.31,8.74Z"/><path class="cls-1" d="M245.31,26.25a7,7,0,0,1-7-7h.42a6.61,6.61,0,1,0,13.21,0h.42A7,7,0,0,1,245.31,26.25Z"/><path class="cls-1" d="M245.31,26.49a7.28,7.28,0,0,1-7.26-7.28V19H239v.24a6.36,6.36,0,1,0,12.71,0V19h.91v.24A7.29,7.29,0,0,1,245.31,26.49Z"/><rect class="cls-1" x="239.7" y="27.68" width="11.23" height="0.42"/><rect class="cls-1" x="239.46" y="27.44" width="11.71" height="0.91"/><path class="cls-1" d="M245.31,37.66a18.48,18.48,0,1,1,18.46-18.47A18.48,18.48,0,0,1,245.31,37.66Zm0-36.53a18.06,18.06,0,1,0,18,18.06A18.07,18.07,0,0,0,245.31,1.13Z"/><path class="cls-1" d="M245.31,37.9A18.72,18.72,0,1,1,264,19.19,18.72,18.72,0,0,1,245.31,37.9Zm0-36.53a17.82,17.82,0,1,0,17.8,17.82A17.83,17.83,0,0,0,245.31,1.37Z"/><rect class="cls-1" x="245.07" y="25.98" width="0.48" height="2.04"/><rect class="cls-1" x="245.08" y="25.98" width="0.47" height="2.04"/><rect class="cls-1" x="244.84" y="25.74" width="0.95" height="2.52"/><path class="cls-1" d="M315.59,36.1h-5.28a1.35,1.35,0,0,1-1-.46c-1.34-1.47-1-6.06-1-6.58.45-5.42-.39-9.46-6-12.85a19.46,19.46,0,0,0-5.66-2.32,36,36,0,0,1,.7,5.92c.09,1.47.18,3,.41,4.46.65,4.12,3.31,6.67,7,6.69.09-4.61-1.69-8.89-5.28-12.73l.31-.29c3.72,4,5.54,8.43,5.39,13.23v.21h-.38c-3.9,0-6.73-2.69-7.42-7-.23-1.48-.33-3-.42-4.49a33,33,0,0,0-.76-6.19l-.09-.35.35.09a20.31,20.31,0,0,1,6.1,2.46c5.75,3.49,6.63,7.82,6.18,13.25,0,.19-.38,4.89.87,6.25a.91.91,0,0,0,.7.33h5.28a.45.45,0,0,0,.43-.43V20.46H320c.26,0,.44-.09.5-.24s0-.34-.21-.51l-8.5-7.62V5.27a.45.45,0,0,0-.43-.42h-4.26a.44.44,0,0,0-.43.42V7.48l-5.22-4.7a.5.5,0,0,0-.58,0L282.09,19.65c-.19.18-.27.37-.21.52s.24.23.5.23h4.3V35.15a.45.45,0,0,0,.43.43h18.42V36H287.11a.88.88,0,0,1-.86-.85V20.83h-3.87a.9.9,0,0,1-.9-.51.89.89,0,0,1,.33-1L300.54,2.47a.9.9,0,0,1,1.14,0l4.52,4V5.27a.86.86,0,0,1,.85-.85h4.26a.88.88,0,0,1,.85.85V11.9l8.36,7.49a.89.89,0,0,1,.33,1,.9.9,0,0,1-.9.51h-3.51V35.25A.86.86,0,0,1,315.59,36.1Z"/><path class="cls-1" d="M315.59,36.34h-5.28a1.58,1.58,0,0,1-1.19-.54c-.61-.66-1-1.93-1.08-3.79a24.09,24.09,0,0,1,0-3c.45-5.33-.38-9.3-5.85-12.63A18.75,18.75,0,0,0,297,14.23a38.52,38.52,0,0,1,.62,5.53v0c.08,1.39.18,3,.41,4.43A8.29,8.29,0,0,0,300.32,29a6.31,6.31,0,0,0,4.2,1.73A17.58,17.58,0,0,0,299.3,18.4l-.16-.18.66-.62.16.18c3.77,4,5.61,8.54,5.46,13.4v.43h-.61c-4,0-7-2.78-7.66-7.25-.23-1.5-.33-3-.42-4.51v0a32.32,32.32,0,0,0-.76-6.13l-.18-.74.73.19a20.55,20.55,0,0,1,6.18,2.48c5.85,3.56,6.74,8,6.29,13.48-.11,1.32-.18,5,.81,6.06a.65.65,0,0,0,.52.26h5.28a.2.2,0,0,0,.18-.19v-15H320c.18,0,.27-.05.28-.08s0-.12-.15-.24l-8.59-7.69V5.27a.19.19,0,0,0-.18-.18h-4.26a.2.2,0,0,0-.19.18V8L301.24,3A.27.27,0,0,0,301,3L282.25,19.83c-.13.13-.16.22-.14.25s.09.08.27.08h4.54v15a.21.21,0,0,0,.19.19h18.66v.9H287.11a1.12,1.12,0,0,1-1.1-1.09V21.07h-3.63a1.05,1.05,0,0,1-.74-1.91L300.38,2.29a1.16,1.16,0,0,1,1.46,0L306,6V5.27a1.11,1.11,0,0,1,1.09-1.09h4.26a1.12,1.12,0,0,1,1.09,1.09v6.52l8.28,7.42a1.05,1.05,0,0,1-.73,1.91h-3.27V35.25A1.1,1.1,0,0,1,315.59,36.34Z"/><polygon class="cls-1" points="370.87 30.63 358.07 15.9 358.5 15.66 371.23 30.32 370.87 30.63"/><polygon class="cls-1" points="370.83 31.12 370.61 30.86 357.53 15.8 358.58 15.22 371.72 30.35 370.83 31.12"/><polygon class="cls-1" points="354.61 16.6 354.67 16.1 373.74 12.57 373.83 13.04 354.61 16.6"/><polygon class="cls-1" points="354.21 17.03 354.35 15.81 374.02 12.17 374.23 13.32 354.21 17.03"/><polygon class="cls-1" points="353.51 19.89 353.1 19.64 359.75 1.39 360.19 1.56 353.51 19.89"/><polygon class="cls-1" points="353.69 20.41 352.67 19.78 359.54 0.95 360.64 1.35 353.69 20.41"/><polygon class="cls-1" points="355.34 22.78 343.02 7.78 343.39 7.48 355.77 22.55 355.34 22.78"/><polygon class="cls-1" points="355.25 23.22 342.53 7.73 343.44 6.99 356.3 22.66 355.25 23.22"/><polygon class="cls-1" points="340.02 25.45 339.94 24.98 359.19 21.97 359.19 22.45 340.02 25.45"/><polygon class="cls-1" points="339.73 25.85 339.55 24.69 359.53 21.56 359.53 22.75 339.73 25.85"/><polygon class="cls-1" points="353.7 37.01 353.26 36.84 360.47 18.63 360.85 18.96 353.7 37.01"/><polygon class="cls-1" points="353.9 37.46 352.81 37.03 360.32 18.05 361.26 18.86 353.9 37.46"/><path class="cls-1" d="M357,37.54a18.35,18.35,0,1,1,18.33-18.35A18.36,18.36,0,0,1,357,37.54Zm0-36.23a17.88,17.88,0,1,0,17.85,17.88A17.89,17.89,0,0,0,357,1.31Z"/><path class="cls-1" d="M357,37.88a18.7,18.7,0,1,1,18.67-18.69A18.7,18.7,0,0,1,357,37.88Zm0-36.22a17.53,17.53,0,1,0,17.5,17.53A17.53,17.53,0,0,0,357,1.66Z"/><path class="cls-1" d="M396.23,2.53V35.84H429.5V2.53ZM429,35.33H396.75V3.05H429Z"/><path class="cls-1" d="M429.83,36.17H395.91v-34h33.92ZM397.08,35h31.58V3.37H397.08Z"/><rect class="cls-1" x="412.38" y="6.53" width="0.52" height="12.65"/><rect class="cls-1" x="412.05" y="6.21" width="1.17" height="13.31"/><path class="cls-1" d="M412.64,29.89a9.89,9.89,0,0,1-5.1-18.36l.29.47a9.33,9.33,0,1,0,9.64,0l.29-.47a9.89,9.89,0,0,1-5.12,18.34Z"/><path class="cls-1" d="M412.64,30.21a10.22,10.22,0,0,1-5.27-19l.28-.17.63,1-.28.16a9,9,0,1,0,9.3,0l-.28-.17.63-1,.28.17a10.21,10.21,0,0,1-5.29,18.94Z"/><path class="cls-1" d="M484.11,26.24H453.33c-.33,0-1.09-.18-1.09-1.86,0-2.09,1.23-5.81,3.93-9a16.33,16.33,0,0,1,25.1,0c2.71,3.22,3.94,6.94,3.94,9C485.21,26.06,484.44,26.24,484.11,26.24ZM468.72,10a15.46,15.46,0,0,0-12.14,5.69c-2.62,3.12-3.81,6.69-3.81,8.69,0,.31,0,1.33.56,1.33h30.78c.52,0,.57-1,.57-1.33,0-2-1.2-5.57-3.81-8.69A15.48,15.48,0,0,0,468.72,10Z"/><path class="cls-1" d="M484.11,26.61H453.33c-.34,0-1.47-.16-1.47-2.23s1.26-6,4-9.27a16.71,16.71,0,0,1,25.67,0c2.76,3.3,4,7.11,4,9.27S484.45,26.61,484.11,26.61ZM468.72,10.37a15.09,15.09,0,0,0-11.86,5.56c-2.56,3.05-3.72,6.52-3.72,8.45a1.54,1.54,0,0,0,.2,1h30.77a1.58,1.58,0,0,0,.19-.95c0-1.93-1.16-5.4-3.72-8.45A15.08,15.08,0,0,0,468.72,10.37Z"/><path class="cls-1" d="M488.68,33.41H448.77a1,1,0,0,1-.91-.44,1,1,0,0,1,0-1l2.95-3.57a1.34,1.34,0,0,1,.85-.5h34.08a1.39,1.39,0,0,1,.89.54l2.88,3.48a1,1,0,0,1,.06,1.06A1,1,0,0,1,488.68,33.41Zm-37-5a1,1,0,0,0-.41.25l-2.95,3.57a.49.49,0,0,0,0,.44.51.51,0,0,0,.46.19h39.91a.51.51,0,0,0,.45-.19.5.5,0,0,0,0-.48l-2.89-3.48a.94.94,0,0,0-.44-.3Z"/><path class="cls-1" d="M488.68,33.78H448.77a1.36,1.36,0,0,1-1.23-.62,1.39,1.39,0,0,1,0-1.37l0,0,2.95-3.59a1.73,1.73,0,0,1,1.16-.65h34.08a1.69,1.69,0,0,1,1.19.7l2.89,3.48,0,0a1.39,1.39,0,0,1,0,1.42A1.36,1.36,0,0,1,488.68,33.78Zm-40-1.26Zm0,0a.31.31,0,0,0,.13,0h39.91l.12,0a.2.2,0,0,0,0-.08l-2.88-3.48a.78.78,0,0,0-.19-.13h-34a.78.78,0,0,0-.18.11h0l-2.9,3.53A.06.06,0,0,0,448.64,32.49Z"/><rect class="cls-1" x="468.45" y="5.1" width="0.53" height="4.56"/><rect class="cls-1" x="468.08" y="4.73" width="1.27" height="5.3"/><rect class="cls-1" x="465.53" y="4.96" width="6.38" height="0.53"/><rect class="cls-1" x="465.16" y="4.59" width="7.12" height="1.27"/><rect class="cls-1" x="518.68" y="12.7" width="19.36" height="0.46"/><rect class="cls-1" x="518.37" y="12.39" width="19.99" height="1.1"/><rect class="cls-1" x="520.83" y="17.65" width="15.17" height="0.46"/><rect class="cls-1" x="520.52" y="17.33" width="15.8" height="1.1"/><path class="cls-1" d="M535.18,27.78a3.66,3.66,0,0,0-3.64,3.44h-6.16a3.67,3.67,0,0,0-3.65-3.44,3.82,3.82,0,0,0-.68.07l-1.66-5h19.2l3.25-13.66-.45-.11-3.16,13.3h-19L513.09,5.55a1.9,1.9,0,0,0-.75-.71l-4.88-1.51-.14.44,4.88,1.51a2,2,0,0,1,.45.43l6.2,17h0L520.6,28a3.66,3.66,0,1,0,4.78,3.7h6.16a3.66,3.66,0,1,0,3.64-3.9Zm-13.45,6.88a3.21,3.21,0,1,1,3.21-3.21A3.21,3.21,0,0,1,521.73,34.66Zm13.45,0a3.21,3.21,0,1,1,3.21-3.21A3.21,3.21,0,0,1,535.18,34.66Z"/><path class="cls-1" d="M535.18,35.44A4,4,0,0,1,531.25,32h-5.59a4,4,0,1,1-5.46-4.21l-1.65-5L512.37,5.86a4.11,4.11,0,0,0-.3-.29L506.93,4l.32-1,5.19,1.61a2.09,2.09,0,0,1,.95.91l6.07,16.6H538l3.17-13.37,1.07.25-3.38,14.22h-19l1.43,4.35a2.56,2.56,0,0,1,.47,0,4,4,0,0,1,3.93,3.44h5.59a4,4,0,1,1,3.93,4.54Zm0-6.88a2.89,2.89,0,1,0,2.89,2.89A2.89,2.89,0,0,0,535.18,28.56Zm-13.45,0a2.89,2.89,0,1,0,2.89,2.89A2.89,2.89,0,0,0,521.73,28.56Z"/></svg>