<svg id="Layer_1" data-name="Layer 1" xmlns="http://www.w3.org/2000/svg" viewBox="0 0 85 85"><defs><style>.cls-1{fill:#29a8e0;opacity:0.5;}.cls-2{fill:#fff;}</style></defs><circle class="cls-1" cx="42.5" cy="42.5" r="42.5"/><path class="cls-2" d="M62.5,32.25c0-1.22,0-2.38,0-3.5a1.59,1.59,0,0,0-1.59-1.59c-6.79,0-12-1.95-16.26-6.14a1.6,1.6,0,0,0-2.22,0c-4.3,4.19-9.47,6.14-16.26,6.14a1.59,1.59,0,0,0-1.59,1.59c0,1.12,0,2.28,0,3.5-.22,11.4-.52,27,18.48,33.58a1.54,1.54,0,0,0,.52.09,1.58,1.58,0,0,0,.52-.09C63,59.25,62.72,43.64,62.5,32.25Zm-3.17.06c.22,11.45.46,24.42-15.83,30.34-16.29-5.92-16-18.88-15.83-30.34,0-.69,0-1.35,0-2a24.5,24.5,0,0,0,15.79-6"/><path class="cls-2" d="M49,37.73,41.3,45.39,38,42.13a1.59,1.59,0,0,0-2.25,2.24l4.39,4.39a1.58,1.58,0,0,0,2.25,0L51.21,40A1.59,1.59,0,1,0,49,37.73Z"/></svg>