<svg id="Layer_1" data-name="Layer 1" xmlns="http://www.w3.org/2000/svg" viewBox="0 0 85 85"><defs><style>.cls-1{fill:#f3911f;opacity:0.5;}.cls-2{fill:none;stroke:#fff;stroke-miterlimit:10;stroke-width:2.5px;fill-rule:evenodd;}</style></defs><circle class="cls-1" cx="42.5" cy="42.5" r="42.5"/><g id="Icons"><g id="Rounded"><g id="Action"><g id="_-Round-_-Action-_-home" data-name="-Round-/-Action-/-home"><path id="_Icon-Color" data-name="🔹Icon-Color" class="cls-2" d="M37.21,58.73V46.55H47V58.73a2.45,2.45,0,0,0,2.44,2.44h7.31a2.45,2.45,0,0,0,2.44-2.44V41.67h4.14a1.21,1.21,0,0,0,.81-2.12L43.72,21.2a2.46,2.46,0,0,0-3.27,0L20.08,39.55a1.21,1.21,0,0,0,.8,2.12H25V58.73a2.45,2.45,0,0,0,2.44,2.44h7.31A2.45,2.45,0,0,0,37.21,58.73Z"/></g></g></g></g></svg>