<svg id="Layer_1" data-name="Layer 1" xmlns="http://www.w3.org/2000/svg" viewBox="0 0 85 85"><defs><style>.cls-1{fill:#384850;opacity:0.5;}.cls-2{fill:#fff;fill-rule:evenodd;}</style></defs><circle class="cls-1" cx="42.5" cy="42.5" r="42.5"/><g id="layer1"><path id="path45" class="cls-2" d="M23.66,32a1.26,1.26,0,0,0-1.26,1.25h0v5a1.25,1.25,0,0,0,1.26,1.26H25a8.8,8.8,0,0,0,8.69,7.54H51.29A8.81,8.81,0,0,0,60,39.51h1.36a1.25,1.25,0,0,0,1.26-1.25h0v-5A1.25,1.25,0,0,0,61.34,32Zm1.26,2.51H60.09V37H24.92Zm2.63,5h29.9a6,6,0,0,1-.4,1.26H51.29a1.26,1.26,0,0,0,0,2.51h3.77a6.24,6.24,0,0,1-3.77,1.26H33.71a6.24,6.24,0,0,1-3.77-1.26h3.77A1.25,1.25,0,0,0,35,42h0a1.25,1.25,0,0,0-1.25-1.25H28A6.61,6.61,0,0,1,27.55,39.51Zm11.18,1.26A1.25,1.25,0,0,0,37.48,42h0a1.25,1.25,0,0,0,1.25,1.26h7.54A1.26,1.26,0,0,0,47.53,42h0a1.26,1.26,0,0,0-1.26-1.25H38.73ZM31,49.56h0a1.3,1.3,0,0,0-.94.5A15.44,15.44,0,0,0,29,51.52a6.15,6.15,0,0,0-1,3.09,5.19,5.19,0,0,0,1.56,3.3c.62.73.95,1.16,1,1.72a5.56,5.56,0,0,1-.67,1.82,11.63,11.63,0,0,1-.76,1.17,1.26,1.26,0,0,0,2,1.52,13.4,13.4,0,0,0,.94-1.46,6.06,6.06,0,0,0,1-3.09,5.24,5.24,0,0,0-1.55-3.3c-.62-.73-1-1.16-1-1.72a5.56,5.56,0,0,1,.66-1.82A11.63,11.63,0,0,1,32,51.58a1.25,1.25,0,0,0-.25-1.76h0A1.31,1.31,0,0,0,31,49.56Zm11.94,0h0a1.28,1.28,0,0,0-.94.5A13.4,13.4,0,0,0,41,51.52a6,6,0,0,0-1,3.09,5.19,5.19,0,0,0,1.55,3.3c.62.73,1,1.16,1,1.72a5.34,5.34,0,0,1-.67,1.82,10.68,10.68,0,0,1-.75,1.17,1.26,1.26,0,0,0,2,1.52A15.44,15.44,0,0,0,44,62.68a6.05,6.05,0,0,0,1-3.09,5.14,5.14,0,0,0-1.55-3.3c-.62-.73-1-1.16-1-1.72a5.64,5.64,0,0,1,.67-1.82,12.8,12.8,0,0,1,.75-1.17,1.26,1.26,0,0,0-.24-1.76h0A1.3,1.3,0,0,0,42.91,49.56Zm11.93,0h-.05a1.28,1.28,0,0,0-.94.5,15.44,15.44,0,0,0-.94,1.46,6.06,6.06,0,0,0-1,3.09,5.24,5.24,0,0,0,1.55,3.3c.62.73,1,1.16,1,1.72a5.48,5.48,0,0,1-.66,1.82A11.63,11.63,0,0,1,53,62.62a1.26,1.26,0,0,0,2,1.52h0A15.44,15.44,0,0,0,56,62.68a6.06,6.06,0,0,0,1-3.09,5.19,5.19,0,0,0-1.56-3.3c-.61-.73-1-1.16-1-1.72a5.64,5.64,0,0,1,.67-1.82,12.8,12.8,0,0,1,.75-1.17,1.26,1.26,0,0,0-.24-1.76h0A1.31,1.31,0,0,0,54.84,49.56Z"/></g></svg>