<svg id="Layer_1" data-name="Layer 1" xmlns="http://www.w3.org/2000/svg" viewBox="0 0 85 85"><defs><style>.cls-1{fill:#978476;opacity:0.5;}.cls-2{fill:#fff;}</style></defs><circle class="cls-1" cx="42.5" cy="42.5" r="42.5"/><path class="cls-2" d="M42.52,28.83a1.23,1.23,0,0,0-1.07.62L35.53,39.71a1.2,1.2,0,0,0,0,1.24,1.23,1.23,0,0,0,1.06.62H48.44a1.24,1.24,0,0,0,1.07-1.86L43.58,29.45A1.23,1.23,0,0,0,42.52,28.83ZM38.73,39.09l3.79-6.56,3.78,6.56Z"/><path class="cls-2" d="M48.44,47.7H36.59a1.23,1.23,0,0,0-1.06.62,1.2,1.2,0,0,0,0,1.24l5.92,10.26a1.22,1.22,0,0,0,2.13,0l5.93-10.26a1.24,1.24,0,0,0-1.07-1.86Zm-5.92,9-3.79-6.56H46.3Z"/><path class="cls-2" d="M48.44,43.39H36.59a1.24,1.24,0,0,0,0,2.48H48.44a1.24,1.24,0,1,0,0-2.48Z"/><path class="cls-2" d="M35.67,23.32a5.11,5.11,0,0,0-5.1,5.11V60.89A5.11,5.11,0,0,0,35.68,66H49.32a5.11,5.11,0,0,0,5.11-5.11V28.43a5.11,5.11,0,0,0-5.11-5.11Zm16.26,5.11V60.89a2.63,2.63,0,0,1-2.63,2.63H35.67A2.64,2.64,0,0,1,33,60.89V28.43a2.64,2.64,0,0,1,2.64-2.63H49.3A2.61,2.61,0,0,1,51.93,28.43Z"/></svg>