<svg id="Layer_1" data-name="Layer 1" xmlns="http://www.w3.org/2000/svg" viewBox="0 0 85 85"><defs><style>.cls-1{fill:#24b273;opacity:0.5;}.cls-2{fill:#fff;}</style></defs><circle class="cls-1" cx="42.5" cy="42.5" r="42.5"/><g id="CCTV"><path class="cls-2" d="M66.23,35.68a.75.75,0,0,0-.57-.49L32.89,28.82a.75.75,0,0,0-.88.58h0l-.6,3.14h0L29.57,42a.74.74,0,0,0,.59.87l6.12,1.19a3.49,3.49,0,0,0,2.09,3.46l-1.12,5.78a3.49,3.49,0,0,0-3.32,2.74H28a3.51,3.51,0,0,0-3.41-2.75.76.76,0,0,0-.75.75v5.48a.75.75,0,0,0,.75.74A3.47,3.47,0,0,0,28,57.54h6a3.48,3.48,0,1,0,4.78-3.95l1.12-5.78a3.49,3.49,0,0,0,3.23-2.43L55.55,47.8h.14a.73.73,0,0,0,.56-.25L57.61,46l2,.38a4.9,4.9,0,0,0,4.69-7.91l1.83-2.08A.73.73,0,0,0,66.23,35.68Zm-41,23V54.92a2,2,0,0,1,0,3.73Zm14.06-1.84a2,2,0,0,1-2.11,1.87,1.88,1.88,0,1,1,.23-3.75,2,2,0,0,1,1.88,1.86Zm.42-10.44a2.29,2.29,0,0,1-.37,0,2,2,0,0,1-1.63-1.95l3.84.75a2,2,0,0,1-1.84,1.16Zm15.66-.09L31.18,41.56l1.55-8L50.07,37a.78.78,0,0,0,.89-.61.76.76,0,0,0-.6-.89L33,32.12l.33-1.67,30.72,6L62.75,37.9l-7.7-1.5a.77.77,0,0,0-.89.61.76.76,0,0,0,.6.89h0l6.85,1.29Zm8.38-4a3.4,3.4,0,0,1-4,2.68l-1.09-.21,4.48-5.08A3.37,3.37,0,0,1,63.79,42.24Z"/><path class="cls-2" d="M52.73,36a.76.76,0,0,0-.89.6.75.75,0,0,0,.6.89A.76.76,0,0,0,52.73,36Z"/></g></svg>