<svg id="Layer_1" data-name="Layer 1" xmlns="http://www.w3.org/2000/svg" viewBox="0 0 85 85"><defs><style>.cls-1{fill:#272d2e;opacity:0.5;}.cls-2{fill:#fff;}</style></defs><circle class="cls-1" cx="42.5" cy="42.5" r="42.5"/><path class="cls-2" d="M54.13,50.08a6.94,6.94,0,0,0-9.8,0l-4,4a4.38,4.38,0,0,1-6.2-6.2l4.5-4.5-2.8-2.8-4.5,4.5a8.34,8.34,0,0,0,11.8,11.8l4-4a3,3,0,0,1,4.2,4.2l-5.11,5.1L49,65l5.1-5.1A7,7,0,0,0,54.13,50.08Z"/><path class="cls-2" d="M52.12,27.08a7,7,0,0,0-10,0l-6.8,6.8a7.07,7.07,0,0,0,10,10l6.8-6.8a6.86,6.86,0,0,0,2.1-5A7.12,7.12,0,0,0,52.12,27.08ZM47.22,36a4,4,0,1,1,4-4A4,4,0,0,1,47.22,36Z"/></svg>