<?xml version="1.0" encoding="utf-8"?>
<!-- Generator: Adobe Illustrator 28.2.0, SVG Export Plug-In . SVG Version: 6.00 Build 0)  -->
<svg version="1.1" id="Layer_1" xmlns="http://www.w3.org/2000/svg" xmlns:xlink="http://www.w3.org/1999/xlink" x="0px" y="0px"
	 viewBox="0 0 535.6 133.1" style="enable-background:new 0 0 535.6 133.1;" xml:space="preserve">
<path d="M7.6,119.2l1.8-2.2c2.7,2.4,5.3,3.7,8.9,3.7s5.8-1.8,5.8-4.4v-0.1c0-2.4-1.3-3.8-6.7-4.9c-6-1.3-8.7-3.2-8.7-7.5v-0.1
	c0-4.1,3.6-7.1,8.5-7.1c3.8,0,6.5,1.1,9.1,3.2l-1.7,2.3c-2.4-2-4.8-2.8-7.5-2.8c-3.4,0-5.5,1.8-5.5,4.2v0.1c0,2.4,1.3,3.8,7,5
	c5.8,1.3,8.4,3.4,8.4,7.3v0.1c0,4.4-3.7,7.3-8.8,7.3C14,123.3,10.7,122,7.6,119.2L7.6,119.2z"/>
<path d="M32.5,103.8h2.8v3.2c1.3-1.9,3-3.6,6.2-3.6s5.1,1.7,6.1,3.8c1.4-2.1,3.4-3.8,6.7-3.8c4.4,0,7.1,3,7.1,7.7V123h-2.8v-11.2
	c0-3.7-1.8-5.8-5-5.8c-2.9,0-5.3,2.2-5.3,5.9v11h-2.8v-11.2c0-3.6-1.9-5.7-4.9-5.7s-5.3,2.5-5.3,6V123h-2.8L32.5,103.8L32.5,103.8z"
	/>
<path d="M66.1,117.4L66.1,117.4c0-4.1,3.3-6.2,8.2-6.2c2.4,0,4.2,0.3,5.9,0.8v-0.7c0-3.4-2.1-5.2-5.7-5.2c-2.3,0-4,0.6-5.8,1.4
	l-0.8-2.3c2.1-1,4.2-1.6,7-1.6s4.8,0.7,6.2,2.1c1.3,1.3,2,3.2,2,5.6V123h-2.7v-2.9c-1.3,1.7-3.6,3.3-6.9,3.3
	C69.7,123.4,66.1,121.3,66.1,117.4L66.1,117.4z M80.2,115.9v-1.8c-1.4-0.4-3.3-0.8-5.6-0.8c-3.6,0-5.6,1.6-5.6,4v0.1
	c0,2.4,2.2,3.8,4.8,3.8C77.3,121.1,80.2,119,80.2,115.9z"/>
<path d="M89,103.8h2.8v5c1.4-3.2,4.2-5.5,7.8-5.3v3.1h-0.2c-4.2,0-7.6,3-7.6,8.8v7.6H89C89,123,89,103.8,89,103.8z"/>
<path d="M105,117.9v-11.5h-2.7v-2.5h2.7v-5.8h2.8v5.8h6.1v2.5h-6.1v11.2c0,2.3,1.3,3.2,3.2,3.2c1,0,1.8-0.2,2.8-0.7v2.4
	c-1,0.5-2.1,0.8-3.4,0.8C107.3,123.3,105,121.8,105,117.9L105,117.9z"/>
<path d="M128.4,119.2l2.7-3.3c2.5,2.2,5,3.4,8.2,3.4c2.8,0,4.6-1.3,4.6-3.3V116c0-1.8-1-2.8-5.9-4c-5.5-1.3-8.6-3-8.6-7.7v-0.1
	c0-4.4,3.7-7.5,8.8-7.5c3.8,0,6.8,1.2,9.4,3.3l-2.4,3.4c-2.3-1.7-4.7-2.7-7-2.7c-2.7,0-4.2,1.4-4.2,3.1v0.1c0,2,1.2,2.9,6.2,4.1
	c5.5,1.3,8.3,3.3,8.3,7.6v0.1c0,4.8-3.8,7.7-9.2,7.7C135.3,123.3,131.5,122,128.4,119.2L128.4,119.2z"/>
<path d="M151.3,103.4h4.6l3.9,13.4l4.3-13.5h3.9l4.3,13.5l4-13.4h4.5l-6.4,19.7h-4l-4.4-13.4l-4.4,13.4h-4L151.3,103.4L151.3,103.4z
	"/>
<path d="M184.9,96.2h4.8v4.3h-4.8V96.2z M185,103.4h4.5V123H185V103.4z"/>
<path d="M196.3,117.6v-10.3h-2.5v-3.8h2.5v-5.4h4.5v5.4h5.2v3.8h-5.2v9.6c0,1.7,0.9,2.4,2.4,2.4c1,0,1.9-0.2,2.8-0.7v3.7
	c-1.1,0.6-2.3,1-4,1C198.7,123.3,196.3,121.9,196.3,117.6L196.3,117.6z"/>
<path d="M209,113.3L209,113.3c0-5.6,4.3-10.3,10.2-10.3c3.7,0,6,1.4,7.8,3.4l-2.8,3c-1.4-1.4-2.8-2.4-5-2.4c-3.3,0-5.7,2.8-5.7,6.2
	v0.1c0,3.5,2.4,6.2,5.9,6.2c2.1,0,3.6-1,5.1-2.4l2.7,2.7c-1.9,2.2-4.2,3.7-8,3.7C213.3,123.4,209,118.9,209,113.3L209,113.3z"/>
<path d="M231.1,96h4.5v10.5c1.3-1.8,3.1-3.4,6.1-3.4c4.4,0,7,3,7,7.5V123h-4.5v-11.1c0-3-1.5-4.8-4.2-4.8s-4.4,1.8-4.4,4.8v11h-4.5
	L231.1,96L231.1,96z"/>
<path d="M285,119.3c-2.4,2.6-5.1,4-8.5,4c-4.7,0-8.1-2.9-8.1-7.2V116c0-3.4,2.3-5.9,6.2-7.5c-1.8-2.1-2.6-3.7-2.6-5.7v-0.1
	c0-3.4,2.7-6.1,6.9-6.1c3.6,0,6.3,2.6,6.3,5.8v0.1c0,3.3-2.3,5.4-6.1,6.7l5.9,6c1.1-1.7,2.2-3.6,3.1-5.8l2.4,1.1
	c-1.1,2.4-2.3,4.7-3.7,6.5l4.5,4.6l-2.2,1.7L285,119.3L285,119.3z M283.2,117.5l-6.9-7.1c-3.4,1.3-5,3.4-5,5.6v0.1
	c0,2.8,2.2,4.9,5.4,4.9C279.2,120.8,281.3,119.6,283.2,117.5L283.2,117.5z M282.5,102.7L282.5,102.7c0-2.1-1.5-3.7-3.7-3.7
	c-2.3,0-3.9,1.6-3.9,3.7v0.1c0,1.5,0.6,2.7,2.6,4.8C280.8,106.5,282.5,104.9,282.5,102.7L282.5,102.7z"/>
<path d="M313.2,101.3H305v-4.2h21v4.2h-8.2V123h-4.5V101.3z"/>
<path d="M329.9,96h4.5v10.5c1.3-1.8,3.1-3.4,6.1-3.4c4.4,0,7,3,7,7.5V123H343v-11.1c0-3-1.5-4.8-4.2-4.8s-4.4,1.8-4.4,4.8v11h-4.5
	L329.9,96L329.9,96z"/>
<path d="M351.8,113.3L351.8,113.3c0-5.7,4-10.2,9.5-10.2c6.2,0,9.4,4.9,9.4,10.5c0,0.4,0,0.8-0.1,1.3h-14.4c0.5,3.2,2.7,5,5.6,5
	c2.2,0,3.7-0.8,5.3-2.3l2.6,2.3c-1.9,2.2-4.4,3.7-8,3.7C356.2,123.4,351.8,119.3,351.8,113.3z M366.3,111.8c-0.3-2.9-2-5.1-5-5.1
	c-2.7,0-4.7,2.1-5.1,5.1H366.3z"/>
<path d="M375.2,103.4h4.5v4.4c1.2-2.9,3.5-4.9,6.9-4.8v4.7h-0.3c-3.9,0-6.7,2.6-6.7,7.7v7.4h-4.5C375.2,123,375.2,103.4,375.2,103.4
	z"/>
<path d="M390.5,103.4h4.5v3c1.3-1.7,3-3.4,6-3.4c2.8,0,4.8,1.4,5.9,3.4c1.5-2.1,3.6-3.4,6.6-3.4c4.3,0,6.9,2.7,6.9,7.5V123h-4.5
	v-11.1c0-3.1-1.4-4.8-4-4.8s-4.2,1.7-4.2,4.8v11h-4.5v-11.1c0-3-1.5-4.7-4-4.7s-4.2,1.8-4.2,4.8v11h-4.5L390.5,103.4L390.5,103.4z"
	/>
<path d="M424.6,113.3L424.6,113.3c0-5.7,4.4-10.3,10.4-10.3s10.4,4.6,10.4,10.1v0.1c0,5.6-4.4,10.2-10.5,10.2
	S424.6,118.9,424.6,113.3L424.6,113.3z M440.9,113.3L440.9,113.3c0-3.5-2.5-6.4-6-6.4s-5.9,2.8-5.9,6.2v0.1c0,3.4,2.5,6.2,6,6.2
	S440.9,116.7,440.9,113.3L440.9,113.3z"/>
<path d="M450.9,117.6v-10.3h-2.5v-3.8h2.5v-5.4h4.5v5.4h5.2v3.8h-5.2v9.6c0,1.7,0.9,2.4,2.4,2.4c1,0,1.9-0.2,2.8-0.7v3.7
	c-1.1,0.6-2.3,1-4,1C453.2,123.3,450.9,121.9,450.9,117.6L450.9,117.6z"/>
<path d="M463.8,117.3L463.8,117.3c0-4.3,3.3-6.4,8.1-6.4c2.2,0,3.7,0.3,5.2,0.8v-0.5c0-2.8-1.7-4.2-4.9-4.2c-2.2,0-3.8,0.5-5.6,1.2
	l-1.2-3.5c2.2-1,4.3-1.6,7.4-1.6c2.9,0,5.1,0.8,6.5,2.2c1.4,1.4,2.1,3.5,2.1,6V123h-4.4v-2.4c-1.3,1.6-3.4,2.8-6.4,2.8
	C467.1,123.4,463.8,121.3,463.8,117.3L463.8,117.3z M477.3,115.9v-1.3c-1.1-0.4-2.7-0.8-4.4-0.8c-2.9,0-4.6,1.2-4.6,3.3v0.1
	c0,1.9,1.7,3,3.8,3C475,120.1,477.3,118.4,477.3,115.9z"/>
<path d="M487.6,117.6v-10.3h-2.5v-3.8h2.5v-5.4h4.5v5.4h5.2v3.8h-5.2v9.6c0,1.7,0.9,2.4,2.4,2.4c1,0,1.9-0.2,2.8-0.7v3.7
	c-1.1,0.6-2.3,1-4,1C490,123.3,487.6,121.9,487.6,117.6L487.6,117.6z"/>
<path d="M500.3,120.4l2-3c2.2,1.6,4.4,2.4,6.4,2.4s3-0.8,3-2.1v-0.1c0-1.5-2.1-2-4.4-2.7c-2.9-0.8-6.1-2-6.1-5.7v-0.1
	c0-3.7,3.1-6,7-6c2.4,0,5.1,0.8,7.2,2.2l-1.8,3.2c-1.9-1.2-3.9-1.8-5.5-1.8c-1.7,0-2.7,0.8-2.7,1.9v0.1c0,1.4,2.1,2,4.4,2.8
	c2.8,0.9,6.1,2.2,6.1,5.7v0.1c0,4.1-3.2,6.1-7.2,6.1C505.8,123.3,502.8,122.4,500.3,120.4L500.3,120.4z"/>
<path d="M53.8,66.1L48,60.9c-4.5,2.9-9.9,4.6-15.8,4.6C15.8,65.5,4,53.2,4,38.1V38c0-15.1,11.9-27.5,28.3-27.5s28.2,12.2,28.2,27.3
	V38c0,5.6-1.8,10.9-4.7,15.3l5.5,4.6C61.3,57.9,53.8,66.1,53.8,66.1z M39.3,53.2l-8.7-7.4l7.4-8.3l8.7,7.9c0.9-2.1,1.4-4.6,1.4-7.3
	V38c0-9.1-6.7-16.7-16.1-16.7s-15.9,7.4-15.9,16.5V38c0,9.1,6.7,16.7,16.1,16.7C34.9,54.7,37.3,54.2,39.3,53.2L39.3,53.2z"/>
<path d="M69.4,50.2V23.8h11.5v22.7c0,5.5,2.6,8.3,7,8.3s7.2-2.8,7.2-8.3V23.8h11.5v40.7H95.1v-5.8c-2.7,3.4-6.1,6.5-11.9,6.5
	C74.5,65.3,69.4,59.5,69.4,50.2z"/>
<path d="M114.6,52.8v-0.2c0-8.9,6.8-13,16.4-13c4.1,0,7.1,0.7,9.9,1.7v-0.7c0-4.8-3-7.4-8.7-7.4c-4.4,0-7.5,0.8-11.2,2.2l-2.9-8.8
	c4.5-2,8.9-3.3,15.8-3.3c6.3,0,10.9,1.7,13.7,4.6c3,3,4.4,7.5,4.4,13v23.6h-11.2v-4.4c-2.8,3.1-6.7,5.2-12.3,5.2
	C120.9,65.3,114.6,60.9,114.6,52.8L114.6,52.8z M141.1,50.2v-2c-2-0.9-4.6-1.5-7.4-1.5c-4.9,0-8,2-8,5.6v0.2c0,3.1,2.6,4.9,6.3,4.9
	C137.4,57.3,141.1,54.4,141.1,50.2z"/>
<path d="M160.1,44.3v-0.2c0-13.6,8.9-21,18.5-21c6.1,0,9.9,2.8,12.7,6.1v-20h11.5v55.4h-11.5v-5.8c-2.8,3.8-6.7,6.6-12.7,6.6
	C169.2,65.3,160.1,57.9,160.1,44.3L160.1,44.3z M191.5,44.3v-0.2c0-6.8-4.5-11.2-9.9-11.2s-9.9,4.4-9.9,11.2v0.2
	c0,6.8,4.6,11.2,9.9,11.2S191.5,51,191.5,44.3z"/>
<path d="M211.2,44.4v-0.2c0-11.7,9.4-21.2,22.1-21.2s21.9,9.3,21.9,21v0.2c0,11.7-9.4,21.2-22.1,21.2S211.2,56.1,211.2,44.4z
	 M243.9,44.4v-0.2c0-6-4.3-11.2-10.7-11.2s-10.6,5.1-10.6,11.1v0.2c0,6,4.3,11.2,10.7,11.2S243.9,50.4,243.9,44.4L243.9,44.4z"/>
</svg>
