<?xml version="1.0" encoding="UTF-8"?><svg id="Layer_1" xmlns="http://www.w3.org/2000/svg" viewBox="0 0 208.68 56.85"><rect x="5.42" y="5.42" width="5.57" height="30.55" fill="#fff" stroke-width="0"/><rect x="101.56" y="15.49" width="5.57" height="25.87" fill="#fff" stroke-width="0"/><rect x="197.55" y="5.42" width="5.57" height="22.27" fill="#232b68" stroke-width="0"/><rect x="5.42" y="35.98" width="5.57" height="17.59" stroke-width="0"/><rect x="10.99" y="5.42" width="186.56" height="48.14" fill="#fdcc00" stroke-width="0"/><line y1="5.42" x2="208.68" y2="5.42" fill="none" stroke="#000" stroke-miterlimit="10" stroke-width=".63"/><line y1="53.56" x2="208.68" y2="53.56" fill="none" stroke="#000" stroke-miterlimit="10" stroke-width=".63"/><line x1="203.11" x2="203.11" y2="56.85" fill="none" stroke="#000" stroke-miterlimit="10" stroke-width=".63"/><line x1="197.55" x2="197.55" y2="56.85" fill="none" stroke="#000" stroke-miterlimit="10" stroke-width=".63"/><line x1="10.99" x2="10.99" y2="56.85" fill="none" stroke="#000" stroke-miterlimit="10" stroke-width=".63"/><line x1="5.42" x2="5.42" y2="56.85" fill="none" stroke="#000" stroke-miterlimit="10" stroke-width=".63"/><rect x="122.54" y="5.74" width="74.69" height="8.15" fill="#df2b26" stroke-width="0"/><path d="M37.13,23.41h4.44c3.74,0,6.32,2.57,6.32,5.92v.03c0,3.35-2.58,5.95-6.32,5.95h-4.44v-11.9ZM39.22,25.32v8.09h2.35c2.5,0,4.13-1.68,4.13-4.01v-.03c0-2.33-1.63-4.05-4.13-4.05h-2.35Z" stroke-width="0"/><path d="M49.69,30.86v-.03c0-2.57,1.82-4.67,4.39-4.67,2.86,0,4.3,2.24,4.3,4.83,0,.19-.02.37-.03.58h-6.6c.22,1.46,1.26,2.28,2.58,2.28,1,0,1.72-.37,2.43-1.07l1.21,1.07c-.85,1.02-2.02,1.68-3.67,1.68-2.6,0-4.61-1.89-4.61-4.66ZM56.34,30.19c-.14-1.33-.92-2.36-2.28-2.36-1.26,0-2.14.97-2.33,2.36h4.61Z" stroke-width="0"/><path d="M59.72,34.14l.92-1.39c.99.73,2.02,1.1,2.94,1.1s1.39-.37,1.39-.97v-.03c0-.7-.95-.93-2.01-1.26-1.33-.37-2.8-.92-2.8-2.62v-.03c0-1.72,1.41-2.75,3.2-2.75,1.12,0,2.35.39,3.3,1.02l-.82,1.46c-.87-.53-1.78-.85-2.53-.85-.8,0-1.26.39-1.26.88v.03c0,.66.97.93,2.02,1.27,1.31.41,2.79,1,2.79,2.62v.03c0,1.89-1.46,2.82-3.33,2.82-1.27,0-2.69-.44-3.81-1.34Z" stroke-width="0"/><path d="M69,23h2.21v1.95h-2.21v-1.95ZM69.07,26.34h2.07v8.98h-2.07v-8.98Z" stroke-width="0"/><path d="M73.82,36.99l.76-1.55c.97.6,1.97.94,3.2.94,1.84,0,2.84-.94,2.84-2.74v-.68c-.75.95-1.68,1.63-3.16,1.63-2.12,0-4.08-1.56-4.08-4.2v-.03c0-2.65,1.99-4.22,4.08-4.22,1.51,0,2.45.7,3.14,1.53v-1.34h2.06v7.14c0,1.51-.39,2.63-1.14,3.38-.82.82-2.07,1.21-3.69,1.21-1.48,0-2.86-.37-4.01-1.07ZM80.63,30.38v-.03c0-1.46-1.21-2.45-2.63-2.45s-2.55.97-2.55,2.45v.03c0,1.46,1.14,2.46,2.55,2.46s2.63-1,2.63-2.46Z" stroke-width="0"/><path d="M85.22,26.34h2.07v1.38c.58-.83,1.41-1.56,2.8-1.56,2.02,0,3.2,1.36,3.2,3.43v5.73h-2.06v-5.1c0-1.39-.7-2.19-1.92-2.19s-2.02.83-2.02,2.23v5.07h-2.07v-8.98Z" stroke-width="0"/><path d="M107.1,26.34h2.14l-3.57,9.21c-.71,1.85-1.51,2.53-2.96,2.53-.85,0-1.5-.2-2.12-.56l.7-1.51c.37.2.78.34,1.21.34.58,0,.94-.26,1.27-1.02l-3.74-8.99h2.21l2.52,6.66,2.35-6.66Z" stroke-width="0"/><path d="M110.01,30.87v-.03c0-2.57,2.04-4.69,4.79-4.69s4.78,2.09,4.78,4.66v.03c0,2.55-2.04,4.67-4.81,4.67s-4.76-2.09-4.76-4.64ZM117.52,30.87v-.03c0-1.58-1.14-2.89-2.75-2.89s-2.7,1.29-2.7,2.86v.03c0,1.56,1.14,2.87,2.74,2.87s2.72-1.29,2.72-2.84Z" stroke-width="0"/><path d="M121.57,32.05v-5.71h2.06v5.1c0,1.39.7,2.18,1.92,2.18s2.02-.82,2.02-2.21v-5.07h2.07v8.98h-2.07v-1.39c-.58.85-1.41,1.58-2.8,1.58-2.02,0-3.2-1.36-3.2-3.45Z" stroke-width="0"/><path d="M132.19,26.34h2.07v2.02c.56-1.34,1.6-2.26,3.18-2.19v2.18h-.12c-1.8,0-3.06,1.17-3.06,3.55v3.42h-2.07v-8.98Z" stroke-width="0"/><path d="M143.6,34.14l.92-1.39c.99.73,2.02,1.1,2.94,1.1s1.39-.37,1.39-.97v-.03c0-.7-.95-.93-2.01-1.26-1.33-.37-2.8-.92-2.8-2.62v-.03c0-1.72,1.41-2.75,3.2-2.75,1.12,0,2.35.39,3.3,1.02l-.82,1.46c-.87-.53-1.78-.85-2.53-.85-.8,0-1.26.39-1.26.88v.03c0,.66.97.93,2.02,1.27,1.31.41,2.79,1,2.79,2.62v.03c0,1.89-1.46,2.82-3.33,2.82-1.27,0-2.69-.44-3.81-1.34Z" stroke-width="0"/><path d="M152.35,30.86v-.03c0-2.57,1.82-4.67,4.39-4.67,2.86,0,4.3,2.24,4.3,4.83,0,.19-.02.37-.03.58h-6.6c.22,1.46,1.26,2.28,2.58,2.28,1,0,1.72-.37,2.43-1.07l1.21,1.07c-.85,1.02-2.02,1.68-3.67,1.68-2.6,0-4.61-1.89-4.61-4.66ZM159,30.19c-.14-1.33-.92-2.36-2.28-2.36-1.26,0-2.14.97-2.33,2.36h4.61Z" stroke-width="0"/><path d="M163.22,22.9h2.07v12.41h-2.07v-12.41Z" stroke-width="0"/><path d="M168.44,28.1h-1.14v-1.72h1.14v-.66c0-.99.25-1.73.73-2.21.48-.48,1.14-.71,2.01-.71.73,0,1.22.1,1.68.24v1.73c-.41-.14-.77-.22-1.21-.22-.78,0-1.19.44-1.19,1.36v.49h2.38v1.7h-2.35v7.21h-2.06v-7.21Z" stroke-width="0"/></svg>