<?xml version="1.0" standalone="no"?>
<!DOCTYPE svg PUBLIC "-//W3C//DTD SVG 1.1//EN" "http://www.w3.org/Graphics/SVG/1.1/DTD/svg11.dtd" >
<svg xmlns="http://www.w3.org/2000/svg" xmlns:xlink="http://www.w3.org/1999/xlink" version="1.1">
<metadata>
Created by FontForge 20170731 at Tue Sep 20 14:53:14 2022
 By Aleksey,,,
Copyright (c) 2014 by Rui Abreu, Portugal. All rights reserved. Designed by Rui Abreu.
</metadata>
<defs>
<font id="Usual-Regular" horiz-adv-x="1286" >
  <font-face 
    font-family="Usual"
    font-weight="400"
    font-stretch="normal"
    units-per-em="2048"
    panose-1="2 11 6 3 3 4 3 2 2 4"
    ascent="1536"
    descent="-512"
    x-height="1100"
    cap-height="1573"
    bbox="-309 -410 2695 1948"
    underline-thickness="102"
    underline-position="-307"
    unicode-range="U+000D-FB02"
  />
<missing-glyph horiz-adv-x="1314" 
d="M305 1237l268 268l437 -434l-207 -207l207 -205l-207 -206l207 -205l-271 -271l-434 437l205 204l-205 207l205 205z" />
    <glyph glyph-name="fi" unicode="fi" horiz-adv-x="1243" 
d="M254 0v938h-219v162h219v194q0 145 80.5 223t232.5 78q67 0 123 -16v-160q-36 8 -82 8q-86 0 -122.5 -38t-36.5 -119v-170h632v-1100h-194v938h-438v-938h-195zM879 1362v211h211v-211h-211z" />
    <glyph glyph-name="fl" unicode="fl" horiz-adv-x="1269" 
d="M254 0v938h-219v162h219v184q0 151 86 231t244 80q67 0 129 -16v-162q-33 10 -90 10q-94 0 -134 -39t-40 -128v-160h264v-162h-264v-938h-195zM1108 0h-195v1573h195v-1573z" />
    <glyph glyph-name=".notdef" horiz-adv-x="1314" 
d="M305 1237l268 268l437 -434l-207 -207l207 -205l-207 -206l207 -205l-271 -271l-434 437l205 204l-205 207l205 205z" />
    <glyph glyph-name=".null" horiz-adv-x="0" 
 />
    <glyph glyph-name="nonmarkingreturn" horiz-adv-x="682" 
 />
    <glyph glyph-name="CR" unicode="&#xd;" horiz-adv-x="0" 
 />
    <glyph glyph-name="space" unicode=" " horiz-adv-x="501" 
 />
    <glyph glyph-name="exclam" unicode="!" horiz-adv-x="661" 
d="M246 397l-23 1176h213l-22 -1176h-168zM217 0v225h225v-225h-225z" />
    <glyph glyph-name="quotedbl" unicode="&#x22;" horiz-adv-x="823" 
d="M162 987l-23 586h193l-23 -586h-147zM520 987l-22 586h192l-22 -586h-148z" />
    <glyph glyph-name="numbersign" unicode="#" 
d="M1223 911h-236l-90 -319h238l-41 -141h-238l-127 -451h-172l129 451h-256l-129 -451h-170l127 451h-235l40 141h236l90 319h-237l41 142h237l127 450h172l-129 -450h256l129 450h170l-127 -450h236zM725 592l92 319h-256l-92 -319h256z" />
    <glyph glyph-name="dollar" unicode="$" 
d="M1112 1229l-131 -133q-142 155 -346 155q-132 0 -203.5 -53.5t-71.5 -138.5q0 -37 14 -65t39.5 -47.5t65.5 -35t88 -29t111 -28.5q7 -1 10 -2q57 -14 97.5 -25t90.5 -29t84.5 -37t70 -47.5t56.5 -61.5t34.5 -77.5t13.5 -97.5q0 -158 -106.5 -261t-303.5 -124v-231h-174
v227q-271 21 -438 197l133 133q73 -79 172.5 -120.5t210.5 -41.5q152 0 227.5 53.5t75.5 147.5q0 38 -16 67.5t-40 49t-71.5 37.5t-90 29t-116.5 28q-66 15 -112.5 29t-101.5 35t-92 48t-69.5 63t-48.5 85.5t-16 109.5q0 153 102.5 254.5t290.5 122.5v227h174v-227
q236 -24 387 -186z" />
    <glyph glyph-name="percent" unicode="%" horiz-adv-x="1966" 
d="M451 625q-81 0 -142 25t-98 65.5t-60 100.5t-31.5 121t-8.5 136t8.5 136.5t31.5 122t60 102t98 67t142 25.5t142 -25t98 -66t60 -101t31.5 -121t8.5 -136t-8.5 -136.5t-31.5 -122t-60 -101.5t-98 -66.5t-142 -25.5zM637 0h-176l868 1503h176zM451 760q37 0 65 12t46 36
t29.5 51.5t17 66t7.5 71.5t2 76q0 54 -2.5 93t-12.5 84.5t-27.5 74t-49 47.5t-75.5 19q-37 0 -65 -12.5t-46 -36.5t-30 -51.5t-17.5 -66t-7.5 -71.5t-2 -76q0 -44 2 -77.5t7.5 -72.5t17.5 -67t30 -51.5t46 -36t65 -12.5zM1516 879q81 0 142 -25t98 -66t60 -101t31 -121
t8 -136t-8 -136.5t-31 -122t-60 -102t-98 -67t-142 -25.5t-142 25t-98 66t-60 101t-31.5 121t-8.5 136t8.5 136.5t31.5 122t60 102t98 67t142 25.5zM1516 743q-44 0 -75.5 -19t-49 -47t-28 -72.5t-13 -83.5t-2.5 -91q0 -44 2 -77.5t7.5 -72.5t17.5 -67t30 -51.5t46 -36
t65 -12.5t65 12t46 36t29.5 51.5t17 66t7.5 71.5t2 76q0 44 -2 77.5t-7.5 72.5t-17 66.5t-29.5 52t-46 36.5t-65 12z" />
    <glyph glyph-name="ampersand" unicode="&#x26;" horiz-adv-x="1501" 
d="M1513 0h-249l-195 205q-93 -116 -207.5 -172t-263.5 -56q-239 0 -383.5 130.5t-144.5 330.5q0 154 88.5 269.5t253.5 187.5l-13 12q-166 166 -166 330q0 153 111 255.5t309 102.5q180 0 291 -96.5t111 -251.5q0 -120 -70.5 -207.5t-214.5 -162.5l-63 -33l333 -350
l156 344h197l-174 -381q-18 -41 -50 -99zM653 1430q-107 0 -163 -54t-56 -143q0 -111 129 -240l35 -35l66 33q103 52 149.5 111t46.5 133q0 84 -54 139.5t-153 55.5zM946 334l-424 446q-121 -50 -181 -134.5t-60 -194.5q0 -129 87 -214t238 -85q111 0 192.5 45t147.5 137z
" />
    <glyph glyph-name="quotesingle" unicode="'" horiz-adv-x="464" 
d="M162 987l-23 586h193l-23 -586h-147z" />
    <glyph glyph-name="parenleft" unicode="(" horiz-adv-x="696" 
d="M121 635q0 305 89 558.5t236 426.5l136 -90q-126 -175 -200.5 -401.5t-74.5 -493.5t74.5 -493.5t200.5 -401.5l-136 -90q-147 173 -236 426.5t-89 558.5z" />
    <glyph glyph-name="parenright" unicode=")" horiz-adv-x="696" 
d="M575 635q0 -305 -89 -558.5t-236 -426.5l-135 90q126 175 200 401.5t74 493.5t-74 493.5t-200 401.5l135 90q147 -173 236 -426.5t89 -558.5z" />
    <glyph glyph-name="asterisk" unicode="*" horiz-adv-x="937" 
d="M643 819l-174 271l-174 -271l-115 84l203 248l-309 82l45 135l297 -115l-19 320h144l-19 -320l297 115l45 -135l-309 -82l203 -248z" />
    <glyph glyph-name="plus" unicode="+" horiz-adv-x="1198" 
d="M514 248v418h-405v151h405v418h168v-418h405v-151h-405v-418h-168z" />
    <glyph glyph-name="comma" unicode="," horiz-adv-x="589" 
d="M115 -301l86 586h209l-142 -586h-153z" />
    <glyph glyph-name="hyphen" unicode="-" horiz-adv-x="706" 
d="M109 520v180h487v-180h-487z" />
    <glyph glyph-name="period" unicode="." horiz-adv-x="589" 
d="M182 0v225h226v-225h-226z" />
    <glyph glyph-name="slash" unicode="/" horiz-adv-x="884" 
d="M872 1624l-692 -1673h-168l693 1673h167z" />
    <glyph glyph-name="zero" unicode="0" 
d="M643 -23q-108 0 -193.5 29t-144 83.5t-99.5 124.5t-63.5 160t-32.5 180.5t-10 195.5t9.5 195t32 181t63.5 161t99.5 125t144.5 84.5t194 29.5q128 0 225.5 -43t157 -113.5t96.5 -173t50.5 -208.5t13.5 -234q0 -89 -6.5 -167.5t-23.5 -159t-43.5 -145.5t-69.5 -123
t-98 -97.5t-132 -62t-170 -22.5zM643 152q65 0 116.5 18.5t86.5 48.5t60.5 77.5t40 96t23 113.5t11 120t2.5 126t-2.5 126t-11 120t-23 113.5t-40 96t-60.5 77.5t-86.5 48.5t-116.5 18.5t-116.5 -18.5t-86.5 -48.5t-60.5 -77.5t-40 -96t-23 -113.5t-11 -120t-2.5 -126
t2.5 -126t11 -120t23 -113.5t40 -96t60.5 -77.5t86.5 -48.5t116.5 -18.5z" />
    <glyph glyph-name="one" unicode="1" 
d="M205 0v178h366v1075q-134 -81 -366 -141v178q263 79 430 213h139v-1325h365v-178h-934z" />
    <glyph glyph-name="two" unicode="2" 
d="M141 0v145l525 525q119 117 180 218t61 204q0 117 -76 186.5t-217 69.5q-111 0 -187.5 -45t-143.5 -138l-146 113q179 248 492 248q224 0 352.5 -115t128.5 -305q0 -245 -240 -485l-440 -439v-4h711v-178h-1000z" />
    <glyph glyph-name="three" unicode="3" 
d="M602 -23q-176 0 -307.5 66.5t-194.5 173.5l154 109q111 -174 346 -174q161 0 251.5 72t90.5 194q0 119 -92 192.5t-246 73.5h-145v172h145q138 0 222.5 69t84.5 179q0 112 -82.5 180t-228.5 68q-217 0 -315 -160l-150 106q62 101 185 164.5t286 63.5q230 0 369 -114.5
t139 -295.5q0 -119 -63.5 -205t-178.5 -129v-4q133 -47 203 -141t70 -225q0 -192 -147.5 -313.5t-395.5 -121.5z" />
    <glyph glyph-name="four" unicode="4" 
d="M1262 516v-172h-275v-344h-201v344h-757v150l704 1009h254v-987h275zM248 516h538v764h-4z" />
    <glyph glyph-name="five" unicode="5" 
d="M446 1325l-32 -424q93 41 219 41q232 0 378 -131t146 -348t-150 -351.5t-403 -134.5q-162 0 -286 56.5t-197 150.5l143 129q124 -161 344 -161q162 0 254 82.5t92 224.5q0 140 -96.5 225.5t-261.5 85.5q-131 0 -242 -65h-153l63 798h807v-178h-625z" />
    <glyph glyph-name="six" unicode="6" 
d="M1122 1450l-73 -164q-111 66 -261 66q-115 0 -203.5 -43.5t-145 -124t-88 -185.5t-40.5 -237h4q65 88 175 134t233 46q219 0 352 -134.5t133 -342.5q0 -218 -145 -353t-389 -135q-124 0 -222 39.5t-160.5 105.5t-103.5 158.5t-58 192.5t-17 215q0 130 21.5 247.5
t72.5 227t127.5 189t194 127t264.5 47.5q183 0 329 -76zM684 150q151 0 237.5 85.5t86.5 223.5q0 137 -85.5 225t-242.5 88q-141 0 -240.5 -74.5t-99.5 -208.5q0 -44 11 -89.5t37.5 -91t65 -80t98 -56.5t132.5 -22z" />
    <glyph glyph-name="seven" unicode="7" 
d="M360 0l572 1325h-805v178h1020v-149l-574 -1354h-213z" />
    <glyph glyph-name="eight" unicode="8" 
d="M641 -23q-247 0 -395 117.5t-148 308.5q0 259 279 367v4q-117 48 -181.5 137.5t-64.5 208.5q0 180 140.5 293t369.5 113q231 0 371.5 -113t140.5 -293q0 -118 -65 -205.5t-181 -132.5v-4q135 -55 207 -150.5t72 -224.5q0 -190 -149 -308t-396 -118zM641 854
q134 0 221.5 72.5t87.5 181.5t-82.5 177.5t-226.5 68.5t-225.5 -68.5t-81.5 -177.5t87 -181.5t220 -72.5zM641 688q-150 0 -245 -77t-95 -199q0 -117 90.5 -189.5t249.5 -72.5q161 0 251.5 72.5t90.5 189.5q0 122 -95.5 199t-246.5 77z" />
    <glyph glyph-name="nine" unicode="9" 
d="M190 45l72 168q109 -61 244 -61q119 0 209 47t145.5 133t85.5 195t37 243h-4q-65 -92 -172 -141t-234 -49q-208 0 -340.5 127.5t-132.5 336.5q0 215 143.5 348.5t379.5 133.5q124 0 221 -40.5t158.5 -107.5t101.5 -160.5t56 -192t16 -210.5q0 -125 -20 -240t-69.5 -226
t-123.5 -192t-191 -130.5t-264 -49.5q-175 0 -318 68zM612 750q60 0 116.5 15t106 46t79.5 86t30 127q0 58 -20.5 115t-59.5 106t-105 79t-149 30q-142 0 -226.5 -82t-84.5 -219q0 -134 83 -218.5t230 -84.5z" />
    <glyph glyph-name="colon" unicode=":" horiz-adv-x="589" 
d="M182 874v226h226v-226h-226zM182 0v225h226v-225h-226z" />
    <glyph glyph-name="semicolon" unicode=";" horiz-adv-x="589" 
d="M182 874v226h226v-226h-226zM115 -301l86 586h209l-142 -586h-153z" />
    <glyph glyph-name="less" unicode="&#x3c;" horiz-adv-x="1198" 
d="M74 686v111l1048 442v-166l-788 -330v-4l788 -329v-166z" />
    <glyph glyph-name="equal" unicode="=" horiz-adv-x="1198" 
d="M109 883v149h978v-149h-978zM109 446v150h978v-150h-978z" />
    <glyph glyph-name="greater" unicode="&#x3e;" horiz-adv-x="1198" 
d="M1122 797v-111l-1048 -442v166l788 329v4l-788 330v166z" />
    <glyph glyph-name="question" unicode="?" horiz-adv-x="937" 
d="M635 776q-60 -54 -86 -87t-38.5 -73.5t-12.5 -107.5v-111h-168v162q0 37 5 69.5t10.5 56t22.5 51t26.5 42t38.5 44t41.5 41.5t51.5 48q57 52 88 87.5t54.5 88t23.5 111.5q0 108 -64 166.5t-173 58.5q-163 0 -275 -127l-119 131q67 74 171.5 121t232.5 47q190 0 308 -105
t118 -284q0 -68 -16.5 -124.5t-56 -110.5t-76.5 -92.5t-107 -102.5zM301 0v225h225v-225h-225z" />
    <glyph glyph-name="at" unicode="@" horiz-adv-x="1878" 
d="M940 -291q-198 0 -359 65t-266.5 178.5t-162 265.5t-56.5 329q0 174 55.5 326.5t159 268t266 182.5t363.5 67q199 0 360.5 -65.5t266 -179t161 -264t56.5 -323.5q0 -117 -25.5 -205t-71.5 -140t-105 -77.5t-130 -25.5q-187 0 -270 155h-4q-49 -74 -128 -117t-178 -43
q-173 0 -275.5 125.5t-102.5 313.5q0 190 104 319t274 129q171 0 281 -143h4l12 125h154v-500q0 -221 135 -221q74 0 116 74t42 217q0 111 -25 212t-79 190.5t-132 155.5t-190.5 104t-247.5 38q-166 0 -297 -56.5t-211.5 -153.5t-122 -219.5t-41.5 -262.5q0 -110 25 -211
t79 -189.5t132 -154t190.5 -103.5t247.5 -38q228 0 387 104l74 -135q-201 -117 -465 -117zM911 256q111 0 174.5 83.5t63.5 215.5q0 130 -62.5 209.5t-173.5 79.5q-114 0 -174.5 -85t-60.5 -210q0 -123 59.5 -208t173.5 -85z" />
    <glyph glyph-name="A" unicode="A" horiz-adv-x="1501" 
d="M1266 0l-170 440h-701l-168 -440h-217l619 1573h243l619 -1573h-225zM463 618h563l-281 732h-4z" />
    <glyph glyph-name="B" unicode="B" horiz-adv-x="1429" 
d="M1067 809v-4q124 -39 202.5 -136t78.5 -239q0 -134 -72.5 -233t-191.5 -148t-267 -49h-639v1573h653q218 0 349 -113t131 -297q0 -126 -64 -215.5t-180 -138.5zM827 1393h-444v-512h442q124 0 201.5 67t77.5 191q0 123 -76.5 188.5t-200.5 65.5zM383 180h469
q126 0 206.5 67.5t80.5 194.5q0 126 -79 193t-208 67h-469v-522z" />
    <glyph glyph-name="C" unicode="C" horiz-adv-x="1474" 
d="M834 -23q-168 0 -306 62t-228.5 170.5t-139.5 256.5t-49 320t49 320t139 256.5t226 170.5t302 62q200 0 353.5 -89t244.5 -249l-170 -100q-138 260 -426 260q-125 0 -223.5 -50.5t-159.5 -138.5t-92.5 -200t-31.5 -240q0 -101 19 -193t60.5 -172.5t101 -139.5t146.5 -93
t191 -34q148 0 255.5 68t172.5 188l166 -95q-90 -160 -244 -250t-356 -90z" />
    <glyph glyph-name="D" unicode="D" horiz-adv-x="1591" 
d="M178 0v1573h529q155 0 285 -40.5t223 -112t157.5 -170.5t95.5 -216t31 -248q0 -234 -94.5 -412t-270.5 -276t-409 -98h-547zM385 180h328q265 0 420 154t155 450q0 155 -45.5 273.5t-127.5 191t-188 108.5t-233 36h-309v-1213z" />
    <glyph glyph-name="E" unicode="E" horiz-adv-x="1269" 
d="M1202 0h-1024v1573h1010v-180h-805v-512h704v-179h-704v-522h819v-180z" />
    <glyph glyph-name="F" unicode="F" horiz-adv-x="1243" 
d="M385 0h-207v1573h1008v-180h-801v-533h700v-178h-700v-682z" />
    <glyph glyph-name="G" unicode="G" horiz-adv-x="1634" 
d="M883 821h598v-821h-193l-2 219h-4q-61 -109 -184 -175.5t-287 -66.5q-161 0 -294 61.5t-221.5 168.5t-136.5 253t-48 314q0 137 30.5 260t92.5 225.5t149 177.5t206 116.5t259 41.5q202 0 359 -85t257 -242l-168 -107q-71 122 -183.5 189t-262.5 67q-165 0 -286 -82.5
t-181.5 -225.5t-60.5 -329q0 -287 138.5 -455.5t383.5 -168.5q199 0 317.5 114t118.5 312q0 47 -4 65h-393v174z" />
    <glyph glyph-name="H" unicode="H" horiz-adv-x="1591" 
d="M385 0h-207v1573h207v-690h821v690h207v-1573h-207v702h-821v-702z" />
    <glyph glyph-name="I" unicode="I" horiz-adv-x="563" 
d="M385 0h-207v1573h207v-1573z" />
    <glyph glyph-name="J" unicode="J" horiz-adv-x="911" 
d="M313 -23q-172 0 -307 97l92 149q95 -76 213 -76q112 0 166.5 68t54.5 180v1178h207v-1180q0 -188 -115 -302t-311 -114z" />
    <glyph glyph-name="K" unicode="K" horiz-adv-x="1386" 
d="M1118 0l-436 702h-297v-702h-207v1573h207v-692h301l422 692h235l-481 -776l502 -797h-246z" />
    <glyph glyph-name="L" unicode="L" horiz-adv-x="1214" 
d="M178 0v1573h207v-1393h801v-180h-1008z" />
    <glyph glyph-name="M" unicode="M" horiz-adv-x="1939" 
d="M1468 1573h293v-1573h-205v1276h-4l-489 -1276h-191l-489 1276h-4v-1276h-201v1573h297l494 -1307h4z" />
    <glyph glyph-name="N" unicode="N" horiz-adv-x="1634" 
d="M1255 1573h201v-1573h-180l-893 1249h-4v-1249h-201v1573h211l862 -1211h4v1211z" />
    <glyph glyph-name="O" unicode="O" horiz-adv-x="1689" 
d="M111 784q0 167 48.5 313.5t138.5 257.5t231 175.5t315 64.5q173 0 313 -62.5t231.5 -171.5t141 -255.5t49.5 -317.5q0 -167 -48.5 -313.5t-138.5 -257.5t-231 -175.5t-315 -64.5q-173 0 -313 62.5t-231.5 171.5t-141 255.5t-49.5 317.5zM322 784q0 -99 19.5 -190
t61.5 -171t102.5 -138.5t148 -92.5t192.5 -34q128 0 229.5 51t164.5 138.5t95.5 199t32.5 239.5q0 126 -32 237t-94.5 200t-164.5 140.5t-233 51.5q-103 0 -189 -33.5t-147 -92t-103.5 -138.5t-62.5 -172.5t-20 -194.5z" />
    <glyph glyph-name="P" unicode="P" horiz-adv-x="1429" 
d="M178 1573h621q162 0 289 -58t201.5 -174t74.5 -274t-76 -275.5t-204.5 -177t-290.5 -59.5h-408v-555h-207v1573zM385 735h422q155 0 250.5 85t95.5 243q0 160 -96.5 245t-249.5 85h-422v-658z" />
    <glyph glyph-name="Q" unicode="Q" horiz-adv-x="1689" 
d="M1182 -303l-172 297q-83 -17 -164 -17q-173 0 -313 62.5t-231.5 171.5t-141 256.5t-49.5 318.5q0 167 48.5 313t139 257t231.5 175t316 64q173 0 313 -62.5t231.5 -171.5t141 -255.5t49.5 -317.5q0 -241 -96.5 -433t-276.5 -292l222 -366h-248zM322 786
q0 -126 32.5 -237.5t95 -200t165 -140.5t233.5 -52q129 0 230.5 51t164 138.5t95 200t32.5 240.5q0 126 -32 237.5t-94.5 200.5t-165.5 141t-234 52q-103 0 -189 -33.5t-147 -92t-103.5 -138.5t-62.5 -172.5t-20 -194.5z" />
    <glyph glyph-name="R" unicode="R" horiz-adv-x="1429" 
d="M1122 0l-319 662h-418v-662h-207v1573h641q224 0 365 -121t141 -330q0 -154 -84.5 -260t-230.5 -153l346 -709h-234zM385 1393v-551h430q132 0 216.5 70.5t84.5 203.5q0 135 -83 206t-216 71h-432z" />
    <glyph glyph-name="S" unicode="S" horiz-adv-x="1314" 
d="M653 -23q-185 0 -336.5 62t-255.5 186l154 133q76 -97 190 -149.5t246 -52.5q188 0 278.5 70t90.5 194q0 49 -18.5 87.5t-47.5 65t-83.5 50t-106 39t-135.5 36.5q-67 17 -111.5 30t-103.5 34.5t-98 43.5t-81 56t-66 73t-40 92t-16 116q0 205 149.5 328.5t405.5 123.5
q346 0 540 -243l-155 -129q-138 194 -387 194q-165 0 -253.5 -70.5t-88.5 -183.5q0 -28 6 -52t14.5 -42.5t28 -36.5t34 -30t46 -26t51.5 -22t63 -21t67.5 -19.5t76.5 -20.5q70 -19 115.5 -33t105.5 -37t98.5 -45.5t80.5 -57t65.5 -73.5t39 -91.5t15.5 -115.5
q0 -212 -153 -337.5t-425 -125.5z" />
    <glyph glyph-name="T" unicode="T" horiz-adv-x="1357" 
d="M782 0h-207v1393h-544v180h1296v-180h-545v-1393z" />
    <glyph glyph-name="U" unicode="U" horiz-adv-x="1591" 
d="M1219 553v1020h200v-1030q0 -260 -167.5 -413t-458.5 -153q-179 0 -319 67t-221 196.5t-81 302.5v1030h207v-1020q0 -180 114 -288.5t308 -108.5q195 0 306.5 106t111.5 291z" />
    <glyph glyph-name="V" unicode="V" horiz-adv-x="1402" 
d="M1178 1573h217l-580 -1573h-225l-582 1573h225l476 -1309h4z" />
    <glyph glyph-name="W" unicode="W" horiz-adv-x="2226" 
d="M1995 1573h211l-467 -1573h-236l-387 1288h-4l-387 -1288h-238l-467 1573h220l374 -1307h4l383 1307h234l385 -1309h4z" />
    <glyph glyph-name="X" unicode="X" horiz-adv-x="1386" 
d="M1376 0h-243l-441 659h-4l-442 -659h-236l547 799l-522 774h244l411 -625h4l418 625h236l-523 -764z" />
    <glyph glyph-name="Y" unicode="Y" horiz-adv-x="1386" 
d="M1151 1573h231l-585 -952v-621h-207v616l-586 957h240l448 -756h4z" />
    <glyph glyph-name="Z" unicode="Z" horiz-adv-x="1331" 
d="M104 1393v180h1121v-164l-895 -1229h917v-180h-1169v164l895 1229h-869z" />
    <glyph glyph-name="bracketleft" unicode="[" horiz-adv-x="696" 
d="M172 -303v1876h438v-158h-256v-1560h256v-158h-438z" />
    <glyph glyph-name="backslash" unicode="\" horiz-adv-x="884" 
d="M705 -49l-693 1673h168l692 -1673h-167z" />
    <glyph glyph-name="bracketright" unicode="]" horiz-adv-x="696" 
d="M524 1573v-1876h-438v158h256v1560h-256v158h438z" />
    <glyph glyph-name="asciicircum" unicode="^" horiz-adv-x="1099" 
d="M100 719l371 799h156l370 -799h-180l-268 600h-4l-269 -600h-176z" />
    <glyph glyph-name="underscore" unicode="_" horiz-adv-x="966" 
d="M0 -303v151h967v-151h-967z" />
    <glyph glyph-name="grave" unicode="`" 
d="M590 1241l-228 332h220l190 -332h-182z" />
    <glyph glyph-name="a" unicode="a" horiz-adv-x="1142" 
d="M985 0h-190l-4 160h-5q-48 -85 -132 -134t-199 -49q-160 0 -257.5 92.5t-97.5 239.5q0 216 213 285q81 26 195 36.5t285 16.5v98q0 91 -63 152t-181 61q-196 0 -254 -165l-162 77q47 123 158 187.5t264 64.5q199 0 314.5 -99.5t115.5 -277.5v-745zM500 141
q130 0 211.5 85.5t81.5 207.5v64q-132 -4 -281 -23q-105 -14 -161 -49.5t-56 -114.5q0 -77 55 -123.5t150 -46.5z" />
    <glyph glyph-name="b" unicode="b" horiz-adv-x="1314" 
d="M721 -23q-240 0 -369 193h-4l-8 -170h-178v1573h194v-647h4q137 196 373 196q149 0 261 -77.5t168.5 -205.5t56.5 -286q0 -115 -34.5 -219t-96.5 -183.5t-157.5 -126.5t-209.5 -47zM682 147q159 0 249.5 114.5t90.5 289.5q0 79 -21 150t-61 128t-106 90t-150 33
q-67 0 -123 -22.5t-94.5 -61t-65 -91t-39 -111t-12.5 -121.5q0 -111 35.5 -199t112.5 -143.5t184 -55.5z" />
    <glyph glyph-name="c" unicode="c" horiz-adv-x="1099" 
d="M627 -23q-165 0 -287.5 74.5t-185 202.5t-62.5 291q0 164 62 294t184 206.5t287 76.5q153 0 264 -68t176 -190l-162 -92q-95 184 -282 184q-156 0 -244 -115t-88 -292q0 -113 37 -203.5t116.5 -146.5t190.5 -56q196 0 287 179l153 -89q-60 -119 -175 -187.5t-271 -68.5z
" />
    <glyph glyph-name="d" unicode="d" horiz-adv-x="1314" 
d="M586 -23q-150 0 -263 77.5t-170 204.5t-57 282q0 163 59.5 294t174.5 209t266 78q109 0 201.5 -46.5t156.5 -135.5h4v633h195v-1573h-190l-2 178h-5q-68 -99 -163.5 -150t-206.5 -51zM621 147q159 0 251.5 112.5t92.5 291.5q0 183 -90.5 292t-247.5 109
q-110 0 -187.5 -58.5t-112 -147.5t-34.5 -199q0 -79 20.5 -149.5t59.5 -127t103 -90t145 -33.5z" />
    <glyph glyph-name="e" unicode="e" horiz-adv-x="1171" 
d="M287 635h610q-10 144 -84 233.5t-213 89.5t-219 -89t-94 -234zM913 276l136 -120q-153 -179 -416 -179q-256 0 -399.5 155.5t-143.5 418.5q0 166 61.5 295t179 202.5t273.5 73.5q153 0 264.5 -72t166.5 -191.5t55 -272.5q0 -62 -7 -113h-794q15 -158 104 -244t242 -86
q178 0 278 133z" />
    <glyph glyph-name="f" unicode="f" horiz-adv-x="751" 
d="M254 0v938h-219v162h219v184q0 151 86 231t244 80q67 0 129 -16v-162q-33 10 -90 10q-94 0 -134 -39t-40 -128v-160h264v-162h-264v-938h-195z" />
    <glyph glyph-name="g" unicode="g" 
d="M1124 1100v-979q0 -255 -150 -386.5t-407 -131.5q-242 0 -411 114l88 154q72 -48 147 -75t174 -27q80 0 144.5 19t115.5 59t79 109.5t28 164.5v94h-4q-62 -97 -157.5 -147t-209.5 -50q-141 0 -249.5 74t-164 197.5t-55.5 273.5q0 152 56.5 278t168 203.5t258.5 77.5
q228 0 357 -180h4l6 158h182zM610 188q153 0 239.5 109.5t86.5 275.5q0 164 -86.5 271.5t-237.5 107.5q-154 0 -238.5 -109.5t-84.5 -273.5q0 -76 19.5 -143.5t57.5 -121.5t101 -85t143 -31z" />
    <glyph glyph-name="h" unicode="h" horiz-adv-x="1259" 
d="M162 0v1573h194v-631h4q56 86 147 133t208 47q177 0 282 -105.5t105 -279.5v-737h-195v698q0 112 -65 184t-185 72q-136 0 -218.5 -84t-82.5 -215v-655h-194z" />
    <glyph glyph-name="i" unicode="i" horiz-adv-x="518" 
d="M154 1362v211h211v-211h-211zM356 0h-194v1100h194v-1100z" />
    <glyph glyph-name="j" unicode="j" horiz-adv-x="518" 
d="M154 1362v211h211v-211h-211zM-16 -383v158q24 -6 57 -6q65 0 93 33t28 98v1200h194v-1225q0 -130 -64.5 -201t-197.5 -71q-59 0 -110 14z" />
    <glyph glyph-name="k" unicode="k" horiz-adv-x="1099" 
d="M842 0l-328 492h-158v-492h-194v1573h194v-920h168l303 447h232l-375 -529l393 -571h-235z" />
    <glyph glyph-name="l" unicode="l" horiz-adv-x="518" 
d="M356 0h-194v1573h194v-1573z" />
    <glyph glyph-name="m" unicode="m" horiz-adv-x="1894" 
d="M354 952h4q111 170 324 170q117 0 203.5 -49.5t128.5 -138.5q117 188 356 188q166 0 266.5 -95.5t100.5 -252.5v-774h-195v729q0 100 -58 162.5t-169 62.5q-121 0 -194.5 -73t-73.5 -189v-692h-195v729q0 100 -58.5 162.5t-166.5 62.5q-122 0 -196.5 -73.5t-74.5 -188.5
v-692h-194v1100h188z" />
    <glyph glyph-name="n" unicode="n" horiz-adv-x="1259" 
d="M162 0v1100h188l4 -162h4q54 86 145.5 135t211.5 49q177 0 282 -105.5t105 -279.5v-737h-195v698q0 112 -65 184t-185 72q-136 0 -218.5 -84t-82.5 -215v-655h-194z" />
    <glyph glyph-name="o" unicode="o" horiz-adv-x="1259" 
d="M631 -23q-167 0 -291.5 77.5t-187 206t-62.5 288.5q0 161 62.5 290t187 206t291.5 77q126 0 229.5 -45t170 -123.5t102.5 -182t36 -222.5q0 -94 -22.5 -179.5t-67.5 -157t-108.5 -124t-150.5 -82t-189 -29.5zM629 956q-109 0 -188.5 -57t-116.5 -147.5t-37 -202.5
q0 -111 37 -201.5t116.5 -147.5t188.5 -57t189 57t117.5 147.5t37.5 201.5q0 173 -90.5 290t-253.5 117z" />
    <glyph glyph-name="p" unicode="p" horiz-adv-x="1314" 
d="M723 -23q-234 0 -363 183h-4v-535h-194v1475h188l4 -174h4q63 94 160.5 145t212.5 51q149 0 261 -75.5t169.5 -203.5t57.5 -288q0 -159 -59 -289.5t-173.5 -209.5t-263.5 -79zM682 147q108 0 186.5 56t116 146t37.5 202q0 80 -20.5 150.5t-60.5 127.5t-106.5 90
t-150.5 33q-106 0 -183 -56.5t-114 -147.5t-37 -203q0 -174 88.5 -286t243.5 -112z" />
    <glyph glyph-name="q" unicode="q" horiz-adv-x="1314" 
d="M596 1122q232 0 365 -188h4l8 166h180v-1475h-195v553h-4q-64 -97 -161 -149t-211 -52t-207 45t-153.5 122.5t-93 179.5t-32.5 219q0 118 34.5 222.5t97 184t158 126t210.5 46.5zM631 952q-109 0 -187 -56.5t-114.5 -146.5t-36.5 -202q0 -64 12 -122t38.5 -109t65 -88.5
t94.5 -59t124 -21.5q162 0 250 115.5t88 288.5q0 177 -87 289t-247 112z" />
    <glyph glyph-name="r" unicode="r" horiz-adv-x="778" 
d="M162 0v1100h188l4 -166h4q102 188 283 188q48 0 92 -14v-190q-42 14 -102 14q-130 0 -202.5 -77.5t-72.5 -186.5v-668h-194z" />
    <glyph glyph-name="s" unicode="s" horiz-adv-x="1054" 
d="M520 -23q-286 0 -461 166l119 133q141 -135 348 -135q127 0 192.5 42.5t65.5 115.5q0 26 -8 46t-29 35.5t-40.5 26.5t-60.5 22.5t-70.5 18.5t-86.5 19q-71 15 -121.5 30t-105 41t-87.5 58t-55 81t-22 111q0 147 113 240.5t321 93.5q255 0 429 -157l-117 -134
q-139 127 -318 127q-111 0 -171 -41.5t-60 -107.5q0 -25 7 -44.5t26.5 -35t38.5 -26t59 -22t69.5 -18.5t88.5 -20q51 -11 86.5 -20.5t80.5 -24.5t75.5 -31.5t62 -40.5t50 -52.5t30.5 -67t12 -84.5q0 -155 -120.5 -250t-340.5 -95z" />
    <glyph glyph-name="t" unicode="t" horiz-adv-x="751" 
d="M20 938v162h220v348h194v-348h264v-162h-264v-602q0 -103 37.5 -147t140.5 -44q34 0 86 9v-158q-82 -19 -153 -19q-154 0 -229.5 80t-75.5 230v651h-220z" />
    <glyph glyph-name="u" unicode="u" horiz-adv-x="1259" 
d="M1098 1100v-1100h-191l-2 162h-4q-56 -85 -148 -135t-208 -50q-177 0 -282 105.5t-105 279.5v738h194v-699q0 -113 64 -184.5t186 -71.5q136 0 218.5 84t82.5 215v656h195z" />
    <glyph glyph-name="v" unicode="v" horiz-adv-x="1126" 
d="M895 1100h205l-434 -1100h-207l-432 1100h213l323 -877h4z" />
    <glyph glyph-name="w" unicode="w" horiz-adv-x="1705" 
d="M1477 1100h196l-354 -1100h-199l-264 831h-4l-264 -831h-199l-356 1100h205l256 -848h4l254 848h209l256 -852h4z" />
    <glyph glyph-name="x" unicode="x" horiz-adv-x="1081" 
d="M1059 0h-223l-295 436h-4l-293 -436h-221l395 561l-377 539h227l275 -412h4l274 412h219l-374 -537z" />
    <glyph glyph-name="y" unicode="y" horiz-adv-x="1126" 
d="M895 1100h205l-467 -1184q-69 -176 -148.5 -244.5t-205.5 -68.5q-74 0 -134 22v158q44 -14 93 -14q86 0 137 43t88 159l4 13l-440 1116h213l323 -877h4z" />
    <glyph glyph-name="z" unicode="z" horiz-adv-x="1028" 
d="M92 930v170h848v-160l-627 -770h650v-170h-889v160l626 770h-608z" />
    <glyph glyph-name="braceleft" unicode="{" horiz-adv-x="768" 
d="M57 551v168h72q81 0 111 34t30 121v400q0 158 67.5 239.5t213.5 81.5q74 0 131 -24v-144q-49 11 -86 11q-76 0 -109.5 -36.5t-33.5 -125.5v-418q0 -192 -158 -221v-4q158 -29 158 -221v-418q0 -89 33.5 -125.5t109.5 -36.5q41 0 86 10v-143q-59 -25 -131 -25
q-146 0 -213.5 82t-67.5 240v399q0 87 -30 121.5t-111 34.5h-72z" />
    <glyph glyph-name="bar" unicode="|" horiz-adv-x="634" 
d="M227 -375v2058h176v-2058h-176z" />
    <glyph glyph-name="braceright" unicode="}" horiz-adv-x="768" 
d="M709 719v-168h-72q-81 0 -111 -34.5t-30 -121.5v-399q0 -158 -67.5 -240t-213.5 -82q-72 0 -131 25v143q45 -10 86 -10q76 0 109.5 36.5t33.5 125.5v418q0 192 158 221v4q-158 29 -158 221v418q0 89 -33.5 125.5t-109.5 36.5q-36 0 -86 -11v144q57 24 131 24
q146 0 213.5 -81.5t67.5 -239.5v-400q0 -87 30 -121t111 -34h72z" />
    <glyph glyph-name="asciitilde" unicode="~" horiz-adv-x="1126" 
d="M254 608h-135q0 75 21.5 129t58 82.5t77 41.5t86.5 13q65 0 143 -26.5t147 -53t114 -26.5q42 0 72 23.5t30 82.5h136q0 -60 -14.5 -107.5t-38.5 -76.5t-56.5 -48t-65.5 -26.5t-69 -7.5q-65 0 -143 27t-147 53.5t-114 26.5q-42 0 -72 -24t-30 -83z" />
    <glyph glyph-name="uni00A0" unicode="&#xa0;" horiz-adv-x="501" 
 />
    <glyph glyph-name="exclamdown" unicode="&#xa1;" horiz-adv-x="661" 
d="M442 1198v-225h-225v225h225zM414 801l22 -1176h-213l23 1176h168z" />
    <glyph glyph-name="cent" unicode="&#xa2;" 
d="M995 524l154 -88q-56 -110 -159 -177.5t-242 -76.5v-231h-175v242q-191 41 -298 191t-107 364q0 217 107 371t298 194v239h175v-229q134 -10 233.5 -77t159.5 -179l-162 -92q-95 184 -283 184q-156 0 -243.5 -115t-87.5 -292q0 -113 37 -203.5t116.5 -146.5t190.5 -56
q195 0 286 178z" />
    <glyph glyph-name="sterling" unicode="&#xa3;" 
d="M156 0v178h155v479h-155v174h155v232q0 207 126.5 335t355.5 128q128 0 223.5 -42t183.5 -126l-123 -141q-62 66 -128 98.5t-156 32.5q-145 0 -212 -79t-67 -218v-220h373v-174h-373v-479h676v-178h-1034z" />
    <glyph glyph-name="currency" unicode="&#xa4;" 
d="M1157 1155l-164 -170q60 -105 60 -237q0 -133 -60 -238l164 -170l-119 -115l-155 162q-102 -76 -240 -76t-240 76l-155 -162l-119 115l164 170q-60 105 -60 238q0 132 60 237l-164 170l119 115l155 -162q102 76 240 76t240 -76l155 162zM399 748q0 -128 66.5 -207.5
t177.5 -79.5t177.5 79.5t66.5 207.5q0 127 -66.5 206.5t-177.5 79.5t-177.5 -79.5t-66.5 -206.5z" />
    <glyph glyph-name="yen" unicode="&#xa5;" 
d="M1235 1503l-395 -635h293v-157h-390v-179h390v-157h-390v-375h-200v375h-389v157h389v179h-389v157h290l-393 635h232l364 -612h4l367 612h217z" />
    <glyph glyph-name="brokenbar" unicode="&#xa6;" horiz-adv-x="634" 
d="M227 879v804h176v-804h-176zM227 -375v805h176v-805h-176z" />
    <glyph glyph-name="section" unicode="&#xa7;" horiz-adv-x="1243" 
d="M1026 1391l-139 -113q-63 81 -128.5 119.5t-148.5 38.5q-109 0 -167 -52t-58 -131q0 -78 72 -119q44 -24 189 -63l1 -1h1h1l1 -1h1h1h1l1 -1h1h1h1l1 -1h1q58 -15 95 -26.5t88 -31t83.5 -38.5t68.5 -49t56.5 -64.5t34 -82t13.5 -103.5q0 -205 -164 -303q113 -81 113 -232
q0 -165 -117 -263.5t-320 -98.5q-142 0 -257.5 53.5t-190.5 159.5l133 110q120 -164 313 -164q124 0 186 53t62 138q0 28 -7 49.5t-26.5 39t-37 29t-56.5 24.5t-65 20.5t-82 21.5q-49 12 -82 21.5t-78 24.5t-75 31t-65 38t-57 49t-42 60.5t-29 76t-9 92.5q0 207 164 304
q-114 80 -114 235q0 162 112 258t305 96q254 0 414 -204zM336 713q0 -42 16.5 -75t35 -52.5t70 -41.5t80.5 -31t109 -31q7 -2 10 -3q67 -18 113 -33q137 57 137 218q0 42 -15.5 74.5t-39 55t-69 42.5t-87.5 33t-112 32q-62 15 -99 27q-71 -28 -110 -84.5t-39 -130.5z" />
    <glyph glyph-name="dieresis" unicode="&#xa8;" 
d="M748 1305v204h202v-204h-202zM336 1305v204h203v-204h-203z" />
    <glyph glyph-name="copyright" unicode="&#xa9;" horiz-adv-x="1705" 
d="M852 0q-178 0 -322 59.5t-236.5 163t-142 239t-49.5 290.5t49.5 290.5t142 238.5t236.5 162.5t322 59.5t322 -59.5t236.5 -162.5t142 -238.5t49.5 -290.5t-49.5 -290.5t-142 -239t-236.5 -163t-322 -59.5zM852 145q117 0 214 32.5t165 89t115 134t69.5 166t22.5 185.5
q0 122 -36.5 229.5t-106.5 192.5t-184 134.5t-259 49.5t-259 -49.5t-184 -134.5t-106.5 -192.5t-36.5 -229.5q0 -97 22.5 -185.5t69.5 -166t115 -134t165 -89t214 -32.5zM870 332q-185 0 -293 116.5t-108 305.5q0 116 45.5 209.5t137.5 150.5t216 57q192 0 308 -145
l-119 -98q-76 104 -191 104q-106 0 -164.5 -78t-58.5 -200t61 -202.5t173 -80.5q115 0 190 96l111 -96q-109 -139 -308 -139z" />
    <glyph glyph-name="ordfeminine" unicode="&#xaa;" horiz-adv-x="794" 
d="M309 836q-108 0 -172.5 61t-64.5 160q0 141 145 188q93 30 311 37v61q0 56 -39 88.5t-108 32.5q-112 0 -164 -104l-125 76q84 159 299 159q141 0 220 -67t79 -187v-491h-158l-2 98h-4q-31 -52 -86.5 -82t-130.5 -30zM354 963q77 0 125.5 50t48.5 120v41q-96 -4 -166 -15
q-62 -9 -95.5 -30t-33.5 -68q0 -45 32.5 -71.5t88.5 -26.5z" />
    <glyph glyph-name="guillemotleft" unicode="&#xab;" horiz-adv-x="1054" 
d="M403 168l-299 407l299 408h193l-297 -408l297 -407h-193zM762 168l-299 407l299 408h192l-297 -408l297 -407h-192z" />
    <glyph glyph-name="logicalnot" unicode="&#xac;" horiz-adv-x="1198" 
d="M109 666v151h978v-569h-165v418h-813z" />
    <glyph glyph-name="uni00AD" unicode="&#xad;" horiz-adv-x="706" 
d="M109 520v180h487v-180h-487z" />
    <glyph glyph-name="registered" unicode="&#xae;" horiz-adv-x="937" 
d="M469 1595q168 0 283.5 -115t115.5 -280t-115.5 -280t-283.5 -115t-283.5 115t-115.5 280t115.5 280t283.5 115zM469 874q138 0 232 95t94 231t-94 231t-232 95t-232 -95t-94 -231t94 -231t232 -95zM326 1399h180q59 0 97 -32t38 -87q0 -43 -23.5 -74t-62.5 -43l98 -162
h-90l-90 156h-70v-156h-77v398zM403 1335v-121h86q32 0 52 16t20 46q0 29 -19.5 44t-52.5 15h-86z" />
    <glyph glyph-name="macron" unicode="&#xaf;" 
d="M356 1331v152h574v-152h-574z" />
    <glyph glyph-name="degree" unicode="&#xb0;" horiz-adv-x="751" 
d="M375 924q-126 0 -213.5 88t-87.5 213t87.5 213t213.5 88t213.5 -88t87.5 -213t-87.5 -213t-213.5 -88zM375 1042q76 0 127 53t51 130t-51 129.5t-127 52.5t-127 -52.5t-51 -129.5t51 -130t127 -53z" />
    <glyph glyph-name="plusminus" unicode="&#xb1;" horiz-adv-x="1198" 
d="M514 496v356h-369v152h369v356h168v-356h369v-152h-369v-356h-168zM145 156v151h906v-151h-906z" />
    <glyph glyph-name="two.superior" unicode="&#xb2;" horiz-adv-x="823" 
d="M90 860v105l328 311q137 127 137 229q0 64 -42.5 103t-123.5 39q-64 0 -110 -27.5t-91 -85.5l-102 86q116 152 313 152q146 0 230 -73t84 -186q0 -74 -36.5 -143t-117.5 -145l-252 -236v-4h424v-125h-641z" />
    <glyph glyph-name="three.superior" unicode="&#xb3;" horiz-adv-x="823" 
d="M385 846q-117 0 -200 41t-124 108l113 80q70 -106 209 -106q91 0 141.5 39.5t50.5 105.5q0 65 -51.5 105.5t-136.5 40.5h-102v118h102q77 0 123.5 37.5t46.5 97.5q0 61 -46 98.5t-128 37.5q-120 0 -195 -101l-106 88q106 136 305 136q151 0 239.5 -69.5t88.5 -176.5
q0 -71 -39 -121.5t-111 -75.5v-4q168 -59 168 -217q0 -116 -93.5 -189t-254.5 -73z" />
    <glyph glyph-name="acute" unicode="&#xb4;" 
d="M920 1573l-228 -332h-178l191 332h215z" />
    <glyph glyph-name="mu" unicode="&#xb5;" horiz-adv-x="1259" 
d="M901 1100h197v-1100h-191l-4 160h-4q-51 -79 -141.5 -131t-204.5 -52q-113 0 -195 43l19 -395h-215v1475h196v-699q0 -113 62 -183.5t182 -70.5q137 0 218 83t81 212v658z" />
    <glyph glyph-name="paragraph" unicode="&#xb6;" horiz-adv-x="1259" 
d="M123 1087q0 238 132.5 362t360.5 124h529v-146h-182v-1730h-179v1730h-159v-817q-246 0 -374 126t-128 351z" />
    <glyph glyph-name="periodcentered" unicode="&#xb7;" horiz-adv-x="589" 
d="M182 498v225h226v-225h-226z" />
    <glyph glyph-name="cedilla" unicode="&#xb8;" 
d="M709 47l-35 -113q88 -11 135 -48t47 -95q0 -74 -63.5 -119t-180.5 -45q-91 0 -166 21l19 100q61 -14 117 -14q102 0 102 61q0 32 -32.5 49t-110.5 23l57 180h111z" />
    <glyph glyph-name="one.superior" unicode="&#xb9;" horiz-adv-x="823" 
d="M135 860v125h221v604q-96 -57 -221 -86v127q166 50 260 127h121v-772h221v-125h-602z" />
    <glyph glyph-name="ordmasculine" unicode="&#xba;" horiz-adv-x="884" 
d="M442 836q-177 0 -278 107.5t-101 273.5q0 165 101 271.5t278 106.5q176 0 276.5 -106.5t100.5 -271.5q0 -166 -100.5 -273.5t-276.5 -107.5zM442 1464q-103 0 -159 -71.5t-56 -178.5t56 -177t159 -70q102 0 157.5 70t55.5 177t-55.5 178.5t-157.5 71.5z" />
    <glyph glyph-name="guillemotright" unicode="&#xbb;" horiz-adv-x="1054" 
d="M293 983l299 -408l-299 -407h-193l297 407l-297 408h193zM651 983l299 -408l-299 -407h-192l297 407l-297 408h192z" />
    <glyph glyph-name="onequarter" unicode="&#xbc;" horiz-adv-x="1992" 
d="M106 606v125h222v604q-96 -56 -222 -86v127q168 51 261 127h120v-772h222v-125h-603zM668 0h-176l868 1503h176zM1956 317v-118h-166v-199h-156v199h-463v98l441 600h178v-580h166zM1335 317h299v402h-4z" />
    <glyph glyph-name="onehalf" unicode="&#xbd;" horiz-adv-x="2054" 
d="M106 606v125h222v604q-96 -56 -222 -86v127q168 51 261 127h120v-772h222v-125h-603zM668 0h-176l868 1503h176zM1311 0v104l327 312q138 128 138 229q0 64 -42.5 102.5t-123.5 38.5q-64 0 -110 -27t-91 -85l-102 86q115 151 313 151q146 0 229.5 -72.5t83.5 -185.5
q0 -75 -36 -143.5t-117 -144.5l-252 -236v-4h424v-125h-641z" />
    <glyph glyph-name="threequarters" unicode="&#xbe;" horiz-adv-x="1992" 
d="M367 592q-117 0 -200 41t-124 108l113 80q70 -106 209 -106q91 0 141.5 39.5t50.5 105.5q0 65 -51.5 105.5t-136.5 40.5h-103v118h103q77 0 123.5 37.5t46.5 98.5t-46 98t-128 37q-120 0 -195 -101l-107 88q106 136 306 136q151 0 239 -69.5t88 -176.5q0 -71 -39 -121.5
t-110 -75.5v-4q168 -59 168 -217q0 -116 -93.5 -189t-254.5 -73zM668 0h-176l868 1503h176zM1956 317v-118h-166v-199h-156v199h-463v98l441 600h178v-580h166zM1335 317h299v402h-4z" />
    <glyph glyph-name="questiondown" unicode="&#xbf;" horiz-adv-x="937" 
d="M633 1198v-225h-225v225h225zM299 422q60 54 86 87t38.5 73.5t12.5 107.5v111h168v-162q0 -37 -5 -69.5t-10.5 -56t-22.5 -51t-26.5 -42t-38.5 -44t-41.5 -41.5t-51.5 -48q-57 -52 -88 -87.5t-54.5 -88t-23.5 -111.5q0 -108 64 -166.5t173 -58.5q163 0 275 127l118 -131
q-67 -74 -171 -121t-232 -47q-190 0 -308 105t-118 284q0 68 16.5 124.5t56 110.5t76.5 92.5t107 102.5z" />
    <glyph glyph-name="Agrave" unicode="&#xc0;" horiz-adv-x="1501" 
d="M1266 0l-170 440h-701l-168 -440h-217l619 1573h243l619 -1573h-225zM463 618h563l-281 732h-4zM682 1667l-238 281h228l205 -281h-195z" />
    <glyph glyph-name="Aacute" unicode="&#xc1;" horiz-adv-x="1501" 
d="M1266 0l-170 440h-701l-168 -440h-217l619 1573h243l619 -1573h-225zM463 618h563l-281 732h-4zM1047 1948l-240 -281h-191l205 281h226z" />
    <glyph glyph-name="Acircumflex" unicode="&#xc2;" horiz-adv-x="1501" 
d="M1266 0l-170 440h-701l-168 -440h-217l619 1573h243l619 -1573h-225zM463 618h563l-281 732h-4zM389 1667l260 281h195l258 -281h-199l-160 170l-155 -170h-199z" />
    <glyph glyph-name="Atilde" unicode="&#xc3;" horiz-adv-x="1501" 
d="M1266 0l-170 440h-701l-168 -440h-217l619 1573h243l619 -1573h-225zM463 618h563l-281 732h-4zM588 1925q60 0 115 -20.5t102 -41t88 -20.5q80 0 92 80h131q-22 -233 -211 -233q-61 0 -116.5 20.5t-102 41t-86.5 20.5q-80 0 -92 -80h-131q22 233 211 233z" />
    <glyph glyph-name="Adieresis" unicode="&#xc4;" horiz-adv-x="1501" 
d="M1266 0l-170 440h-701l-168 -440h-217l619 1573h243l619 -1573h-225zM463 618h563l-281 732h-4zM858 1704v207h205v-207h-205zM428 1704v207h205v-207h-205z" />
    <glyph glyph-name="Aring" unicode="&#xc5;" horiz-adv-x="1501" 
d="M1266 0l-170 440h-701l-168 -440h-217l594 1511q-46 31 -73 82.5t-27 112.5q0 101 69 169.5t172 68.5t172.5 -68.5t69.5 -169.5q0 -122 -92 -188l596 -1518h-225zM463 618h563l-281 732h-4zM745 1839q-58 0 -91 -38t-33 -95t33 -95t91 -38t91.5 38.5t33.5 94.5
t-33.5 94.5t-91.5 38.5z" />
    <glyph glyph-name="AE" unicode="&#xc6;" horiz-adv-x="1992" 
d="M1165 180h760v-180h-962v440h-531l-239 -440h-218l867 1573h1069v-180h-746v-512h645v-179h-645v-522zM528 618h435v791h-5z" />
    <glyph glyph-name="Ccedilla" unicode="&#xc7;" horiz-adv-x="1474" 
d="M774 -373q-91 0 -166 21l19 100q61 -14 116 -14q103 0 103 61q0 32 -33 49t-111 23l39 123q-196 19 -340 128.5t-217 282t-73 387.5q0 172 49 319t138.5 255.5t226 170.5t302.5 62q200 0 353.5 -89t244.5 -249l-170 -100q-138 260 -426 260q-125 0 -223.5 -50.5
t-159.5 -138.5t-92.5 -200t-31.5 -240q0 -101 19 -192.5t60.5 -172t101 -139t146.5 -92.5t191 -34q148 0 255.5 68t172.5 188l166 -95q-89 -155 -238.5 -243.5t-345.5 -91.5l-16 -50q89 -10 136.5 -47t47.5 -96q0 -74 -63.5 -119t-180.5 -45z" />
    <glyph glyph-name="Egrave" unicode="&#xc8;" horiz-adv-x="1269" 
d="M1202 0h-1024v1573h1010v-180h-805v-512h704v-179h-704v-522h819v-180zM627 1667l-238 281h227l205 -281h-194z" />
    <glyph glyph-name="Eacute" unicode="&#xc9;" horiz-adv-x="1269" 
d="M1202 0h-1024v1573h1010v-180h-805v-512h704v-179h-704v-522h819v-180zM991 1948l-239 -281h-191l205 281h225z" />
    <glyph glyph-name="Ecircumflex" unicode="&#xca;" horiz-adv-x="1269" 
d="M1202 0h-1024v1573h1010v-180h-805v-512h704v-179h-704v-522h819v-180zM334 1667l260 281h194l259 -281h-199l-160 170l-156 -170h-198z" />
    <glyph glyph-name="Edieresis" unicode="&#xcb;" horiz-adv-x="1269" 
d="M1202 0h-1024v1573h1010v-180h-805v-512h704v-179h-704v-522h819v-180zM803 1704v207h205v-207h-205zM373 1704v207h205v-207h-205z" />
    <glyph glyph-name="Igrave" unicode="&#xcc;" horiz-adv-x="563" 
d="M385 0h-207v1573h207v-1573zM217 1667l-237 281h227l205 -281h-195z" />
    <glyph glyph-name="Iacute" unicode="&#xcd;" horiz-adv-x="563" 
d="M385 0h-207v1573h207v-1573zM582 1948l-240 -281h-190l204 281h226z" />
    <glyph glyph-name="Icircumflex" unicode="&#xce;" horiz-adv-x="563" 
d="M385 0h-207v1573h207v-1573zM-76 1667l260 281h195l258 -281h-199l-159 170l-156 -170h-199z" />
    <glyph glyph-name="Idieresis" unicode="&#xcf;" horiz-adv-x="563" 
d="M385 0h-207v1573h207v-1573zM393 1704v207h205v-207h-205zM-37 1704v207h205v-207h-205z" />
    <glyph glyph-name="Eth" unicode="&#xd0;" horiz-adv-x="1591" 
d="M178 0v711h-192v168h192v694h529q155 0 285 -40.5t223 -112t157.5 -170.5t95.5 -216t31 -248q0 -234 -94.5 -412t-270.5 -276t-409 -98h-547zM385 180h328q265 0 420 154t155 450q0 155 -45.5 273.5t-127.5 191t-188 108.5t-233 36h-309v-514h358v-168h-358v-531z" />
    <glyph glyph-name="Ntilde" unicode="&#xd1;" horiz-adv-x="1634" 
d="M1255 1573h201v-1573h-180l-893 1249h-4v-1249h-201v1573h211l862 -1211h4v1211zM662 1925q60 0 115 -20.5t102 -41t88 -20.5q80 0 92 80h131q-22 -233 -211 -233q-61 0 -116.5 20.5t-102 41t-86.5 20.5q-80 0 -92 -80h-131q22 233 211 233z" />
    <glyph glyph-name="Ograve" unicode="&#xd2;" horiz-adv-x="1689" 
d="M111 784q0 167 48.5 313.5t138.5 257.5t231 175.5t315 64.5q173 0 313 -62.5t231.5 -171.5t141 -255.5t49.5 -317.5q0 -167 -48.5 -313.5t-138.5 -257.5t-231 -175.5t-315 -64.5q-173 0 -313 62.5t-231.5 171.5t-141 255.5t-49.5 317.5zM322 784q0 -99 19.5 -190
t61.5 -171t102.5 -138.5t148 -92.5t192.5 -34q128 0 229.5 51t164.5 138.5t95.5 199t32.5 239.5q0 126 -32 237t-94.5 200t-164.5 140.5t-233 51.5q-103 0 -189 -33.5t-147 -92t-103.5 -138.5t-62.5 -172.5t-20 -194.5zM780 1667l-237 281h227l205 -281h-195z" />
    <glyph glyph-name="Oacute" unicode="&#xd3;" horiz-adv-x="1689" 
d="M111 784q0 167 48.5 313.5t138.5 257.5t231 175.5t315 64.5q173 0 313 -62.5t231.5 -171.5t141 -255.5t49.5 -317.5q0 -167 -48.5 -313.5t-138.5 -257.5t-231 -175.5t-315 -64.5q-173 0 -313 62.5t-231.5 171.5t-141 255.5t-49.5 317.5zM322 784q0 -99 19.5 -190
t61.5 -171t102.5 -138.5t148 -92.5t192.5 -34q128 0 229.5 51t164.5 138.5t95.5 199t32.5 239.5q0 126 -32 237t-94.5 200t-164.5 140.5t-233 51.5q-103 0 -189 -33.5t-147 -92t-103.5 -138.5t-62.5 -172.5t-20 -194.5zM1145 1948l-240 -281h-190l205 281h225z" />
    <glyph glyph-name="Ocircumflex" unicode="&#xd4;" horiz-adv-x="1689" 
d="M111 784q0 167 48.5 313.5t138.5 257.5t231 175.5t315 64.5q173 0 313 -62.5t231.5 -171.5t141 -255.5t49.5 -317.5q0 -167 -48.5 -313.5t-138.5 -257.5t-231 -175.5t-315 -64.5q-173 0 -313 62.5t-231.5 171.5t-141 255.5t-49.5 317.5zM322 784q0 -99 19.5 -190
t61.5 -171t102.5 -138.5t148 -92.5t192.5 -34q128 0 229.5 51t164.5 138.5t95.5 199t32.5 239.5q0 126 -32 237t-94.5 200t-164.5 140.5t-233 51.5q-103 0 -189 -33.5t-147 -92t-103.5 -138.5t-62.5 -172.5t-20 -194.5zM487 1667l261 281h194l258 -281h-199l-159 170
l-156 -170h-199z" />
    <glyph glyph-name="Otilde" unicode="&#xd5;" horiz-adv-x="1689" 
d="M111 784q0 167 48.5 313.5t138.5 257.5t231 175.5t315 64.5q173 0 313 -62.5t231.5 -171.5t141 -255.5t49.5 -317.5q0 -167 -48.5 -313.5t-138.5 -257.5t-231 -175.5t-315 -64.5q-173 0 -313 62.5t-231.5 171.5t-141 255.5t-49.5 317.5zM322 784q0 -99 19.5 -190
t61.5 -171t102.5 -138.5t148 -92.5t192.5 -34q128 0 229.5 51t164.5 138.5t95.5 199t32.5 239.5q0 126 -32 237t-94.5 200t-164.5 140.5t-233 51.5q-103 0 -189 -33.5t-147 -92t-103.5 -138.5t-62.5 -172.5t-20 -194.5zM686 1925q60 0 115 -20.5t102 -41t88 -20.5
q80 0 92 80h131q-22 -233 -210 -233q-61 0 -116.5 20.5t-102.5 41t-87 20.5q-80 0 -92 -80h-131q22 233 211 233z" />
    <glyph glyph-name="Odieresis" unicode="&#xd6;" horiz-adv-x="1689" 
d="M111 784q0 167 48.5 313.5t138.5 257.5t231 175.5t315 64.5q173 0 313 -62.5t231.5 -171.5t141 -255.5t49.5 -317.5q0 -167 -48.5 -313.5t-138.5 -257.5t-231 -175.5t-315 -64.5q-173 0 -313 62.5t-231.5 171.5t-141 255.5t-49.5 317.5zM322 784q0 -99 19.5 -190
t61.5 -171t102.5 -138.5t148 -92.5t192.5 -34q128 0 229.5 51t164.5 138.5t95.5 199t32.5 239.5q0 126 -32 237t-94.5 200t-164.5 140.5t-233 51.5q-103 0 -189 -33.5t-147 -92t-103.5 -138.5t-62.5 -172.5t-20 -194.5zM956 1704v207h205v-207h-205zM526 1704v207h205v-207
h-205z" />
    <glyph glyph-name="multiply" unicode="&#xd7;" horiz-adv-x="1198" 
d="M291 324l-109 108l307 307l-307 308l109 108l307 -307l307 307l109 -108l-307 -308l307 -307l-109 -108l-307 307z" />
    <glyph glyph-name="Oslash" unicode="&#xd8;" horiz-adv-x="1689" 
d="M1567 1581l-174 -225q90 -107 138 -253.5t48 -314.5q0 -167 -48.5 -313.5t-138.5 -257.5t-231 -175.5t-315 -64.5q-245 0 -428 127l-160 -206l-135 94l174 225q-90 107 -138 253t-48 314q0 167 48.5 313.5t138.5 257.5t231 175.5t315 64.5q245 0 428 -127l160 207z
M426 381l727 936q-127 100 -309 100q-128 0 -229.5 -51.5t-164.5 -139.5t-95.5 -201t-32.5 -241q0 -240 104 -403zM1264 1192l-727 -936q127 -100 309 -100q103 0 189 33.5t147 92t103.5 138.5t62.5 172.5t20 193.5q0 243 -104 406z" />
    <glyph glyph-name="Ugrave" unicode="&#xd9;" horiz-adv-x="1591" 
d="M1219 553v1020h200v-1030q0 -260 -167.5 -413t-458.5 -153q-179 0 -319 67t-221 196.5t-81 302.5v1030h207v-1020q0 -180 114 -288.5t308 -108.5q195 0 306.5 106t111.5 291zM735 1667l-237 281h227l205 -281h-195z" />
    <glyph glyph-name="Uacute" unicode="&#xda;" horiz-adv-x="1591" 
d="M1219 553v1020h200v-1030q0 -260 -167.5 -413t-458.5 -153q-179 0 -319 67t-221 196.5t-81 302.5v1030h207v-1020q0 -180 114 -288.5t308 -108.5q195 0 306.5 106t111.5 291zM1100 1948l-240 -281h-190l204 281h226z" />
    <glyph glyph-name="Ucircumflex" unicode="&#xdb;" horiz-adv-x="1591" 
d="M1219 553v1020h200v-1030q0 -260 -167.5 -413t-458.5 -153q-179 0 -319 67t-221 196.5t-81 302.5v1030h207v-1020q0 -180 114 -288.5t308 -108.5q195 0 306.5 106t111.5 291zM442 1667l260 281h195l258 -281h-199l-159 170l-156 -170h-199z" />
    <glyph glyph-name="Udieresis" unicode="&#xdc;" horiz-adv-x="1591" 
d="M1219 553v1020h200v-1030q0 -260 -167.5 -413t-458.5 -153q-179 0 -319 67t-221 196.5t-81 302.5v1030h207v-1020q0 -180 114 -288.5t308 -108.5q195 0 306.5 106t111.5 291zM911 1704v207h205v-207h-205zM481 1704v207h205v-207h-205z" />
    <glyph glyph-name="Yacute" unicode="&#xdd;" horiz-adv-x="1386" 
d="M1151 1573h231l-585 -952v-621h-207v616l-586 957h240l448 -756h4zM993 1948l-239 -281h-191l205 281h225z" />
    <glyph glyph-name="Thorn" unicode="&#xde;" horiz-adv-x="1429" 
d="M385 1305h414q159 0 286 -57.5t203 -173.5t76 -273t-76 -275t-204.5 -178.5t-290.5 -60.5h-408v-287h-207v1573h207v-268zM385 467h422q155 0 250.5 85t95.5 243q0 160 -96.5 244.5t-249.5 84.5h-422v-657z" />
    <glyph glyph-name="germandbls" unicode="&#xdf;" horiz-adv-x="1314" 
d="M356 0h-194v1204q0 179 132.5 285t346.5 106t346.5 -107.5t132.5 -273.5q0 -110 -62 -196.5t-167 -130.5v-4q159 -38 245.5 -151t86.5 -275q0 -214 -142.5 -347t-369.5 -133q-101 0 -209 33v170q112 -35 203 -35q155 0 239 86.5t84 225.5q0 140 -86 226.5t-240 86.5h-145
v168h84q127 0 206 69.5t79 178.5q0 111 -76.5 177.5t-210.5 66.5t-208.5 -67t-74.5 -179v-1184z" />
    <glyph glyph-name="agrave" unicode="&#xe0;" horiz-adv-x="1142" 
d="M985 0h-190l-4 160h-5q-48 -85 -132 -134t-199 -49q-160 0 -257.5 92.5t-97.5 239.5q0 216 213 285q81 26 195 36.5t285 16.5v98q0 91 -63 152t-181 61q-196 0 -254 -165l-162 77q47 123 158 187.5t264 64.5q199 0 314.5 -99.5t115.5 -277.5v-745zM500 141
q130 0 211.5 85.5t81.5 207.5v64q-132 -4 -281 -23q-105 -14 -161 -49.5t-56 -114.5q0 -77 55 -123.5t150 -46.5zM508 1241l-227 332h219l190 -332h-182z" />
    <glyph glyph-name="aacute" unicode="&#xe1;" horiz-adv-x="1142" 
d="M985 0h-190l-4 160h-5q-48 -85 -132 -134t-199 -49q-160 0 -257.5 92.5t-97.5 239.5q0 216 213 285q81 26 195 36.5t285 16.5v98q0 91 -63 152t-181 61q-196 0 -254 -165l-162 77q47 123 158 187.5t264 64.5q199 0 314.5 -99.5t115.5 -277.5v-745zM500 141
q130 0 211.5 85.5t81.5 207.5v64q-132 -4 -281 -23q-105 -14 -161 -49.5t-56 -114.5q0 -77 55 -123.5t150 -46.5zM838 1573l-228 -332h-178l191 332h215z" />
    <glyph glyph-name="acircumflex" unicode="&#xe2;" horiz-adv-x="1142" 
d="M985 0h-190l-4 160h-5q-48 -85 -132 -134t-199 -49q-160 0 -257.5 92.5t-97.5 239.5q0 216 213 285q81 26 195 36.5t285 16.5v98q0 91 -63 152t-181 61q-196 0 -254 -165l-162 77q47 123 158 187.5t264 64.5q199 0 314.5 -99.5t115.5 -277.5v-745zM500 141
q130 0 211.5 85.5t81.5 207.5v64q-132 -4 -281 -23q-105 -14 -161 -49.5t-56 -114.5q0 -77 55 -123.5t150 -46.5zM233 1241l230 332h196l230 -332h-191l-139 213l-139 -213h-187z" />
    <glyph glyph-name="atilde" unicode="&#xe3;" horiz-adv-x="1142" 
d="M985 0h-190l-4 160h-5q-48 -85 -132 -134t-199 -49q-160 0 -257.5 92.5t-97.5 239.5q0 216 213 285q81 26 195 36.5t285 16.5v98q0 91 -63 152t-181 61q-196 0 -254 -165l-162 77q47 123 158 187.5t264 64.5q199 0 314.5 -99.5t115.5 -277.5v-745zM500 141
q130 0 211.5 85.5t81.5 207.5v64q-132 -4 -281 -23q-105 -14 -161 -49.5t-56 -114.5q0 -77 55 -123.5t150 -46.5zM412 1534q45 0 88.5 -15.5t71 -34.5t62.5 -34.5t66 -15.5q37 0 56.5 22t25.5 72h133q-22 -248 -204 -248q-45 0 -88.5 15.5t-71.5 34.5t-63 34.5t-66 15.5
q-37 0 -56.5 -22t-25.5 -72h-133q22 248 205 248z" />
    <glyph glyph-name="adieresis" unicode="&#xe4;" horiz-adv-x="1142" 
d="M985 0h-190l-4 160h-5q-48 -85 -132 -134t-199 -49q-160 0 -257.5 92.5t-97.5 239.5q0 216 213 285q81 26 195 36.5t285 16.5v98q0 91 -63 152t-181 61q-196 0 -254 -165l-162 77q47 123 158 187.5t264 64.5q199 0 314.5 -99.5t115.5 -277.5v-745zM500 141
q130 0 211.5 85.5t81.5 207.5v64q-132 -4 -281 -23q-105 -14 -161 -49.5t-56 -114.5q0 -77 55 -123.5t150 -46.5zM666 1305v204h202v-204h-202zM254 1305v204h203v-204h-203z" />
    <glyph glyph-name="aring" unicode="&#xe5;" horiz-adv-x="1142" 
d="M985 0h-190l-4 160h-5q-48 -85 -132 -134t-199 -49q-160 0 -257.5 92.5t-97.5 239.5q0 216 213 285q81 26 195 36.5t285 16.5v98q0 91 -63 152t-181 61q-196 0 -254 -165l-162 77q47 123 158 187.5t264 64.5q199 0 314.5 -99.5t115.5 -277.5v-745zM500 141
q130 0 211.5 85.5t81.5 207.5v64q-132 -4 -281 -23q-105 -14 -161 -49.5t-56 -114.5q0 -77 55 -123.5t150 -46.5zM319 1454q0 101 69.5 169.5t172.5 68.5t172.5 -68.5t69.5 -169.5t-69.5 -169t-172.5 -68t-172.5 68t-69.5 169zM436 1454q0 -56 33.5 -94.5t91.5 -38.5
t91.5 38.5t33.5 94.5t-33.5 94.5t-91.5 38.5t-91.5 -38.5t-33.5 -94.5z" />
    <glyph glyph-name="ae" unicode="&#xe6;" horiz-adv-x="1849" 
d="M977 635h598q-13 147 -86 235t-207 88t-211.5 -87.5t-93.5 -235.5zM786 430v59q-121 -4 -278 -24q-105 -14 -159 -46.5t-54 -107.5t53 -122.5t139 -47.5q134 0 216.5 84t82.5 205zM295 793l-162 77q50 126 162.5 189t253.5 63q254 0 366 -168q139 168 371 168
q151 0 261.5 -72.5t165 -193.5t54.5 -274q0 -66 -6 -109h-782q21 -148 110.5 -239t237.5 -91q167 0 268 133l136 -120q-153 -179 -414 -179q-149 0 -262 61t-181 171q-63 -111 -167 -171.5t-240 -60.5q-166 0 -266.5 91t-100.5 237q0 171 136 248q84 48 212 64.5t338 21.5
v111q0 87 -65 147.5t-178 60.5q-91 0 -155 -41.5t-93 -123.5z" />
    <glyph glyph-name="ccedilla" unicode="&#xe7;" horiz-adv-x="1099" 
d="M541 -373q-91 0 -166 21l18 100q61 -14 117 -14q102 0 102 61q0 32 -32.5 49t-110.5 23l41 127q-196 33 -307 184t-111 369q0 163 62 292.5t184 206t287 76.5q153 0 264 -68t176 -190l-162 -92q-95 184 -282 184q-156 0 -244 -114.5t-88 -290.5q0 -113 37 -203.5
t116.5 -146.5t190.5 -56q196 0 287 179l153 -88q-60 -119 -175.5 -185.5t-281.5 -66.5l-16 -50q89 -10 136.5 -47t47.5 -96q0 -74 -63 -119t-180 -45z" />
    <glyph glyph-name="egrave" unicode="&#xe8;" horiz-adv-x="1171" 
d="M287 635h610q-10 144 -84 233.5t-213 89.5t-219 -89t-94 -234zM913 276l136 -120q-153 -179 -416 -179q-256 0 -399.5 155.5t-143.5 418.5q0 166 61.5 295t179 202.5t273.5 73.5q153 0 264.5 -72t166.5 -191.5t55 -272.5q0 -62 -7 -113h-794q15 -158 104 -244t242 -86
q178 0 278 133zM539 1241l-228 332h219l191 -332h-182z" />
    <glyph glyph-name="eacute" unicode="&#xe9;" horiz-adv-x="1171" 
d="M287 635h610q-10 144 -84 233.5t-213 89.5t-219 -89t-94 -234zM913 276l136 -120q-153 -179 -416 -179q-256 0 -399.5 155.5t-143.5 418.5q0 166 61.5 295t179 202.5t273.5 73.5q153 0 264.5 -72t166.5 -191.5t55 -272.5q0 -62 -7 -113h-794q15 -158 104 -244t242 -86
q178 0 278 133zM868 1573l-227 -332h-178l190 332h215z" />
    <glyph glyph-name="ecircumflex" unicode="&#xea;" horiz-adv-x="1171" 
d="M287 635h610q-10 144 -84 233.5t-213 89.5t-219 -89t-94 -234zM913 276l136 -120q-153 -179 -416 -179q-256 0 -399.5 155.5t-143.5 418.5q0 166 61.5 295t179 202.5t273.5 73.5q153 0 264.5 -72t166.5 -191.5t55 -272.5q0 -62 -7 -113h-794q15 -158 104 -244t242 -86
q178 0 278 133zM264 1241l230 332h196l230 -332h-191l-139 213l-139 -213h-187z" />
    <glyph glyph-name="edieresis" unicode="&#xeb;" horiz-adv-x="1171" 
d="M287 635h610q-10 144 -84 233.5t-213 89.5t-219 -89t-94 -234zM913 276l136 -120q-153 -179 -416 -179q-256 0 -399.5 155.5t-143.5 418.5q0 166 61.5 295t179 202.5t273.5 73.5q153 0 264.5 -72t166.5 -191.5t55 -272.5q0 -62 -7 -113h-794q15 -158 104 -244t242 -86
q178 0 278 133zM696 1305v204h203v-204h-203zM285 1305v204h202v-204h-202z" />
    <glyph glyph-name="igrave" unicode="&#xec;" horiz-adv-x="518" 
d="M356 0h-194v1100h194v-1100zM205 1241l-228 332h220l190 -332h-182z" />
    <glyph glyph-name="iacute" unicode="&#xed;" horiz-adv-x="518" 
d="M356 0h-194v1100h194v-1100zM535 1573l-228 -332h-178l190 332h216z" />
    <glyph glyph-name="icircumflex" unicode="&#xee;" horiz-adv-x="518" 
d="M356 0h-194v1100h194v-1100zM-70 1241l230 332h196l230 -332h-191l-139 213l-139 -213h-187z" />
    <glyph glyph-name="idieresis" unicode="&#xef;" horiz-adv-x="518" 
d="M356 0h-194v1100h194v-1100zM362 1305v204h203v-204h-203zM-49 1305v204h203v-204h-203z" />
    <glyph glyph-name="eth" unicode="&#xf0;" horiz-adv-x="1259" 
d="M924 1524l-146 -119q180 -151 278.5 -366t98.5 -457q0 -278 -140 -441.5t-394 -163.5q-124 0 -225.5 43.5t-168 119t-103 176.5t-36.5 216q0 152 58.5 275t173.5 197.5t268 74.5q201 0 309 -123l4 2q-86 196 -264 332l-186 -151l-93 112l148 127q-94 51 -176 78l73 154
q124 -38 244 -109l170 148zM625 143q159 0 249.5 109t90.5 276t-93 278.5t-258 111.5q-84 0 -149 -30.5t-104 -84t-58.5 -120.5t-19.5 -144q0 -171 89 -283.5t253 -112.5z" />
    <glyph glyph-name="ntilde" unicode="&#xf1;" horiz-adv-x="1259" 
d="M162 0v1100h188l4 -162h4q54 86 145.5 135t211.5 49q177 0 282 -105.5t105 -279.5v-737h-195v698q0 112 -65 184t-185 72q-136 0 -218.5 -84t-82.5 -215v-655h-194zM487 1534q45 0 88.5 -15.5t71.5 -34.5t63 -34.5t66 -15.5q37 0 56.5 22t25.5 72h133q-22 -248 -205 -248
q-45 0 -88.5 15.5t-71 34.5t-62.5 34.5t-66 15.5q-37 0 -56.5 -22t-25.5 -72h-133q22 248 204 248z" />
    <glyph glyph-name="ograve" unicode="&#xf2;" horiz-adv-x="1259" 
d="M631 -23q-167 0 -291.5 77.5t-187 206t-62.5 288.5q0 161 62.5 290t187 206t291.5 77q126 0 229.5 -45t170 -123.5t102.5 -182t36 -222.5q0 -94 -22.5 -179.5t-67.5 -157t-108.5 -124t-150.5 -82t-189 -29.5zM629 956q-109 0 -188.5 -57t-116.5 -147.5t-37 -202.5
q0 -111 37 -201.5t116.5 -147.5t188.5 -57t189 57t117.5 147.5t37.5 201.5q0 173 -90.5 290t-253.5 117zM575 1241l-227 332h219l191 -332h-183z" />
    <glyph glyph-name="oacute" unicode="&#xf3;" horiz-adv-x="1259" 
d="M631 -23q-167 0 -291.5 77.5t-187 206t-62.5 288.5q0 161 62.5 290t187 206t291.5 77q126 0 229.5 -45t170 -123.5t102.5 -182t36 -222.5q0 -94 -22.5 -179.5t-67.5 -157t-108.5 -124t-150.5 -82t-189 -29.5zM629 956q-109 0 -188.5 -57t-116.5 -147.5t-37 -202.5
q0 -111 37 -201.5t116.5 -147.5t188.5 -57t189 57t117.5 147.5t37.5 201.5q0 173 -90.5 290t-253.5 117zM905 1573l-227 -332h-178l190 332h215z" />
    <glyph glyph-name="ocircumflex" unicode="&#xf4;" horiz-adv-x="1259" 
d="M631 -23q-167 0 -291.5 77.5t-187 206t-62.5 288.5q0 161 62.5 290t187 206t291.5 77q126 0 229.5 -45t170 -123.5t102.5 -182t36 -222.5q0 -94 -22.5 -179.5t-67.5 -157t-108.5 -124t-150.5 -82t-189 -29.5zM629 956q-109 0 -188.5 -57t-116.5 -147.5t-37 -202.5
q0 -111 37 -201.5t116.5 -147.5t188.5 -57t189 57t117.5 147.5t37.5 201.5q0 173 -90.5 290t-253.5 117zM301 1241l229 332h197l229 -332h-190l-139 213l-140 -213h-186z" />
    <glyph glyph-name="otilde" unicode="&#xf5;" horiz-adv-x="1259" 
d="M631 -23q-167 0 -291.5 77.5t-187 206t-62.5 288.5q0 161 62.5 290t187 206t291.5 77q126 0 229.5 -45t170 -123.5t102.5 -182t36 -222.5q0 -94 -22.5 -179.5t-67.5 -157t-108.5 -124t-150.5 -82t-189 -29.5zM629 956q-109 0 -188.5 -57t-116.5 -147.5t-37 -202.5
q0 -111 37 -201.5t116.5 -147.5t188.5 -57t189 57t117.5 147.5t37.5 201.5q0 173 -90.5 290t-253.5 117zM479 1534q45 0 88.5 -15.5t71.5 -34.5t63 -34.5t66 -15.5q37 0 56.5 22t25.5 72h133q-22 -248 -205 -248q-45 0 -88.5 15.5t-71.5 34.5t-63 34.5t-66 15.5
q-37 0 -56 -21.5t-25 -72.5h-134q22 248 205 248z" />
    <glyph glyph-name="odieresis" unicode="&#xf6;" horiz-adv-x="1259" 
d="M631 -23q-167 0 -291.5 77.5t-187 206t-62.5 288.5q0 161 62.5 290t187 206t291.5 77q126 0 229.5 -45t170 -123.5t102.5 -182t36 -222.5q0 -94 -22.5 -179.5t-67.5 -157t-108.5 -124t-150.5 -82t-189 -29.5zM629 956q-109 0 -188.5 -57t-116.5 -147.5t-37 -202.5
q0 -111 37 -201.5t116.5 -147.5t188.5 -57t189 57t117.5 147.5t37.5 201.5q0 173 -90.5 290t-253.5 117zM733 1305v204h203v-204h-203zM322 1305v204h202v-204h-202z" />
    <glyph glyph-name="divide" unicode="&#xf7;" horiz-adv-x="1198" 
d="M498 1081v201h200v-201h-200zM109 666v151h978v-151h-978zM498 201v200h200v-200h-200z" />
    <glyph glyph-name="oslash" unicode="&#xf8;" horiz-adv-x="1259" 
d="M1163 1098l-123 -158q129 -157 129 -391q0 -94 -22.5 -179.5t-67.5 -157t-108.5 -124t-150.5 -82t-189 -29.5q-166 0 -293 78l-117 -149l-125 94l125 158q-131 152 -131 391q0 160 62.5 288.5t187 205.5t291.5 77q162 0 291 -76l116 148zM340 309l471 596q-76 51 -182 51
q-163 0 -253.5 -117t-90.5 -290q0 -139 55 -240zM918 788l-469 -595q77 -52 180 -52q110 0 190 57t118 148t38 203q0 140 -57 239z" />
    <glyph glyph-name="ugrave" unicode="&#xf9;" horiz-adv-x="1259" 
d="M1098 1100v-1100h-191l-2 162h-4q-56 -85 -148 -135t-208 -50q-177 0 -282 105.5t-105 279.5v738h194v-699q0 -113 64 -184.5t186 -71.5q136 0 218.5 84t82.5 215v656h195zM575 1241l-227 332h219l191 -332h-183z" />
    <glyph glyph-name="uacute" unicode="&#xfa;" horiz-adv-x="1259" 
d="M1098 1100v-1100h-191l-2 162h-4q-56 -85 -148 -135t-208 -50q-177 0 -282 105.5t-105 279.5v738h194v-699q0 -113 64 -184.5t186 -71.5q136 0 218.5 84t82.5 215v656h195zM905 1573l-227 -332h-178l190 332h215z" />
    <glyph glyph-name="ucircumflex" unicode="&#xfb;" horiz-adv-x="1259" 
d="M1098 1100v-1100h-191l-2 162h-4q-56 -85 -148 -135t-208 -50q-177 0 -282 105.5t-105 279.5v738h194v-699q0 -113 64 -184.5t186 -71.5q136 0 218.5 84t82.5 215v656h195zM301 1241l229 332h197l229 -332h-190l-139 213l-140 -213h-186z" />
    <glyph glyph-name="udieresis" unicode="&#xfc;" horiz-adv-x="1259" 
d="M1098 1100v-1100h-191l-2 162h-4q-56 -85 -148 -135t-208 -50q-177 0 -282 105.5t-105 279.5v738h194v-699q0 -113 64 -184.5t186 -71.5q136 0 218.5 84t82.5 215v656h195zM733 1305v204h203v-204h-203zM322 1305v204h202v-204h-202z" />
    <glyph glyph-name="yacute" unicode="&#xfd;" horiz-adv-x="1126" 
d="M895 1100h205l-467 -1184q-69 -176 -148.5 -244.5t-205.5 -68.5q-74 0 -134 22v158q44 -14 93 -14q86 0 137 43t88 159l4 13l-440 1116h213l323 -877h4zM850 1573l-227 -332h-179l191 332h215z" />
    <glyph glyph-name="thorn" unicode="&#xfe;" horiz-adv-x="1314" 
d="M719 -23q-227 0 -359 177h-4v-529h-194v1948h194v-631h4q66 85 160 132.5t207 47.5q150 0 263 -75.5t171 -203.5t58 -288q0 -118 -35 -223t-98 -184t-158 -125t-209 -46zM682 150q161 0 250.5 114.5t89.5 286.5q0 79 -21 149.5t-61 127t-106 89.5t-150 33
q-107 0 -184 -56.5t-113.5 -146.5t-36.5 -202q0 -173 88.5 -284t243.5 -111z" />
    <glyph glyph-name="ydieresis" unicode="&#xff;" horiz-adv-x="1126" 
d="M895 1100h205l-467 -1184q-69 -176 -148.5 -244.5t-205.5 -68.5q-74 0 -134 22v158q44 -14 93 -14q86 0 137 43t88 159l4 13l-440 1116h213l323 -877h4zM678 1305v204h203v-204h-203zM266 1305v204h203v-204h-203z" />
    <glyph glyph-name="Amacron" unicode="&#x100;" horiz-adv-x="1501" 
d="M1266 0l-170 440h-701l-168 -440h-217l619 1573h243l619 -1573h-225zM463 618h563l-281 732h-4zM451 1729v151h589v-151h-589z" />
    <glyph glyph-name="amacron" unicode="&#x101;" horiz-adv-x="1142" 
d="M985 0h-190l-4 160h-5q-48 -85 -132 -134t-199 -49q-160 0 -257.5 92.5t-97.5 239.5q0 216 213 285q81 26 195 36.5t285 16.5v98q0 91 -63 152t-181 61q-196 0 -254 -165l-162 77q47 123 158 187.5t264 64.5q199 0 314.5 -99.5t115.5 -277.5v-745zM500 141
q130 0 211.5 85.5t81.5 207.5v64q-132 -4 -281 -23q-105 -14 -161 -49.5t-56 -114.5q0 -77 55 -123.5t150 -46.5zM274 1331v152h574v-152h-574z" />
    <glyph glyph-name="Abreve" unicode="&#x102;" horiz-adv-x="1501" 
d="M1266 0l-170 440h-701l-168 -440h-217l619 1573h243l619 -1573h-225zM463 618h563l-281 732h-4zM745 1786q163 0 181 158h127q-2 -125 -82 -203t-226 -78t-224.5 78t-80.5 203h127q18 -158 178 -158z" />
    <glyph glyph-name="abreve" unicode="&#x103;" horiz-adv-x="1142" 
d="M985 0h-190l-4 160h-5q-48 -85 -132 -134t-199 -49q-160 0 -257.5 92.5t-97.5 239.5q0 216 213 285q81 26 195 36.5t285 16.5v98q0 91 -63 152t-181 61q-196 0 -254 -165l-162 77q47 123 158 187.5t264 64.5q199 0 314.5 -99.5t115.5 -277.5v-745zM500 141
q130 0 211.5 85.5t81.5 207.5v64q-132 -4 -281 -23q-105 -14 -161 -49.5t-56 -114.5q0 -77 55 -123.5t150 -46.5zM561 1372q81 0 120 51t44 133h129q0 -138 -75.5 -222.5t-217.5 -84.5t-217.5 85t-75.5 222h129q5 -82 44 -133t120 -51z" />
    <glyph glyph-name="Aogonek" unicode="&#x104;" horiz-adv-x="1501" 
d="M872 1573l619 -1573q-205 -75 -205 -176q0 -74 117 -74q30 0 80 4v-133q-55 -18 -142 -18q-126 0 -188.5 55t-62.5 137q0 133 165 232l-159 413h-701l-168 -440h-217l619 1573h243zM463 618h563l-281 732h-4z" />
    <glyph glyph-name="aogonek" unicode="&#x105;" horiz-adv-x="1142" 
d="M850 -397q-124 0 -185 51t-61 127q0 71 54.5 134.5t140.5 109.5l-11 135h-4q-48 -85 -132 -134t-197 -49q-160 0 -257.5 92.5t-97.5 239.5q0 216 213 285q80 26 193.5 36.5t284.5 16.5v98q0 91 -63 152t-181 61q-194 0 -252 -165l-162 77q46 122 157 187t263 65
q199 0 314.5 -99.5t115.5 -277.5v-741q-184 -98 -184 -184q0 -36 24 -55t84 -19q33 0 76 6v-133q-53 -16 -133 -16zM498 141q130 0 211.5 85.5t81.5 207.5v64q-133 -4 -281 -23q-104 -14 -159.5 -49.5t-55.5 -114.5q0 -77 54.5 -123.5t148.5 -46.5z" />
    <glyph glyph-name="Cacute" unicode="&#x106;" horiz-adv-x="1474" 
d="M834 -23q-168 0 -306 62t-228.5 170.5t-139.5 256.5t-49 320t49 320t139 256.5t226 170.5t302 62q200 0 353.5 -89t244.5 -249l-170 -100q-138 260 -426 260q-125 0 -223.5 -50.5t-159.5 -138.5t-92.5 -200t-31.5 -240q0 -101 19 -193t60.5 -172.5t101 -139.5t146.5 -93
t191 -34q148 0 255.5 68t172.5 188l166 -95q-90 -160 -244 -250t-356 -90zM1180 1948l-240 -281h-190l204 281h226z" />
    <glyph glyph-name="cacute" unicode="&#x107;" horiz-adv-x="1099" 
d="M627 -23q-165 0 -287.5 74.5t-185 202.5t-62.5 291q0 164 62 294t184 206.5t287 76.5q153 0 264 -68t176 -190l-162 -92q-95 184 -282 184q-156 0 -244 -115t-88 -292q0 -113 37 -203.5t116.5 -146.5t190.5 -56q196 0 287 179l153 -89q-60 -119 -175 -187.5t-271 -68.5z
M920 1573l-228 -332h-178l191 332h215z" />
    <glyph glyph-name="Ccircumflex" unicode="&#x108;" horiz-adv-x="1474" 
d="M834 -23q-168 0 -306 62t-228.5 170.5t-139.5 256.5t-49 320t49 320t139 256.5t226 170.5t302 62q200 0 353.5 -89t244.5 -249l-170 -100q-138 260 -426 260q-125 0 -223.5 -50.5t-159.5 -138.5t-92.5 -200t-31.5 -240q0 -101 19 -193t60.5 -172.5t101 -139.5t146.5 -93
t191 -34q148 0 255.5 68t172.5 188l166 -95q-90 -160 -244 -250t-356 -90zM469 1667l260 281h195l258 -281h-199l-160 170l-155 -170h-199z" />
    <glyph glyph-name="ccircumflex" unicode="&#x109;" horiz-adv-x="1099" 
d="M627 -23q-165 0 -287.5 74.5t-185 202.5t-62.5 291q0 164 62 294t184 206.5t287 76.5q153 0 264 -68t176 -190l-162 -92q-95 184 -282 184q-156 0 -244 -115t-88 -292q0 -113 37 -203.5t116.5 -146.5t190.5 -56q196 0 287 179l153 -89q-60 -119 -175 -187.5t-271 -68.5z
M285 1241l229 332h197l229 -332h-190l-140 213l-139 -213h-186z" />
    <glyph glyph-name="Cdotaccent" unicode="&#x10a;" horiz-adv-x="1474" 
d="M834 -23q-168 0 -306 62t-228.5 170.5t-139.5 256.5t-49 320t49 320t139 256.5t226 170.5t302 62q200 0 353.5 -89t244.5 -249l-170 -100q-138 260 -426 260q-125 0 -223.5 -50.5t-159.5 -138.5t-92.5 -200t-31.5 -240q0 -101 19 -193t60.5 -172.5t101 -139.5t146.5 -93
t191 -34q148 0 255.5 68t172.5 188l166 -95q-90 -160 -244 -250t-356 -90zM721 1704v207h209v-207h-209z" />
    <glyph glyph-name="cdotaccent" unicode="&#x10b;" horiz-adv-x="1099" 
d="M627 -23q-165 0 -287.5 74.5t-185 202.5t-62.5 291q0 164 62 294t184 206.5t287 76.5q153 0 264 -68t176 -190l-162 -92q-95 184 -282 184q-156 0 -244 -115t-88 -292q0 -113 37 -203.5t116.5 -146.5t190.5 -56q196 0 287 179l153 -89q-60 -119 -175 -187.5t-271 -68.5z
M508 1305v204h209v-204h-209z" />
    <glyph glyph-name="Ccaron" unicode="&#x10c;" horiz-adv-x="1474" 
d="M834 -23q-168 0 -306 62t-228.5 170.5t-139.5 256.5t-49 320t49 320t139 256.5t226 170.5t302 62q200 0 353.5 -89t244.5 -249l-170 -100q-138 260 -426 260q-125 0 -223.5 -50.5t-159.5 -138.5t-92.5 -200t-31.5 -240q0 -101 19 -193t60.5 -172.5t101 -139.5t146.5 -93
t191 -34q148 0 255.5 68t172.5 188l166 -95q-90 -160 -244 -250t-356 -90zM1182 1948l-260 -281h-195l-258 281h199l159 -170l156 170h199z" />
    <glyph glyph-name="ccaron" unicode="&#x10d;" horiz-adv-x="1099" 
d="M627 -23q-165 0 -287.5 74.5t-185 202.5t-62.5 291q0 164 62 294t184 206.5t287 76.5q153 0 264 -68t176 -190l-162 -92q-95 184 -282 184q-156 0 -244 -115t-88 -292q0 -113 37 -203.5t116.5 -146.5t190.5 -56q196 0 287 179l153 -89q-60 -119 -175 -187.5t-271 -68.5z
M940 1573l-229 -332h-197l-229 332h190l139 -213l140 213h186z" />
    <glyph glyph-name="Dcaron" unicode="&#x10e;" horiz-adv-x="1591" 
d="M178 0v1573h529q155 0 285 -40.5t223 -112t157.5 -170.5t95.5 -216t31 -248q0 -234 -94.5 -412t-270.5 -276t-409 -98h-547zM385 180h328q265 0 420 154t155 450q0 155 -45.5 273.5t-127.5 191t-188 108.5t-233 36h-309v-1213zM1096 1948l-260 -281h-195l-258 281h199
l159 -170l156 170h199z" />
    <glyph glyph-name="dcaron" unicode="&#x10f;" horiz-adv-x="1562" 
d="M586 -23q-150 0 -263 77.5t-170 204.5t-57 282q0 163 59.5 294t174.5 209t266 78q109 0 201.5 -46.5t156.5 -135.5h4v633h195v-1573h-190l-2 178h-5q-68 -99 -163.5 -150t-206.5 -51zM621 147q159 0 251.5 112.5t92.5 291.5q0 183 -90.5 292t-247.5 109
q-110 0 -187.5 -58.5t-112 -147.5t-34.5 -199q0 -79 20.5 -149.5t59.5 -127t103 -90t145 -33.5zM1593 1573l-155 -334h-156l111 334h200z" />
    <glyph glyph-name="Dcroat" unicode="&#x110;" horiz-adv-x="1591" 
d="M178 0v711h-192v168h192v694h529q155 0 285 -40.5t223 -112t157.5 -170.5t95.5 -216t31 -248q0 -234 -94.5 -412t-270.5 -276t-409 -98h-547zM385 180h328q265 0 420 154t155 450q0 155 -45.5 273.5t-127.5 191t-188 108.5t-233 36h-309v-514h358v-168h-358v-531z" />
    <glyph glyph-name="dcroat" unicode="&#x111;" horiz-adv-x="1314" 
d="M586 -23q-150 0 -263 77.5t-170 204.5t-57 282q0 163 59.5 294t174.5 209t266 78q109 0 201.5 -46.5t156.5 -135.5h4v315h-329v154h329v164h195v-164h152v-154h-152v-1255h-190l-2 178h-5q-68 -99 -163.5 -150t-206.5 -51zM621 147q159 0 251.5 112.5t92.5 291.5
q0 183 -90.5 292t-247.5 109q-110 0 -187.5 -58.5t-112 -147.5t-34.5 -199q0 -79 20.5 -149.5t59.5 -127t103 -90t145 -33.5z" />
    <glyph glyph-name="Emacron" unicode="&#x112;" horiz-adv-x="1269" 
d="M1202 0h-1024v1573h1010v-180h-805v-512h704v-179h-704v-522h819v-180zM395 1729v151h590v-151h-590z" />
    <glyph glyph-name="emacron" unicode="&#x113;" horiz-adv-x="1171" 
d="M287 635h610q-10 144 -84 233.5t-213 89.5t-219 -89t-94 -234zM913 276l136 -120q-153 -179 -416 -179q-256 0 -399.5 155.5t-143.5 418.5q0 166 61.5 295t179 202.5t273.5 73.5q153 0 264.5 -72t166.5 -191.5t55 -272.5q0 -62 -7 -113h-794q15 -158 104 -244t242 -86
q178 0 278 133zM305 1331v152h574v-152h-574z" />
    <glyph glyph-name="Ebreve" unicode="&#x114;" horiz-adv-x="1269" 
d="M1202 0h-1024v1573h1010v-180h-805v-512h704v-179h-704v-522h819v-180zM690 1786q162 0 180 158h127q-2 -125 -81.5 -203t-225.5 -78t-224.5 78t-80.5 203h127q18 -158 178 -158z" />
    <glyph glyph-name="ebreve" unicode="&#x115;" horiz-adv-x="1171" 
d="M287 635h610q-10 144 -84 233.5t-213 89.5t-219 -89t-94 -234zM913 276l136 -120q-153 -179 -416 -179q-256 0 -399.5 155.5t-143.5 418.5q0 166 61.5 295t179 202.5t273.5 73.5q153 0 264.5 -72t166.5 -191.5t55 -272.5q0 -62 -7 -113h-794q15 -158 104 -244t242 -86
q178 0 278 133zM592 1372q81 0 120 51t44 133h129q0 -138 -75.5 -222.5t-217.5 -84.5t-217.5 85t-75.5 222h129q5 -82 44 -133t120 -51z" />
    <glyph glyph-name="Edotaccent" unicode="&#x116;" horiz-adv-x="1269" 
d="M1202 0h-1024v1573h1010v-180h-805v-512h704v-179h-704v-522h819v-180zM586 1704v207h209v-207h-209z" />
    <glyph glyph-name="edotaccent" unicode="&#x117;" horiz-adv-x="1171" 
d="M287 635h610q-10 144 -84 233.5t-213 89.5t-219 -89t-94 -234zM913 276l136 -120q-153 -179 -416 -179q-256 0 -399.5 155.5t-143.5 418.5q0 166 61.5 295t179 202.5t273.5 73.5q153 0 264.5 -72t166.5 -191.5t55 -272.5q0 -62 -7 -113h-794q15 -158 104 -244t242 -86
q178 0 278 133zM487 1305v204h209v-204h-209z" />
    <glyph glyph-name="Eogonek" unicode="&#x118;" horiz-adv-x="1269" 
d="M178 0v1573h1010v-180h-805v-512h704v-179h-704v-522h819v-180q-96 -40 -142 -84t-46 -88q0 -37 23.5 -57.5t82.5 -20.5q28 0 82 4v-135q-59 -16 -143 -16q-122 0 -182 52t-60 132q0 60 35.5 114.5t101.5 94.5v4h-776z" />
    <glyph glyph-name="eogonek" unicode="&#x119;" horiz-adv-x="1171" 
d="M287 635h610q-10 144 -84 233.5t-213 89.5t-219 -89t-94 -234zM807 -397q-119 0 -181.5 52t-62.5 130q0 102 115 192v5q-18 -2 -51 -2q-252 0 -394.5 154.5t-142.5 416.5q0 166 61.5 295t179 202.5t273.5 73.5q153 0 264.5 -72t166.5 -191.5t55 -272.5q0 -62 -7 -113
h-794q15 -158 104 -244t242 -86q178 0 278 133l136 -120q-39 -48 -131 -111q-79 -54 -120.5 -110.5t-41.5 -104.5q0 -84 106 -84q38 0 82 6v-135q-65 -14 -137 -14z" />
    <glyph glyph-name="Ecaron" unicode="&#x11a;" horiz-adv-x="1269" 
d="M1202 0h-1024v1573h1010v-180h-805v-512h704v-179h-704v-522h819v-180zM1047 1948l-261 -281h-194l-258 281h198l160 -170l156 170h199z" />
    <glyph glyph-name="ecaron" unicode="&#x11b;" horiz-adv-x="1171" 
d="M287 635h610q-10 144 -84 233.5t-213 89.5t-219 -89t-94 -234zM913 276l136 -120q-153 -179 -416 -179q-256 0 -399.5 155.5t-143.5 418.5q0 166 61.5 295t179 202.5t273.5 73.5q153 0 264.5 -72t166.5 -191.5t55 -272.5q0 -62 -7 -113h-794q15 -158 104 -244t242 -86
q178 0 278 133zM920 1573l-230 -332h-196l-230 332h191l139 -213l139 213h187z" />
    <glyph glyph-name="Gcircumflex" unicode="&#x11c;" horiz-adv-x="1634" 
d="M883 821h598v-821h-193l-2 219h-4q-61 -109 -184 -175.5t-287 -66.5q-161 0 -294 61.5t-221.5 168.5t-136.5 253t-48 314q0 137 30.5 260t92.5 225.5t149 177.5t206 116.5t259 41.5q202 0 359 -85t257 -242l-168 -107q-71 122 -183.5 189t-262.5 67q-165 0 -286 -82.5
t-181.5 -225.5t-60.5 -329q0 -287 138.5 -455.5t383.5 -168.5q199 0 317.5 114t118.5 312q0 47 -4 65h-393v174zM485 1667l260 281h195l258 -281h-199l-159 170l-156 -170h-199z" />
    <glyph glyph-name="gcircumflex" unicode="&#x11d;" 
d="M1124 1100v-979q0 -255 -150 -386.5t-407 -131.5q-242 0 -411 114l88 154q72 -48 147 -75t174 -27q80 0 144.5 19t115.5 59t79 109.5t28 164.5v94h-4q-62 -97 -157.5 -147t-209.5 -50q-141 0 -249.5 74t-164 197.5t-55.5 273.5q0 152 56.5 278t168 203.5t258.5 77.5
q228 0 357 -180h4l6 158h182zM610 188q153 0 239.5 109.5t86.5 275.5q0 164 -86.5 271.5t-237.5 107.5q-154 0 -238.5 -109.5t-84.5 -273.5q0 -76 19.5 -143.5t57.5 -121.5t101 -85t143 -31zM297 1241l229 332h197l229 -332h-190l-139 213l-140 -213h-186z" />
    <glyph glyph-name="Gbreve" unicode="&#x11e;" horiz-adv-x="1634" 
d="M883 821h598v-821h-193l-2 219h-4q-61 -109 -184 -175.5t-287 -66.5q-161 0 -294 61.5t-221.5 168.5t-136.5 253t-48 314q0 137 30.5 260t92.5 225.5t149 177.5t206 116.5t259 41.5q202 0 359 -85t257 -242l-168 -107q-71 122 -183.5 189t-262.5 67q-165 0 -286 -82.5
t-181.5 -225.5t-60.5 -329q0 -287 138.5 -455.5t383.5 -168.5q199 0 317.5 114t118.5 312q0 47 -4 65h-393v174zM842 1786q162 0 180 158h127q-2 -125 -81.5 -203t-225.5 -78t-224.5 78t-80.5 203h127q18 -158 178 -158z" />
    <glyph glyph-name="gbreve" unicode="&#x11f;" 
d="M1124 1100v-979q0 -255 -150 -386.5t-407 -131.5q-242 0 -411 114l88 154q72 -48 147 -75t174 -27q80 0 144.5 19t115.5 59t79 109.5t28 164.5v94h-4q-62 -97 -157.5 -147t-209.5 -50q-141 0 -249.5 74t-164 197.5t-55.5 273.5q0 152 56.5 278t168 203.5t258.5 77.5
q228 0 357 -180h4l6 158h182zM610 188q153 0 239.5 109.5t86.5 275.5q0 164 -86.5 271.5t-237.5 107.5q-154 0 -238.5 -109.5t-84.5 -273.5q0 -76 19.5 -143.5t57.5 -121.5t101 -85t143 -31zM625 1372q80 0 119 51t44 133h130q0 -138 -75.5 -222.5t-217.5 -84.5t-217.5 85
t-75.5 222h129q5 -82 44 -133t120 -51z" />
    <glyph glyph-name="Gdotaccent" unicode="&#x120;" horiz-adv-x="1634" 
d="M883 821h598v-821h-193l-2 219h-4q-61 -109 -184 -175.5t-287 -66.5q-161 0 -294 61.5t-221.5 168.5t-136.5 253t-48 314q0 137 30.5 260t92.5 225.5t149 177.5t206 116.5t259 41.5q202 0 359 -85t257 -242l-168 -107q-71 122 -183.5 189t-262.5 67q-165 0 -286 -82.5
t-181.5 -225.5t-60.5 -329q0 -287 138.5 -455.5t383.5 -168.5q199 0 317.5 114t118.5 312q0 47 -4 65h-393v174zM737 1704v207h209v-207h-209z" />
    <glyph glyph-name="gdotaccent" unicode="&#x121;" 
d="M1124 1100v-979q0 -255 -150 -386.5t-407 -131.5q-242 0 -411 114l88 154q72 -48 147 -75t174 -27q80 0 144.5 19t115.5 59t79 109.5t28 164.5v94h-4q-62 -97 -157.5 -147t-209.5 -50q-141 0 -249.5 74t-164 197.5t-55.5 273.5q0 152 56.5 278t168 203.5t258.5 77.5
q228 0 357 -180h4l6 158h182zM610 188q153 0 239.5 109.5t86.5 275.5q0 164 -86.5 271.5t-237.5 107.5q-154 0 -238.5 -109.5t-84.5 -273.5q0 -76 19.5 -143.5t57.5 -121.5t101 -85t143 -31zM520 1305v204h209v-204h-209z" />
    <glyph glyph-name="Gcommaaccent" unicode="&#x122;" horiz-adv-x="1634" 
d="M883 821h598v-821h-193l-2 219h-4q-61 -109 -184 -175.5t-287 -66.5q-161 0 -294 61.5t-221.5 168.5t-136.5 253t-48 314q0 137 30.5 260t92.5 225.5t149 177.5t206 116.5t259 41.5q202 0 359 -85t257 -242l-168 -107q-71 122 -183.5 189t-262.5 67q-165 0 -286 -82.5
t-181.5 -225.5t-60.5 -329q0 -287 138.5 -455.5t383.5 -168.5q199 0 317.5 114t118.5 312q0 47 -4 65h-393v174zM940 -76l-156 -334h-155l110 334h201z" />
    <glyph glyph-name="gcommaaccent" unicode="&#x123;" 
d="M1124 1100v-979q0 -255 -150 -386.5t-407 -131.5q-242 0 -411 114l88 154q72 -48 147 -75t174 -27q80 0 144.5 19t115.5 59t79 109.5t28 164.5v94h-4q-62 -97 -157.5 -147t-209.5 -50q-141 0 -249.5 74t-164 197.5t-55.5 273.5q0 152 56.5 278t168 203.5t258.5 77.5
q228 0 357 -180h4l6 158h182zM610 188q153 0 239.5 109.5t86.5 275.5q0 164 -86.5 271.5t-237.5 107.5q-154 0 -238.5 -109.5t-84.5 -273.5q0 -76 19.5 -143.5t57.5 -121.5t101 -85t143 -31zM537 1225l155 362h154l-109 -362h-200z" />
    <glyph glyph-name="Hcircumflex" unicode="&#x124;" horiz-adv-x="1591" 
d="M385 0h-207v1573h207v-690h821v690h207v-1573h-207v702h-821v-702zM438 1667l260 281h195l258 -281h-199l-159 170l-156 -170h-199z" />
    <glyph glyph-name="hcircumflex" unicode="&#x125;" horiz-adv-x="1259" 
d="M162 0v1573h194v-631h4q56 86 147 133t208 47q177 0 282 -105.5t105 -279.5v-737h-195v698q0 112 -65 184t-185 72q-136 0 -218.5 -84t-82.5 -215v-655h-194zM-98 1667l260 281h194l258 -281h-198l-160 170l-156 -170h-198z" />
    <glyph glyph-name="Hbar" unicode="&#x126;" horiz-adv-x="1591" 
d="M-25 1329h203v244h207v-244h821v244h207v-244h203v-164h-203v-1165h-207v702h-821v-702h-207v1165h-203v164zM385 883h821v282h-821v-282z" />
    <glyph glyph-name="hbar" unicode="&#x127;" horiz-adv-x="1259" 
d="M162 0v1255h-152v154h152v164h194v-164h330v-154h-330v-313h4q56 86 147 133t208 47q177 0 282 -105.5t105 -279.5v-737h-195v698q0 112 -65 184t-185 72q-136 0 -218.5 -83.5t-82.5 -213.5v-657h-194z" />
    <glyph glyph-name="Itilde" unicode="&#x128;" horiz-adv-x="563" 
d="M385 0h-207v1573h207v-1573zM123 1925q60 0 115 -20.5t102 -41t88 -20.5q80 0 92 80h131q-22 -233 -211 -233q-61 0 -116.5 20.5t-102 41t-86.5 20.5q-80 0 -92 -80h-131q22 233 211 233z" />
    <glyph glyph-name="itilde" unicode="&#x129;" horiz-adv-x="518" 
d="M356 0h-194v1100h194v-1100zM109 1534q45 0 88.5 -15.5t71 -34.5t62.5 -34.5t66 -15.5q37 0 56.5 22t25.5 72h133q-22 -248 -204 -248q-45 0 -88.5 15.5t-71.5 34.5t-63 34.5t-66 15.5q-37 0 -56.5 -22t-25.5 -72h-133q22 248 205 248z" />
    <glyph glyph-name="Imacron" unicode="&#x12a;" horiz-adv-x="563" 
d="M385 0h-207v1573h207v-1573zM-14 1729v151h589v-151h-589z" />
    <glyph glyph-name="imacron" unicode="&#x12b;" horiz-adv-x="518" 
d="M356 0h-194v1100h194v-1100zM-29 1331v152h574v-152h-574z" />
    <glyph glyph-name="Ibreve" unicode="&#x12c;" horiz-adv-x="563" 
d="M385 0h-207v1573h207v-1573zM281 1786q162 0 180 158h127q-2 -125 -81.5 -203t-225.5 -78t-225 78t-81 203h127q18 -158 179 -158z" />
    <glyph glyph-name="ibreve" unicode="&#x12d;" horiz-adv-x="518" 
d="M356 0h-194v1100h194v-1100zM258 1372q81 0 120 51t44 133h129q0 -138 -75.5 -222.5t-217.5 -84.5t-217.5 85t-75.5 222h129q5 -82 44 -133t120 -51z" />
    <glyph glyph-name="Iogonek" unicode="&#x12e;" horiz-adv-x="563" 
d="M385 1573v-1569q-127 -86 -127 -176q0 -78 113 -78q28 0 78 4v-135q-59 -16 -138 -16q-126 0 -189 54t-63 136q0 119 119 225v1555h207z" />
    <glyph glyph-name="iogonek" unicode="&#x12f;" horiz-adv-x="518" 
d="M154 1362v211h211v-211h-211zM356 1100v-1098q-123 -85 -123 -172q0 -40 26 -62t89 -22q24 0 78 4v-131q-56 -16 -135 -16q-124 0 -187 54t-63 136q0 122 121 227v1080h194z" />
    <glyph glyph-name="Idotaccent" unicode="&#x130;" horiz-adv-x="563" 
d="M385 0h-207v1573h207v-1573zM176 1704v207h209v-207h-209z" />
    <glyph glyph-name="dotlessi" unicode="&#x131;" horiz-adv-x="518" 
d="M356 0h-194v1100h194v-1100z" />
    <glyph glyph-name="IJ" unicode="&#x132;" horiz-adv-x="1474" 
d="M385 0h-207v1573h207v-1573zM877 -23q-173 0 -308 97l93 149q95 -76 212 -76q112 0 167 68t55 180v1178h207v-1180q0 -188 -115 -302t-311 -114z" />
    <glyph glyph-name="ij" unicode="&#x133;" horiz-adv-x="1036" 
d="M154 1362v211h211v-211h-211zM356 0h-194v1100h194v-1100zM672 1362v211h211v-211h-211zM502 -383v158q24 -6 57 -6q65 0 93 33t28 98v1200h194v-1225q0 -130 -64.5 -201t-197.5 -71q-59 0 -110 14z" />
    <glyph glyph-name="Jcircumflex" unicode="&#x134;" horiz-adv-x="911" 
d="M313 -23q-172 0 -307 97l92 149q95 -76 213 -76q112 0 166.5 68t54.5 180v1178h207v-1180q0 -188 -115 -302t-311 -114zM281 1667l260 281h194l258 -281h-198l-160 170l-156 -170h-198z" />
    <glyph glyph-name="jcircumflex" unicode="&#x135;" horiz-adv-x="518" 
d="M-16 -383v158q24 -6 57 -6q65 0 93 33t28 98v1200h194v-1225q0 -130 -64.5 -201t-197.5 -71q-59 0 -110 14zM-70 1241l230 332h196l230 -332h-191l-139 213l-139 -213h-187z" />
    <glyph glyph-name="Kcommaaccent" unicode="&#x136;" horiz-adv-x="1386" 
d="M1118 0l-436 702h-297v-702h-207v1573h207v-692h301l422 692h235l-481 -776l502 -797h-246zM848 -76l-156 -334h-155l110 334h201z" />
    <glyph glyph-name="kcommaaccent" unicode="&#x137;" horiz-adv-x="1099" 
d="M842 0l-328 492h-158v-492h-194v1573h194v-920h168l303 447h232l-375 -529l393 -571h-235zM727 -76l-156 -334h-155l110 334h201z" />
    <glyph glyph-name="kgreenlandic" unicode="&#x138;" horiz-adv-x="1099" 
d="M842 0l-328 492h-158v-492h-194v1100h194v-447h168l303 447h232l-375 -529l393 -571h-235z" />
    <glyph glyph-name="Lacute" unicode="&#x139;" horiz-adv-x="1214" 
d="M178 0v1573h207v-1393h801v-180h-1008zM598 1948l-240 -281h-190l205 281h225z" />
    <glyph glyph-name="lacute" unicode="&#x13a;" horiz-adv-x="518" 
d="M356 0h-194v1573h194v-1573zM559 1948l-240 -281h-190l205 281h225z" />
    <glyph glyph-name="Lcommaaccent" unicode="&#x13b;" horiz-adv-x="1214" 
d="M178 0v1573h207v-1393h801v-180h-1008zM807 -76l-156 -334h-155l110 334h201z" />
    <glyph glyph-name="lcommaaccent" unicode="&#x13c;" horiz-adv-x="518" 
d="M356 0h-194v1573h194v-1573zM401 -76l-155 -334h-156l111 334h200z" />
    <glyph glyph-name="Lcaron" unicode="&#x13d;" horiz-adv-x="1214" 
d="M178 0v1573h207v-1393h801v-180h-1008zM582 1014l104 559h197l-150 -559h-151z" />
    <glyph glyph-name="lcaron" unicode="&#x13e;" horiz-adv-x="768" 
d="M356 0h-194v1573h194v-1573zM799 1573l-156 -334h-156l111 334h201z" />
    <glyph glyph-name="Ldot" unicode="&#x13f;" horiz-adv-x="1214" 
d="M178 0v1573h207v-1393h801v-180h-1008zM801 676v205h209v-205h-209z" />
    <glyph glyph-name="ldot" unicode="&#x140;" horiz-adv-x="866" 
d="M356 0h-194v1573h194v-1573zM588 684v205h209v-205h-209z" />
    <glyph glyph-name="Lslash" unicode="&#x141;" horiz-adv-x="1214" 
d="M385 180h801v-180h-1008v551l-178 -105v193l178 104v830h207v-711l266 156v-193l-266 -155v-490z" />
    <glyph glyph-name="lslash" unicode="&#x142;" horiz-adv-x="518" 
d="M508 1032v-186l-152 -90v-756h-194v639l-152 -90v186l152 90v748h194v-631z" />
    <glyph glyph-name="Nacute" unicode="&#x143;" horiz-adv-x="1634" 
d="M1255 1573h201v-1573h-180l-893 1249h-4v-1249h-201v1573h211l862 -1211h4v1211zM1120 1948l-239 -281h-191l205 281h225z" />
    <glyph glyph-name="nacute" unicode="&#x144;" horiz-adv-x="1259" 
d="M162 0v1100h188l4 -162h4q54 86 145.5 135t211.5 49q177 0 282 -105.5t105 -279.5v-737h-195v698q0 112 -65 184t-185 72q-136 0 -218.5 -84t-82.5 -215v-655h-194zM913 1573l-227 -332h-178l190 332h215z" />
    <glyph glyph-name="Ncommaaccent" unicode="&#x145;" horiz-adv-x="1634" 
d="M1255 1573h201v-1573h-180l-893 1249h-4v-1249h-201v1573h211l862 -1211h4v1211zM965 -76l-156 -334h-156l111 334h201z" />
    <glyph glyph-name="ncommaaccent" unicode="&#x146;" horiz-adv-x="1259" 
d="M162 0v1100h188l4 -162h4q54 86 145.5 135t211.5 49q177 0 282 -105.5t105 -279.5v-737h-195v698q0 112 -65 184t-185 72q-136 0 -218.5 -84t-82.5 -215v-655h-194zM774 -76l-156 -334h-155l110 334h201z" />
    <glyph glyph-name="Ncaron" unicode="&#x147;" horiz-adv-x="1634" 
d="M1255 1573h201v-1573h-180l-893 1249h-4v-1249h-201v1573h211l862 -1211h4v1211zM1176 1948l-261 -281h-194l-258 281h199l159 -170l156 170h199z" />
    <glyph glyph-name="ncaron" unicode="&#x148;" horiz-adv-x="1259" 
d="M162 0v1100h188l4 -162h4q54 86 145.5 135t211.5 49q177 0 282 -105.5t105 -279.5v-737h-195v698q0 112 -65 184t-185 72q-136 0 -218.5 -84t-82.5 -215v-655h-194zM965 1573l-230 -332h-196l-230 332h191l139 -213l139 213h187z" />
    <glyph glyph-name="napostrophe" unicode="&#x149;" horiz-adv-x="1259" 
d="M162 0v1100h188l4 -162h4q54 86 145.5 135t211.5 49q177 0 282 -105.5t105 -279.5v-737h-195v698q0 112 -65 184t-185 72q-136 0 -218.5 -84t-82.5 -215v-655h-194zM463 1573l-156 -334h-155l110 334h201z" />
    <glyph glyph-name="Eng" unicode="&#x14a;" horiz-adv-x="1634" 
d="M1255 1573h201v-1559q0 -187 -114.5 -299t-305.5 -112q-171 0 -297 88l86 151q93 -67 199 -67q112 0 169.5 65t57.5 174v21l-868 1214h-4v-1249h-201v1573h211l862 -1211h4v1211z" />
    <glyph glyph-name="eng" unicode="&#x14b;" horiz-adv-x="1259" 
d="M162 0v1100h188l4 -162h4q54 86 145.5 135t211.5 49q177 0 282 -105.5t105 -279.5v-862q0 -130 -64.5 -201t-197.5 -71q-62 0 -113 14v158q24 -6 57 -6q123 0 123 131v798q0 112 -65 184t-185 72q-136 0 -218.5 -84t-82.5 -215v-655h-194z" />
    <glyph glyph-name="Omacron" unicode="&#x14c;" horiz-adv-x="1689" 
d="M111 784q0 167 48.5 313.5t138.5 257.5t231 175.5t315 64.5q173 0 313 -62.5t231.5 -171.5t141 -255.5t49.5 -317.5q0 -167 -48.5 -313.5t-138.5 -257.5t-231 -175.5t-315 -64.5q-173 0 -313 62.5t-231.5 171.5t-141 255.5t-49.5 317.5zM322 784q0 -99 19.5 -190
t61.5 -171t102.5 -138.5t148 -92.5t192.5 -34q128 0 229.5 51t164.5 138.5t95.5 199t32.5 239.5q0 126 -32 237t-94.5 200t-164.5 140.5t-233 51.5q-103 0 -189 -33.5t-147 -92t-103.5 -138.5t-62.5 -172.5t-20 -194.5zM549 1729v151h590v-151h-590z" />
    <glyph glyph-name="omacron" unicode="&#x14d;" horiz-adv-x="1259" 
d="M631 -23q-167 0 -291.5 77.5t-187 206t-62.5 288.5q0 161 62.5 290t187 206t291.5 77q126 0 229.5 -45t170 -123.5t102.5 -182t36 -222.5q0 -94 -22.5 -179.5t-67.5 -157t-108.5 -124t-150.5 -82t-189 -29.5zM629 956q-109 0 -188.5 -57t-116.5 -147.5t-37 -202.5
q0 -111 37 -201.5t116.5 -147.5t188.5 -57t189 57t117.5 147.5t37.5 201.5q0 173 -90.5 290t-253.5 117zM342 1331v152h573v-152h-573z" />
    <glyph glyph-name="Obreve" unicode="&#x14e;" horiz-adv-x="1689" 
d="M111 784q0 167 48.5 313.5t138.5 257.5t231 175.5t315 64.5q173 0 313 -62.5t231.5 -171.5t141 -255.5t49.5 -317.5q0 -167 -48.5 -313.5t-138.5 -257.5t-231 -175.5t-315 -64.5q-173 0 -313 62.5t-231.5 171.5t-141 255.5t-49.5 317.5zM322 784q0 -99 19.5 -190
t61.5 -171t102.5 -138.5t148 -92.5t192.5 -34q128 0 229.5 51t164.5 138.5t95.5 199t32.5 239.5q0 126 -32 237t-94.5 200t-164.5 140.5t-233 51.5q-103 0 -189 -33.5t-147 -92t-103.5 -138.5t-62.5 -172.5t-20 -194.5zM844 1786q162 0 180 158h127q-2 -125 -81.5 -203
t-225.5 -78t-224.5 78t-80.5 203h127q18 -158 178 -158z" />
    <glyph glyph-name="obreve" unicode="&#x14f;" horiz-adv-x="1259" 
d="M631 -23q-167 0 -291.5 77.5t-187 206t-62.5 288.5q0 161 62.5 290t187 206t291.5 77q126 0 229.5 -45t170 -123.5t102.5 -182t36 -222.5q0 -94 -22.5 -179.5t-67.5 -157t-108.5 -124t-150.5 -82t-189 -29.5zM629 956q-109 0 -188.5 -57t-116.5 -147.5t-37 -202.5
q0 -111 37 -201.5t116.5 -147.5t188.5 -57t189 57t117.5 147.5t37.5 201.5q0 173 -90.5 290t-253.5 117zM629 1372q81 0 120 51t44 133h129q0 -138 -75.5 -222.5t-217.5 -84.5t-217.5 85t-75.5 222h129q5 -82 44 -133t120 -51z" />
    <glyph glyph-name="Ohungarumlaut" unicode="&#x150;" horiz-adv-x="1689" 
d="M111 784q0 167 48.5 313.5t138.5 257.5t231 175.5t315 64.5q173 0 313 -62.5t231.5 -171.5t141 -255.5t49.5 -317.5q0 -167 -48.5 -313.5t-138.5 -257.5t-231 -175.5t-315 -64.5q-173 0 -313 62.5t-231.5 171.5t-141 255.5t-49.5 317.5zM322 784q0 -99 19.5 -190
t61.5 -171t102.5 -138.5t148 -92.5t192.5 -34q128 0 229.5 51t164.5 138.5t95.5 199t32.5 239.5q0 126 -32 237t-94.5 200t-164.5 140.5t-233 51.5q-103 0 -189 -33.5t-147 -92t-103.5 -138.5t-62.5 -172.5t-20 -194.5zM1270 1948l-236 -281h-166l203 281h199zM954 1948
l-237 -281h-164l201 281h200z" />
    <glyph glyph-name="ohungarumlaut" unicode="&#x151;" horiz-adv-x="1259" 
d="M631 -23q-167 0 -291.5 77.5t-187 206t-62.5 288.5q0 161 62.5 290t187 206t291.5 77q126 0 229.5 -45t170 -123.5t102.5 -182t36 -222.5q0 -94 -22.5 -179.5t-67.5 -157t-108.5 -124t-150.5 -82t-189 -29.5zM629 956q-109 0 -188.5 -57t-116.5 -147.5t-37 -202.5
q0 -111 37 -201.5t116.5 -147.5t188.5 -57t189 57t117.5 147.5t37.5 201.5q0 173 -90.5 290t-253.5 117zM1042 1573l-227 -332h-164l193 332h198zM737 1573l-227 -332h-164l193 332h198z" />
    <glyph glyph-name="OE" unicode="&#x152;" horiz-adv-x="2125" 
d="M2058 0h-1173q-193 0 -346.5 62.5t-249.5 171.5t-146.5 251t-50.5 306q0 233 96 410.5t272.5 274.5t409.5 97h1174v-180h-750v-512h650v-179h-650v-522h764v-180zM1090 1393h-209q-266 0 -422 -153t-156 -447q0 -154 45.5 -273t126.5 -192.5t187 -110.5t233 -37h195v1213
z" />
    <glyph glyph-name="oe" unicode="&#x153;" horiz-adv-x="2011" 
d="M1137 635h600q-13 147 -86 235t-207 88t-212.5 -87.5t-94.5 -235.5zM618 143q103 0 179 56.5t112.5 147.5t36.5 204q0 112 -36.5 202.5t-112 146.5t-179.5 56q-157 0 -244 -116t-87 -289q0 -174 87.5 -291t243.5 -117zM1757 276l135 -120q-153 -179 -413 -179
q-149 0 -262.5 60t-182.5 170q-67 -108 -175 -169t-249 -61q-121 0 -220.5 45t-164.5 123.5t-100 183t-35 224.5q0 119 35.5 222.5t100.5 180.5t164 121.5t220 44.5q139 0 247.5 -60t176.5 -167q63 106 169 166.5t243 60.5q152 0 263 -72.5t165.5 -193t54.5 -274.5
q0 -66 -6 -109h-784q21 -148 111.5 -239t238.5 -91q167 0 268 133z" />
    <glyph glyph-name="Racute" unicode="&#x154;" horiz-adv-x="1429" 
d="M1122 0l-319 662h-418v-662h-207v1573h641q224 0 365 -121t141 -330q0 -154 -84.5 -260t-230.5 -153l346 -709h-234zM385 1393v-551h430q132 0 216.5 70.5t84.5 203.5q0 135 -83 206t-216 71h-432zM993 1948l-239 -281h-191l205 281h225z" />
    <glyph glyph-name="racute" unicode="&#x155;" horiz-adv-x="778" 
d="M162 0v1100h188l4 -166h4q102 188 283 188q48 0 92 -14v-190q-42 14 -102 14q-130 0 -202.5 -77.5t-72.5 -186.5v-668h-194zM686 1573l-227 -332h-178l190 332h215z" />
    <glyph glyph-name="Rcommaaccent" unicode="&#x156;" horiz-adv-x="1429" 
d="M1122 0l-319 662h-418v-662h-207v1573h641q224 0 365 -121t141 -330q0 -154 -84.5 -260t-230.5 -153l346 -709h-234zM385 1393v-551h430q132 0 216.5 70.5t84.5 203.5q0 135 -83 206t-216 71h-432zM856 -76l-156 -334h-155l110 334h201z" />
    <glyph glyph-name="rcommaaccent" unicode="&#x157;" horiz-adv-x="778" 
d="M162 0v1100h188l4 -166h4q102 188 283 188q48 0 92 -14v-190q-42 14 -102 14q-130 0 -202.5 -77.5t-72.5 -186.5v-668h-194zM422 -76l-156 -334h-155l110 334h201z" />
    <glyph glyph-name="Rcaron" unicode="&#x158;" horiz-adv-x="1429" 
d="M1122 0l-319 662h-418v-662h-207v1573h641q224 0 365 -121t141 -330q0 -154 -84.5 -260t-230.5 -153l346 -709h-234zM385 1393v-551h430q132 0 216.5 70.5t84.5 203.5q0 135 -83 206t-216 71h-432zM1049 1948l-261 -281h-194l-258 281h199l159 -170l156 170h199z" />
    <glyph glyph-name="rcaron" unicode="&#x159;" horiz-adv-x="778" 
d="M162 0v1100h188l4 -166h4q102 188 283 188q48 0 92 -14v-190q-42 14 -102 14q-130 0 -202.5 -77.5t-72.5 -186.5v-668h-194zM737 1573l-229 -332h-197l-229 332h190l140 -213l139 213h186z" />
    <glyph glyph-name="Sacute" unicode="&#x15a;" horiz-adv-x="1314" 
d="M653 -23q-185 0 -336.5 62t-255.5 186l154 133q76 -97 190 -149.5t246 -52.5q188 0 278.5 70t90.5 194q0 49 -18.5 87.5t-47.5 65t-83.5 50t-106 39t-135.5 36.5q-67 17 -111.5 30t-103.5 34.5t-98 43.5t-81 56t-66 73t-40 92t-16 116q0 205 149.5 328.5t405.5 123.5
q346 0 540 -243l-155 -129q-138 194 -387 194q-165 0 -253.5 -70.5t-88.5 -183.5q0 -28 6 -52t14.5 -42.5t28 -36.5t34 -30t46 -26t51.5 -22t63 -21t67.5 -19.5t76.5 -20.5q70 -19 115.5 -33t105.5 -37t98.5 -45.5t80.5 -57t65.5 -73.5t39 -91.5t15.5 -115.5
q0 -212 -153 -337.5t-425 -125.5zM963 1948l-240 -281h-191l205 281h226z" />
    <glyph glyph-name="sacute" unicode="&#x15b;" horiz-adv-x="1054" 
d="M520 -23q-286 0 -461 166l119 133q141 -135 348 -135q127 0 192.5 42.5t65.5 115.5q0 26 -8 46t-29 35.5t-40.5 26.5t-60.5 22.5t-70.5 18.5t-86.5 19q-71 15 -121.5 30t-105 41t-87.5 58t-55 81t-22 111q0 147 113 240.5t321 93.5q255 0 429 -157l-117 -134
q-139 127 -318 127q-111 0 -171 -41.5t-60 -107.5q0 -25 7 -44.5t26.5 -35t38.5 -26t59 -22t69.5 -18.5t88.5 -20q51 -11 86.5 -20.5t80.5 -24.5t75.5 -31.5t62 -40.5t50 -52.5t30.5 -67t12 -84.5q0 -155 -120.5 -250t-340.5 -95zM805 1573l-227 -332h-179l191 332h215z" />
    <glyph glyph-name="Scircumflex" unicode="&#x15c;" horiz-adv-x="1314" 
d="M653 -23q-185 0 -336.5 62t-255.5 186l154 133q76 -97 190 -149.5t246 -52.5q188 0 278.5 70t90.5 194q0 49 -18.5 87.5t-47.5 65t-83.5 50t-106 39t-135.5 36.5q-67 17 -111.5 30t-103.5 34.5t-98 43.5t-81 56t-66 73t-40 92t-16 116q0 205 149.5 328.5t405.5 123.5
q346 0 540 -243l-155 -129q-138 194 -387 194q-165 0 -253.5 -70.5t-88.5 -183.5q0 -28 6 -52t14.5 -42.5t28 -36.5t34 -30t46 -26t51.5 -22t63 -21t67.5 -19.5t76.5 -20.5q70 -19 115.5 -33t105.5 -37t98.5 -45.5t80.5 -57t65.5 -73.5t39 -91.5t15.5 -115.5
q0 -212 -153 -337.5t-425 -125.5zM305 1667l260 281h195l258 -281h-199l-160 170l-155 -170h-199z" />
    <glyph glyph-name="scircumflex" unicode="&#x15d;" horiz-adv-x="1054" 
d="M520 -23q-286 0 -461 166l119 133q141 -135 348 -135q127 0 192.5 42.5t65.5 115.5q0 26 -8 46t-29 35.5t-40.5 26.5t-60.5 22.5t-70.5 18.5t-86.5 19q-71 15 -121.5 30t-105 41t-87.5 58t-55 81t-22 111q0 147 113 240.5t321 93.5q255 0 429 -157l-117 -134
q-139 127 -318 127q-111 0 -171 -41.5t-60 -107.5q0 -25 7 -44.5t26.5 -35t38.5 -26t59 -22t69.5 -18.5t88.5 -20q51 -11 86.5 -20.5t80.5 -24.5t75.5 -31.5t62 -40.5t50 -52.5t30.5 -67t12 -84.5q0 -155 -120.5 -250t-340.5 -95zM201 1241l229 332h197l229 -332h-190
l-140 213l-139 -213h-186z" />
    <glyph glyph-name="Scedilla" unicode="&#x15e;" horiz-adv-x="1314" 
d="M625 -373q-91 0 -166 21l18 100q61 -14 117 -14q102 0 102 61q0 32 -32.5 49t-110.5 23l37 119q-341 16 -529 241l154 133q76 -97 190 -149.5t246 -52.5q188 0 278.5 70t90.5 194q0 49 -18.5 87t-47.5 64t-83.5 49.5t-106 39t-135.5 36.5q-67 17 -111.5 30t-103.5 34.5
t-98 43.5t-81 56t-66 73t-40 92t-16 116q0 205 149.5 328.5t405.5 123.5q346 0 540 -243l-155 -129q-138 194 -387 194q-165 0 -253.5 -70.5t-88.5 -183.5q0 -28 6 -52t14.5 -42.5t28 -36.5t34 -30t46 -26t51.5 -22t63 -21t67.5 -19.5t76.5 -20.5q71 -19 115.5 -32.5
t105.5 -36.5t99 -45.5t80 -56.5t65.5 -73t39 -91.5t15.5 -115.5q0 -202 -141 -325.5t-390 -130.5l-16 -52q89 -10 136.5 -47t47.5 -96q0 -74 -63 -119t-180 -45z" />
    <glyph glyph-name="scedilla" unicode="&#x15f;" horiz-adv-x="1054" 
d="M496 -373q-91 0 -166 21l18 100q61 -14 117 -14q102 0 102 61q0 32 -32.5 49t-110.5 23l37 119q-249 12 -402 159l119 134q142 -136 348 -136q127 0 192.5 42.5t65.5 115.5q0 25 -8 44.5t-29 35.5t-40.5 26.5t-60.5 22t-70.5 18.5t-86.5 19q-71 15 -121.5 30t-105 41
t-87.5 58t-55 81t-22 111q0 147 113 240.5t321 93.5q255 0 429 -157l-117 -134q-139 127 -318 127q-111 0 -171 -41.5t-60 -107.5q0 -25 7 -44.5t26.5 -35t38.5 -26t59 -22t69.5 -18.5t88.5 -20q51 -11 86.5 -20.5t80.5 -24.5t75.5 -31t62 -40.5t50 -52.5t30.5 -66.5
t12 -83.5q0 -144 -107 -236t-303 -102l-16 -52q89 -10 136.5 -47t47.5 -96q0 -74 -63 -119t-180 -45z" />
    <glyph glyph-name="Scaron" unicode="&#x160;" horiz-adv-x="1314" 
d="M653 -23q-185 0 -336.5 62t-255.5 186l154 133q76 -97 190 -149.5t246 -52.5q188 0 278.5 70t90.5 194q0 49 -18.5 87.5t-47.5 65t-83.5 50t-106 39t-135.5 36.5q-67 17 -111.5 30t-103.5 34.5t-98 43.5t-81 56t-66 73t-40 92t-16 116q0 205 149.5 328.5t405.5 123.5
q346 0 540 -243l-155 -129q-138 194 -387 194q-165 0 -253.5 -70.5t-88.5 -183.5q0 -28 6 -52t14.5 -42.5t28 -36.5t34 -30t46 -26t51.5 -22t63 -21t67.5 -19.5t76.5 -20.5q70 -19 115.5 -33t105.5 -37t98.5 -45.5t80.5 -57t65.5 -73.5t39 -91.5t15.5 -115.5
q0 -212 -153 -337.5t-425 -125.5zM1018 1948l-260 -281h-195l-258 281h199l160 -170l155 170h199z" />
    <glyph glyph-name="scaron" unicode="&#x161;" horiz-adv-x="1054" 
d="M520 -23q-286 0 -461 166l119 133q141 -135 348 -135q127 0 192.5 42.5t65.5 115.5q0 26 -8 46t-29 35.5t-40.5 26.5t-60.5 22.5t-70.5 18.5t-86.5 19q-71 15 -121.5 30t-105 41t-87.5 58t-55 81t-22 111q0 147 113 240.5t321 93.5q255 0 429 -157l-117 -134
q-139 127 -318 127q-111 0 -171 -41.5t-60 -107.5q0 -25 7 -44.5t26.5 -35t38.5 -26t59 -22t69.5 -18.5t88.5 -20q51 -11 86.5 -20.5t80.5 -24.5t75.5 -31.5t62 -40.5t50 -52.5t30.5 -67t12 -84.5q0 -155 -120.5 -250t-340.5 -95zM856 1573l-229 -332h-197l-229 332h190
l139 -213l140 213h186z" />
    <glyph glyph-name="Tcommaaccent" unicode="&#x162;" horiz-adv-x="1357" 
d="M782 0h-47l-20 -66q88 -11 135 -48t47 -95q0 -74 -63.5 -119t-180.5 -45q-91 0 -166 21l19 100q61 -14 117 -14q102 0 102 61q0 32 -32.5 49t-110.5 23l43 133h-50v1393h-544v180h1296v-180h-545v-1393z" />
    <glyph glyph-name="tcommaaccent" unicode="&#x163;" horiz-adv-x="751" 
d="M698 938h-264v-602q0 -103 37.5 -147t140.5 -44q34 0 86 9v-158q-82 -19 -153 -19q-36 0 -80 7l-14 -50q88 -11 135 -48t47 -95q0 -74 -63.5 -119t-180.5 -45q-91 0 -166 21l19 100q61 -14 116 -14q103 0 103 61q0 32 -33 49t-111 23l50 151q-127 72 -127 269v651h-220
v162h220v348h194v-348h264v-162z" />
    <glyph glyph-name="Tcaron" unicode="&#x164;" horiz-adv-x="1357" 
d="M782 0h-207v1393h-544v180h1296v-180h-545v-1393zM1034 1948l-260 -281h-194l-258 281h198l160 -170l156 170h198z" />
    <glyph glyph-name="tcaron" unicode="&#x165;" horiz-adv-x="751" 
d="M20 938v162h220v348h194v-348h264v-162h-264v-602q0 -103 37.5 -147t140.5 -44q34 0 86 9v-158q-82 -19 -153 -19q-154 0 -229.5 80t-75.5 230v651h-220zM846 1573l-156 -334h-155l110 334h201z" />
    <glyph glyph-name="Tbar" unicode="&#x166;" horiz-adv-x="1357" 
d="M782 0h-207v711h-288v170h288v512h-544v180h1296v-180h-545v-512h289v-170h-289v-711z" />
    <glyph glyph-name="tbar" unicode="&#x167;" horiz-adv-x="751" 
d="M20 938v162h220v348h194v-348h264v-162h-264v-252h264v-162h-264v-186q0 -104 37.5 -148.5t140.5 -44.5q34 0 86 9v-158q-82 -19 -153 -19q-154 0 -229.5 80t-75.5 230v237h-220v162h220v252h-220z" />
    <glyph glyph-name="Utilde" unicode="&#x168;" horiz-adv-x="1591" 
d="M1219 553v1020h200v-1030q0 -260 -167.5 -413t-458.5 -153q-179 0 -319 67t-221 196.5t-81 302.5v1030h207v-1020q0 -180 114 -288.5t308 -108.5q195 0 306.5 106t111.5 291zM641 1925q60 0 115 -20.5t102 -41t88 -20.5q80 0 92 80h131q-22 -233 -211 -233
q-61 0 -116.5 20.5t-102 41t-86.5 20.5q-80 0 -92 -80h-131q22 233 211 233z" />
    <glyph glyph-name="utilde" unicode="&#x169;" horiz-adv-x="1259" 
d="M1098 1100v-1100h-191l-2 162h-4q-56 -85 -148 -135t-208 -50q-177 0 -282 105.5t-105 279.5v738h194v-699q0 -113 64 -184.5t186 -71.5q136 0 218.5 84t82.5 215v656h195zM479 1534q45 0 88.5 -15.5t71.5 -34.5t63 -34.5t66 -15.5q37 0 56.5 22t25.5 72h133
q-22 -248 -205 -248q-45 0 -88.5 15.5t-71.5 34.5t-63 34.5t-66 15.5q-37 0 -56 -21.5t-25 -72.5h-134q22 248 205 248z" />
    <glyph glyph-name="Umacron" unicode="&#x16a;" horiz-adv-x="1591" 
d="M1219 553v1020h200v-1030q0 -260 -167.5 -413t-458.5 -153q-179 0 -319 67t-221 196.5t-81 302.5v1030h207v-1020q0 -180 114 -288.5t308 -108.5q195 0 306.5 106t111.5 291zM504 1729v151h590v-151h-590z" />
    <glyph glyph-name="umacron" unicode="&#x16b;" horiz-adv-x="1259" 
d="M1098 1100v-1100h-191l-2 162h-4q-56 -85 -148 -135t-208 -50q-177 0 -282 105.5t-105 279.5v738h194v-699q0 -113 64 -184.5t186 -71.5q136 0 218.5 84t82.5 215v656h195zM342 1331v152h573v-152h-573z" />
    <glyph glyph-name="Ubreve" unicode="&#x16c;" horiz-adv-x="1591" 
d="M1219 553v1020h200v-1030q0 -260 -167.5 -413t-458.5 -153q-179 0 -319 67t-221 196.5t-81 302.5v1030h207v-1020q0 -180 114 -288.5t308 -108.5q195 0 306.5 106t111.5 291zM799 1786q162 0 180 158h127q-2 -125 -81.5 -203t-225.5 -78t-224.5 78t-80.5 203h127
q18 -158 178 -158z" />
    <glyph glyph-name="ubreve" unicode="&#x16d;" horiz-adv-x="1259" 
d="M1098 1100v-1100h-191l-2 162h-4q-56 -85 -148 -135t-208 -50q-177 0 -282 105.5t-105 279.5v738h194v-699q0 -113 64 -184.5t186 -71.5q136 0 218.5 84t82.5 215v656h195zM629 1372q81 0 120 51t44 133h129q0 -138 -75.5 -222.5t-217.5 -84.5t-217.5 85t-75.5 222h129
q5 -82 44 -133t120 -51z" />
    <glyph glyph-name="Uring" unicode="&#x16e;" horiz-adv-x="1591" 
d="M1219 553v1020h200v-1030q0 -260 -167.5 -413t-458.5 -153q-179 0 -319 67t-221 196.5t-81 302.5v1030h207v-1020q0 -180 114 -288.5t308 -108.5q195 0 306.5 106t111.5 291zM557 1706q0 101 69.5 169.5t172.5 68.5t172 -68.5t69 -169.5t-69 -169.5t-172 -68.5
t-172.5 68.5t-69.5 169.5zM674 1706q0 -56 33.5 -94.5t91.5 -38.5t91.5 38.5t33.5 94.5t-33.5 94.5t-91.5 38.5t-91.5 -38.5t-33.5 -94.5z" />
    <glyph glyph-name="uring" unicode="&#x16f;" horiz-adv-x="1259" 
d="M1098 1100v-1100h-191l-2 162h-4q-56 -85 -148 -135t-208 -50q-177 0 -282 105.5t-105 279.5v738h194v-699q0 -113 64 -184.5t186 -71.5q136 0 218.5 84t82.5 215v656h195zM387 1454q0 101 69.5 169.5t172.5 68.5t172 -68.5t69 -169.5t-69 -169t-172 -68t-172.5 68
t-69.5 169zM504 1454q0 -56 33.5 -94.5t91.5 -38.5t91.5 38.5t33.5 94.5t-33.5 94.5t-91.5 38.5t-91.5 -38.5t-33.5 -94.5z" />
    <glyph glyph-name="Uhungarumlaut" unicode="&#x170;" horiz-adv-x="1591" 
d="M1219 553v1020h200v-1030q0 -260 -167.5 -413t-458.5 -153q-179 0 -319 67t-221 196.5t-81 302.5v1030h207v-1020q0 -180 114 -288.5t308 -108.5q195 0 306.5 106t111.5 291zM1225 1948l-236 -281h-166l203 281h199zM909 1948l-237 -281h-164l201 281h200z" />
    <glyph glyph-name="uhungarumlaut" unicode="&#x171;" horiz-adv-x="1259" 
d="M1098 1100v-1100h-191l-2 162h-4q-56 -85 -148 -135t-208 -50q-177 0 -282 105.5t-105 279.5v738h194v-699q0 -113 64 -184.5t186 -71.5q136 0 218.5 84t82.5 215v656h195zM1042 1573l-227 -332h-164l193 332h198zM737 1573l-227 -332h-164l193 332h198z" />
    <glyph glyph-name="Uogonek" unicode="&#x172;" horiz-adv-x="1591" 
d="M1219 1573h200v-1030q0 -202 -102 -340t-285 -193q-112 -33 -162.5 -84.5t-50.5 -97.5q0 -38 22.5 -58t82.5 -20q36 0 82 6v-137q-56 -16 -138 -16q-124 0 -185.5 52.5t-61.5 127.5q0 115 110 197v4q-248 12 -403.5 162.5t-155.5 396.5v1030h207v-1020q0 -180 114 -288.5
t308 -108.5q195 0 306.5 106t111.5 291v1020z" />
    <glyph glyph-name="uogonek" unicode="&#x173;" horiz-adv-x="1259" 
d="M1098 1100v-1096q-99 -53 -143 -97.5t-44 -86.5q0 -74 107 -74q36 0 80 6v-133q-56 -16 -135 -16q-124 0 -185 51t-61 127q0 71 54 134.5t140 109.5l-6 137h-4q-56 -85 -148 -135t-208 -50q-177 0 -282 105.5t-105 279.5v738h194v-699q0 -113 64 -184.5t186 -71.5
q136 0 218.5 84t82.5 215v656h195z" />
    <glyph glyph-name="Wcircumflex" unicode="&#x174;" horiz-adv-x="2226" 
d="M1995 1573h211l-467 -1573h-236l-387 1288h-4l-387 -1288h-238l-467 1573h220l374 -1307h4l383 1307h234l385 -1309h4zM760 1667l260 281h194l259 -281h-199l-160 170l-156 -170h-198z" />
    <glyph glyph-name="wcircumflex" unicode="&#x175;" horiz-adv-x="1705" 
d="M1477 1100h196l-354 -1100h-199l-264 831h-4l-264 -831h-199l-356 1100h205l256 -848h4l254 848h209l256 -852h4zM532 1241l230 332h196l230 -332h-191l-139 213l-139 -213h-187z" />
    <glyph glyph-name="Ycircumflex" unicode="&#x176;" horiz-adv-x="1386" 
d="M1151 1573h231l-585 -952v-621h-207v616l-586 957h240l448 -756h4zM336 1667l260 281h195l258 -281h-199l-160 170l-155 -170h-199z" />
    <glyph glyph-name="ycircumflex" unicode="&#x177;" horiz-adv-x="1126" 
d="M895 1100h205l-467 -1184q-69 -176 -148.5 -244.5t-205.5 -68.5q-74 0 -134 22v158q44 -14 93 -14q86 0 137 43t88 159l4 13l-440 1116h213l323 -877h4zM246 1241l229 332h197l229 -332h-190l-140 213l-139 -213h-186z" />
    <glyph glyph-name="Ydieresis" unicode="&#x178;" horiz-adv-x="1386" 
d="M1151 1573h231l-585 -952v-621h-207v616l-586 957h240l448 -756h4zM805 1704v207h205v-207h-205zM375 1704v207h205v-207h-205z" />
    <glyph glyph-name="Zacute" unicode="&#x179;" horiz-adv-x="1331" 
d="M104 1393v180h1121v-164l-895 -1229h917v-180h-1169v164l895 1229h-869zM969 1948l-240 -281h-190l204 281h226z" />
    <glyph glyph-name="zacute" unicode="&#x17a;" horiz-adv-x="1028" 
d="M92 930v170h848v-160l-627 -770h650v-170h-889v160l626 770h-608zM793 1573l-228 -332h-178l191 332h215z" />
    <glyph glyph-name="Zdotaccent" unicode="&#x17b;" horiz-adv-x="1331" 
d="M104 1393v180h1121v-164l-895 -1229h917v-180h-1169v164l895 1229h-869zM563 1704v207h209v-207h-209z" />
    <glyph glyph-name="zdotaccent" unicode="&#x17c;" horiz-adv-x="1028" 
d="M92 930v170h848v-160l-627 -770h650v-170h-889v160l626 770h-608zM412 1305v204h209v-204h-209z" />
    <glyph glyph-name="Zcaron" unicode="&#x17d;" horiz-adv-x="1331" 
d="M104 1393v180h1121v-164l-895 -1229h917v-180h-1169v164l895 1229h-869zM1024 1948l-260 -281h-195l-258 281h199l160 -170l155 170h199z" />
    <glyph glyph-name="zcaron" unicode="&#x17e;" horiz-adv-x="1028" 
d="M92 930v170h848v-160l-627 -770h650v-170h-889v160l626 770h-608zM844 1573l-230 -332h-196l-230 332h191l139 -213l139 213h187z" />
    <glyph glyph-name="longs" unicode="&#x17f;" horiz-adv-x="679" 
d="M254 0v938h-219v162h219v184q0 151 86 231t244 80q67 0 129 -16v-162q-33 10 -90 10q-94 0 -134 -39t-40 -128v-1260h-195z" />
    <glyph glyph-name="florin" unicode="&#x192;" 
d="M1176 1491l-25 -158q-58 21 -117 21q-174 0 -203 -183l-24 -159h293l-29 -174h-293l-108 -686q-25 -156 -120.5 -244t-248.5 -88q-102 0 -170 35l25 157q62 -20 116 -20q175 0 203 182l105 664h-248l28 174h248l29 182q25 156 120.5 244t248.5 88q102 0 170 -35z" />
    <glyph glyph-name="AEacute" unicode="&#x1fc;" horiz-adv-x="1992" 
d="M1165 180h760v-180h-962v440h-531l-239 -440h-218l867 1573h1069v-180h-746v-512h645v-179h-645v-522zM528 618h435v791h-5zM1503 1948l-239 -281h-191l205 281h225z" />
    <glyph glyph-name="aeacute" unicode="&#x1fd;" horiz-adv-x="1849" 
d="M977 635h598q-13 147 -86 235t-207 88t-211.5 -87.5t-93.5 -235.5zM786 430v59q-121 -4 -278 -24q-105 -14 -159 -46.5t-54 -107.5t53 -122.5t139 -47.5q134 0 216.5 84t82.5 205zM295 793l-162 77q50 126 162.5 189t253.5 63q254 0 366 -168q139 168 371 168
q151 0 261.5 -72.5t165 -193.5t54.5 -274q0 -66 -6 -109h-782q21 -148 110.5 -239t237.5 -91q167 0 268 133l136 -120q-153 -179 -414 -179q-149 0 -262 61t-181 171q-63 -111 -167 -171.5t-240 -60.5q-166 0 -266.5 91t-100.5 237q0 171 136 248q84 48 212 64.5t338 21.5
v111q0 87 -65 147.5t-178 60.5q-91 0 -155 -41.5t-93 -123.5zM1190 1573l-227 -332h-179l191 332h215z" />
    <glyph glyph-name="Oslashacute" unicode="&#x1fe;" horiz-adv-x="1689" 
d="M1567 1581l-174 -225q90 -107 138 -253.5t48 -314.5q0 -167 -48.5 -313.5t-138.5 -257.5t-231 -175.5t-315 -64.5q-245 0 -428 127l-160 -206l-135 94l174 225q-90 107 -138 253t-48 314q0 167 48.5 313.5t138.5 257.5t231 175.5t315 64.5q245 0 428 -127l160 207z
M426 381l727 936q-127 100 -309 100q-128 0 -229.5 -51.5t-164.5 -139.5t-95.5 -201t-32.5 -241q0 -240 104 -403zM1264 1192l-727 -936q127 -100 309 -100q103 0 189 33.5t147 92t103.5 138.5t62.5 172.5t20 193.5q0 243 -104 406zM1145 1948l-240 -281h-190l205 281h225z
" />
    <glyph glyph-name="oslashacute" unicode="&#x1ff;" horiz-adv-x="1259" 
d="M1163 1098l-123 -158q129 -157 129 -391q0 -94 -22.5 -179.5t-67.5 -157t-108.5 -124t-150.5 -82t-189 -29.5q-166 0 -293 78l-117 -149l-125 94l125 158q-131 152 -131 391q0 160 62.5 288.5t187 205.5t291.5 77q162 0 291 -76l116 148zM340 309l471 596q-76 51 -182 51
q-163 0 -253.5 -117t-90.5 -290q0 -139 55 -240zM918 788l-469 -595q77 -52 180 -52q110 0 190 57t118 148t38 203q0 140 -57 239zM905 1573l-227 -332h-178l190 332h215z" />
    <glyph glyph-name="Scommaaccent" unicode="&#x218;" horiz-adv-x="1314" 
d="M653 -23q-185 0 -336.5 62t-255.5 186l154 133q76 -97 190 -149.5t246 -52.5q188 0 278.5 70t90.5 194q0 49 -18.5 87.5t-47.5 65t-83.5 50t-106 39t-135.5 36.5q-67 17 -111.5 30t-103.5 34.5t-98 43.5t-81 56t-66 73t-40 92t-16 116q0 205 149.5 328.5t405.5 123.5
q346 0 540 -243l-155 -129q-138 194 -387 194q-165 0 -253.5 -70.5t-88.5 -183.5q0 -28 6 -52t14.5 -42.5t28 -36.5t34 -30t46 -26t51.5 -22t63 -21t67.5 -19.5t76.5 -20.5q70 -19 115.5 -33t105.5 -37t98.5 -45.5t80.5 -57t65.5 -73.5t39 -91.5t15.5 -115.5
q0 -212 -153 -337.5t-425 -125.5zM791 -76l-156 -334h-156l111 334h201z" />
    <glyph glyph-name="scommaaccent" unicode="&#x219;" horiz-adv-x="1054" 
d="M520 -23q-286 0 -461 166l119 133q141 -135 348 -135q127 0 192.5 42.5t65.5 115.5q0 26 -8 46t-29 35.5t-40.5 26.5t-60.5 22.5t-70.5 18.5t-86.5 19q-71 15 -121.5 30t-105 41t-87.5 58t-55 81t-22 111q0 147 113 240.5t321 93.5q255 0 429 -157l-117 -134
q-139 127 -318 127q-111 0 -171 -41.5t-60 -107.5q0 -25 7 -44.5t26.5 -35t38.5 -26t59 -22t69.5 -18.5t88.5 -20q51 -11 86.5 -20.5t80.5 -24.5t75.5 -31.5t62 -40.5t50 -52.5t30.5 -67t12 -84.5q0 -155 -120.5 -250t-340.5 -95zM666 -76l-156 -334h-156l111 334h201z" />
    <glyph glyph-name="uni021A" unicode="&#x21a;" horiz-adv-x="1357" 
d="M782 0h-207v1393h-544v180h1296v-180h-545v-1393zM821 -76l-155 -334h-156l111 334h200z" />
    <glyph glyph-name="uni021B" unicode="&#x21b;" horiz-adv-x="751" 
d="M20 938v162h220v348h194v-348h264v-162h-264v-602q0 -103 37.5 -147t140.5 -44q34 0 86 9v-158q-82 -19 -153 -19q-154 0 -229.5 80t-75.5 230v651h-220zM573 -76l-155 -334h-156l111 334h200z" />
    <glyph glyph-name="circumflex" unicode="&#x2c6;" 
d="M315 1241l230 332h196l230 -332h-191l-139 213l-139 -213h-187z" />
    <glyph glyph-name="caron" unicode="&#x2c7;" 
d="M971 1573l-230 -332h-196l-230 332h191l139 -213l139 213h187z" />
    <glyph glyph-name="breve" unicode="&#x2d8;" 
d="M643 1372q81 0 120 51t44 133h129q0 -138 -75.5 -222.5t-217.5 -84.5t-217.5 85t-75.5 222h129q5 -82 44 -133t120 -51z" />
    <glyph glyph-name="dotaccent" unicode="&#x2d9;" 
d="M539 1305v204h209v-204h-209z" />
    <glyph glyph-name="ring" unicode="&#x2da;" 
d="M401 1454q0 101 69.5 169.5t172.5 68.5t172.5 -68.5t69.5 -169.5t-69.5 -169t-172.5 -68t-172.5 68t-69.5 169zM518 1454q0 -56 33.5 -94.5t91.5 -38.5t91.5 38.5t33.5 94.5t-33.5 94.5t-91.5 38.5t-91.5 -38.5t-33.5 -94.5z" />
    <glyph glyph-name="ogonek" unicode="&#x2db;" 
d="M655 39h185v-29q-187 -97 -187 -188q0 -35 22.5 -54.5t82.5 -19.5q38 0 82 6v-137q-70 -16 -142 -16q-122 0 -182.5 52t-60.5 132q0 71 53.5 136t146.5 118z" />
    <glyph glyph-name="tilde" unicode="&#x2dc;" 
d="M494 1534q45 0 88.5 -15.5t71 -34.5t62.5 -34.5t66 -15.5q37 0 56.5 22t25.5 72h133q-22 -248 -204 -248q-45 0 -88.5 15.5t-71.5 34.5t-63 34.5t-66 15.5q-37 0 -56.5 -22t-25.5 -72h-133q22 248 205 248z" />
    <glyph glyph-name="hungarumlaut" unicode="&#x2dd;" 
d="M1057 1573l-228 -332h-163l192 332h199zM752 1573l-228 -332h-164l193 332h199z" />
    <glyph glyph-name="pi" unicode="&#x3c0;" horiz-adv-x="1331" 
d="M254 0v934h-191v166h1197v-166h-181v-651q0 -129 127 -129q26 0 54 4v-156q-43 -16 -123 -16q-125 0 -188.5 71.5t-63.5 200.5v676h-436v-934h-195z" />
    <glyph glyph-name="Wgrave" unicode="&#x1e80;" horiz-adv-x="2226" 
d="M1995 1573h211l-467 -1573h-236l-387 1288h-4l-387 -1288h-238l-467 1573h220l374 -1307h4l383 1307h234l385 -1309h4zM1053 1667l-238 281h227l205 -281h-194z" />
    <glyph glyph-name="wgrave" unicode="&#x1e81;" horiz-adv-x="1705" 
d="M1477 1100h196l-354 -1100h-199l-264 831h-4l-264 -831h-199l-356 1100h205l256 -848h4l254 848h209l256 -852h4zM807 1241l-227 332h219l190 -332h-182z" />
    <glyph glyph-name="Wacute" unicode="&#x1e82;" horiz-adv-x="2226" 
d="M1995 1573h211l-467 -1573h-236l-387 1288h-4l-387 -1288h-238l-467 1573h220l374 -1307h4l383 1307h234l385 -1309h4zM1417 1948l-239 -281h-191l205 281h225z" />
    <glyph glyph-name="wacute" unicode="&#x1e83;" horiz-adv-x="1705" 
d="M1477 1100h196l-354 -1100h-199l-264 831h-4l-264 -831h-199l-356 1100h205l256 -848h4l254 848h209l256 -852h4zM1137 1573l-228 -332h-178l191 332h215z" />
    <glyph glyph-name="Wdieresis" unicode="&#x1e84;" horiz-adv-x="2226" 
d="M1995 1573h211l-467 -1573h-236l-387 1288h-4l-387 -1288h-238l-467 1573h220l374 -1307h4l383 1307h234l385 -1309h4zM1229 1704v207h205v-207h-205zM799 1704v207h205v-207h-205z" />
    <glyph glyph-name="wdieresis" unicode="&#x1e85;" horiz-adv-x="1705" 
d="M1477 1100h196l-354 -1100h-199l-264 831h-4l-264 -831h-199l-356 1100h205l256 -848h4l254 848h209l256 -852h4zM965 1305v204h202v-204h-202zM553 1305v204h203v-204h-203z" />
    <glyph glyph-name="Ygrave" unicode="&#x1ef2;" horiz-adv-x="1386" 
d="M1151 1573h231l-585 -952v-621h-207v616l-586 957h240l448 -756h4zM629 1667l-238 281h227l205 -281h-194z" />
    <glyph glyph-name="ygrave" unicode="&#x1ef3;" horiz-adv-x="1126" 
d="M895 1100h205l-467 -1184q-69 -176 -148.5 -244.5t-205.5 -68.5q-74 0 -134 22v158q44 -14 93 -14q86 0 137 43t88 159l4 13l-440 1116h213l323 -877h4zM520 1241l-227 332h219l190 -332h-182z" />
    <glyph glyph-name="endash" unicode="&#x2013;" horiz-adv-x="1081" 
d="M84 528v164h911v-164h-911z" />
    <glyph glyph-name="emdash" unicode="&#x2014;" horiz-adv-x="1662" 
d="M47 539v145h1569v-145h-1569z" />
    <glyph glyph-name="quoteleft" unicode="&#x2018;" horiz-adv-x="518" 
d="M406 1573l-105 -559h-197l150 559h152z" />
    <glyph glyph-name="quoteright" unicode="&#x2019;" horiz-adv-x="518" 
d="M109 1014l104 559h197l-150 -559h-151z" />
    <glyph glyph-name="quotesinglbase" unicode="&#x201a;" horiz-adv-x="518" 
d="M109 -188l104 559h197l-150 -559h-151z" />
    <glyph glyph-name="quotedblleft" unicode="&#x201c;" horiz-adv-x="866" 
d="M406 1573l-105 -559h-197l150 559h152zM754 1573l-105 -559h-196l149 559h152z" />
    <glyph glyph-name="quotedblright" unicode="&#x201d;" horiz-adv-x="866" 
d="M109 1014l104 559h197l-150 -559h-151zM457 1014l104 559h197l-150 -559h-151z" />
    <glyph glyph-name="quotedblbase" unicode="&#x201e;" horiz-adv-x="866" 
d="M109 -188l104 559h197l-150 -559h-151zM457 -188l104 559h197l-150 -559h-151z" />
    <glyph glyph-name="dagger" unicode="&#x2020;" horiz-adv-x="1198" 
d="M506 -303v1241h-385v162h385v473h184v-473h385v-162h-385v-1241h-184z" />
    <glyph glyph-name="daggerdbl" unicode="&#x2021;" horiz-adv-x="1198" 
d="M1075 938h-385v-606h385v-162h-385v-473h-184v473h-385v162h385v606h-385v162h385v473h184v-473h385v-162z" />
    <glyph glyph-name="bullet" unicode="&#x2022;" horiz-adv-x="794" 
d="M397 395q-118 0 -189 71t-71 179t71 179t189 71q117 0 188.5 -71t71.5 -179t-71.5 -179t-188.5 -71z" />
    <glyph glyph-name="ellipsis" unicode="&#x2026;" horiz-adv-x="1662" 
d="M182 0v225h226v-225h-226zM719 0v225h225v-225h-225zM1255 0v225h226v-225h-226z" />
    <glyph glyph-name="perthousand" unicode="&#x2030;" horiz-adv-x="2805" 
d="M451 625q-81 0 -142 25t-98 65.5t-60 100.5t-31.5 121t-8.5 136t8.5 136.5t31.5 122t60 102t98 67t142 25.5t142 -25t98 -66t60 -101t31.5 -121t8.5 -136t-8.5 -136.5t-31.5 -122t-60 -101.5t-98 -66.5t-142 -25.5zM637 0h-176l868 1503h176zM451 760q37 0 65 12t46 36
t29.5 51.5t17 66t7.5 71.5t2 76q0 54 -2.5 93t-12.5 84.5t-27.5 74t-49 47.5t-75.5 19q-37 0 -65 -12.5t-46 -36.5t-30 -51.5t-17.5 -66t-7.5 -71.5t-2 -76q0 -44 2 -77.5t7.5 -72.5t17.5 -67t30 -51.5t46 -36t65 -12.5zM2355 879q81 0 142 -25t98 -66t60 -101t31.5 -121
t8.5 -136t-8.5 -136.5t-31.5 -122t-60 -102t-98 -67t-142 -25.5t-142 25t-98 66t-60 101t-31.5 121t-8.5 136t8.5 136.5t31.5 122t60 102t98 67t142 25.5zM1516 879q81 0 142 -25t98 -66t60 -101t31 -121t8 -136t-8 -136.5t-31 -122t-60 -102t-98 -67t-142 -25.5t-142 25
t-98 66t-60 101t-31.5 121t-8.5 136t8.5 136.5t31.5 122t60 102t98 67t142 25.5zM2355 743q-44 0 -75.5 -19t-49 -47t-28 -72.5t-13 -83.5t-2.5 -91q0 -44 2 -77.5t7.5 -72.5t17.5 -67t30 -51.5t46 -36t65 -12.5q44 0 75.5 19t49 47t28 72.5t13 83.5t2.5 91q0 44 -2 77.5
t-7.5 72.5t-17.5 67t-30 51.5t-46 36t-65 12.5zM1516 743q-44 0 -75.5 -19t-49 -47t-28 -72.5t-13 -83.5t-2.5 -91q0 -44 2 -77.5t7.5 -72.5t17.5 -67t30 -51.5t46 -36t65 -12.5t65 12t46 36t29.5 51.5t17 66t7.5 71.5t2 76q0 44 -2 77.5t-7.5 72.5t-17 66.5t-29.5 52
t-46 36.5t-65 12z" />
    <glyph glyph-name="guilsinglleft" unicode="&#x2039;" horiz-adv-x="696" 
d="M403 168l-299 407l299 408h193l-297 -408l297 -407h-193z" />
    <glyph glyph-name="guilsinglright" unicode="&#x203a;" horiz-adv-x="696" 
d="M293 983l299 -408l-299 -407h-193l297 407l-297 408h193z" />
    <glyph glyph-name="fraction" unicode="&#x2044;" horiz-adv-x="430" 
d="M-133 0h-176l868 1503h176z" />
    <glyph glyph-name="four.superior" unicode="&#x2074;" horiz-adv-x="823" 
d="M807 1178v-119h-166v-199h-156v199h-462v98l440 600h178v-579h166zM186 1178h299v401h-4z" />
    <glyph glyph-name="Euro" unicode="&#x20ac;" 
d="M1102 279l129 -125q-160 -177 -422 -177q-124 0 -225 40t-171 112.5t-115.5 168t-68.5 212.5h-182v158h164q-2 27 -2 82q0 34 4 96h-166v158h186q47 239 191.5 380.5t386.5 141.5q263 0 416 -183l-133 -126q-106 135 -283 135q-157 0 -247.5 -94t-125.5 -254h385v-158
h-407q-2 -31 -2 -92q0 -57 2 -86h407v-158h-387q77 -358 383 -358q180 0 283 127z" />
    <glyph glyph-name="trademark" unicode="&#x2122;" horiz-adv-x="1357" 
d="M1122 1573h168v-621h-125v424h-4l-141 -424h-111l-141 424h-4v-424h-123v621h172l152 -461h4zM27 1470v103h520v-103h-199v-518h-125v518h-196z" />
    <glyph glyph-name="Omega" unicode="&#x2126;" horiz-adv-x="1474" 
d="M840 0v172q156 136 242.5 328.5t86.5 390.5q0 234 -112.5 380t-319.5 146t-319.5 -146t-112.5 -380q0 -198 87 -390.5t243 -328.5v-172h-531v180h336v4q-344 304 -344 713q0 143 42.5 269t122 222t202.5 151.5t274 55.5t274 -55.5t202.5 -151.5t122 -222t42.5 -269
q0 -409 -344 -713v-4h336v-180h-530z" />
    <glyph glyph-name="estimated" unicode="&#x212e;" horiz-adv-x="1546" 
d="M360 281q0 -64 42 -115.5t107.5 -81.5t137 -45.5t139.5 -15.5q137 0 270 61.5t218 179.5l67 -14q-208 -285 -561 -285q-148 0 -277.5 52t-219.5 140.5t-141.5 210t-51.5 257.5q0 137 52 259t142 210.5t218.5 140t275.5 51.5q184 0 338 -74.5t249 -218.5t95 -331
q0 -33 -10.5 -40.5t-54.5 -7.5h-969q-49 0 -57.5 -9t-8.5 -56v-268zM426 672h700q49 0 57.5 9t8.5 56v256q0 98 -122 167t-294 69t-294 -69t-122 -167v-256q0 -47 8.5 -56t57.5 -9z" />
    <glyph glyph-name="arrowleft" unicode="&#x2190;" horiz-adv-x="1939" 
d="M131 786l838 838l123 -123l-629 -629h1323v-172h-1323l629 -628l-123 -123z" />
    <glyph glyph-name="arrowup" unicode="&#x2191;" horiz-adv-x="1939" 
d="M131 786l838 838l837 -838l-123 -122l-628 628v-1323h-172v1323l-629 -628z" />
    <glyph glyph-name="arrowright" unicode="&#x2192;" horiz-adv-x="1939" 
d="M969 1624l837 -838l-837 -837l-123 123l629 628h-1323v172h1323l-629 629z" />
    <glyph glyph-name="arrowdown" unicode="&#x2193;" horiz-adv-x="1939" 
d="M969 -51l-838 837l123 123l629 -628v1323h172v-1323l628 628l123 -123z" />
    <glyph glyph-name="uni2196" unicode="&#x2196;" horiz-adv-x="1939" 
d="M377 180v1188h1188v-174h-893l936 -936l-121 -121l-936 936v-893h-174z" />
    <glyph glyph-name="uni2197" unicode="&#x2197;" horiz-adv-x="1939" 
d="M1561 1368v-1188h-175v893l-935 -936l-121 121l936 936h-893v174h1188z" />
    <glyph glyph-name="uni2198" unicode="&#x2198;" horiz-adv-x="1939" 
d="M1608 1368v-1188h-1188v174h893l-936 936l121 121l936 -936v893h174z" />
    <glyph glyph-name="uni2199" unicode="&#x2199;" horiz-adv-x="1939" 
d="M330 180v1188h174v-893l936 936l121 -121l-936 -936h893v-174h-1188z" />
    <glyph glyph-name="partialdiff" unicode="&#x2202;" horiz-adv-x="1314" 
d="M328 1376l-72 156q142 78 315 78q134 0 240.5 -45t174 -119t112 -177t62.5 -212.5t18 -231.5q0 -95 -12 -188t-37 -191t-71 -180.5t-108 -148t-153.5 -103t-202.5 -37.5q-222 0 -350.5 139.5t-128.5 362.5q0 84 18.5 166t58.5 158.5t97.5 135t142 93.5t184.5 35
q217 0 357 -154h4q-6 94 -22.5 170.5t-47.5 144.5t-76.5 113.5t-112 72t-151.5 26.5q-132 0 -239 -64zM598 147q73 0 132 25t98.5 70t68 99.5t45 122.5t24.5 129t11 128q-141 176 -332 176q-70 0 -127 -24t-94.5 -64t-63 -94t-36.5 -111.5t-11 -118.5q0 -71 16 -130.5
t49 -107t89.5 -74t130.5 -26.5z" />
    <glyph glyph-name="Delta" unicode="&#x2206;" horiz-adv-x="1429" 
d="M834 1573l569 -1573h-1376l567 1573h240zM303 178h817l-405 1174h-4z" />
    <glyph glyph-name="product" unicode="&#x220f;" horiz-adv-x="1617" 
d="M285 -199v1592h-222v180h1487v-180h-223v-1592h-201v1592h-637v-1592h-204z" />
    <glyph glyph-name="summation" unicode="&#x2211;" horiz-adv-x="1259" 
d="M106 -199v170l472 768l-465 666v168h1028v-180h-783l449 -648l-465 -763h825v-181h-1061z" />
    <glyph glyph-name="minus" unicode="&#x2212;" horiz-adv-x="1198" 
d="M109 666v151h978v-151h-978z" />
    <glyph glyph-name="radical" unicode="&#x221a;" horiz-adv-x="1357" 
d="M664 -238l-404 1041l-229 -86l-54 147l394 140l362 -961h4l584 1735h203l-715 -2016h-145z" />
    <glyph glyph-name="infinity" unicode="&#x221e;" horiz-adv-x="1562" 
d="M416 180q-147 0 -240.5 112t-93.5 292q0 186 92 294.5t244 108.5q235 0 368 -272h5q138 272 354 272q147 0 240.5 -111.5t93.5 -291.5q0 -186 -93 -295t-245 -109q-234 0 -367 273h-4q-138 -273 -354 -273zM430 319q88 0 148 69t120 206q-57 127 -118.5 191.5
t-151.5 64.5q-91 0 -141.5 -71.5t-50.5 -194.5t50.5 -194t143.5 -71zM1133 317q91 0 141.5 72t50.5 195t-51 193.5t-144 70.5q-88 0 -148 -69t-120 -206q57 -127 119 -191.5t152 -64.5z" />
    <glyph glyph-name="integral" unicode="&#x222b;" horiz-adv-x="661" 
d="M299 43l-143 1112q-11 79 -11 129q0 150 87.5 230.5t230.5 80.5q98 0 176 -28v-168q-78 24 -143 24q-77 0 -113.5 -36.5t-36.5 -114.5q0 -46 10 -119l144 -1112q10 -72 10 -129q0 -151 -87 -231t-230 -80q-99 0 -177 28v168q78 -24 144 -24q77 0 113 36.5t36 114.5
q0 47 -10 119z" />
    <glyph glyph-name="approxequal" unicode="&#x2248;" horiz-adv-x="1198" 
d="M569 870q-117 45 -192 45q-57 0 -91.5 -24.5t-60.5 -81.5l-108 49q69 213 268 213q55 0 106.5 -13.5t131.5 -45.5q125 -47 194 -47q57 0 91.5 24.5t60.5 83.5l108 -49q-69 -215 -268 -215q-55 0 -104.5 14t-135.5 47zM569 473q-117 45 -192 45q-57 0 -91.5 -24.5
t-60.5 -81.5l-108 49q69 213 268 213q55 0 105.5 -14t132.5 -46q125 -47 194 -47q57 0 91.5 25t60.5 84l108 -49q-69 -215 -268 -215q-55 0 -104.5 14t-135.5 47z" />
    <glyph glyph-name="notequal" unicode="&#x2260;" horiz-adv-x="1198" 
d="M1087 883h-305l-223 -287h528v-150h-645l-223 -284l-90 71l166 213h-186v150h305l223 287h-528v149h645l223 285l90 -72l-166 -213h186v-149z" />
    <glyph glyph-name="lessequal" unicode="&#x2264;" horiz-adv-x="1198" 
d="M74 686v111l1048 442v-166l-788 -330v-4l788 -329v-166zM74 0v145h1048v-145h-1048z" />
    <glyph glyph-name="greaterequal" unicode="&#x2265;" horiz-adv-x="1198" 
d="M1122 797v-111l-1048 -442v166l788 329v4l-788 330v166zM1122 145v-145h-1048v145h1048z" />
    <glyph glyph-name="lozenge" unicode="&#x25ca;" horiz-adv-x="1126" 
d="M115 788l374 785h144l375 -789l-375 -784h-144zM289 788l270 -595h4l271 591l-271 596h-4z" />
    <glyph glyph-name="dotlessj" unicode="&#xf6be;" horiz-adv-x="518" 
d="M-16 -383v158q24 -6 57 -6q65 0 93 33t28 98v1200h194v-1225q0 -130 -64.5 -201t-197.5 -71q-59 0 -110 14z" />
    <glyph glyph-name="commaaccent" unicode="&#xf6c3;" 
d="M780 -76l-155 -334h-156l111 334h200z" />
    <glyph glyph-name="K001" horiz-adv-x="1386" 
d="M178 0v1573h207v-719h4l715 719h270l-626 -619l618 -954h-246l-520 813l-215 -209v-604h-207z" />
    <glyph glyph-name="Kcommaaccent001" horiz-adv-x="1386" 
d="M178 0v1573h207v-719h4l715 719h270l-626 -619l618 -954h-246l-520 813l-215 -209v-604h-207zM848 -76l-156 -334h-155l110 334h201z" />
    <glyph glyph-name="i.TRK" horiz-adv-x="518" 
d="M356 0h-194v1100h194v-1100z" />
    <glyph glyph-name="a001" horiz-adv-x="1142" 
d="M985 0h-190l-4 160h-5q-48 -85 -131.5 -134t-195.5 -49q-163 0 -261 91.5t-98 238.5q0 169 136 246q98 55 309 74q136 12 192 37.5t56 80.5q0 91 -63 152t-181 61q-196 0 -254 -165l-162 77q47 123 158 187.5t264 64.5q199 0 314.5 -99.5t115.5 -277.5v-745zM492 141
q138 0 219.5 83.5t81.5 205.5v100q-63 -41 -236 -59q-51 -6 -84.5 -11.5t-70.5 -17t-58 -27.5t-35 -42.5t-14 -61.5q0 -77 55 -123.5t142 -46.5z" />
    <glyph glyph-name="agrave001" horiz-adv-x="1142" 
d="M985 0h-190l-4 160h-5q-48 -85 -131.5 -134t-195.5 -49q-163 0 -261 91.5t-98 238.5q0 169 136 246q98 55 309 74q136 12 192 37.5t56 80.5q0 91 -63 152t-181 61q-196 0 -254 -165l-162 77q47 123 158 187.5t264 64.5q199 0 314.5 -99.5t115.5 -277.5v-745zM492 141
q138 0 219.5 83.5t81.5 205.5v100q-63 -41 -236 -59q-51 -6 -84.5 -11.5t-70.5 -17t-58 -27.5t-35 -42.5t-14 -61.5q0 -77 55 -123.5t142 -46.5zM508 1241l-227 332h219l190 -332h-182z" />
    <glyph glyph-name="aacute001" horiz-adv-x="1142" 
d="M985 0h-190l-4 160h-5q-48 -85 -131.5 -134t-195.5 -49q-163 0 -261 91.5t-98 238.5q0 169 136 246q98 55 309 74q136 12 192 37.5t56 80.5q0 91 -63 152t-181 61q-196 0 -254 -165l-162 77q47 123 158 187.5t264 64.5q199 0 314.5 -99.5t115.5 -277.5v-745zM492 141
q138 0 219.5 83.5t81.5 205.5v100q-63 -41 -236 -59q-51 -6 -84.5 -11.5t-70.5 -17t-58 -27.5t-35 -42.5t-14 -61.5q0 -77 55 -123.5t142 -46.5zM838 1573l-228 -332h-178l191 332h215z" />
    <glyph glyph-name="acircumflex001" horiz-adv-x="1142" 
d="M985 0h-190l-4 160h-5q-48 -85 -131.5 -134t-195.5 -49q-163 0 -261 91.5t-98 238.5q0 169 136 246q98 55 309 74q136 12 192 37.5t56 80.5q0 91 -63 152t-181 61q-196 0 -254 -165l-162 77q47 123 158 187.5t264 64.5q199 0 314.5 -99.5t115.5 -277.5v-745zM492 141
q138 0 219.5 83.5t81.5 205.5v100q-63 -41 -236 -59q-51 -6 -84.5 -11.5t-70.5 -17t-58 -27.5t-35 -42.5t-14 -61.5q0 -77 55 -123.5t142 -46.5zM233 1241l230 332h196l230 -332h-191l-139 213l-139 -213h-187z" />
    <glyph glyph-name="atilde001" horiz-adv-x="1142" 
d="M985 0h-190l-4 160h-5q-48 -85 -131.5 -134t-195.5 -49q-163 0 -261 91.5t-98 238.5q0 169 136 246q98 55 309 74q136 12 192 37.5t56 80.5q0 91 -63 152t-181 61q-196 0 -254 -165l-162 77q47 123 158 187.5t264 64.5q199 0 314.5 -99.5t115.5 -277.5v-745zM492 141
q138 0 219.5 83.5t81.5 205.5v100q-63 -41 -236 -59q-51 -6 -84.5 -11.5t-70.5 -17t-58 -27.5t-35 -42.5t-14 -61.5q0 -77 55 -123.5t142 -46.5zM412 1534q45 0 88.5 -15.5t71 -34.5t62.5 -34.5t66 -15.5q37 0 56.5 22t25.5 72h133q-22 -248 -204 -248q-45 0 -88.5 15.5
t-71.5 34.5t-63 34.5t-66 15.5q-37 0 -56.5 -22t-25.5 -72h-133q22 248 205 248z" />
    <glyph glyph-name="adieresis001" horiz-adv-x="1142" 
d="M985 0h-190l-4 160h-5q-48 -85 -131.5 -134t-195.5 -49q-163 0 -261 91.5t-98 238.5q0 169 136 246q98 55 309 74q136 12 192 37.5t56 80.5q0 91 -63 152t-181 61q-196 0 -254 -165l-162 77q47 123 158 187.5t264 64.5q199 0 314.5 -99.5t115.5 -277.5v-745zM492 141
q138 0 219.5 83.5t81.5 205.5v100q-63 -41 -236 -59q-51 -6 -84.5 -11.5t-70.5 -17t-58 -27.5t-35 -42.5t-14 -61.5q0 -77 55 -123.5t142 -46.5zM666 1305v204h202v-204h-202zM254 1305v204h203v-204h-203z" />
    <glyph glyph-name="amacron001" horiz-adv-x="1142" 
d="M985 0h-190l-4 160h-5q-48 -85 -131.5 -134t-195.5 -49q-163 0 -261 91.5t-98 238.5q0 169 136 246q98 55 309 74q136 12 192 37.5t56 80.5q0 91 -63 152t-181 61q-196 0 -254 -165l-162 77q47 123 158 187.5t264 64.5q199 0 314.5 -99.5t115.5 -277.5v-745zM492 141
q138 0 219.5 83.5t81.5 205.5v100q-63 -41 -236 -59q-51 -6 -84.5 -11.5t-70.5 -17t-58 -27.5t-35 -42.5t-14 -61.5q0 -77 55 -123.5t142 -46.5zM274 1331v152h574v-152h-574z" />
    <glyph glyph-name="abreve001" horiz-adv-x="1142" 
d="M985 0h-190l-4 160h-5q-48 -85 -131.5 -134t-195.5 -49q-163 0 -261 91.5t-98 238.5q0 169 136 246q98 55 309 74q136 12 192 37.5t56 80.5q0 91 -63 152t-181 61q-196 0 -254 -165l-162 77q47 123 158 187.5t264 64.5q199 0 314.5 -99.5t115.5 -277.5v-745zM492 141
q138 0 219.5 83.5t81.5 205.5v100q-63 -41 -236 -59q-51 -6 -84.5 -11.5t-70.5 -17t-58 -27.5t-35 -42.5t-14 -61.5q0 -77 55 -123.5t142 -46.5zM561 1372q81 0 120 51t44 133h129q0 -138 -75.5 -222.5t-217.5 -84.5t-217.5 85t-75.5 222h129q5 -82 44 -133t120 -51z" />
    <glyph glyph-name="aring001" horiz-adv-x="1142" 
d="M985 0h-190l-4 160h-5q-48 -85 -131.5 -134t-195.5 -49q-163 0 -261 91.5t-98 238.5q0 169 136 246q98 55 309 74q136 12 192 37.5t56 80.5q0 91 -63 152t-181 61q-196 0 -254 -165l-162 77q47 123 158 187.5t264 64.5q199 0 314.5 -99.5t115.5 -277.5v-745zM492 141
q138 0 219.5 83.5t81.5 205.5v100q-63 -41 -236 -59q-51 -6 -84.5 -11.5t-70.5 -17t-58 -27.5t-35 -42.5t-14 -61.5q0 -77 55 -123.5t142 -46.5zM319 1454q0 101 69.5 169.5t172.5 68.5t172.5 -68.5t69.5 -169.5t-69.5 -169t-172.5 -68t-172.5 68t-69.5 169zM436 1454
q0 -56 33.5 -94.5t91.5 -38.5t91.5 38.5t33.5 94.5t-33.5 94.5t-91.5 38.5t-91.5 -38.5t-33.5 -94.5z" />
    <glyph glyph-name="aogonek001" horiz-adv-x="1142" 
d="M852 -397q-124 0 -185 51t-61 127q0 71 54.5 134.5t140.5 109.5l-10 135h-5q-48 -85 -131.5 -134t-195.5 -49q-163 0 -261 91.5t-98 238.5q0 169 136 246q98 55 309 74q136 12 192 37.5t56 80.5q0 91 -63 152t-181 61q-196 0 -254 -165l-162 77q47 123 158 187.5
t264 64.5q199 0 314.5 -99.5t115.5 -277.5v-741q-184 -98 -184 -184q0 -36 24 -55t84 -19q33 0 76 6v-133q-66 -16 -133 -16zM492 141q138 0 219.5 83.5t81.5 205.5v100q-63 -41 -236 -59q-51 -6 -84.5 -11.5t-70.5 -17t-58 -27.5t-35 -42.5t-14 -61.5q0 -77 55 -123.5
t142 -46.5z" />
    <glyph glyph-name="ae001" horiz-adv-x="1849" 
d="M977 635h598q-13 147 -86 235t-207 88q-132 0 -210.5 -87.5t-94.5 -235.5zM786 430v100q-60 -40 -235 -59q-49 -6 -81.5 -11.5t-68.5 -17t-57 -27.5t-35 -42.5t-14 -61.5q0 -75 53 -122.5t139 -47.5q134 0 216.5 84t82.5 205zM295 793l-162 77q50 126 162.5 189t253.5 63
q255 0 366 -166q137 166 371 166q150 0 260.5 -72.5t165.5 -193.5t55 -274q0 -66 -6 -109h-782q21 -148 110.5 -239t237.5 -91q84 0 153 35.5t115 97.5l136 -120q-149 -179 -414 -179q-149 0 -263.5 61t-181.5 171q-61 -110 -165 -171t-240 -61q-166 0 -266.5 91.5
t-100.5 238.5q0 172 146 250q90 49 264 66q115 11 175 27.5t80.5 39t20.5 60.5q0 87 -64.5 147.5t-178.5 60.5q-91 0 -155 -41.5t-93 -123.5z" />
    <glyph glyph-name="aeacute001" horiz-adv-x="1849" 
d="M977 635h598q-13 147 -86 235t-207 88q-132 0 -210.5 -87.5t-94.5 -235.5zM786 430v100q-60 -40 -235 -59q-49 -6 -81.5 -11.5t-68.5 -17t-57 -27.5t-35 -42.5t-14 -61.5q0 -75 53 -122.5t139 -47.5q134 0 216.5 84t82.5 205zM295 793l-162 77q50 126 162.5 189t253.5 63
q255 0 366 -166q137 166 371 166q150 0 260.5 -72.5t165.5 -193.5t55 -274q0 -66 -6 -109h-782q21 -148 110.5 -239t237.5 -91q84 0 153 35.5t115 97.5l136 -120q-149 -179 -414 -179q-149 0 -263.5 61t-181.5 171q-61 -110 -165 -171t-240 -61q-166 0 -266.5 91.5
t-100.5 238.5q0 172 146 250q90 49 264 66q115 11 175 27.5t80.5 39t20.5 60.5q0 87 -64.5 147.5t-178.5 60.5q-91 0 -155 -41.5t-93 -123.5zM1190 1573l-227 -332h-179l191 332h215z" />
    <glyph glyph-name="k001" horiz-adv-x="1099" 
d="M1096 1100l-418 -441l395 -659h-229l-305 528l-183 -186v-342h-194v1573h194v-1004h4l488 531h248z" />
    <glyph glyph-name="kcommaaccent001" horiz-adv-x="1099" 
d="M1096 1100l-418 -441l395 -659h-229l-305 528l-183 -186v-342h-194v1573h194v-1004h4l488 531h248zM692 -76l-155 -334h-156l111 334h200z" />
    <glyph glyph-name="kgreenlandic001" horiz-adv-x="1099" 
d="M1096 1100l-418 -441l395 -659h-229l-305 528l-183 -186v-342h-194v1100h194v-531h4l488 531h248z" />
    <glyph glyph-name="l001" horiz-adv-x="589" 
d="M537 150v-156q-47 -14 -109 -14q-130 0 -198 72t-68 202v1319h194v-1301q0 -64 29 -96.5t94 -32.5q30 0 58 7z" />
    <glyph glyph-name="lacute001" horiz-adv-x="589" 
d="M537 150v-156q-47 -14 -109 -14q-130 0 -198 72t-68 202v1319h194v-1301q0 -64 29 -96.5t94 -32.5q30 0 58 7zM559 1948l-240 -281h-190l205 281h225z" />
    <glyph glyph-name="lcaron001" horiz-adv-x="768" 
d="M537 150v-156q-47 -14 -109 -14q-130 0 -198 72t-68 202v1319h194v-1301q0 -64 29 -96.5t94 -32.5q30 0 58 7zM799 1573l-156 -334h-156l111 334h201z" />
    <glyph glyph-name="lcommaaccent001" horiz-adv-x="589" 
d="M537 150v-156q-47 -14 -109 -14q-130 0 -198 72t-68 202v1319h194v-1301q0 -64 29 -96.5t94 -32.5q30 0 58 7zM451 -76l-156 -334h-156l111 334h201z" />
    <glyph glyph-name="lslash001" horiz-adv-x="589" 
d="M537 862l-181 -106v-484q0 -64 29 -96.5t94 -32.5q30 0 58 7v-156q-47 -14 -109 -14q-130 0 -198 72t-68 202v385l-152 -90v186l152 90v748h194v-631l181 107v-187z" />
    <glyph glyph-name="ldot001" horiz-adv-x="866" 
d="M537 150v-156q-47 -14 -109 -14q-130 0 -198 72t-68 202v1319h194v-1301q0 -64 29 -96.5t94 -32.5q30 0 58 7zM588 684v205h209v-205h-209z" />
    <glyph glyph-name="grave.cap" 
d="M580 1667l-238 281h227l205 -281h-194z" />
    <glyph glyph-name="acute.cap" 
d="M944 1948l-239 -281h-191l205 281h225z" />
    <glyph glyph-name="circumflex.cap" 
d="M287 1667l260 281h194l258 -281h-198l-160 170l-156 -170h-198z" />
    <glyph glyph-name="caron.cap" 
d="M999 1948l-260 -281h-194l-258 281h198l160 -170l156 170h198z" />
    <glyph glyph-name="commaaccent.alt" 
d="M489 1225l156 362h154l-109 -362h-201z" />
    <glyph glyph-name="tilde.cap" 
d="M485 1925q60 0 115.5 -20.5t102.5 -41t88 -20.5q80 0 92 80h131q-22 -233 -211 -233q-61 0 -116.5 20.5t-102 41t-86.5 20.5q-80 0 -92 -80h-132q22 233 211 233z" />
    <glyph glyph-name="dieresis.cap" 
d="M756 1704v207h205v-207h-205zM326 1704v207h204v-207h-204z" />
    <glyph glyph-name="macron.cap" 
d="M348 1729v151h590v-151h-590z" />
    <glyph glyph-name="breve.cap" 
d="M643 1786q162 0 180 158h127q-2 -125 -81.5 -203t-225.5 -78t-224.5 78t-80.5 203h127q18 -158 178 -158z" />
    <glyph glyph-name="ring.cap" 
d="M401 1706q0 101 69.5 169.5t172.5 68.5t172.5 -68.5t69.5 -169.5t-69.5 -169.5t-172.5 -68.5t-172.5 68.5t-69.5 169.5zM518 1706q0 -56 33.5 -94.5t91.5 -38.5t91.5 38.5t33.5 94.5t-33.5 94.5t-91.5 38.5t-91.5 -38.5t-33.5 -94.5z" />
    <glyph glyph-name="hungarumlaut.cap" 
d="M1069 1948l-235 -281h-166l202 281h199zM754 1948l-238 -281h-164l201 281h201z" />
    <glyph glyph-name="dotaccent.cap" 
d="M539 1704v207h209v-207h-209z" />
    <glyph glyph-name="hyphen.cap" horiz-adv-x="706" 
d="M109 696v181h487v-181h-487z" />
    <glyph glyph-name="exclamdown.cap" horiz-adv-x="661" 
d="M442 1573v-225h-225v225h225zM414 1176l22 -1176h-213l23 1176h168z" />
    <glyph glyph-name="questiondown.cap" horiz-adv-x="937" 
d="M629 1573v-225h-226v225h226zM295 797q60 54 86 87t38.5 73.5t12.5 107.5v111h168v-162q0 -33 -2.5 -60t-11.5 -53.5t-14 -43.5t-24 -42t-26 -35.5t-35.5 -38.5t-37.5 -36.5t-46 -42.5q-85 -78 -125 -139.5t-40 -147.5q0 -108 64 -166.5t173 -58.5q164 0 275 126
l118 -131q-67 -74 -171 -121t-232 -47q-190 0 -308 105.5t-118 284.5q0 68 16.5 124.5t56 110.5t76.5 92.5t107 102.5z" />
    <glyph glyph-name="guilsinglleft.cap" horiz-adv-x="696" 
d="M403 379l-299 407l299 408h193l-297 -408l297 -407h-193z" />
    <glyph glyph-name="guilsinglright.cap" horiz-adv-x="696" 
d="M293 1194l299 -408l-299 -407h-193l297 407l-297 408h193z" />
    <glyph glyph-name="guillemotleft.cap" horiz-adv-x="1054" 
d="M403 379l-299 407l299 408h193l-297 -408l297 -407h-193zM762 379l-299 407l299 408h192l-297 -408l297 -407h-192z" />
    <glyph glyph-name="guillemotright.cap" horiz-adv-x="1054" 
d="M293 1194l299 -408l-299 -407h-193l297 407l-297 408h193zM651 1194l299 -408l-299 -407h-192l297 407l-297 408h192z" />
    <glyph glyph-name="endash.cap" horiz-adv-x="1081" 
d="M84 705v163h911v-163h-911z" />
    <glyph glyph-name="emdash.cap" horiz-adv-x="1662" 
d="M47 715v145h1569v-145h-1569z" />
    <glyph glyph-name="periodcentered.cap" horiz-adv-x="589" 
d="M182 674v225h226v-225h-226z" />
    <glyph glyph-name="parenleft.cap" horiz-adv-x="696" 
d="M121 786q0 305 89 559t236 427l136 -91q-126 -175 -200.5 -401.5t-74.5 -493.5t74.5 -493.5t200.5 -401.5l-136 -90q-147 173 -236 426.5t-89 558.5z" />
    <glyph glyph-name="parenright.cap" horiz-adv-x="696" 
d="M575 786q0 -305 -89 -558.5t-236 -426.5l-135 90q126 175 200 401.5t74 493.5t-74 493.5t-200 401.5l135 91q147 -173 236 -427t89 -559z" />
    <glyph glyph-name="bracketleft.cap" horiz-adv-x="696" 
d="M172 -152v1876h438v-157h-256v-1561h256v-158h-438z" />
    <glyph glyph-name="bracketright.cap" horiz-adv-x="696" 
d="M524 1724v-1876h-438v158h256v1561h-256v157h438z" />
    <glyph glyph-name="braceleft.cap" horiz-adv-x="768" 
d="M57 702v168h72q81 0 111 34.5t30 121.5v399q0 158 67.5 240t213.5 82q72 0 131 -25v-143q-45 10 -86 10q-76 0 -109.5 -36.5t-33.5 -125.5v-417q0 -193 -158 -222v-4q158 -29 158 -221v-418q0 -89 33.5 -125t109.5 -36q41 0 86 10v-144q-57 -24 -131 -24
q-146 0 -213.5 81.5t-67.5 239.5v400q0 87 -30 121t-111 34h-72z" />
    <glyph glyph-name="braceright.cap" horiz-adv-x="768" 
d="M709 870v-168h-72q-81 0 -111 -34t-30 -121v-400q0 -158 -67.5 -239.5t-213.5 -81.5q-74 0 -131 24v144q45 -10 86 -10q76 0 109.5 36t33.5 125v418q0 192 158 221v4q-158 29 -158 222v417q0 89 -33.5 125.5t-109.5 36.5q-41 0 -86 -10v143q59 25 131 25q146 0 213.5 -82
t67.5 -240v-399q0 -87 30 -121.5t111 -34.5h72z" />
    <glyph glyph-name="at.cap" horiz-adv-x="1878" 
d="M940 -55q-198 0 -359 64.5t-266.5 178t-162 265.5t-56.5 329q0 174 55.5 326.5t159 268t266 182.5t363.5 67q159 0 295.5 -42.5t236.5 -118t171 -179.5t106 -228.5t35 -262.5q0 -117 -25.5 -205.5t-71.5 -140.5t-105 -77.5t-130 -25.5q-186 0 -270 156h-4
q-49 -74 -128 -117t-178 -43q-173 0 -275.5 125t-102.5 313q0 190 104 319.5t274 129.5t281 -144h4l12 125h154v-499q0 -111 35 -166.5t100 -55.5q74 0 116 74t42 217q0 111 -25 212t-79 191t-132 156t-190.5 104t-247.5 38q-133 0 -244.5 -37t-189.5 -101.5t-132.5 -153
t-80 -189.5t-25.5 -212q0 -110 25 -211t79 -189.5t132 -154t190.5 -103.5t247.5 -38q226 0 387 105l74 -136q-199 -116 -465 -116zM911 492q111 0 174.5 83.5t63.5 215.5q0 130 -62.5 209t-173.5 79q-114 0 -174.5 -85t-60.5 -210q0 -123 59.5 -207.5t173.5 -84.5z" />
    <glyph glyph-name="zero.slash" 
d="M643 1526q128 0 225.5 -43t157 -113.5t96.5 -173t50.5 -208.5t13.5 -234q0 -89 -6.5 -167.5t-23.5 -159t-43.5 -145.5t-69.5 -123t-98 -97.5t-132 -62t-170 -22.5q-108 0 -193.5 29t-144 83.5t-99.5 124.5t-63.5 160t-32.5 180.5t-10 195.5t9.5 195t32 181t63.5 161
t99.5 125t144.5 84.5t194 29.5zM643 1352q-65 0 -116.5 -18.5t-86.5 -48.5t-60.5 -77.5t-40 -96t-23 -113.5t-11 -120t-2.5 -126q0 -297 55 -426h4l455 985q-68 41 -174 41zM643 152q65 0 116.5 18.5t86.5 48.5t60.5 77.5t40 96t23 113.5t11 120t2.5 126q0 148 -11 251
t-44 175h-4l-455 -985q68 -41 174 -41z" />
    <glyph glyph-name="litre" horiz-adv-x="866" 
d="M115 295l-68 117q123 114 164 157v529q0 209 83 323.5t210 114.5q109 0 173 -85t64 -232q0 -322 -325 -672v-135q0 -154 29.5 -216.5t95.5 -62.5q48 0 89.5 28t90.5 85l76 -99q-123 -176 -303 -176q-141 0 -211 94t-70 252v72q-5 -5 -28.5 -30t-41 -41.5t-28.5 -22.5z
M416 743q83 112 128.5 237t45.5 239q0 77 -20.5 121t-57.5 44q-45 0 -70.5 -67t-25.5 -203v-371z" />
    <glyph glyph-name="ordfeminine001" horiz-adv-x="794" 
d="M309 836q-109 0 -173 60.5t-64 158.5q0 186 272 211q112 10 148 25.5t36 51.5q0 50 -38 85.5t-107 35.5q-114 0 -166 -104l-125 76q42 80 119 119.5t178 39.5q140 0 220.5 -67.5t80.5 -186.5v-491h-158l-2 98h-4q-29 -51 -85.5 -81.5t-131.5 -30.5zM350 963
q82 0 130 47.5t48 119.5v60q-41 -24 -137 -33q-78 -7 -118 -26.5t-40 -69.5q0 -44 33 -71t84 -27z" />
    <glyph glyph-name="fl001" horiz-adv-x="1308" 
d="M254 0v938h-219v162h219v184q0 151 86 231t244 80q67 0 129 -16v-162q-33 10 -90 10q-94 0 -134 -39t-40 -128v-160h264v-162h-264v-938h-195zM1288 150v-156q-47 -14 -108 -14q-130 0 -198.5 72.5t-68.5 201.5v1319h195v-1301q0 -64 29 -96.5t94 -32.5q29 0 57 7z" />
    <glyph glyph-name="blackleftpointingtriangle" horiz-adv-x="1501" 
d="M182 786l1057 611v-1221z" />
    <glyph glyph-name="blackrightpointingtriangle" horiz-adv-x="1501" 
d="M260 1397l1057 -611l-1057 -610v1221z" />
    <glyph glyph-name="whiteleftpointingtriangle" horiz-adv-x="1501" 
d="M182 786l1057 611v-1221zM473 786l617 -356v713z" />
    <glyph glyph-name="whiterightpointingtriangle" horiz-adv-x="1501" 
d="M260 1397l1057 -611l-1057 -610v1221zM410 430l616 356l-616 357v-713z" />
    <glyph glyph-name="Aogonek.alt" horiz-adv-x="1501" 
d="M872 1573l617 -1567q-215 -46 -215 -127q0 -57 117 -57q32 0 86 4v-133q-74 -19 -148 -19q-125 0 -188.5 51t-63.5 125q0 118 170 197l-151 393h-701l-168 -440h-217l619 1573h243zM463 618h563l-281 732h-4z" />
    <glyph glyph-name="Ccedilla.alt" horiz-adv-x="1474" 
d="M786 -326q-96 0 -168 21l19 98q53 -12 113 -12q98 0 98 53q0 29 -31.5 45t-107.5 23l32 96q-196 16 -340 125t-217 281.5t-73 386.5q0 230 83.5 411t247.5 287t385 106q200 0 353.5 -89t244.5 -249l-170 -100q-138 260 -426 260q-125 0 -223.5 -50t-159.5 -137
t-92.5 -199t-31.5 -240q0 -127 31.5 -238t92.5 -199.5t162.5 -140t231.5 -51.5q148 0 255.5 68t172.5 188l166 -94q-87 -156 -237 -244t-347 -88l-10 -29q180 -20 180 -139q0 -68 -60.5 -109t-173.5 -41z" />
    <glyph glyph-name="Eogonek.alt" horiz-adv-x="1269" 
d="M178 0v1573h1010v-180h-805v-512h704v-179h-704v-522h819v-178q-190 -49 -190 -125q0 -55 110 -55q34 0 80 4v-135q-63 -17 -143 -17q-122 0 -183 44.5t-61 111.5q0 48 32.5 91.5t98.5 74.5v4h-768z" />
    <glyph glyph-name="Gcommaaccent.alt" horiz-adv-x="1634" 
d="M883 821h598v-821h-193l-2 219h-4q-61 -109 -184 -175.5t-287 -66.5q-161 0 -294 61.5t-221.5 168.5t-136.5 253t-48 314q0 137 30.5 260t92.5 225.5t149 177.5t206 116.5t259 41.5q202 0 359 -85t257 -242l-168 -107q-71 122 -183.5 189t-262.5 67q-165 0 -286 -82.5
t-181.5 -225.5t-60.5 -329q0 -287 138.5 -455.5t383.5 -168.5q199 0 317.5 114t118.5 312q0 47 -4 65h-393v174zM944 -68l-147 -305h-160l106 305h201z" />
    <glyph glyph-name="Iogonek.alt" horiz-adv-x="563" 
d="M385 1573v-1565q-127 -54 -127 -125q0 -61 117 -61q30 0 76 4v-135q-66 -17 -144 -17q-123 0 -185.5 49.5t-62.5 124.5q0 105 119 187v1538h207z" />
    <glyph glyph-name="Kcommaaccent.alt" horiz-adv-x="1386" 
d="M1118 0l-436 702h-297v-702h-207v1573h207v-692h301l422 692h235l-481 -776l502 -797h-246zM852 -68l-147 -305h-160l106 305h201z" />
    <glyph glyph-name="Kcommaaccent001.alt" horiz-adv-x="1386" 
d="M178 0v1573h207v-719h4l715 719h270l-626 -619l618 -954h-246l-520 813l-215 -209v-604h-207zM852 -68l-147 -305h-160l106 305h201z" />
    <glyph glyph-name="Lcommaaccent.alt" horiz-adv-x="1214" 
d="M178 0v1573h207v-1393h801v-180h-1008zM811 -68l-147 -305h-160l106 305h201z" />
    <glyph glyph-name="Ncommaaccent.alt" horiz-adv-x="1634" 
d="M1255 1573h201v-1573h-180l-893 1249h-4v-1249h-201v1573h211l862 -1211h4v1211zM969 -68l-148 -305h-159l106 305h201z" />
    <glyph glyph-name="Rcommaaccent.alt" horiz-adv-x="1429" 
d="M1122 0l-319 662h-418v-662h-207v1573h641q224 0 365 -121t141 -330q0 -154 -84.5 -260t-230.5 -153l346 -709h-234zM385 1393v-551h430q132 0 216.5 70.5t84.5 203.5q0 135 -83 206t-216 71h-432zM860 -68l-147 -305h-160l106 305h201z" />
    <glyph glyph-name="Scedilla.alt" horiz-adv-x="1314" 
d="M637 -326q-96 0 -168 21l18 98q53 -12 113 -12q98 0 98 53q0 29 -31.5 45t-107.5 23l31 90q-340 13 -529 239l154 134q77 -97 190.5 -150t245.5 -53q188 0 278.5 69.5t90.5 192.5q0 49 -18.5 87t-47.5 64t-83.5 49.5t-106 39t-135.5 36.5q-67 17 -111.5 30t-103.5 34.5
t-98 43.5t-81 56t-66 73t-40 92t-16 116q0 204 149.5 327t405.5 123q346 0 540 -243l-155 -129q-138 194 -387 194q-165 0 -253.5 -70.5t-88.5 -183.5q0 -49 18 -85.5t49 -62t80.5 -46.5t106 -37.5t131.5 -36.5h2q71 -19 115.5 -32.5t105.5 -36.5t99 -45.5t80 -56.5
t65.5 -73t39 -91.5t15.5 -115.5q0 -202 -141.5 -325t-389.5 -127l-10 -29q90 -10 135 -46t45 -93q0 -68 -60.5 -109t-172.5 -41z" />
    <glyph glyph-name="Scommaaccent.alt" horiz-adv-x="1314" 
d="M653 -23q-185 0 -336.5 62t-255.5 186l154 133q76 -97 190 -149.5t246 -52.5q188 0 278.5 70t90.5 194q0 49 -18.5 87.5t-47.5 65t-83.5 50t-106 39t-135.5 36.5q-67 17 -111.5 30t-103.5 34.5t-98 43.5t-81 56t-66 73t-40 92t-16 116q0 205 149.5 328.5t405.5 123.5
q346 0 540 -243l-155 -129q-138 194 -387 194q-165 0 -253.5 -70.5t-88.5 -183.5q0 -28 6 -52t14.5 -42.5t28 -36.5t34 -30t46 -26t51.5 -22t63 -21t67.5 -19.5t76.5 -20.5q70 -19 115.5 -33t105.5 -37t98.5 -45.5t80.5 -57t65.5 -73.5t39 -91.5t15.5 -115.5
q0 -212 -153 -337.5t-425 -125.5zM795 -68l-148 -305h-160l107 305h201z" />
    <glyph glyph-name="Tcommaaccent.alt" horiz-adv-x="1357" 
d="M782 0h-49l-12 -37q91 -10 135.5 -46.5t44.5 -92.5q0 -68 -60.5 -109t-172.5 -41q-96 0 -168 21l18 98q52 -12 113 -12q98 0 98 53q0 29 -31.5 45t-107.5 23l33 98h-48v1393h-544v180h1296v-180h-545v-1393z" />
    <glyph glyph-name="uni021A.alt" horiz-adv-x="1357" 
d="M782 0h-207v1393h-544v180h1296v-180h-545v-1393zM825 -68l-147 -305h-160l107 305h200z" />
    <glyph glyph-name="Uogonek.alt" horiz-adv-x="1591" 
d="M1219 1573h200v-1024q0 -210 -109 -348.5t-304 -192.5q-185 -50 -185 -131q0 -55 117 -55q32 0 86 4v-135q-66 -17 -147 -17q-128 0 -191 44t-63 112q0 86 88 156v4q-243 24 -391 171.5t-148 387.5v1024h207v-1016q0 -178 114 -286.5t308 -108.5q195 0 306.5 106
t111.5 289v1016z" />
    <glyph glyph-name="Eng.alt" horiz-adv-x="1634" 
d="M1255 1573h201v-1503q0 -180 -104 -288t-289 -108q-155 0 -262 66l73 160q82 -54 177 -54q91 0 141.5 50.5t58.5 138.5l-868 1214h-4v-1249h-201v1573h211l862 -1211h4v1211z" />
    <glyph glyph-name="g.alt" 
d="M1124 1100v-912q0 -170 -71.5 -287t-194.5 -172t-289 -55q-222 0 -409 105l80 158q84 -48 160.5 -72.5t168.5 -24.5q165 0 263 81t98 259v58h-4q-62 -94 -157.5 -142.5t-209.5 -48.5q-141 0 -248.5 72t-163 192t-55.5 267t56.5 269.5t167.5 198.5t257 76q223 0 359 -176
h4l6 154h182zM610 213q103 0 178.5 51.5t111.5 135t36 186.5q0 158 -86.5 262t-237.5 104q-154 0 -238.5 -106t-84.5 -264q0 -73 19.5 -138t57.5 -117.5t101 -83t143 -30.5z" />
    <glyph glyph-name="j.alt" horiz-adv-x="518" 
d="M154 1362v211h211v-211h-211zM-16 -311v157q24 -6 57 -6q65 0 93 33t28 98v1129h194v-1153q0 -130 -64.5 -201.5t-197.5 -71.5q-56 0 -110 15z" />
    <glyph glyph-name="p.alt" horiz-adv-x="1314" 
d="M723 -23q-234 0 -363 183h-4v-463h-194v1403h188l4 -174h4q63 94 160.5 145t212.5 51q149 0 261 -75.5t169.5 -203.5t57.5 -288q0 -159 -59 -289.5t-173.5 -209.5t-263.5 -79zM682 147q108 0 186.5 56t116 146t37.5 202q0 80 -20.5 150.5t-60.5 127.5t-106.5 90
t-150.5 33q-106 0 -183 -56.5t-114 -147.5t-37 -203q0 -174 88.5 -286t243.5 -112z" />
    <glyph glyph-name="q.alt" horiz-adv-x="1314" 
d="M596 1122q232 0 365 -188h4l8 166h180v-1403h-195v481h-4q-64 -97 -161 -149t-211 -52t-207 45t-153.5 122.5t-93 179.5t-32.5 219q0 118 34.5 222.5t97 184t158 126t210.5 46.5zM631 952q-109 0 -187 -56.5t-114.5 -146.5t-36.5 -202q0 -64 12 -122t38.5 -109t65 -88.5
t94.5 -59t124 -21.5q162 0 250 115.5t88 288.5q0 177 -87 289t-247 112z" />
    <glyph glyph-name="y.alt" horiz-adv-x="1126" 
d="M895 1100h205l-438 -1108q-69 -177 -149.5 -247.5t-205.5 -70.5q-70 0 -133 23v158q47 -15 92 -15q71 0 119 32.5t82 109.5l-440 1118h213l323 -877h4z" />
    <glyph glyph-name="aogonek.alt" horiz-adv-x="1142" 
d="M858 -326q-117 0 -176 48.5t-59 119.5q0 128 182 209l-14 109h-5q-48 -85 -132 -134t-199 -49q-160 0 -257.5 92.5t-97.5 239.5q0 216 213 285q81 26 195 36.5t285 16.5v98q0 91 -63 152t-181 61q-196 0 -254 -165l-162 77q47 123 158 187.5t264 64.5q199 0 314.5 -99.5
t115.5 -277.5v-725q-170 -59 -170 -139q0 -63 107 -63q27 0 63 4v-133q-66 -15 -127 -15zM500 141q130 0 211.5 85.5t81.5 207.5v64q-132 -4 -281 -23q-105 -14 -161 -49.5t-56 -114.5q0 -77 55 -123.5t150 -46.5z" />
    <glyph glyph-name="aogonek001.alt" horiz-adv-x="1142" 
d="M858 -326q-117 0 -176 48.5t-59 119.5q0 128 182 209l-14 109h-5q-48 -85 -131.5 -134t-195.5 -49q-163 0 -261 91.5t-98 238.5q0 169 136 246q98 55 309 74q136 12 192 37.5t56 80.5q0 91 -63 152t-181 61q-196 0 -254 -165l-162 77q47 123 158 187.5t264 64.5
q199 0 314.5 -99.5t115.5 -277.5v-725q-170 -59 -170 -139q0 -63 107 -63q27 0 63 4v-133q-66 -15 -127 -15zM492 141q138 0 219.5 83.5t81.5 205.5v100q-63 -41 -236 -59q-51 -6 -84.5 -11.5t-70.5 -17t-58 -27.5t-35 -42.5t-14 -61.5q0 -77 55 -123.5t142 -46.5z" />
    <glyph glyph-name="ccedilla.alt" horiz-adv-x="1099" 
d="M555 -326q-96 0 -168 21l19 98q52 -12 112 -12q98 0 98 53q0 29 -31.5 45t-107.5 23l33 98q-195 30 -306.5 180.5t-111.5 368.5q0 163 62 292t184 205t287 76q153 0 264 -68t176 -190l-162 -92q-95 184 -282 184q-156 0 -244 -114t-88 -289q0 -113 37 -202.5t116 -145
t191 -55.5q196 0 287 178l153 -88q-126 -248 -455 -248l-10 -29q180 -20 180 -139q0 -68 -60.5 -109t-172.5 -41z" />
    <glyph glyph-name="eogonek.alt" horiz-adv-x="1171" 
d="M287 635h610q-10 144 -84 233.5t-213 89.5t-219 -89t-94 -234zM864 -326q-121 0 -181 43.5t-60 114.5q0 79 73 148v4q-32 -4 -63 -4q-257 0 -400 153.5t-143 417.5q0 166 61.5 295t179 202.5t273.5 73.5q153 0 264.5 -72t166.5 -191.5t55 -272.5q0 -62 -7 -113h-794
q15 -158 104 -243t242 -85q175 0 278 134l136 -121q-39 -42 -93 -82q-74 -56 -109.5 -99.5t-35.5 -85.5q0 -73 115 -73q29 0 75 4v-131q-59 -17 -137 -17z" />
    <glyph glyph-name="gcircumflex.alt" 
d="M1124 1100v-912q0 -170 -71.5 -287t-194.5 -172t-289 -55q-222 0 -409 105l80 158q84 -48 160.5 -72.5t168.5 -24.5q165 0 263 81t98 259v58h-4q-62 -94 -157.5 -142.5t-209.5 -48.5q-141 0 -248.5 72t-163 192t-55.5 267t56.5 269.5t167.5 198.5t257 76q223 0 359 -176
h4l6 154h182zM610 213q103 0 178.5 51.5t111.5 135t36 186.5q0 158 -86.5 262t-237.5 104q-154 0 -238.5 -106t-84.5 -264q0 -73 19.5 -138t57.5 -117.5t101 -83t143 -30.5zM297 1241l229 332h197l229 -332h-190l-139 213l-140 -213h-186z" />
    <glyph glyph-name="gbreve.alt" 
d="M1124 1100v-912q0 -170 -71.5 -287t-194.5 -172t-289 -55q-222 0 -409 105l80 158q84 -48 160.5 -72.5t168.5 -24.5q165 0 263 81t98 259v58h-4q-62 -94 -157.5 -142.5t-209.5 -48.5q-141 0 -248.5 72t-163 192t-55.5 267t56.5 269.5t167.5 198.5t257 76q223 0 359 -176
h4l6 154h182zM610 213q103 0 178.5 51.5t111.5 135t36 186.5q0 158 -86.5 262t-237.5 104q-154 0 -238.5 -106t-84.5 -264q0 -73 19.5 -138t57.5 -117.5t101 -83t143 -30.5zM625 1372q80 0 119 51t44 133h130q0 -138 -75.5 -222.5t-217.5 -84.5t-217.5 85t-75.5 222h129
q5 -82 44 -133t120 -51z" />
    <glyph glyph-name="gdotaccent.alt" 
d="M1124 1100v-912q0 -170 -71.5 -287t-194.5 -172t-289 -55q-222 0 -409 105l80 158q84 -48 160.5 -72.5t168.5 -24.5q165 0 263 81t98 259v58h-4q-62 -94 -157.5 -142.5t-209.5 -48.5q-141 0 -248.5 72t-163 192t-55.5 267t56.5 269.5t167.5 198.5t257 76q223 0 359 -176
h4l6 154h182zM610 213q103 0 178.5 51.5t111.5 135t36 186.5q0 158 -86.5 262t-237.5 104q-154 0 -238.5 -106t-84.5 -264q0 -73 19.5 -138t57.5 -117.5t101 -83t143 -30.5zM520 1305v204h209v-204h-209z" />
    <glyph glyph-name="gcommaaccent.alt" 
d="M1124 1100v-912q0 -170 -71.5 -287t-194.5 -172t-289 -55q-222 0 -409 105l80 158q84 -48 160.5 -72.5t168.5 -24.5q165 0 263 81t98 259v58h-4q-62 -94 -157.5 -142.5t-209.5 -48.5q-141 0 -248.5 72t-163 192t-55.5 267t56.5 269.5t167.5 198.5t257 76q223 0 359 -176
h4l6 154h182zM610 213q103 0 178.5 51.5t111.5 135t36 186.5q0 158 -86.5 262t-237.5 104q-154 0 -238.5 -106t-84.5 -264q0 -73 19.5 -138t57.5 -117.5t101 -83t143 -30.5zM537 1225l155 362h154l-109 -362h-200z" />
    <glyph glyph-name="iogonek.alt" horiz-adv-x="518" 
d="M154 1362v211h211v-211h-211zM356 1100v-1094q-125 -50 -125 -125q0 -63 117 -63q30 0 76 4v-131q-66 -17 -137 -17q-123 0 -185.5 49.5t-62.5 124.5q0 51 31.5 100.5t91.5 88.5v1063h194z" />
    <glyph glyph-name="dotlessj.alt" horiz-adv-x="518" 
d="M-16 -311v157q24 -6 57 -6q65 0 93 33t28 98v1129h194v-1153q0 -130 -64.5 -201.5t-197.5 -71.5q-56 0 -110 15z" />
    <glyph glyph-name="jcircumflex.alt" horiz-adv-x="518" 
d="M-16 -311v157q24 -6 57 -6q65 0 93 33t28 98v1129h194v-1153q0 -130 -64.5 -201.5t-197.5 -71.5q-56 0 -110 15zM-68 1241l230 332h196l230 -332h-191l-139 213l-139 -213h-187z" />
    <glyph glyph-name="ij.alt" horiz-adv-x="1028" 
d="M154 1362v211h211v-211h-211zM356 0h-194v1100h194v-1100zM662 1362v211h210v-211h-210zM492 -311v157q24 -6 57 -6q65 0 93 33t28 98v1129h194v-1153q0 -130 -64.5 -201.5t-197.5 -71.5q-56 0 -110 15z" />
    <glyph glyph-name="kcommaaccent.alt" horiz-adv-x="1099" 
d="M842 0l-328 492h-158v-492h-194v1573h194v-920h168l303 447h232l-375 -529l393 -571h-235zM731 -68l-147 -305h-160l106 305h201z" />
    <glyph glyph-name="kcommaaccent001.alt" horiz-adv-x="1099" 
d="M1096 1100l-418 -441l395 -659h-229l-305 528l-183 -186v-342h-194v1573h194v-1004h4l488 531h248zM696 -68l-147 -305h-160l107 305h200z" />
    <glyph glyph-name="lcommaaccent.alt" horiz-adv-x="518" 
d="M356 0h-194v1573h194v-1573zM406 -68l-148 -305h-160l107 305h201z" />
    <glyph glyph-name="lcommaaccent001.alt" horiz-adv-x="589" 
d="M537 150v-156q-47 -14 -109 -14q-130 0 -198 72t-68 202v1319h194v-1301q0 -64 29 -96.5t94 -32.5q30 0 58 7zM455 -68l-148 -305h-160l107 305h201z" />
    <glyph glyph-name="ncommaaccent.alt" horiz-adv-x="1259" 
d="M162 0v1100h188l4 -162h4q54 86 145.5 135t211.5 49q177 0 282 -105.5t105 -279.5v-737h-195v698q0 112 -65 184t-185 72q-136 0 -218.5 -84t-82.5 -215v-655h-194zM778 -68l-147 -305h-160l107 305h200z" />
    <glyph glyph-name="rcommaaccent.alt" horiz-adv-x="778" 
d="M162 0v1100h188l4 -166h4q102 188 283 188q48 0 92 -14v-190q-42 14 -102 14q-130 0 -202.5 -77.5t-72.5 -186.5v-668h-194zM426 -68l-147 -305h-160l106 305h201z" />
    <glyph glyph-name="scedilla.alt" horiz-adv-x="1054" 
d="M506 -326q-96 0 -168 21l18 98q52 -12 113 -12q98 0 98 53q0 29 -31.5 45t-107.5 23l31 90q-245 12 -400 158l119 133q142 -136 348 -136q127 0 192.5 42.5t65.5 113.5q0 25 -8 44.5t-29 35.5t-40.5 26.5t-60.5 22t-70.5 18.5t-86.5 19q-71 15 -121.5 30t-104.5 41
t-87.5 58.5t-55.5 81.5t-22 111q0 146 113 238.5t321 92.5q255 0 429 -157l-117 -134q-139 127 -318 127q-111 0 -171 -41.5t-60 -107.5q0 -25 7 -44t26.5 -34t38.5 -25.5t59 -22t69.5 -18.5t88.5 -20q51 -11 86.5 -20t80.5 -24.5t75 -31t62 -39.5t50.5 -52t30.5 -66.5
t12 -83.5q0 -145 -107.5 -237.5t-304.5 -98.5l-10 -29q90 -10 135 -46t45 -93q0 -68 -60.5 -109t-172.5 -41z" />
    <glyph glyph-name="scommaaccent.alt" horiz-adv-x="1054" 
d="M520 -23q-286 0 -461 166l119 133q141 -135 348 -135q127 0 192.5 42.5t65.5 115.5q0 26 -8 46t-29 35.5t-40.5 26.5t-60.5 22.5t-70.5 18.5t-86.5 19q-71 15 -121.5 30t-105 41t-87.5 58t-55 81t-22 111q0 147 113 240.5t321 93.5q255 0 429 -157l-117 -134
q-139 127 -318 127q-111 0 -171 -41.5t-60 -107.5q0 -25 7 -44.5t26.5 -35t38.5 -26t59 -22t69.5 -18.5t88.5 -20q51 -11 86.5 -20.5t80.5 -24.5t75.5 -31.5t62 -40.5t50 -52.5t30.5 -67t12 -84.5q0 -155 -120.5 -250t-340.5 -95zM670 -68l-148 -305h-160l107 305h201z" />
    <glyph glyph-name="tcommaaccent.alt" horiz-adv-x="751" 
d="M698 938h-264v-592q0 -104 37.5 -148t140.5 -44q40 0 86 8v-158q-77 -18 -153 -18q-49 0 -101 10l-10 -33q91 -10 135.5 -46.5t44.5 -92.5q0 -68 -60.5 -109t-172.5 -41q-96 0 -168 21l18 98q53 -12 113 -12q98 0 98 53q0 29 -31.5 45t-107.5 23l45 137q-108 74 -108 256
v643h-220v162h220v348h194v-348h264v-162z" />
    <glyph glyph-name="uni021B.alt" horiz-adv-x="751" 
d="M20 938v162h220v348h194v-348h264v-162h-264v-602q0 -103 37.5 -147t140.5 -44q34 0 86 9v-158q-82 -19 -153 -19q-154 0 -229.5 80t-75.5 230v651h-220zM578 -68l-148 -305h-160l107 305h201z" />
    <glyph glyph-name="uogonek.alt" horiz-adv-x="1259" 
d="M1098 1100v-1080q-172 -58 -172 -139q0 -63 108 -63q28 0 64 4v-133q-69 -15 -127 -15q-117 0 -177.5 49t-60.5 119q0 126 180 209l-8 115h-4q-54 -87 -146.5 -138t-209.5 -51q-177 0 -282 105.5t-105 279.5v738h194v-699q0 -113 64 -184.5t186 -71.5q136 0 218.5 84
t82.5 215v656h195z" />
    <glyph glyph-name="ygrave.alt" horiz-adv-x="1126" 
d="M895 1100h205l-438 -1108q-69 -177 -149.5 -247.5t-205.5 -70.5q-70 0 -133 23v158q47 -15 92 -15q71 0 119 32.5t82 109.5l-440 1118h213l323 -877h4zM520 1241l-227 332h219l190 -332h-182z" />
    <glyph glyph-name="yacute.alt" horiz-adv-x="1126" 
d="M895 1100h205l-438 -1108q-69 -177 -149.5 -247.5t-205.5 -70.5q-70 0 -133 23v158q47 -15 92 -15q71 0 119 32.5t82 109.5l-440 1118h213l323 -877h4zM850 1573l-227 -332h-179l191 332h215z" />
    <glyph glyph-name="ycircumflex.alt" horiz-adv-x="1126" 
d="M895 1100h205l-438 -1108q-69 -177 -149.5 -247.5t-205.5 -70.5q-70 0 -133 23v158q47 -15 92 -15q71 0 119 32.5t82 109.5l-440 1118h213l323 -877h4zM246 1241l229 332h197l229 -332h-190l-140 213l-139 -213h-186z" />
    <glyph glyph-name="ydieresis.alt" horiz-adv-x="1126" 
d="M895 1100h205l-438 -1108q-69 -177 -149.5 -247.5t-205.5 -70.5q-70 0 -133 23v158q47 -15 92 -15q71 0 119 32.5t82 109.5l-440 1118h213l323 -877h4zM678 1305v204h203v-204h-203zM266 1305v204h203v-204h-203z" />
    <glyph glyph-name="eng.alt" horiz-adv-x="1259" 
d="M162 0v1100h188l4 -162h4q54 86 146 135t211 49q177 0 282 -105.5t105 -279.5v-790q0 -130 -64.5 -201.5t-197.5 -71.5q-59 0 -113 15v159q24 -6 57 -6q65 0 94 32.5t29 96.5v727q0 112 -65 184t-185 72q-137 0 -219 -84t-82 -215v-655h-194z" />
    <glyph glyph-name="thorn.alt" horiz-adv-x="1314" 
d="M719 -23q-227 0 -359 177h-4v-457h-194v1876h194v-631h4q66 85 160 132.5t207 47.5q150 0 263 -75.5t171 -203.5t58 -288q0 -118 -35 -223t-98 -184t-158 -125t-209 -46zM682 150q161 0 250.5 114.5t89.5 286.5q0 79 -21 149.5t-61 127t-106 89.5t-150 33
q-107 0 -184 -56.5t-113.5 -146.5t-36.5 -202q0 -173 88.5 -284t243.5 -111z" />
    <glyph glyph-name="exclamdown.alt" horiz-adv-x="661" 
d="M442 1270v-226h-225v226h225zM414 872l22 -1175h-213l23 1175h168z" />
    <glyph glyph-name="questiondown.alt" horiz-adv-x="937" 
d="M631 1270v-226h-225v226h225zM297 494q60 54 86 87t38.5 73.5t12.5 107.5v110h168v-161q0 -43 -4.5 -78t-19 -67t-25.5 -52.5t-41 -52.5t-46.5 -47.5t-59.5 -55.5q-42 -39 -67.5 -65.5t-50.5 -62.5t-36.5 -74.5t-11.5 -83.5q0 -108 64 -167t173 -59q163 0 275 127
l118 -131q-67 -74 -171 -121t-232 -47q-190 0 -308 105t-118 284q0 68 16.5 124.5t55.5 110.5t77 93.5t107 102.5z" />
    <glyph glyph-name="commaaccent.alt001" 
d="M784 -68l-147 -305h-160l107 305h200z" />
    <glyph glyph-name="cedilla.alt" 
d="M705 51l-29 -88q91 -10 135.5 -46.5t44.5 -92.5q0 -68 -60.5 -109t-172.5 -41q-96 0 -168 21l18 98q53 -12 113 -12q98 0 98 53q0 29 -31.5 45t-107.5 23l49 149h111z" />
    <glyph glyph-name="ogonek.alt" 
d="M623 39h217v-37q-193 -49 -193 -125q0 -57 113 -57q34 0 80 4v-133q-63 -17 -144 -17q-123 0 -183 46t-60 120q0 130 170 199z" />
    <glyph glyph-name="a002" 
d="M561 -23q-108 0 -197.5 45t-148 122t-91 180t-32.5 219q0 159 56.5 289.5t168 210t258.5 79.5q224 0 357 -186h4l8 164h180v-1100h-190l-2 178h-4q-134 -201 -367 -201zM608 147q155 0 241.5 114.5t86.5 291.5t-86 288t-238 111q-105 0 -180 -57.5t-109 -147t-34 -200.5
q0 -79 19 -149.5t56.5 -127t100 -90t143.5 -33.5z" />
    <glyph glyph-name="agrave002" 
d="M561 -23q-108 0 -197.5 45t-148 122t-91 180t-32.5 219q0 159 56.5 289.5t168 210t258.5 79.5q224 0 357 -186h4l8 164h180v-1100h-190l-2 178h-4q-134 -201 -367 -201zM608 147q155 0 241.5 114.5t86.5 291.5t-86 288t-238 111q-105 0 -180 -57.5t-109 -147t-34 -200.5
q0 -79 19 -149.5t56.5 -127t100 -90t143.5 -33.5zM559 1241l-227 332h219l190 -332h-182z" />
    <glyph glyph-name="aacute002" 
d="M889 1573l-227 -332h-179l191 332h215zM561 -23q-108 0 -197.5 45t-148 122t-91 180t-32.5 219q0 159 56.5 289.5t168 210t258.5 79.5q224 0 357 -186h4l8 164h180v-1100h-190l-2 178h-4q-134 -201 -367 -201zM608 147q155 0 241.5 114.5t86.5 291.5t-86 288t-238 111
q-105 0 -180 -57.5t-109 -147t-34 -200.5q0 -79 19 -149.5t56.5 -127t100 -90t143.5 -33.5z" />
    <glyph glyph-name="acircumflex002" 
d="M285 1241l229 332h197l229 -332h-190l-140 213l-139 -213h-186zM561 -23q-108 0 -197.5 45t-148 122t-91 180t-32.5 219q0 159 56.5 289.5t168 210t258.5 79.5q224 0 357 -186h4l8 164h180v-1100h-190l-2 178h-4q-134 -201 -367 -201zM608 147q155 0 241.5 114.5
t86.5 291.5t-86 288t-238 111q-105 0 -180 -57.5t-109 -147t-34 -200.5q0 -79 19 -149.5t56.5 -127t100 -90t143.5 -33.5z" />
    <glyph glyph-name="atilde002" 
d="M463 1534q45 0 88.5 -15.5t71.5 -34.5t63 -34.5t66 -15.5q37 0 56.5 22t25.5 72h133q-22 -248 -205 -248q-45 0 -88.5 15.5t-71.5 34.5t-63 34.5t-66 15.5q-37 0 -56.5 -22t-25.5 -72h-133q22 248 205 248zM561 -23q-108 0 -197.5 45t-148 122t-91 180t-32.5 219
q0 159 56.5 289.5t168 210t258.5 79.5q224 0 357 -186h4l8 164h180v-1100h-190l-2 178h-4q-134 -201 -367 -201zM608 147q155 0 241.5 114.5t86.5 291.5t-86 288t-238 111q-105 0 -180 -57.5t-109 -147t-34 -200.5q0 -79 19 -149.5t56.5 -127t100 -90t143.5 -33.5z" />
    <glyph glyph-name="adieresis002" 
d="M717 1305v204h203v-204h-203zM305 1305v204h203v-204h-203zM561 -23q-108 0 -197.5 45t-148 122t-91 180t-32.5 219q0 159 56.5 289.5t168 210t258.5 79.5q224 0 357 -186h4l8 164h180v-1100h-190l-2 178h-4q-134 -201 -367 -201zM608 147q155 0 241.5 114.5t86.5 291.5
t-86 288t-238 111q-105 0 -180 -57.5t-109 -147t-34 -200.5q0 -79 19 -149.5t56.5 -127t100 -90t143.5 -33.5z" />
    <glyph glyph-name="amacron002" 
d="M326 1331v152h573v-152h-573zM561 -23q-108 0 -197.5 45t-148 122t-91 180t-32.5 219q0 159 56.5 289.5t168 210t258.5 79.5q224 0 357 -186h4l8 164h180v-1100h-190l-2 178h-4q-134 -201 -367 -201zM608 147q155 0 241.5 114.5t86.5 291.5t-86 288t-238 111
q-105 0 -180 -57.5t-109 -147t-34 -200.5q0 -79 19 -149.5t56.5 -127t100 -90t143.5 -33.5z" />
    <glyph glyph-name="abreve002" 
d="M612 1372q81 0 120 51t44 133h129q0 -138 -75.5 -222.5t-217.5 -84.5t-217.5 85t-75.5 222h130q5 -82 44 -133t119 -51zM561 -23q-108 0 -197.5 45t-148 122t-91 180t-32.5 219q0 159 56.5 289.5t168 210t258.5 79.5q224 0 357 -186h4l8 164h180v-1100h-190l-2 178h-4
q-134 -201 -367 -201zM608 147q155 0 241.5 114.5t86.5 291.5t-86 288t-238 111q-105 0 -180 -57.5t-109 -147t-34 -200.5q0 -79 19 -149.5t56.5 -127t100 -90t143.5 -33.5z" />
    <glyph glyph-name="aring002" 
d="M371 1454q0 101 69 169.5t172 68.5t172.5 -68.5t69.5 -169.5t-69.5 -169t-172.5 -68t-172 68t-69 169zM487 1454q0 -56 33.5 -94.5t91.5 -38.5t91.5 38.5t33.5 94.5t-33.5 94.5t-91.5 38.5t-91.5 -38.5t-33.5 -94.5zM561 -23q-108 0 -197.5 45t-148 122t-91 180
t-32.5 219q0 159 56.5 289.5t168 210t258.5 79.5q224 0 357 -186h4l8 164h180v-1100h-190l-2 178h-4q-134 -201 -367 -201zM608 147q155 0 241.5 114.5t86.5 291.5t-86 288t-238 111q-105 0 -180 -57.5t-109 -147t-34 -200.5q0 -79 19 -149.5t56.5 -127t100 -90t143.5 -33.5
z" />
    <glyph glyph-name="aogonek002" 
d="M989 -397q-124 0 -185 51t-61 127q0 71 54.5 134.5t140.5 109.5l-6 153h-4q-134 -201 -367 -201q-108 0 -197.5 45t-148 122t-91 180t-32.5 219q0 159 56.5 289.5t168 210t258.5 79.5q224 0 357 -186h4l8 164h180v-1096q-99 -53 -142.5 -97t-43.5 -87q0 -35 23.5 -54.5
t82.5 -19.5q36 0 80 6v-133q-70 -16 -135 -16zM608 147q155 0 241.5 114.5t86.5 291.5t-86 288t-238 111q-105 0 -180 -57.5t-109 -147t-34 -200.5q0 -79 19 -149.5t56.5 -127t100 -90t143.5 -33.5z" />
    <glyph glyph-name="aogonek002.alt" 
d="M997 -326q-117 0 -176 48.5t-59 119.5q0 128 182 209l-12 127h-4q-134 -201 -367 -201q-108 0 -197.5 45t-148 122t-91 180t-32.5 219q0 159 56.5 289.5t168 210t258.5 79.5q224 0 357 -186h4l8 164h180v-1080q-170 -59 -170 -139q0 -63 107 -63q27 0 63 4v-133
q-66 -15 -127 -15zM608 147q155 0 241.5 114.5t86.5 291.5t-86 288t-238 111q-105 0 -180 -57.5t-109 -147t-34 -200.5q0 -79 19 -149.5t56.5 -127t100 -90t143.5 -33.5z" />
    </font>
</defs>
</svg>
