<svg id="Layer_1" xmlns="http://www.w3.org/2000/svg" viewBox="0 0 94.53 141.74"><rect x="4.63" y="4.96" width="40.81" height="41.06" fill="#414142" stroke-width="0"/><rect x="49.08" y="4.97" width="40.81" height="18.76" fill="#414142" stroke-width="0"/><rect x="49.08" y="27.37" width="40.81" height="18.76" fill="#414142" stroke-width="0"/><rect x="4.64" y="49.7" width="40.81" height="19.2" fill="#414142" stroke-width="0"/><rect x="4.64" y="72.58" width="40.81" height="18.82" fill="#414142" stroke-width="0"/><rect x="49.09" y="49.78" width="40.81" height="19.2" fill="#414142" stroke-width="0"/><rect x="49.09" y="72.62" width="40.81" height="18.82" fill="#414142" stroke-width="0"/><rect x="4.63" y="95.09" width="85.26" height="40.97" fill="#414142" stroke-width="0"/><path d="M92.47,2.05v137.63H2.05V2.05h90.42M94.21,0H.32c-.17,0-.32.14-.32.32v141.11c0,.17.14.32.32.32h93.89c.17,0,.32-.14.32-.32V.32c0-.17-.14-.32-.32-.32h0Z" fill="#414142" stroke-width="0"/></svg>