<svg xmlns="http://www.w3.org/2000/svg" viewBox="0 0 94.53 141.74"><rect x="48.95" y="50.05" width="40.81" height="18.76" fill="#414142" stroke-width="0"/><rect x="4.5" y="50.05" width="40.81" height="18.76" fill="#414142" stroke-width="0"/><rect x="48.95" y="27.66" width="40.81" height="18.76" fill="#414142" stroke-width="0"/><rect x="4.5" y="27.66" width="40.81" height="18.76" fill="#414142" stroke-width="0"/><rect x="48.95" y="5.28" width="40.81" height="18.76" fill="#414142" stroke-width="0"/><rect x="4.5" y="5.28" width="40.81" height="18.76" fill="#414142" stroke-width="0"/><rect x="4.49" y="94.83" width="85.26" height="18.76" fill="#414142" stroke-width="0"/><rect x="4.49" y="72.44" width="85.26" height="18.76" fill="#414142" stroke-width="0"/><rect x="4.49" y="117.21" width="85.26" height="18.76" fill="#414142" stroke-width="0"/><path d="M92.47,2.05v137.63H2.05V2.05h90.42M94.21,0H.32c-.17,0-.32.14-.32.32v141.11c0,.17.14.32.32.32h93.89c.17,0,.32-.14.32-.32V.32c0-.17-.14-.32-.32-.32h0Z" fill="#414142" stroke-width="0"/></svg>