<svg id="Layer_1" data-name="Layer 1" xmlns="http://www.w3.org/2000/svg" viewBox="0 0 49.12 49.12"><defs><style>.cls-1{fill:#9d644c;}</style></defs><path class="cls-1" d="M48.56,49.12H.56A.56.56,0,0,1,0,48.56V.56A.56.56,0,0,1,.56,0h48a.56.56,0,0,1,.56.56v48A.56.56,0,0,1,48.56,49.12ZM1,48.1H48.1V1H1Z"/><path class="cls-1" d="M48.56,49.12H.56A.56.56,0,0,1,0,48.56V.56A.56.56,0,0,1,.56,0h48a.56.56,0,0,1,.56.56v48A.56.56,0,0,1,48.56,49.12ZM1,48.1H48.1V1H1Z"/><rect class="cls-1" x="2.4" y="25.44" width="44.32" height="21.34"/><rect class="cls-1" x="2.4" y="2.26" width="44.32" height="21.34"/></svg>