<svg id="Layer_1" data-name="Layer 1" xmlns="http://www.w3.org/2000/svg" viewBox="0 0 49.12 49.12"><defs><style>.cls-1{fill:#64656d;}</style></defs><path class="cls-1" d="M49.12.56v48a.56.56,0,0,1-.56.56H.56A.56.56,0,0,1,0,48.56V.56A.56.56,0,0,1,.56,0h48A.56.56,0,0,1,49.12.56Zm-1,47.54V1H1V48.1Z"/><path class="cls-1" d="M49.12.56v48a.56.56,0,0,1-.56.56H.56A.56.56,0,0,1,0,48.56V.56A.56.56,0,0,1,.56,0h48A.56.56,0,0,1,49.12.56Zm-1,47.54V1H1V48.1Z"/><rect class="cls-1" x="25.44" y="2.4" width="21.34" height="44.32"/><rect class="cls-1" x="2.26" y="2.4" width="21.34" height="44.32"/></svg>