<?xml version="1.0" encoding="utf-8"?>
<!-- Generator: Adobe Illustrator 26.5.0, SVG Export Plug-In . SVG Version: 6.00 Build 0)  -->
<svg version="1.1" id="Layer_1" xmlns="http://www.w3.org/2000/svg" xmlns:xlink="http://www.w3.org/1999/xlink" x="0px" y="0px"
	 viewBox="0 0 49.1 49.1" style="enable-background:new 0 0 49.1 49.1;" xml:space="preserve">
<style type="text/css">
	.st0{fill:#A7AC9C;}
</style>
<path class="st0" d="M48.6,49.1h-48c-0.3,0-0.6-0.3-0.6-0.6v-48C0,0.3,0.3,0,0.6,0h48c0.3,0,0.6,0.3,0.6,0.6c0,0,0,0,0,0v48
	C49.1,48.9,48.9,49.1,48.6,49.1z M1,48.1h47.1V1H1V48.1z"/>
<path class="st0" d="M48.6,49.1h-48c-0.3,0-0.6-0.3-0.6-0.6v-48C0,0.3,0.3,0,0.6,0h48c0.3,0,0.6,0.3,0.6,0.6c0,0,0,0,0,0v48
	C49.1,48.9,48.9,49.1,48.6,49.1z M1,48.1h47.1V1H1V48.1z"/>
<rect x="2.4" y="2.3" class="st0" width="21.2" height="21.3"/>
<rect x="25.5" y="2.3" class="st0" width="21.2" height="21.3"/>
<rect x="2.4" y="25.5" class="st0" width="21.2" height="21.3"/>
<rect x="25.5" y="25.5" class="st0" width="21.2" height="21.3"/>
</svg>
