<svg id="Layer_1" data-name="Layer 1" xmlns="http://www.w3.org/2000/svg" viewBox="0 0 49.12 49.12"><defs><style>.cls-1{fill:#a7acb4;}</style></defs><path class="cls-1" d="M48.56,49.12H.56A.56.56,0,0,1,0,48.56V.56A.56.56,0,0,1,.56,0h48a.56.56,0,0,1,.56.56v48A.56.56,0,0,1,48.56,49.12ZM1,48.1H48.1V1H1Z"/><path class="cls-1" d="M48.56,49.12H.56A.56.56,0,0,1,0,48.56V.56A.56.56,0,0,1,.56,0h48a.56.56,0,0,1,.56.56v48A.56.56,0,0,1,48.56,49.12ZM1,48.1H48.1V1H1Z"/><rect class="cls-1" x="2.34" y="2.32" width="21.34" height="21.21" transform="translate(0.08 25.94) rotate(-90)"/><rect class="cls-1" x="31.24" y="-3.47" width="9.75" height="21.21" transform="translate(28.98 43.25) rotate(-90)"/><rect class="cls-1" x="31.24" y="8.12" width="9.75" height="21.21" transform="translate(17.39 54.84) rotate(-90)"/><rect class="cls-1" x="2.4" y="25.44" width="44.32" height="21.34"/></svg>