<svg id="Layer_1" data-name="Layer 1" xmlns="http://www.w3.org/2000/svg" viewBox="0 0 49.12 49.12"><defs><style>.cls-1{fill:#e2c281;}</style></defs><path class="cls-1" d="M0,48.56V.56A.56.56,0,0,1,.56,0h48a.56.56,0,0,1,.56.56v48a.56.56,0,0,1-.56.56H.56A.56.56,0,0,1,0,48.56ZM1,1V48.1H48.1V1Z"/><path class="cls-1" d="M0,48.56V.56A.56.56,0,0,1,.56,0h48a.56.56,0,0,1,.56.56v48a.56.56,0,0,1-.56.56H.56A.56.56,0,0,1,0,48.56ZM1,1V48.1H48.1V1Z"/><rect class="cls-1" x="25.52" y="25.51" width="21.34" height="21.21" transform="translate(0.08 72.3) rotate(-90)"/><rect class="cls-1" x="31.32" y="8.2" width="9.75" height="21.21" transform="translate(17.39 54.99) rotate(-90)"/><rect class="cls-1" x="31.32" y="-3.39" width="9.75" height="21.21" transform="translate(28.98 43.4) rotate(-90)"/><rect class="cls-1" x="2.34" y="2.4" width="21.34" height="44.32"/></svg>