<svg id="Layer_1" data-name="Layer 1" xmlns="http://www.w3.org/2000/svg" viewBox="0 0 103.52 34.53"><defs><style>.cls-1{fill:#010101;stroke:#fff;stroke-miterlimit:10;}.cls-2{fill:#fff;}</style></defs><rect class="cls-1" x="0.5" y="0.5" width="102.52" height="33.53" rx="4.53"/><path class="cls-2" d="M18.6,24H9.47V10.38H18.6ZM14,27a1.21,1.21,0,1,1,1.21-1.21A1.21,1.21,0,0,1,14,27m4.18-20.8H9.86A1.82,1.82,0,0,0,8,8.05v18.5a1.81,1.81,0,0,0,1.82,1.81h8.35A1.81,1.81,0,0,0,20,26.55V8.05a1.82,1.82,0,0,0-1.81-1.82"/><path class="cls-2" d="M28.46,9,28,7.63c-.11-.32-.18-.61-.25-.89h0c-.07.28-.15.59-.24.88L27,9Zm-1.6.49-.51,1.54H25.7l1.66-4.89h.76l1.67,4.89h-.68l-.52-1.54Z"/><path class="cls-2" d="M30.44,7.56l.69,2a7.62,7.62,0,0,1,.28.9h0c.08-.29.19-.58.3-.9l.68-2h.67L31.7,11.07h-.61L29.76,7.56Z"/><path class="cls-2" d="M35.39,9.28c-.69,0-1.48.11-1.48.79a.56.56,0,0,0,.59.61.87.87,0,0,0,.86-.59.69.69,0,0,0,0-.2Zm.63,1a5.42,5.42,0,0,0,0,.84h-.58l-.05-.44h0a1.29,1.29,0,0,1-1.07.52,1,1,0,0,1-1.07-1c0-.85.75-1.31,2.11-1.3V8.76a.72.72,0,0,0-.8-.81,1.68,1.68,0,0,0-.92.26l-.15-.43a2.3,2.3,0,0,1,1.17-.3c1.08,0,1.34.73,1.34,1.44Z"/><path class="cls-2" d="M37.64,11.07H37V7.56h.64Zm-.33-4.16a.41.41,0,1,1,.42-.41.4.4,0,0,1-.42.41Z"/><rect class="cls-2" x="38.66" y="5.92" width="0.64" height="5.15"/><path class="cls-2" d="M42.17,9.28c-.69,0-1.48.11-1.48.79a.56.56,0,0,0,.59.61.88.88,0,0,0,.86-.59.46.46,0,0,0,0-.2Zm.63,1a5.42,5.42,0,0,0,.05.84h-.58l-.05-.44h0a1.31,1.31,0,0,1-1.07.52,1,1,0,0,1-1.07-1c0-.85.75-1.31,2.11-1.3V8.76a.72.72,0,0,0-.8-.81,1.68,1.68,0,0,0-.92.26l-.15-.43a2.29,2.29,0,0,1,1.16-.3c1.08,0,1.35.73,1.35,1.44Z"/><path class="cls-2" d="M44.42,9.66a1.64,1.64,0,0,0,0,.23,1,1,0,0,0,1,.75c.67,0,1.06-.54,1.06-1.35S46.1,8,45.42,8a1,1,0,0,0-1,.78.77.77,0,0,0,0,.27Zm-.64-3.74h.64v2.2h0a1.32,1.32,0,0,1,1.2-.64,1.58,1.58,0,0,1,1.48,1.78,1.68,1.68,0,0,1-1.58,1.89,1.25,1.25,0,0,1-1.17-.66h0l0,.58h-.55a8.54,8.54,0,0,0,0-.91Z"/><rect class="cls-2" x="47.87" y="5.92" width="0.64" height="5.15"/><path class="cls-2" d="M51.76,9a.92.92,0,0,0-.88-1,1.06,1.06,0,0,0-1,1Zm-1.87.45a1.12,1.12,0,0,0,1.2,1.22,2.48,2.48,0,0,0,1-.17l.12.45a3,3,0,0,1-1.18.22,1.64,1.64,0,0,1-1.72-1.77,1.71,1.71,0,0,1,1.65-1.9,1.48,1.48,0,0,1,1.44,1.65,1.28,1.28,0,0,1,0,.31Z"/><path class="cls-2" d="M56.08,10.67c.61,0,1.06-.57,1.06-1.37,0-.59-.29-1.34-1-1.34S55,8.65,55,9.32s.43,1.35,1,1.35Zm0,.48a1.68,1.68,0,0,1-1.69-1.81,1.72,1.72,0,0,1,1.74-1.86,1.66,1.66,0,0,1,1.69,1.8,1.72,1.72,0,0,1-1.74,1.87Z"/><path class="cls-2" d="M58.57,8.51a9.23,9.23,0,0,0,0-1h.57l0,.57h0a1.31,1.31,0,0,1,1.16-.65c.49,0,1.24.29,1.24,1.49v2.1h-.64V9c0-.56-.21-1-.81-1a.94.94,0,0,0-.86.65,1,1,0,0,0,0,.3v2.12h-.64Z"/><path class="cls-2" d="M64.83,6.72v.84h.91V8h-.91v1.9c0,.43.12.68.48.68a1.18,1.18,0,0,0,.37,0l0,.48a1.57,1.57,0,0,1-.57.09.91.91,0,0,1-.69-.27,1.39,1.39,0,0,1-.24-.92V8h-.55V7.56h.55V6.91Z"/><path class="cls-2" d="M66.42,5.92h.64V8.11h0a1.15,1.15,0,0,1,.45-.45,1.23,1.23,0,0,1,.66-.18c.47,0,1.22.29,1.22,1.5v2.09h-.64v-2c0-.57-.21-1-.81-1a.92.92,0,0,0-.85.64.67.67,0,0,0,0,.3v2.12h-.64Z"/><path class="cls-2" d="M72.64,9a.91.91,0,0,0-.88-1,1.06,1.06,0,0,0-1,1Zm-1.86.45A1.11,1.11,0,0,0,72,10.64a2.48,2.48,0,0,0,1-.17l.12.45a3,3,0,0,1-1.18.22,1.64,1.64,0,0,1-1.72-1.77,1.71,1.71,0,0,1,1.65-1.9,1.48,1.48,0,0,1,1.45,1.65,1.19,1.19,0,0,1,0,.31Z"/><path class="cls-2" d="M76.15,11.07h-.64V7.56h.64Zm-.34-4.16a.39.39,0,0,1-.39-.41.41.41,0,1,1,.4.41Z"/><path class="cls-2" d="M77.82,8.6a2.54,2.54,0,0,0,.52.05c.77,0,1.23-.38,1.23-1s-.46-1-1.15-1a2.64,2.64,0,0,0-.6,0Zm-.63-2.35a6.24,6.24,0,0,1,1.21-.11,2,2,0,0,1,1.37.41,1.32,1.32,0,0,1,.44,1,1.39,1.39,0,0,1-.39,1,2.52,2.52,0,0,1-2,.49v2h-.63Z"/><path class="cls-2" d="M81,5.92h.63V8.11h0a1.15,1.15,0,0,1,.45-.45,1.23,1.23,0,0,1,.66-.18c.47,0,1.22.29,1.22,1.5v2.09h-.63v-2c0-.57-.22-1-.82-1a.92.92,0,0,0-.85.64.67.67,0,0,0,0,.3v2.12H81Z"/><path class="cls-2" d="M86.39,10.67c.61,0,1.07-.57,1.07-1.37,0-.59-.3-1.34-1-1.34s-1.08.69-1.08,1.36.44,1.35,1.06,1.35Zm0,.48a1.68,1.68,0,0,1-1.68-1.81,1.71,1.71,0,0,1,1.74-1.86,1.66,1.66,0,0,1,1.69,1.8,1.72,1.72,0,0,1-1.74,1.87Z"/><path class="cls-2" d="M88.89,8.51c0-.37,0-.66,0-1h.56l0,.57h0a1.34,1.34,0,0,1,1.17-.65c.48,0,1.23.29,1.23,1.49v2.1h-.63V9c0-.56-.21-1-.82-1a.93.93,0,0,0-.85.65.94.94,0,0,0,0,.3v2.12h-.63Z"/><path class="cls-2" d="M95.1,9a.91.91,0,0,0-.88-1,1,1,0,0,0-1,1Zm-1.86.45a1.11,1.11,0,0,0,1.19,1.22,2.58,2.58,0,0,0,1-.17l.11.45a2.85,2.85,0,0,1-1.17.22,1.64,1.64,0,0,1-1.73-1.77,1.71,1.71,0,0,1,1.65-1.9,1.48,1.48,0,0,1,1.45,1.65,2.16,2.16,0,0,1,0,.31Z"/><path class="cls-2" d="M30.88,16.46c.15.56.3,1.15.51,1.78l1.15,3.36H29.25l1.14-3.38c.17-.54.34-1.14.49-1.76m-1-2.08L25.56,27h2l1.29-3.88H33L34.3,27h2L32,14.38Z"/><path class="cls-2" d="M41.41,19.25c1.7,0,2.47,1.58,2.47,3.14,0,2-1,3.28-2.54,3.28a2.32,2.32,0,0,1-2.26-1.78,2.65,2.65,0,0,1-.07-.62V21.73a2.75,2.75,0,0,1,.06-.47l0-.15a2.41,2.41,0,0,1,2.31-1.86m.47-1.59a3.58,3.58,0,0,0-3,1.46l-.08-1.26H37V18c0,.79.08,1.65.08,2.89v9.75H39V26.11a3.36,3.36,0,0,0,2.62,1.13A3.93,3.93,0,0,0,44.53,26a5.21,5.21,0,0,0,1.28-3.68A5.06,5.06,0,0,0,44.7,19a3.64,3.64,0,0,0-2.82-1.3"/><path class="cls-2" d="M51.27,19.25c1.7,0,2.47,1.58,2.47,3.14,0,2-1,3.28-2.54,3.28a2.32,2.32,0,0,1-2.26-1.78,2.21,2.21,0,0,1-.07-.62V21.73a2.75,2.75,0,0,1,.06-.47l0-.15a2.42,2.42,0,0,1,2.31-1.86m.47-1.59a3.58,3.58,0,0,0-3,1.46l-.08-1.26H46.87V18c0,.79.08,1.65.08,2.89v9.75h1.91V26.11a3.38,3.38,0,0,0,2.62,1.13A3.93,3.93,0,0,0,54.39,26a5.21,5.21,0,0,0,1.28-3.68A5.06,5.06,0,0,0,54.56,19a3.63,3.63,0,0,0-2.82-1.3"/><path class="cls-2" d="M64.1,19.74c-1.79-.69-2.36-1.24-2.36-2.24s.67-1.7,2.17-1.7a4.36,4.36,0,0,1,2.25.56l.16.1.54-1.59-.1-.07A5.56,5.56,0,0,0,64,14.18c-2.44,0-4.15,1.44-4.15,3.5,0,1.67,1.07,2.83,3.36,3.66,1.63.61,2.23,1.23,2.23,2.3s-.93,2-2.43,2a5.23,5.23,0,0,1-2.76-.79l-.17-.1-.51,1.63.09.06a6.53,6.53,0,0,0,3.24.84c3.29,0,4.46-2,4.46-3.73s-.94-2.86-3.23-3.77"/><path class="cls-2" d="M70.77,15.68l-1.87.59v1.59H67.52v1.53H68.9v4.69a3.57,3.57,0,0,0,.66,2.43,2.46,2.46,0,0,0,1.85.73A4.61,4.61,0,0,0,72.89,27L73,27l-.09-1.53-.19,0a2.68,2.68,0,0,1-.89.11c-.74,0-1.06-.47-1.06-1.58V19.39h2.31V17.86H70.77Z"/><path class="cls-2" d="M77.77,19.17c1.73,0,2.51,1.68,2.51,3.24,0,1.92-1.07,3.31-2.54,3.31h0c-1.45,0-2.51-1.36-2.51-3.25,0-1.64.8-3.3,2.56-3.3m.06-1.51c-2.68,0-4.55,2-4.55,4.86s1.81,4.72,4.4,4.72h0a4.52,4.52,0,0,0,4.55-4.88A4.82,4.82,0,0,0,81,19a4.24,4.24,0,0,0-3.2-1.31"/><path class="cls-2" d="M88.12,17.75l-.12,0a2,2,0,0,0-.47-.06,2.74,2.74,0,0,0-2.41,1.54l-.05-1.34H83.35V18c0,.76.07,1.61.07,2.76l0,6.26h1.92V22.15a5.74,5.74,0,0,1,0-.74,2.12,2.12,0,0,1,2-1.93c.19,0,.35,0,.51,0l.21,0Z"/><path class="cls-2" d="M92.29,19.1a1.91,1.91,0,0,1,1.41.53,2.75,2.75,0,0,1,.66,1.79H90a2.44,2.44,0,0,1,2.3-2.32m.13-1.46c-2.55,0-4.33,2-4.33,4.95a4.28,4.28,0,0,0,4.51,4.63,7.41,7.41,0,0,0,3-.58l.12-.06-.37-1.42-.16.06a5.94,5.94,0,0,1-2.4.43A2.65,2.65,0,0,1,90,22.87l6.18,0,0-.12a4.13,4.13,0,0,0,.06-.8c0-2-1-4.33-3.8-4.33"/></svg>