<?xml version="1.0" encoding="UTF-8"?><svg id="Layer_2" xmlns="http://www.w3.org/2000/svg" viewBox="0 0 208.47 168.44"><defs><style>.cls-1{fill:#8ac43f;}</style></defs><g id="Layer_1-2"><g><path d="M18.1,158.6c-1.7,2-4.1,3.36-8,3.36-6.71,0-10.1-4-10.1-9.83s3.36-9.93,9.61-9.93,9.19,4.07,9.19,9.33c0,.75-.04,1.49-.14,2.23H5.83c.32,2.44,1.52,4,4.42,4,1.7,.03,3.31-.79,4.28-2.19l3.57,3.03Zm-5-8.34c-.21-2.37-1.13-3.85-3.54-3.85s-3.46,1.48-3.71,3.85h7.25Z"/><path d="M21.95,142.59h5.44l.11,2.61h.07c1.23-1.94,3.4-3.08,5.69-3,4,0,6.6,2.58,6.6,6.47v12.9h-5.86v-12.26c.09-1.42-1-2.65-2.42-2.73-.11,0-.23,0-.34,0-1.78-.11-3.32,1.24-3.43,3.02,0,.14,0,.28,0,.41v11.56h-5.86v-18.98Z"/><path d="M61.24,158.6c-1.7,2-4.1,3.36-8,3.36-6.72,0-10.11-4-10.11-9.83s3.36-9.93,9.61-9.93,9.19,4.07,9.19,9.33c.01,.75-.03,1.49-.14,2.23h-12.81c.32,2.44,1.52,4,4.41,4,1.7,.03,3.31-.79,4.28-2.19l3.57,3.03Zm-5-8.34c-.21-2.37-1.13-3.85-3.53-3.85s-3.47,1.48-3.71,3.85h7.24Z"/><path d="M65.09,142.59h5.44l.14,3h.07c1.07-2.05,2.62-3.35,4.74-3.35,.61,0,1.22,.11,1.8,.31v4.88c-.6-.09-1.2-.14-1.8-.14-2.93,0-4.52,1.77-4.52,3.86v10.42h-5.87v-18.98Z"/><path d="M98.13,159.06c0,6.33-4.34,9.37-10.92,9.37-2.49,.04-4.96-.51-7.21-1.59l1.59-4c1.67,.94,3.56,1.44,5.48,1.45,3,0,5.19-1.34,5.19-5v-1.11h-.07c-1.31,1.81-3.42,2.85-5.65,2.79-4.74,0-7.85-3.85-7.85-9.19s3.18-9.58,8.06-9.58c2.4-.02,4.65,1.16,6,3.15h.07l.14-2.76h5.16v16.47Zm-5.64-7.46c0-3-1.42-5.16-3.93-5.16s-3.92,2.3-3.92,5.23,1.27,5.17,3.89,5.17,3.96-2.2,3.96-5.24h0Z"/><path d="M120.78,142.59l-7.49,20.11c-1.38,3.71-3.21,5.73-7.28,5.73-.96,0-1.91-.14-2.83-.39v-4.07c.54,.17,1.1,.25,1.66,.25,1.37,.18,2.65-.73,2.94-2.09l-7.32-19.54h6.12l4.13,13h.07l4.14-13h5.86Z"/><path d="M122.15,159.38l1.35-1.56c1.68,1.54,3.9,2.37,6.18,2.3,3.57,0,5.34-1.52,5.34-3.61,0-2.26-2.19-2.78-5.48-3.53-3.53-.78-6.71-1.7-6.71-5.3,0-3.22,2.61-5.48,7.1-5.48,2.61-.12,5.14,.86,7,2.69l-1.45,1.49c-1.45-1.53-3.47-2.39-5.58-2.37-3.26,0-4.95,1.52-4.95,3.5,0,2.26,2.15,2.72,5.44,3.46,3.6,.81,6.75,1.77,6.75,5.38,0,3.28-2.72,5.58-7.42,5.58-2.75,.12-5.45-.79-7.57-2.55Z"/><path d="M153.11,161.57v-3.39h-.07c-1.22,2.36-3.67,3.82-6.33,3.78-3.75,0-5.9-2.26-5.9-5.41s2.12-4.63,4.88-5.2c2.45-.4,4.93-.62,7.42-.66v-2.48c0-2-1.56-4.17-5.05-4.17-2.94,0-4.46,1.49-5,3.36l-1.87-.71c.89-2.76,3.36-4.49,7-4.49,4.48,0,7.06,2.44,7.06,6.19v13.18h-2.14Zm0-7.53v-1.66c-2.07,.04-4.14,.22-6.19,.56-2.58,.46-4,1.34-4,3.47s1.59,3.67,4.06,3.67c3.33-.04,6.02-2.71,6.1-6.04h.03Z"/><path d="M175.76,142.59l-7.63,19h-2.23l-7.67-19h2.3l6.5,16.47h.07l6.43-16.47h2.23Z"/><path d="M193.93,158.92c-1.75,2.02-4.33,3.13-7,3-5.72,0-9.19-4.17-9.19-10,0-5.48,3.22-9.72,8.56-9.72s8.23,4,8.23,9.19c0,.52-.03,1.04-.1,1.56h-14.5c.35,4.13,2.93,7.17,7.11,7.17,2.09,.08,4.09-.87,5.35-2.54l1.54,1.34Zm-1.45-7.81c-.14-4-2.33-7.07-6.15-7.07s-6.15,2.93-6.4,7.07h12.55Z"/><path d="M199.29,142.59h2v3.53h0c1.1-2.47,2.94-3.92,5.34-3.92,.63,0,1.25,.1,1.84,.32v2.09c-.64-.24-1.32-.36-2-.36-3.15,0-5.2,2.86-5.2,6.12v11.2h-1.98v-18.98Z"/><path class="cls-1" d="M120.67,126.86H50.39c-1.34-.04-2.41-1.14-2.42-2.48v-55.31h-15.58c-2.81,0-3.72-2.39-1.64-4.26L102.19,.55c.96-.74,2.31-.74,3.27,0l18.56,16.66v-6.58c.03-1.34,1.1-2.41,2.44-2.45h16.25c1.34,.04,2.41,1.11,2.44,2.45v25.61l32.16,28.77c2.09,1.87,1.18,4.26-1.63,4.26h-14.2v55.55c-.04,1.34-1.11,2.41-2.45,2.44h-20.11c-8.76,0-6.94-24.55-6.82-26,1.76-21.23-2-36.85-23.15-49.7-8.22-5-14.79-7.14-23.09-9.27,3.36,13.23,2.41,27.3,4.53,40.76,2.77,17.6,14.45,26.44,28.14,26.16,.55-18.08-6.16-34.66-20.36-49.81-.92-.99-.87-2.53,.11-3.45,.99-.92,2.53-.87,3.46,.11h0c15.56,16.6,22.83,35.18,21.57,55.62-.18,1.16-1.08,2.07-2.23,2.28-17.3,1.52-32.23-9.27-35.52-30.15-2.28-14.43-.87-30.14-5.57-44.1-.75-2.23,.62-3.72,2.9-3.16,79.78,19.61,44,72.7,56.93,85.83h16.77v-55.55c.03-1.34,1.1-2.41,2.44-2.45h10.26l-28.21-25.23c-.38-.55-.66-1.17-.82-1.82V13.07h-11.36v9.61c0,2.64-2.11,3.58-4.07,1.82L103.83,5.65,38.74,64.18h11.65c1.34,.04,2.41,1.11,2.45,2.45v55.35H120.65c1.35,0,2.44,1.09,2.44,2.44s-1.09,2.44-2.44,2.44h0"/></g></g></svg>