<svg id="Layer_1" data-name="Layer 1" xmlns="http://www.w3.org/2000/svg" viewBox="0 0 211.78 171.66"><defs><style>.cls-1{fill:#fff;}.cls-2{fill:#8ac43f;}</style></defs><path class="cls-1" d="M19.71,160.22c-1.7,2-4.1,3.36-8,3.36-6.71,0-10.1-4-10.1-9.83s3.36-9.93,9.61-9.93,9.19,4.07,9.19,9.33a15,15,0,0,1-.14,2.23H7.44c.32,2.44,1.52,4,4.42,4a5.11,5.11,0,0,0,4.28-2.19Zm-5-8.34c-.21-2.37-1.13-3.85-3.54-3.85s-3.46,1.48-3.71,3.85Z"/><path class="cls-1" d="M23.56,144.21H29l.11,2.61h.07a6.48,6.48,0,0,1,5.69-3c4,0,6.6,2.58,6.6,6.47v12.9H35.61V150.93a2.58,2.58,0,0,0-2.76-2.73,3.23,3.23,0,0,0-3.43,3.43v11.56H23.56Z"/><path class="cls-1" d="M62.85,160.22c-1.7,2-4.1,3.36-8,3.36-6.72,0-10.11-4-10.11-9.83s3.36-9.93,9.61-9.93,9.19,4.07,9.19,9.33a13.72,13.72,0,0,1-.14,2.23H50.59c.32,2.44,1.52,4,4.41,4a5.11,5.11,0,0,0,4.28-2.19Zm-5-8.34c-.21-2.37-1.13-3.85-3.53-3.85s-3.47,1.48-3.71,3.85Z"/><path class="cls-1" d="M66.7,144.21h5.44l.14,3h.07c1.07-2.05,2.62-3.35,4.74-3.35a5.84,5.84,0,0,1,1.8.31v4.88a12.43,12.43,0,0,0-1.8-.14c-2.93,0-4.52,1.77-4.52,3.86v10.42H66.7Z"/><path class="cls-1" d="M99.74,160.68c0,6.33-4.34,9.37-10.92,9.37a16,16,0,0,1-7.21-1.59l1.59-4a11.35,11.35,0,0,0,5.48,1.45c3,0,5.19-1.34,5.19-5V159.8H93.8a6.75,6.75,0,0,1-5.65,2.79c-4.74,0-7.85-3.85-7.85-9.19s3.18-9.58,8.06-9.58a7.16,7.16,0,0,1,6,3.15h.07l.14-2.76h5.16Zm-5.65-7.46c0-3-1.42-5.16-3.93-5.16s-3.92,2.3-3.92,5.23,1.27,5.17,3.89,5.17S94.09,156.26,94.09,153.22Z"/><path class="cls-1" d="M122.39,144.21l-7.49,20.11c-1.38,3.71-3.21,5.73-7.28,5.73a10.87,10.87,0,0,1-2.83-.39v-4.07a5.37,5.37,0,0,0,1.66.25,2.66,2.66,0,0,0,2.94-2.09l-7.32-19.54h6.12l4.13,13h.07l4.14-13Z"/><path class="cls-1" d="M123.76,161l1.35-1.56a8.74,8.74,0,0,0,6.18,2.3c3.57,0,5.34-1.52,5.34-3.61,0-2.26-2.19-2.78-5.48-3.53-3.53-.78-6.71-1.7-6.71-5.3,0-3.22,2.61-5.48,7.1-5.48a9.38,9.38,0,0,1,7,2.69L137.09,148a7.62,7.62,0,0,0-5.58-2.37c-3.26,0-4.95,1.52-4.95,3.5,0,2.26,2.15,2.72,5.44,3.46,3.6.81,6.75,1.77,6.75,5.38,0,3.28-2.72,5.58-7.42,5.58A11.07,11.07,0,0,1,123.76,161Z"/><path class="cls-1" d="M154.72,163.19l0-3.39h-.07a7,7,0,0,1-6.33,3.78c-3.75,0-5.9-2.26-5.9-5.41s2.12-4.63,4.88-5.2a52.07,52.07,0,0,1,7.42-.66v-2.48c0-2-1.56-4.17-5.05-4.17-2.94,0-4.46,1.49-5,3.36l-1.87-.71c.89-2.76,3.36-4.49,7-4.49,4.48,0,7.06,2.44,7.06,6.19v13.18Zm0-7.53V154a43.16,43.16,0,0,0-6.19.56c-2.58.46-4,1.34-4,3.47s1.59,3.67,4.06,3.67A6.18,6.18,0,0,0,154.69,155.66Z"/><path class="cls-1" d="M177.37,144.21l-7.63,19h-2.23l-7.67-19h2.3l6.5,16.47h.07l6.43-16.47Z"/><path class="cls-1" d="M195.54,160.54a8.69,8.69,0,0,1-7,3c-5.72,0-9.19-4.17-9.19-10,0-5.48,3.22-9.72,8.56-9.72,5.16,0,8.23,4,8.23,9.19a12.11,12.11,0,0,1-.1,1.56H181.54c.35,4.13,2.93,7.17,7.11,7.17A6.41,6.41,0,0,0,194,159.2Zm-1.45-7.81c-.14-4-2.33-7.07-6.15-7.07s-6.15,2.93-6.4,7.07Z"/><path class="cls-1" d="M200.9,144.21h2l0,3.53h0c1.1-2.47,2.94-3.92,5.34-3.92a5.07,5.07,0,0,1,1.84.32v2.09a5.63,5.63,0,0,0-2-.36c-3.15,0-5.2,2.86-5.2,6.12v11.2H200.9Z"/><path class="cls-2" d="M122.28,128.48H52A2.5,2.5,0,0,1,49.58,126V70.69H34c-2.81,0-3.72-2.39-1.64-4.26L103.8,2.17a2.69,2.69,0,0,1,3.27,0l18.56,16.66V12.25a2.51,2.51,0,0,1,2.44-2.45h16.25a2.51,2.51,0,0,1,2.44,2.45V37.86l32.16,28.77c2.09,1.87,1.18,4.26-1.63,4.26h-14.2v55.55a2.51,2.51,0,0,1-2.45,2.44H140.53c-8.76,0-6.94-24.55-6.82-26,1.76-21.23-2-36.85-23.15-49.7-8.22-5-14.79-7.14-23.09-9.27,3.36,13.23,2.41,27.3,4.53,40.76,2.77,17.6,14.45,26.44,28.14,26.16.55-18.08-6.16-34.66-20.36-49.81a2.44,2.44,0,1,1,3.57-3.34c15.56,16.6,22.83,35.18,21.57,55.62a2.75,2.75,0,0,1-2.23,2.28c-17.3,1.52-32.23-9.27-35.52-30.15C84.89,71,86.3,55.29,81.6,41.33c-.75-2.23.62-3.72,2.9-3.16,79.78,19.61,44,72.7,56.93,85.83H158.2V68.45A2.51,2.51,0,0,1,160.64,66H170.9L142.69,40.77a5.54,5.54,0,0,1-.82-1.82V14.69H130.51V24.3c0,2.64-2.11,3.58-4.07,1.82l-21-18.85L40.35,65.8H52a2.52,2.52,0,0,1,2.45,2.45V123.6h67.81a2.44,2.44,0,1,1,0,4.88"/></svg>