<?xml version="1.0" encoding="UTF-8"?><svg id="Layer_1" xmlns="http://www.w3.org/2000/svg" viewBox="0 0 1906.33 505.22"><path d="M157.57,485.74c0,4.16-3.47,7.62-7.62,7.62H63.43c-4.16,0-7.62-3.47-7.62-7.62l-.08-275.82H9.29c-4.16,0-7.62-3.47-7.62-7.62v-58.21c0-4.17,3.47-7.63,7.62-7.63h46.44v-23.56C55.73,31.82,112.55,1.33,172.15,1.33c20.79,0,45.74,3.47,63.06,5.54,4.16.7,7.62,4.86,7.62,9.01v57.51c0,3.47-3.47,6.24-7.62,5.55-10.4-2.08-22.87-3.47-38.8-3.47-22.87,0-38.81,11.09-38.81,47.13v13.85h77.62c4.16,0,7.62,3.47,7.62,7.63v58.21c0,4.16-3.47,7.62-7.62,7.62h-77.62l-.03,275.82Z" fill="#fff" stroke-width="0"/><path d="M399.46,501.68c-75.53,0-124.05-51.28-124.05-138.6l.09-218.99c0-4.17,3.47-7.63,7.62-7.63h85.77c4.16,0,7.62,3.47,7.62,7.63l.09,217.6c0,38.81,23.56,63.76,54.75,63.76,37.42,0,77.62-34.66,77.62-110.88v-170.48c0-4.17,3.46-7.63,7.62-7.63h88.01c4.16,0,7.62,3.47,7.62,7.63v341.65c0,4.16-3.47,7.62-7.63,7.62h-83.12c-4.17,0-6.93-3.5-6.93-7.62l-.03-37.42c-24.25,31.18-65.15,53.36-115.04,53.36Z" fill="#fff" stroke-width="0"/><path d="M1037.28,501.68c-75.53,0-124.05-51.28-124.05-138.6l.09-218.99c0-4.17,3.47-7.63,7.62-7.63h85.77c4.16,0,7.62,3.47,7.62,7.63l.09,217.6c0,38.81,23.56,63.76,54.75,63.76,37.42,0,77.62-34.66,77.62-110.88v-170.48c0-4.17,3.46-7.63,7.62-7.63h88.01c4.16,0,7.62,3.47,7.62,7.63v341.65c0,4.16-3.47,7.62-7.63,7.62h-83.12c-4.17,0-6.93-3.5-6.93-7.62l-.03-37.42c-24.25,31.18-65.15,53.36-115.04,53.36Z" fill="#fff" stroke-width="0"/><path d="M879.71,478.81c0,4.16-3.47,9-6.93,10.4-20.09,6.24-42.27,11.09-63.75,11.09-60.29,0-117.81-30.49-117.81-111.57l.69-178.8h-38.8c-4.16,0-7.62-3.47-7.62-7.62v-58.21c0-4.17,3.47-7.63,7.62-7.63h38.11l-.69-81.77c0-4.16,3.47-7.62,7.62-7.62h90.1c4.16,0,7.62,3.47,7.62,7.62l-.7,81.77h77.62c4.17,0,7.62,3.47,7.62,7.63v58.21c0,4.16-3.46,7.62-7.62,7.62h-78.31l.69,176.03c0,30.49,15.25,40.2,38.12,40.2,15.94,0,28.41-2.77,38.8-5.55,4.16-.69,7.62,2.08,7.62,5.55v52.67Z" fill="#fff" stroke-width="0"/><path d="M1293.46,493.37c-4.17,0-7.63-3.47-7.63-7.62V144.09c0-4.17,3.47-7.63,7.63-7.63h86.5c4.16,0,7.62,3.47,6.92,7.63l.14,52.67c27.72-42.28,75.53-63.06,127.51-63.06,4.86,0,9.71.69,14.55,1.38,4.16.69,7.62,4.85,7.62,9.01v61.67c0,4.16-3.47,6.93-7.62,6.93-3.47-.69-8.31-.69-11.78-.69-73.46,0-127.51,40.89-127.51,122.66l.3,151.08c0,4.16-3.47,7.62-7.62,7.62h-89Z" fill="#fff" stroke-width="0"/><path d="M1883.91,372.78c4.16,0,7.62,3.47,6.92,7.62-9.7,65.15-72.07,121.97-171.17,121.97-119.2,0-183.65-78.31-183.65-186.42,0-113.66,67.92-188.5,181.57-188.5s181.58,76.93,184.34,200.97c0,4.16-3.47,7.62-7.62,7.62h-253.64c4.16,67.23,30.49,97.03,80.38,97.03,34.66,0,59.61-15.25,69.3-52.68.69-4.85,4.86-7.62,9.01-7.62h84.55ZM1718.28,196.07c-41.59,0-66.53,24.94-74.85,74.15h146.23c-4.16-38.12-25.64-74.15-71.38-74.15Z" fill="#fff" stroke-width="0"/></svg>