<svg id="Layer_1" data-name="Layer 1" xmlns="http://www.w3.org/2000/svg" xmlns:xlink="http://www.w3.org/1999/xlink" viewBox="0 0 101.36 33.16"><defs><style>.cls-1{fill:none;}.cls-2{fill:#85c443;}.cls-3{clip-path:url(#clip-path);}.cls-4{fill:url(#Adsz_degrade_2);}.cls-5{fill:#fff;}.cls-6{fill:#fad090;}.cls-7{fill:#f8c889;}.cls-8{fill:#f6be86;}.cls-9{fill:#fab781;}.cls-10{fill:#f8af80;}.cls-11{fill:#f9a67d;}.cls-12{fill:#f8a07b;}.cls-13{fill:#f79675;}.cls-14{fill:#e6434a;}.cls-15{fill:#e54450;}.cls-16{fill:#dc4553;}.cls-17{fill:#d64558;}.cls-18{fill:#cf465b;}.cls-19{fill:#cc4860;}.cls-20{fill:#c64866;}.cls-21{fill:#c04a69;}.cls-22{fill:#bb4a6c;}.cls-23{fill:#b64a71;}.cls-24{fill:#b24b76;}.cls-25{fill:#ac4d7b;}.cls-26{fill:#a74c7f;}.cls-27{fill:#a14f83;}.cls-28{fill:#9c4d87;}.cls-29{fill:#95508c;}.cls-30{fill:#925091;}.cls-31{fill:#8e5195;}.cls-32{fill:#89529b;}.cls-33{fill:#81519f;}.cls-34{fill:#e6edab;}.cls-35{fill:#deeaac;}.cls-36{fill:#d6e6ab;}.cls-37{fill:#cee4b0;}.cls-38{fill:#c6e2b1;}.cls-39{fill:#c2e0b2;}.cls-40{fill:#bcdeb2;}.cls-41{fill:#b4dbb2;}.cls-42{fill:#abd4b2;}.cls-43{fill:#a2d1b3;}.cls-44{fill:#9dcfb1;}.cls-45{fill:#94cfb5;}.cls-46{fill:#8ccbb4;}.cls-47{fill:#86cbb7;}.cls-48{fill:#7bc8b6;}.cls-49{fill:#75c6b8;}.cls-50{fill:#6cc4b9;}.cls-51{fill:#66c2b9;}.cls-52{fill:#59c0bb;}.cls-53{fill:#4fbdb9;}</style><clipPath id="clip-path"><path class="cls-1" d="M4.92,7.34c-.38.09-.69.42-.69,1.08V24.73c0,.55.21.95.59,1.05H5l9.17-9.24-9.2-9.2Z"/></clipPath><linearGradient id="Adsz_degrade_2" x1="-682.47" y1="1031.11" x2="-681.19" y2="1031.11" gradientTransform="matrix(0, -14.4, -14.4, 0, 14857.56, -9802.05)" gradientUnits="userSpaceOnUse"><stop offset="0" stop-color="#93d4d0"/><stop offset="0.39" stop-color="#67b1b9"/><stop offset="1" stop-color="#1c7591"/></linearGradient></defs><rect class="cls-2" width="101.36" height="33.16" rx="4.48"/><g class="cls-3"><rect class="cls-4" x="4.23" y="7.34" width="9.89" height="18.44"/></g><path class="cls-5" d="M34.55,16s-1.13-1.15-3.95-1.15A5.23,5.23,0,0,0,25.17,20,4.91,4.91,0,0,0,30.43,25a15.49,15.49,0,0,0,4.12-.72V22.54a1.23,1.23,0,0,1,.56-1.12h-3L31.05,22a12.16,12.16,0,0,1,2.08-.13V24a3.68,3.68,0,0,1-1.68.38,4.93,4.93,0,0,1-4.83-4.91,3.78,3.78,0,0,1,3.83-4.07,3.69,3.69,0,0,1,2.77,1.31l-.32.53.52-.14Z"/><path class="cls-5" d="M39.47,24.37c-1.66,0-2.44-2.56-2.44-3.86a2.05,2.05,0,0,1,1.89-2.22c1.45,0,2.44,1.7,2.44,3.7,0,.68-.23,2.38-1.89,2.38m-.15-6.53a3.53,3.53,0,0,0-3.65,3.59,3.42,3.42,0,0,0,3.43,3.39,3.48,3.48,0,0,0,3.73-3.52,3.35,3.35,0,0,0-3.51-3.46"/><path class="cls-5" d="M47.3,24.37c-1.66,0-2.44-2.56-2.44-3.86a2.06,2.06,0,0,1,1.89-2.22c1.45,0,2.45,1.71,2.45,3.7,0,.68-.24,2.38-1.9,2.38m-.15-6.53a3.54,3.54,0,0,0-3.65,3.6,3.42,3.42,0,0,0,3.43,3.38,3.48,3.48,0,0,0,3.73-3.52,3.35,3.35,0,0,0-3.51-3.46"/><path class="cls-5" d="M54.49,28.54c-.48,0-2.51-.19-2.51-1.8S54.32,25,54.59,25a3.49,3.49,0,0,1,.51,0c.72.63,1.52.95,1.52,1.95,0,1.44-1.66,1.57-2.13,1.57m.07-5.87c-1,0-1.85-1.54-1.85-2.47s.46-1.6,1.29-1.6,1.8.94,1.8,2.66c0,.6-.2,1.41-1.24,1.41m1.88,1.65c-.72-.49-.86-.73-.86-.94s0-.39.52-.88a2.45,2.45,0,0,0,1-1.91,2.4,2.4,0,0,0-.91-2l.87,0,.87-.52H54.5a3,3,0,0,0-3.07,2.8A2.39,2.39,0,0,0,54,23.12a1,1,0,0,0,.3,0,1.35,1.35,0,0,0-.11.53,1.54,1.54,0,0,0,.42.92s-3.94,0-3.94,2.54c0,1.52,1.72,2.1,3.13,2.1s3.84-.76,3.84-2.71a2.56,2.56,0,0,0-1.21-2.14"/><path class="cls-5" d="M57.73,14.9l1-.53h2.14c-.5.26-.68.48-.7,1.72s-.08,7.55-.08,7.55c0,.47.42.6.79.6a1.34,1.34,0,0,1,.49.07l-.46.31H58.29a1.17,1.17,0,0,0,.38-.66l.13-9.06Z"/><path class="cls-5" d="M67.18,19.66a2.45,2.45,0,0,0-2.55-1.85,3.27,3.27,0,0,0-3.32,3.42,3.37,3.37,0,0,0,3.51,3.59,3,3,0,0,0,2.54-1.3,4,4,0,0,1-1.77.49,3.45,3.45,0,0,1-3-3.62,1.85,1.85,0,0,1,1.65-2,1.25,1.25,0,0,1,1.39,1.35,26.66,26.66,0,0,1-3,1.38L63.78,21Z"/><path class="cls-5" d="M26.69,8.3,26.24,7c-.1-.3-.17-.57-.24-.84h0c-.07.28-.15.55-.23.83L25.31,8.3Zm-1.51.46-.47,1.45h-.62l1.56-4.59h.72l1.56,4.59H27.3l-.49-1.45Z"/><path class="cls-5" d="M28.68,6.91l.64,1.85c.11.3.2.58.27.85h0c.07-.27.17-.55.28-.85l.64-1.85h.63l-1.3,3.3h-.57L28,6.91Z"/><path class="cls-5" d="M33.43,8.52c-.65,0-1.4.11-1.4.75a.53.53,0,0,0,.57.57.83.83,0,0,0,.8-.55.63.63,0,0,0,0-.19Zm.58.9a4.85,4.85,0,0,0,.05.79h-.54l-.05-.42h0a1.22,1.22,0,0,1-1,.49.94.94,0,0,1-1-.94c0-.8.7-1.24,2-1.23V8a.68.68,0,0,0-.75-.76,1.73,1.73,0,0,0-.86.24l-.14-.39a2,2,0,0,1,1.09-.29c1,0,1.25.68,1.25,1.34Z"/><path class="cls-5" d="M35.58,10.21H35V6.91h.6ZM35.64,6a.35.35,0,0,1-.38.36A.35.35,0,0,1,34.9,6a.37.37,0,0,1,.38-.38.35.35,0,0,1,.36.38"/><rect class="cls-5" x="36.57" y="5.37" width="0.6" height="4.83"/><path class="cls-5" d="M39.91,8.52c-.65,0-1.39.11-1.39.75a.53.53,0,0,0,.56.57.83.83,0,0,0,.8-.55.63.63,0,0,0,0-.19Zm.58.9a4.79,4.79,0,0,0,.06.79H40l0-.42h0a1.2,1.2,0,0,1-1,.49.94.94,0,0,1-1-.94c0-.8.71-1.24,2-1.23V8a.68.68,0,0,0-.75-.76,1.73,1.73,0,0,0-.86.24l-.13-.39a2,2,0,0,1,1.08-.29c1,0,1.25.68,1.25,1.34Z"/><path class="cls-5" d="M42.05,8.89a1.33,1.33,0,0,0,0,.21.91.91,0,0,0,.9.7c.62,0,1-.51,1-1.26s-.34-1.23-1-1.23a1,1,0,0,0-.91.74.86.86,0,0,0,0,.24Zm-.59-3.52h.59V7.44h0a1.23,1.23,0,0,1,1.12-.6,1.47,1.47,0,0,1,1.39,1.68,1.56,1.56,0,0,1-1.48,1.76A1.15,1.15,0,0,1,42,9.66h0l0,.55h-.52c0-.23,0-.56,0-.85Z"/><rect class="cls-5" x="45.34" y="5.37" width="0.6" height="4.83"/><path class="cls-5" d="M49,8.24a.84.84,0,0,0-.83-1,1,1,0,0,0-.92,1Zm-1.75.43a1.05,1.05,0,0,0,1.13,1.14,2.1,2.1,0,0,0,.91-.17l.1.43a2.55,2.55,0,0,1-1.09.21A1.54,1.54,0,0,1,46.7,8.61a1.6,1.6,0,0,1,1.55-1.77,1.39,1.39,0,0,1,1.36,1.55,1.8,1.8,0,0,1,0,.28Z"/><path class="cls-5" d="M52.17,8.57c0,.72.41,1.26,1,1.26s1-.53,1-1.28c0-.56-.28-1.26-1-1.26s-1,.65-1,1.28m2.61,0a1.61,1.61,0,0,1-1.64,1.75,1.56,1.56,0,0,1-1.58-1.69A1.61,1.61,0,0,1,53.2,6.84a1.55,1.55,0,0,1,1.58,1.69"/><path class="cls-5" d="M55.54,7.8c0-.34,0-.62,0-.89H56l0,.55h0a1.19,1.19,0,0,1,1.09-.62c.46,0,1.16.27,1.16,1.4v2h-.6V8.31c0-.53-.19-1-.76-1a.85.85,0,0,0-.8.62.75.75,0,0,0,0,.28v2h-.6Z"/><path class="cls-5" d="M61.48,6.12v.79h.86v.46h-.86V9.14c0,.41.12.64.45.64a1,1,0,0,0,.35,0l0,.45a1.41,1.41,0,0,1-.53.09.81.81,0,0,1-.65-.26,1.21,1.21,0,0,1-.23-.86V7.37h-.51V6.91h.51v-.6Z"/><path class="cls-5" d="M63,5.37h.59V7.43h0A1,1,0,0,1,64.06,7a1.14,1.14,0,0,1,.61-.17c.44,0,1.15.27,1.15,1.41v2h-.6V8.31c0-.53-.2-1-.76-1a.86.86,0,0,0-.8.6.63.63,0,0,0,0,.29v2H63Z"/><path class="cls-5" d="M68.89,8.24a.86.86,0,0,0-.83-1,1,1,0,0,0-.92,1Zm-1.76.43a1.05,1.05,0,0,0,1.13,1.14,2.07,2.07,0,0,0,.91-.17l.1.43a2.55,2.55,0,0,1-1.09.21,1.53,1.53,0,0,1-1.62-1.67A1.59,1.59,0,0,1,68.1,6.84a1.39,1.39,0,0,1,1.36,1.55,1.8,1.8,0,0,1,0,.28Z"/><path class="cls-5" d="M73.92,8.3,73.47,7c-.1-.3-.17-.57-.24-.84h0c-.07.28-.14.55-.23.83L72.54,8.3Zm-1.51.46-.47,1.45h-.61l1.55-4.59h.72l1.57,4.59h-.64L74,8.76Z"/><path class="cls-5" d="M75.8,7.8c0-.34,0-.62,0-.89h.53l0,.55h0a1.2,1.2,0,0,1,1.09-.62c.46,0,1.16.27,1.16,1.4v2H78V8.31c0-.53-.2-1-.77-1a.85.85,0,0,0-.8.62.75.75,0,0,0,0,.28v2h-.6Z"/><path class="cls-5" d="M81.83,8.25a1.13,1.13,0,0,0,0-.25.89.89,0,0,0-.87-.69c-.62,0-1,.54-1,1.27s.32,1.22,1,1.22a.91.91,0,0,0,.88-.72,1,1,0,0,0,0-.26Zm.6-2.88v4c0,.29,0,.62,0,.85h-.53l0-.58h0a1.21,1.21,0,0,1-1.12.65,1.5,1.5,0,0,1-1.41-1.67,1.57,1.57,0,0,1,1.48-1.77,1.11,1.11,0,0,1,1,.5h0v-2Z"/><path class="cls-5" d="M83.42,7.94c0-.39,0-.72,0-1h.53l0,.65h0a1,1,0,0,1,.91-.72.47.47,0,0,1,.17,0v.56l-.2,0a.84.84,0,0,0-.81.77,2.19,2.19,0,0,0,0,.28v1.76h-.59Z"/><path class="cls-5" d="M86,8.57c0,.72.41,1.26,1,1.26s1-.53,1-1.28c0-.56-.28-1.26-1-1.26s-1,.65-1,1.28m2.61,0a1.61,1.61,0,0,1-1.64,1.75,1.56,1.56,0,0,1-1.58-1.69A1.61,1.61,0,0,1,87,6.84a1.55,1.55,0,0,1,1.58,1.69"/><path class="cls-5" d="M89.92,10.21h-.6V6.91h.6ZM90,6a.36.36,0,0,1-.39.36A.35.35,0,0,1,89.24,6a.37.37,0,0,1,.38-.38A.36.36,0,0,1,90,6"/><path class="cls-5" d="M93.16,8.25a1.13,1.13,0,0,0,0-.25.87.87,0,0,0-.86-.69c-.62,0-1,.54-1,1.27s.33,1.22,1,1.22a.9.9,0,0,0,.88-.72,1,1,0,0,0,0-.26Zm.6-2.88v4c0,.29,0,.62,0,.85h-.54l0-.58h0a1.23,1.23,0,0,1-1.13.65,1.5,1.5,0,0,1-1.41-1.67,1.58,1.58,0,0,1,1.48-1.77,1.12,1.12,0,0,1,1,.5h0v-2Z"/><rect class="cls-5" x="78.48" y="14.65" width="0.77" height="9.41"/><path class="cls-5" d="M85.24,21.59c0,1.37-1.65,2-2.49,2s-1.52-.4-1.52-1.31,1.09-1.52,2.41-1.52h1.6Zm.84,1.35V19.16S86,17.1,83.39,17.1,80.69,19,80.69,19h.83s0-1.31,1.85-1.31,1.87,1.52,1.87,1.52v.91H83.7c-2.21,0-3.29.85-3.29,2s.66,2,2.27,2a3.38,3.38,0,0,0,2.52-1.14,2.63,2.63,0,0,0,.25,1h.89a3.21,3.21,0,0,1-.26-1.12"/><path class="cls-5" d="M86.87,17.27h.82l2.52,5.78,2.45-5.78h.92l-3.51,8.26a2.15,2.15,0,0,1-1.88,1.37,1.85,1.85,0,0,1-.79-.23l.22-.61a1.29,1.29,0,0,0,.58.11c.39,0,1.06-.89,1.06-.89l.49-1.17Z"/><path class="cls-5" d="M74.3,23.59A3.14,3.14,0,0,1,72,22.11V19.17a3.57,3.57,0,0,1,2.42-1.41c1.24,0,2.28,1.26,2.28,2.9s-1,2.93-2.38,2.93m.12-6.49A3.48,3.48,0,0,0,72,18.32V17.27h-.77v9.39H72V22.94a2.9,2.9,0,0,0,2.46,1.28c1.71,0,3-1.1,3-3.61s-1.59-3.51-3-3.51"/><path class="cls-6" d="M21.62,16.38l-5,2.55.47.47.35-.17,3.67-2c.3-.16.61-.49.52-.83"/><path class="cls-7" d="M21.19,15.88l-5.06,2.57.48.47,5-2.55h0l-.11-.21a1.11,1.11,0,0,0-.32-.27"/><polygon class="cls-8" points="20.51 15.5 15.66 17.97 16.13 18.45 21.18 15.87 21.1 15.82 20.51 15.5"/><polygon class="cls-9" points="19.83 15.13 15.18 17.5 15.65 17.97 20.5 15.5 19.83 15.13"/><polygon class="cls-10" points="19.14 14.76 14.7 17.02 15.18 17.49 19.82 15.13 19.14 14.76"/><polygon class="cls-11" points="18.46 14.38 14.23 16.54 14.7 17.02 19.14 14.75 18.46 14.38"/><polygon class="cls-12" points="17.78 14.01 15.63 15.1 14.22 16.53 14.22 16.54 18.45 14.38 17.78 14.01"/><polygon class="cls-13" points="17.09 13.64 17.08 13.65 15.65 15.09 17.77 14.01 17.09 13.64"/><polygon class="cls-14" points="13.76 17 16.62 19.67 16.98 19.47 17.06 19.38 14.22 16.53 13.76 17"/><polygon class="cls-15" points="13.3 17.46 16.02 20 16.63 19.66 13.76 16.99 13.3 17.46"/><polygon class="cls-16" points="12.84 17.92 15.41 20.33 16.03 19.99 13.3 17.45 12.84 17.92"/><polygon class="cls-17" points="12.38 18.39 14.81 20.66 15.42 20.32 12.84 17.92 12.38 18.39"/><polygon class="cls-18" points="11.92 18.85 14.21 20.99 14.82 20.65 12.38 18.38 11.92 18.85"/><polygon class="cls-19" points="11.46 19.31 13.61 21.32 14.22 20.98 11.92 18.84 11.46 19.31"/><polygon class="cls-20" points="11 19.77 13.01 21.65 13.62 21.31 11.47 19.3 11 19.77"/><polygon class="cls-21" points="10.54 20.24 12.4 21.98 13.02 21.64 11.01 19.77 10.54 20.24"/><polygon class="cls-22" points="10.08 20.7 11.8 22.3 12.41 21.97 10.55 20.23 10.08 20.7"/><polygon class="cls-23" points="9.62 21.16 11.2 22.63 11.81 22.3 10.09 20.7 9.62 21.16"/><polygon class="cls-24" points="9.16 21.63 10.6 22.96 11.21 22.63 9.63 21.16 9.16 21.63"/><polygon class="cls-25" points="8.7 22.09 10 23.29 10.61 22.96 9.17 21.62 8.7 22.09"/><polygon class="cls-26" points="8.24 22.55 9.39 23.62 10.01 23.29 8.71 22.08 8.24 22.55"/><polygon class="cls-27" points="7.78 23.01 8.79 23.95 9.4 23.62 8.25 22.55 7.78 23.01"/><polygon class="cls-28" points="7.33 23.48 8.19 24.28 8.8 23.95 7.79 23.01 7.33 23.48"/><polygon class="cls-29" points="6.87 23.94 7.59 24.61 8.2 24.28 7.33 23.47 6.87 23.94"/><polygon class="cls-30" points="6.41 24.4 6.99 24.94 7.59 24.61 6.87 23.93 6.41 24.4"/><polygon class="cls-31" points="5.95 24.86 6.38 25.27 6.99 24.94 6.41 24.4 5.95 24.86"/><polygon class="cls-32" points="5.49 25.33 5.78 25.6 6.39 25.27 5.95 24.86 5.49 25.33"/><path class="cls-33" d="M5.79,25.6l-.3-.28-.36.36-.1.11a1.24,1.24,0,0,0,.74-.18Z"/><polygon class="cls-34" points="16.58 13.36 13.77 16.08 14.22 16.53 17.09 13.64 17.09 13.63 16.58 13.36"/><polygon class="cls-35" points="15.98 13.03 13.3 15.62 13.78 16.1 16.6 13.37 15.98 13.03"/><polygon class="cls-36" points="15.39 12.71 12.85 15.16 13.32 15.63 16 13.04 15.39 12.71"/><polygon class="cls-37" points="14.79 12.38 12.38 14.7 12.86 15.18 15.41 12.72 14.79 12.38"/><polygon class="cls-38" points="14.19 12.05 11.93 14.24 12.4 14.71 14.81 12.39 14.19 12.05"/><polygon class="cls-39" points="13.59 11.73 11.46 13.78 11.94 14.26 14.21 12.07 13.59 11.73"/><polygon class="cls-40" points="12.99 11.4 11.01 13.32 11.48 13.79 13.61 11.74 12.99 11.4"/><polygon class="cls-41" points="12.39 11.07 10.54 12.86 11.02 13.34 13.01 11.41 12.39 11.07"/><polygon class="cls-42" points="11.79 10.75 10.09 12.4 10.56 12.87 12.41 11.09 11.79 10.75"/><polygon class="cls-43" points="11.2 10.42 9.63 11.94 10.1 12.41 11.81 10.76 11.2 10.42"/><polygon class="cls-44" points="10.6 10.1 9.16 11.48 9.64 11.95 11.22 10.43 10.6 10.1"/><polygon class="cls-45" points="10 9.77 8.71 11.02 9.18 11.5 10.62 10.11 10 9.77"/><polygon class="cls-46" points="9.4 9.44 8.25 10.56 8.72 11.04 10.02 9.78 9.4 9.44"/><polygon class="cls-47" points="8.8 9.12 7.79 10.1 8.26 10.58 9.42 9.45 8.8 9.12"/><polygon class="cls-48" points="8.21 8.79 7.33 9.64 7.8 10.11 8.82 9.13 8.21 8.79"/><polygon class="cls-49" points="7.61 8.46 6.87 9.18 7.34 9.65 8.22 8.8 7.61 8.46"/><polygon class="cls-50" points="7.01 8.14 6.41 8.72 6.88 9.19 7.63 8.47 7.01 8.14"/><polygon class="cls-51" points="6.41 7.81 5.95 8.26 6.42 8.73 7.03 8.15 6.41 7.81"/><polygon class="cls-52" points="5.81 7.48 5.49 7.79 5.89 8.2 5.96 8.27 6.43 7.82 5.81 7.48"/><path class="cls-53" d="M5.05,7.33l.46.48.32-.32-.06,0a1,1,0,0,0-.72-.13"/></svg>