<svg id="Layer_1" data-name="Layer 1" xmlns="http://www.w3.org/2000/svg" viewBox="0 0 142.81 102.84"><defs><style>.cls-1{fill:#FFFFFF;}</style></defs><path class="cls-1" d="M0,39V.55H8.8V39Z"/><path class="cls-1" d="M33,0C45.35,0,52,8.5,52,19.75S45.4,39.5,33,39.5,14,31,14,19.75,20.55,0,33,0Zm0,32.75c6.85,0,10-5.85,10-13s-3.3-13-10.1-13S22.9,12.6,22.9,19.75,26.2,32.75,33,32.75Z"/><path class="cls-1" d="M65.75,39V7.45H53.55V.55h33.2v6.9H74.55V39Z"/><path class="cls-1" d="M.21,50.24H10c9.92,0,15.11,6.88,15.11,15.35C25.08,74.43,19.49,81,10.33,81H.21Zm10,28.51c7.6,0,12.36-5.08,12.36-13.12,0-8.35-5.16-13.19-12.72-13.19H2.69V78.75Z"/><path class="cls-1" d="M47.41,78a9.81,9.81,0,0,1-7.88,3.44c-6.48,0-10.4-4.72-10.4-11.36,0-6.2,3.64-11,9.68-11,5.84,0,9.31,4.48,9.31,10.39A15.39,15.39,0,0,1,48,71.19H31.57c.4,4.68,3.32,8.12,8,8.12a7.25,7.25,0,0,0,6-2.88Zm-1.64-8.84c-.16-4.56-2.64-8-7-8s-7,3.32-7.24,8Z"/><path class="cls-1" d="M70.21,59.48,61.57,81H59.05L50.37,59.48H53l7.36,18.63h.08l7.28-18.63Z"/><path class="cls-1" d="M74,50.24h3v2.92H74ZM74.29,81V59.48h2.4V81Z"/><path class="cls-1" d="M82,70.23C82,64,85.73,59,92,59a9.16,9.16,0,0,1,8.44,5.07l-2,1.12A6.93,6.93,0,0,0,92,61.12c-4.84,0-7.56,4-7.56,9.07s2.76,9.12,7.6,9.12a7,7,0,0,0,6.44-4l2,1.12a9.17,9.17,0,0,1-8.48,5C85.73,81.39,82,76.47,82,70.23Z"/><path class="cls-1" d="M121.85,78A9.81,9.81,0,0,1,114,81.39c-6.48,0-10.4-4.72-10.4-11.36,0-6.2,3.64-11,9.68-11,5.84,0,9.32,4.48,9.32,10.39a13.46,13.46,0,0,1-.12,1.76H106c.4,4.68,3.32,8.12,8,8.12a7.25,7.25,0,0,0,6-2.88Zm-1.64-8.84c-.16-4.56-2.64-8-7-8s-7,3.32-7.24,8Z"/><path class="cls-1" d="M125.85,78.47l1.52-1.76a10,10,0,0,0,7,2.6c4,0,6-1.72,6-4.08,0-2.56-2.48-3.16-6.2-4-4-.88-7.6-1.92-7.6-6,0-3.63,3-6.19,8-6.19a10.64,10.64,0,0,1,7.88,3l-1.6,1.71a8.66,8.66,0,0,0-6.32-2.67c-3.68,0-5.6,1.71-5.6,3.95,0,2.56,2.44,3.08,6.16,3.92,4.08.92,7.64,2,7.64,6.08,0,3.72-3.08,6.32-8.4,6.32A12.5,12.5,0,0,1,125.85,78.47Z"/><path class="cls-1" d="M4.4,97.64H2v5H1.18V91.92H2v5H4.35l3.07-5h1L5.09,97.19l3.48,5.49h-1Z"/><path class="cls-1" d="M18,91.92v10.76h-.73l-6.4-9.34h0v9.34H10V91.92h.85l6.28,9.19h0V91.92Z"/><path class="cls-1" d="M26.88,102.68l-3.31-4.91h0l-3.31,4.91h-1L23,97.21l-3.59-5.29h1l3.15,4.68h0l3.16-4.68h.95L24.1,97.16l3.75,5.52Z"/><path class="cls-1" d="M28.3,98h3v.76h-3Z"/><path class="cls-1" d="M38.27,97.22a2.56,2.56,0,0,1,2.15,2.61,2.91,2.91,0,0,1-3.21,2.85H33.09V91.92h4.08a2.73,2.73,0,0,1,3,2.71,2.62,2.62,0,0,1-1.91,2.56ZM33.91,92.7v4.17h3a2.15,2.15,0,0,0,2.39-2.12,2.06,2.06,0,0,0-2.3-2Zm3.24,9.21a2.16,2.16,0,1,0,0-4.27h-3.2v4.27Z"/><path class="cls-1" d="M42.16,102.68V91.92H43v10.76Z"/><path class="cls-1" d="M51,102.68h-.78v-1.4h0a2.59,2.59,0,0,1-2.46,1.56,2.47,2.47,0,0,1-2.53-2.72v-5H46v4.76c0,1.19.6,2.19,1.91,2.19s2.31-1,2.31-2.71V95.16H51Z"/><path class="cls-1" d="M58.91,101.63a3.21,3.21,0,0,1-2.62,1.21c-2.16,0-3.46-1.66-3.46-4C52.83,96.69,54,95,56.05,95s3.1,1.57,3.1,3.64c0,.14,0,.46,0,.61H53.64c.13,1.64,1.1,2.85,2.67,2.85a2.37,2.37,0,0,0,2-1Zm-.55-3.09c0-1.6-.88-2.81-2.31-2.81s-2.32,1.17-2.41,2.81Z"/><path class="cls-1" d="M59.76,95.16h1.58V92.78h.8v2.38H64v.72H62.14v4.8c0,.87.36,1.39,1.35,1.39a3,3,0,0,0,.51,0v.69a3.22,3.22,0,0,1-.76.08c-1.3,0-1.9-.68-1.9-2v-4.9H59.76Z"/><path class="cls-1" d="M64.78,98.91c0-2.15,1.27-3.9,3.42-3.9s3.41,1.75,3.41,3.9-1.25,3.93-3.42,3.93S64.78,101.07,64.78,98.91Zm.8,0c0,1.72.93,3.18,2.61,3.18s2.62-1.44,2.62-3.18-.92-3.2-2.61-3.2S65.58,97.18,65.58,98.93Z"/><path class="cls-1" d="M72.86,98.91c0-2.15,1.26-3.9,3.42-3.9s3.4,1.75,3.4,3.9-1.25,3.93-3.42,3.93S72.86,101.07,72.86,98.91Zm.79,0c0,1.72.94,3.18,2.61,3.18s2.62-1.44,2.62-3.18-.92-3.2-2.6-3.2S73.65,97.18,73.65,98.93Z"/><path class="cls-1" d="M80.32,95.16H81.9V92.78h.8v2.38h1.86v.72H82.7v4.8c0,.87.36,1.39,1.36,1.39a2.92,2.92,0,0,0,.5,0v.69a3.22,3.22,0,0,1-.76.08c-1.3,0-1.9-.68-1.9-2v-4.9H80.32Z"/><path class="cls-1" d="M86,91.92h.8v4.63h0A2.61,2.61,0,0,1,89.24,95a2.47,2.47,0,0,1,2.54,2.73v4.94H91V97.92c0-1.19-.6-2.19-1.92-2.19s-2.3,1-2.3,2.71v4.24H86Z"/><path class="cls-1" d="M96.69,97.3c0-3.16,1.77-5.53,4.58-5.53A4.18,4.18,0,0,1,105,93.89l-.64.47a3.37,3.37,0,0,0-3-1.83c-2.42,0-3.76,2.15-3.76,4.75s1.33,4.8,3.8,4.8a3.43,3.43,0,0,0,3-1.79l.62.46a4.23,4.23,0,0,1-3.7,2.09C98.45,102.84,96.69,100.44,96.69,97.3Z"/><path class="cls-1" d="M106,98.91c0-2.15,1.27-3.9,3.42-3.9s3.41,1.75,3.41,3.9-1.25,3.93-3.42,3.93S106,101.07,106,98.91Zm.8,0c0,1.72.93,3.18,2.61,3.18s2.62-1.44,2.62-3.18-.92-3.2-2.61-3.2S106.81,97.18,106.81,98.93Z"/><path class="cls-1" d="M114.61,95.16h.77v1.4h0A2.61,2.61,0,0,1,117.88,95a2.47,2.47,0,0,1,2.54,2.73v4.94h-.8V97.92c0-1.19-.6-2.19-1.91-2.19s-2.31,1-2.31,2.71v4.24h-.79Z"/><path class="cls-1" d="M121.55,95.16h1.58V92.78h.8v2.38h1.86v.72h-1.86v4.8c0,.87.36,1.39,1.36,1.39a2.92,2.92,0,0,0,.5,0v.69a3.16,3.16,0,0,1-.76.08c-1.3,0-1.9-.68-1.9-2v-4.9h-1.58Z"/><path class="cls-1" d="M127.2,95.16H128l0,1.4h0A2.18,2.18,0,0,1,130,95a1.88,1.88,0,0,1,.69.12V96a2,2,0,0,0-2.7,2.28v4.44h-.8Z"/><path class="cls-1" d="M131.39,98.91c0-2.15,1.26-3.9,3.42-3.9s3.4,1.75,3.4,3.9-1.25,3.93-3.42,3.93S131.39,101.07,131.39,98.91Zm.8,0c0,1.72.93,3.18,2.6,3.18s2.63-1.44,2.63-3.18-.92-3.2-2.61-3.2S132.19,97.18,132.19,98.93Z"/><path class="cls-1" d="M140,102.68V91.92h.8v10.76Z"/></svg>