<?xml version="1.0" encoding="UTF-8"?><svg id="Layer_2" xmlns="http://www.w3.org/2000/svg" viewBox="0 0 121.12 52.7"><defs><style>.cls-1{fill:#fff;}</style></defs><g id="Layer_1-2"><g><g><path class="cls-1" d="M26.17,13.11c0-.7-.02-1.36-.06-1.97-.04-.61-.06-1.17-.06-1.68h2.29c0,.42,.01,.83,.03,1.25,.02,.42,.03,.84,.03,1.28h.06c.17-.37,.4-.73,.7-1.08,.3-.35,.66-.66,1.07-.94,.41-.27,.88-.49,1.39-.66,.52-.16,1.07-.25,1.67-.25,.79,0,1.44,.1,1.97,.31,.53,.21,.97,.46,1.32,.76,.35,.3,.62,.61,.82,.95,.2,.34,.36,.64,.48,.9,.54-.92,1.16-1.64,1.86-2.15,.7-.51,1.61-.77,2.73-.77,1.03,0,1.9,.15,2.6,.44,.7,.3,1.27,.72,1.71,1.28s.74,1.24,.93,2.04c.19,.8,.28,1.69,.28,2.68v9.33h-2.42V15.64c0-.53-.05-1.04-.16-1.54-.1-.5-.29-.95-.56-1.35-.27-.39-.63-.71-1.08-.95-.45-.24-1.03-.36-1.74-.36-.52,0-1,.11-1.46,.33-.45,.22-.85,.53-1.19,.92-.34,.39-.61,.87-.81,1.43-.2,.56-.29,1.18-.29,1.86v8.87h-2.42v-8.71c0-1.71-.22-2.92-.65-3.63-.43-.71-1.15-1.07-2.14-1.07-.79,0-1.46,.14-2.03,.43-.57,.28-1.03,.69-1.39,1.22-.36,.53-.63,1.15-.81,1.87-.18,.72-.26,1.52-.26,2.4v7.49h-2.42V13.11Z"/><path class="cls-1" d="M64.9,21.2c0,.7,.02,1.36,.06,1.97,.04,.61,.06,1.17,.06,1.68h-2.29c0-.42-.01-.83-.03-1.25-.02-.42-.03-.84-.03-1.28h-.06c-.17,.37-.4,.73-.7,1.08-.3,.35-.66,.66-1.07,.94-.41,.27-.88,.49-1.39,.66-.52,.16-1.07,.25-1.67,.25-.95,0-1.77-.15-2.46-.46-.69-.31-1.27-.73-1.72-1.28-.45-.55-.79-1.21-1.01-1.99-.22-.78-.33-1.63-.33-2.55V9.47h2.42v9.24c0,1.29,.27,2.31,.81,3.06,.54,.75,1.37,1.12,2.51,1.12,.79,0,1.46-.14,2.03-.43,.57-.28,1.03-.69,1.39-1.22,.36-.53,.63-1.15,.81-1.87,.18-.72,.26-1.52,.26-2.4v-7.49h2.42v11.73Z"/><path class="cls-1" d="M71.06,0h2.42V24.85h-2.42V0Z"/><path class="cls-1" d="M87.94,11.63h-4.28v7.69c0,.5,.01,.97,.03,1.4,.02,.43,.1,.8,.25,1.12,.14,.32,.36,.57,.65,.76,.29,.19,.7,.28,1.24,.28,.35,0,.71-.04,1.08-.13,.37-.09,.72-.22,1.05-.39l.09,2.33c-.41,.2-.87,.34-1.38,.43-.51,.09-.99,.13-1.44,.13-.87,0-1.56-.12-2.08-.36-.52-.24-.92-.58-1.21-1.02-.29-.44-.48-.98-.57-1.63-.09-.65-.14-1.36-.14-2.15V11.63h-3.16v-2.17h3.16V5.09h2.42v4.37h4.28v2.17Z"/><path class="cls-1" d="M93.65,3.45c0-.5,.17-.94,.51-1.31,.34-.37,.76-.56,1.26-.56s.91,.19,1.26,.56c.34,.37,.51,.81,.51,1.31,0,.55-.17,1-.5,1.35-.33,.35-.75,.53-1.27,.53s-.94-.18-1.27-.53c-.33-.35-.5-.8-.5-1.35Zm.56,6.01h2.42v15.38h-2.42V9.47Z"/></g><g><path class="cls-1" d="M24.82,23.82H14.3v28.34h-3.78V23.82H0v-3.51H24.82v3.51Z"/><path class="cls-1" d="M68.89,47.16c0,.96,.03,1.86,.09,2.7,.06,.84,.09,1.6,.09,2.29h-3.33c0-.57-.02-1.14-.04-1.71-.03-.57-.05-1.15-.05-1.75h-.09c-.24,.51-.58,1-1.01,1.48-.43,.48-.95,.91-1.55,1.28-.6,.38-1.27,.67-2.02,.9-.75,.22-1.56,.34-2.43,.34-1.38,0-2.57-.21-3.57-.63-1-.42-1.84-1-2.49-1.75-.66-.75-1.15-1.66-1.46-2.72-.31-1.06-.47-2.23-.47-3.49v-13h3.51v12.64c0,1.77,.39,3.16,1.17,4.18,.78,1.02,1.99,1.53,3.64,1.53,1.14,0,2.12-.19,2.94-.58,.82-.39,1.5-.94,2.02-1.66,.52-.72,.91-1.57,1.17-2.56,.25-.99,.38-2.08,.38-3.28v-10.26h3.51v16.06Z"/><path class="cls-1" d="M98.31,18.15h3.51v15.88h.09c.24-.42,.57-.83,.99-1.24,.42-.4,.92-.77,1.51-1.1,.58-.33,1.24-.6,1.96-.81,.72-.21,1.48-.31,2.29-.31,1.38,0,2.57,.21,3.57,.63,1,.42,1.84,1,2.49,1.75,.66,.75,1.15,1.66,1.46,2.72,.31,1.06,.47,2.23,.47,3.49v13h-3.51v-12.64c0-1.77-.39-3.16-1.17-4.18-.78-1.02-1.99-1.53-3.64-1.53-1.14,0-2.12,.2-2.94,.58-.82,.39-1.5,.94-2.02,1.66-.52,.72-.91,1.57-1.17,2.56-.26,.99-.38,2.08-.38,3.28v10.26h-3.51V18.15Z"/><g><path class="cls-1" d="M35.69,34.94c-3.35,0-6.07,2.72-6.07,6.07s2.72,6.07,6.07,6.07,6.07-2.72,6.07-6.07-2.72-6.07-6.07-6.07Zm0,11.23c-2.85,0-5.15-2.31-5.15-5.16s2.31-5.16,5.15-5.16,5.15,2.31,5.15,5.16-2.31,5.16-5.15,5.16Z"/><path class="cls-1" d="M35.69,32c-4.97,0-9.01,4.03-9.01,9.01s4.03,9.01,9.01,9.01,9.01-4.03,9.01-9.01-4.03-9.01-9.01-9.01Zm0,17.02c-4.42,0-8.01-3.59-8.01-8.01s3.58-8.01,8.01-8.01,8.01,3.59,8.01,8.01-3.58,8.01-8.01,8.01Z"/><path class="cls-1" d="M35.69,29.34c-6.44,0-11.66,5.22-11.66,11.67s5.22,11.67,11.66,11.67,11.66-5.22,11.66-11.67-5.22-11.67-11.66-11.67Zm0,22.44c-5.95,0-10.77-4.82-10.77-10.77s4.82-10.77,10.77-10.77,10.77,4.82,10.77,10.77-4.82,10.77-10.77,10.77Z"/></g><g><path class="cls-1" d="M94.54,45.28s-.02,.07-.03,.1c-2.03,4.96-7.15,7.84-12.46,7-6.27-.99-10.57-6.91-9.57-13.18,.99-6.28,6.9-10.57,13.18-9.58,3.77,.6,7,3.02,8.63,6.49,.1,.22,0,.49-.21,.59-.22,.11-.49,0-.59-.21-1.5-3.2-4.48-5.43-7.96-5.99-5.79-.92-11.24,3.05-12.15,8.84-.92,5.79,3.04,11.24,8.83,12.16,4.89,.78,9.61-1.88,11.49-6.46,.09-.23,.35-.34,.58-.25,.2,.08,.3,.28,.27,.48Z"/><path class="cls-1" d="M91.73,45.07s-.02,.1-.05,.14c-1.79,3.33-5.49,5.17-9.22,4.58-4.79-.76-8.09-5.24-7.41-10.03,.64-4.55,4.71-7.91,9.3-7.65,3.02,.17,5.69,1.83,7.19,4.41,.12,.21,.05,.49-.16,.61-.21,.12-.49,.05-.61-.16-1.34-2.31-3.72-3.79-6.42-3.96-4.07-.26-7.72,2.66-8.38,6.68-.72,4.38,2.27,8.52,6.64,9.21,3.34,.53,6.66-1.11,8.28-4.09,.11-.21,.36-.32,.58-.24,.2,.08,.31,.29,.28,.49Z"/><path class="cls-1" d="M88.33,44.81c-.01,.08-.05,.17-.11,.23-1.35,1.45-3.33,2.14-5.29,1.83-3.24-.51-5.46-3.57-4.94-6.81,.51-3.24,3.57-5.46,6.8-4.95,1.34,.21,2.53,.85,3.45,1.86,.17,.18,.16,.46-.03,.63-.18,.17-.46,.15-.63-.03-.78-.85-1.79-1.4-2.93-1.58-2.75-.44-5.34,1.45-5.78,4.2-.44,2.75,1.45,5.35,4.2,5.78,1.67,.26,3.34-.32,4.5-1.55,.17-.18,.45-.19,.63-.02,.11,.11,.16,.26,.14,.4Z"/></g></g><g><polygon class="cls-1" points="109.11 4.5 111.29 4.5 111.29 10.35 111.89 10.35 111.89 4.5 114.08 4.5 114.08 3.95 109.11 3.95 109.11 4.5"/><path class="cls-1" d="M117.39,7.28c.17-.02,.36-.07,.55-.13,.19-.06,.37-.15,.53-.28,.16-.12,.29-.28,.4-.48,.11-.2,.16-.45,.16-.76,0-.28-.05-.51-.14-.71-.09-.19-.2-.35-.34-.48-.14-.13-.3-.22-.47-.29-.17-.07-.35-.11-.52-.14-.17-.03-.33-.05-.47-.05-.14,0-.26,0-.34,0h-1.68v6.4h.6v-3.04h1.11l1.8,3.04h.68l-1.86-3.07Zm-1.73-.51v-2.28h1.27c.31,0,.57,.04,.76,.12,.2,.08,.35,.17,.46,.29,.11,.11,.18,.24,.22,.37,.04,.13,.06,.25,.06,.36s-.02,.23-.06,.36c-.04,.13-.11,.26-.22,.37-.11,.11-.26,.21-.46,.29-.2,.08-.45,.12-.76,.12h-1.27Z"/><path class="cls-1" d="M114.18,.2c-3.84,0-6.95,3.11-6.95,6.95s3.11,6.95,6.95,6.95,6.95-3.11,6.95-6.95S118.01,.2,114.18,.2Zm0,13.3c-3.51,0-6.35-2.84-6.35-6.35s2.84-6.35,6.35-6.35,6.35,2.84,6.35,6.35-2.84,6.35-6.35,6.35Z"/></g></g></g></svg>