<svg id="Layer_1" data-name="Layer 1" xmlns="http://www.w3.org/2000/svg" viewBox="0 0 1284.06 118.46"><defs><style>.cls-1,.cls-4,.cls-8,.cls-9{fill:#fff;}.cls-2,.cls-3,.cls-5,.cls-6,.cls-7{fill:none;stroke-linecap:round;stroke-linejoin:round;}.cls-2,.cls-3,.cls-4,.cls-5,.cls-6,.cls-8,.cls-9{stroke:#fff;}.cls-2{stroke-width:3.48px;}.cls-3{stroke-width:3.14px;}.cls-4,.cls-8,.cls-9{stroke-miterlimit:10;}.cls-4{stroke-width:1.75px;}.cls-5{stroke-width:3.76px;}.cls-6,.cls-7{stroke-width:3.73px;}.cls-7{stroke:#ffc200;}.cls-8{stroke-width:0.25px;}.cls-9{stroke-width:1px;}</style></defs><path class="cls-1" d="M1026.29,89h-18.54a2.39,2.39,0,0,1-2.34-2.34V68.07a2.38,2.38,0,0,1,2.32-2.29h18.57a2.38,2.38,0,0,1,2.35,2.21V86.61A2.36,2.36,0,0,1,1026.29,89Zm-18.42-20.72V86.61l18.42-.1-.11-18.26Z" transform="translate(-31.45 -14.46)"/><path class="cls-1" d="M963,76.48a1.24,1.24,0,0,1-.78-2.19l54.38-45a1.2,1.2,0,0,1,1.59,0l25.63,22.46a1.24,1.24,0,1,1-1.63,1.88l-24.83-21.77-53.6,44.3A1.23,1.23,0,0,1,963,76.48Z" transform="translate(-31.45 -14.46)"/><path class="cls-1" d="M1031.26,118.35H981a1.24,1.24,0,0,1-1.22-1.24V60.34a1.23,1.23,0,0,1,2.46,0v55.54h49a1.24,1.24,0,1,1,0,2.48Z" transform="translate(-31.45 -14.46)"/><path class="cls-1" d="M1068.1,54.34h0a9.44,9.44,0,1,1-.62-18.87h.62a9.44,9.44,0,0,1,0,18.87Zm0-16.41a7,7,0,0,0,0,14h0a7,7,0,0,0,0-14Z" transform="translate(-31.45 -14.46)"/><path class="cls-1" d="M1042.2,118.18a4.59,4.59,0,0,1-3.06-1.16l-.21-.21a8.92,8.92,0,0,1-2.23-3.73,4.72,4.72,0,0,1,1-4.45l10.73-12,2-14.2a5.34,5.34,0,0,1,.08-1c0-.24.06-.5.08-.75a15.09,15.09,0,0,1,.32-2.92l2.73-11-3.46,1-5.43,11.73a4.33,4.33,0,0,1-3.42,2.54,7.85,7.85,0,0,1-3.75-.43,1.06,1.06,0,0,1-.5-.12,4.4,4.4,0,0,1-2.48-3.57,7.37,7.37,0,0,1,.38-3.19,2.48,2.48,0,0,1,.24-.64l6-12.83a5,5,0,0,1,.87-1.26,7.51,7.51,0,0,1,.92-.77,6.83,6.83,0,0,1,2.54-1.47l16.7-5a1.71,1.71,0,0,1,.32,0h.77a8.78,8.78,0,0,1,2.61,0,1.28,1.28,0,0,1,.82-.06,8.88,8.88,0,0,1,5.92,5.22L1079.54,69l12.73,2.21a4.38,4.38,0,0,1,3.33,2.64,7.79,7.79,0,0,1,.54,3.73,3.38,3.38,0,0,1,0,.45,4.45,4.45,0,0,1-2.83,3.46,7.27,7.27,0,0,1-3.17.44,2.22,2.22,0,0,1-.89,0l-13.73-2.37a4.72,4.72,0,0,1-1.46-.52,4.36,4.36,0,0,1-.93-.66,6.26,6.26,0,0,1-1.08-.84A7.61,7.61,0,0,1,1071,76.2l-.64-1a80.89,80.89,0,0,1-2.36,7.92l6.94,5.91a10.14,10.14,0,0,1,1.12,1.15,8.23,8.23,0,0,1,.76,1,5.77,5.77,0,0,1,.77,1.25,5.11,5.11,0,0,1,.46,1.71l1.28,16.89a8.06,8.06,0,0,1-.82,3.73,5.09,5.09,0,0,1-1.93,2.08,5.76,5.76,0,0,1-3.54.51,8,8,0,0,1-3-.91,4.64,4.64,0,0,1-2.48-3.83l-1.2-15.27-5.27-4.51-.88,6a11,11,0,0,1-.32,1.47,8,8,0,0,1-.47,1.14,4.54,4.54,0,0,1-.34.89,4.41,4.41,0,0,1-.74,1.08L1047,116a8.32,8.32,0,0,1-3.25,2A4.26,4.26,0,0,1,1042.2,118.18Zm8.17-20-10.8,12.07a2.19,2.19,0,0,0-.5,2.09,6.34,6.34,0,0,0,1.61,2.69l.16.16a2.1,2.1,0,0,0,2.06.37,5.8,5.8,0,0,0,2.27-1.36l.39-.41,10.82-12.07a1.6,1.6,0,0,0,.35-.51,2.66,2.66,0,0,0,.21-.53.86.86,0,0,1,.11-.28,6.63,6.63,0,0,0,.36-.87,8.12,8.12,0,0,0,.23-1.09l1.2-8.2a1.2,1.2,0,0,1,.78-1,1.22,1.22,0,0,1,1.24.22l7.39,6.28a1.31,1.31,0,0,1,.42.85l1.26,15.8a2.13,2.13,0,0,0,1.15,1.81,5.65,5.65,0,0,0,2.23.66,3.31,3.31,0,0,0,2-.24,2.71,2.71,0,0,0,.89-1,5.85,5.85,0,0,0,.55-2.6v-.64l-1.27-16.09a2.57,2.57,0,0,0-.24-.86,3.15,3.15,0,0,0-.48-.78l-.13-.17a5.63,5.63,0,0,0-.57-.81,6.75,6.75,0,0,0-.83-.86l-7.59-6.47a1.25,1.25,0,0,1-.36-1.36,76.25,76.25,0,0,0,3.25-11.36,1.24,1.24,0,0,1,2.25-.42l2.24,3.6a5.41,5.41,0,0,0,.7.88,5,5,0,0,0,.74.56.7.7,0,0,1,.19.15,2.85,2.85,0,0,0,1.25.65l13.82,2.38a1.09,1.09,0,0,1,.44,0,4.88,4.88,0,0,0,2.24-.29,1.94,1.94,0,0,0,1.25-1.45v-.2a6,6,0,0,0-.35-2.75,2,2,0,0,0-1.47-1.14l-13.29-2.31a1.23,1.23,0,0,1-.84-.56L1070.5,59.1a.75.75,0,0,1-.1-.2,6.44,6.44,0,0,0-3.62-3.62,1.27,1.27,0,0,1-.67,0,7,7,0,0,0-2.65-.16l-.92.08-.38.13-15.83,4.78a5,5,0,0,0-1.74,1,6.53,6.53,0,0,0-.7.58,2.36,2.36,0,0,0-.4.59L1037.57,75l-.11.23v.19a4.79,4.79,0,0,0-.29,2.22,2,2,0,0,0,.87,1.48,1.3,1.3,0,0,1,.34.08,5.61,5.61,0,0,0,2.75.36,1.92,1.92,0,0,0,1.49-1.12l5.62-12.19a1.22,1.22,0,0,1,.77-.67l6-1.78a1.22,1.22,0,0,1,1.55,1.48l-3.23,13a14.82,14.82,0,0,0-.27,2.48,8.15,8.15,0,0,1-.09.93,9.06,9.06,0,0,0-.07.91l-2,14.74a1.2,1.2,0,0,1-.15.45,1.86,1.86,0,0,1-.37.42Z" transform="translate(-31.45 -14.46)"/><g id="Layer_1-2" data-name="Layer 1"><path class="cls-2" d="M92.57,107.66h-18a6,6,0,0,1-6-5.07,25.91,25.91,0,0,0-6.86-13.86,30.28,30.28,0,1,1,43.6,0,25.15,25.15,0,0,0-6.81,13.81A6,6,0,0,1,92.57,107.66Z" transform="translate(-31.45 -14.46)"/><line class="cls-2" x1="63.78" y1="98.21" x2="40.1" y2="98.21"/><line class="cls-2" x1="63.78" y1="102.88" x2="40.1" y2="102.88"/><path class="cls-2" d="M87.37,130.37h-8a1.5,1.5,0,0,1-1.08-.44l-5.54-5.53a1.56,1.56,0,0,1-.32-1.68,1.53,1.53,0,0,1,1.41-1h19a1.54,1.54,0,0,1,1.42,1A1.56,1.56,0,0,1,94,124.4l-5.53,5.52A1.54,1.54,0,0,1,87.37,130.37Z" transform="translate(-31.45 -14.46)"/><line class="cls-2" x1="83.99" y1="77.76" x2="93.39" y2="87.15"/><line class="cls-2" x1="88.69" y1="51.9" x2="102.79" y2="51.9"/><line class="cls-2" x1="83.99" y1="28.4" x2="93.39" y2="19"/><line class="cls-2" x1="53.44" y1="16.66" x2="53.44" y2="2.55"/><line class="cls-2" x1="20.53" y1="28.4" x2="11.14" y2="19"/><line class="cls-2" x1="15.83" y1="54.25" x2="1.74" y2="54.25"/><line class="cls-2" x1="20.53" y1="77.76" x2="11.14" y2="87.15"/><path class="cls-2" d="M89.78,57.36S91,61,88.87,62.06c-4.71,2.38-11.75,0-11.75,4.7s14.1,0,14.1,4.71-14.1,0-14.1,4.69" transform="translate(-31.45 -14.46)"/><path class="cls-2" d="M77.12,85.56c0-4.7,14.1,0,14.1-4.7s-14.1,0-14.1-4.7" transform="translate(-31.45 -14.46)"/><path class="cls-2" d="M82.46,107.05S81.74,97.72,83.77,95c2.58-3.49,7.45,0,7.45-4.7s-14.1,0-14.1-4.7,14.1,0,14.1-4.7" transform="translate(-31.45 -14.46)"/></g><g id="Layer_1-3" data-name="Layer 1"><path class="cls-3" d="M623.1,50.87a10.61,10.61,0,0,0,1.12,13.55l.6.59a10.54,10.54,0,0,0,13.54,1.18" transform="translate(-31.45 -14.46)"/><circle class="cls-3" cx="648.75" cy="61.78" r="7.02"/><line class="cls-3" x1="647.53" y1="68.67" x2="617.35" y2="98.84"/><line class="cls-3" x1="642.32" y1="64.55" x2="608.02" y2="98.84"/><path class="cls-3" d="M649.6,77.35,638.44,66.19,623.1,50.87,611.47,39.21l.48-.8a18.69,18.69,0,0,1,5-3c6.15-2.61,13.59-2.23,20.38,1l7.26-7.26a10.6,10.6,0,0,1,15,0l.58.6a10.6,10.6,0,0,1,0,15l-2.91,2.9-4.63,4.63a3.36,3.36,0,0,1,.2.43,24.64,24.64,0,0,1,.38,19A19.93,19.93,0,0,1,649.6,77.35Z" transform="translate(-31.45 -14.46)"/><polyline class="cls-3" points="621.78 57.19 611.79 47.2 596.21 31.61 585.53 20.94"/><line class="cls-3" x1="647.53" y1="54.89" x2="625.83" y2="33.17"/><polyline class="cls-3" points="642.3 59.03 642.3 59.02 621.4 38.22 621.09 37.91"/><path class="cls-3" d="M663.55,113.3H624.72a9.63,9.63,0,0,0-9.63,9.63h0v.39h58.09v-.39a9.63,9.63,0,0,0-9.63-9.63Z" transform="translate(-31.45 -14.46)"/><line class="cls-3" x1="607.27" y1="90.82" x2="599.67" y2="98.84"/><line class="cls-3" x1="583.78" y1="38.32" x2="576.07" y2="38.32"/><line class="cls-3" x1="584.41" y1="49.96" x2="577.33" y2="52.99"/><line class="cls-3" x1="591.63" y1="57.62" x2="586.95" y2="63.74"/><line class="cls-3" x1="602.13" y1="59.63" x2="600.79" y2="67.23"/></g><path class="cls-1" d="M1245.4,88.45h-18.58a2.33,2.33,0,0,1-2.33-2.34h0V67.54a2.37,2.37,0,0,1,2.29-2.38h18.62a2.4,2.4,0,0,1,2.35,2.38V86.11a2.33,2.33,0,0,1-2.33,2.34Zm-.12-20.83h-18.46l.13,18.49,18.47-.12Z" transform="translate(-31.45 -14.46)"/><path class="cls-1" d="M1182.18,76.49a1.3,1.3,0,0,1-1-.45,1.24,1.24,0,0,1,.17-1.74h0l54.43-45a1.22,1.22,0,0,1,1.6,0L1263,51.76a1.23,1.23,0,0,1,.12,1.73,1.24,1.24,0,0,1-1.74.12l-24.87-21.77L1183,76.2A1.29,1.29,0,0,1,1182.18,76.49Z" transform="translate(-31.45 -14.46)"/><path class="cls-1" d="M1250.54,118.42h-50.32a1.22,1.22,0,0,1-1.22-1.23V60.34a1.23,1.23,0,0,1,2.46,0V116h49.08a1.23,1.23,0,0,1,0,2.46Z" transform="translate(-31.45 -14.46)"/><path class="cls-1" d="M1281.8,54.34h-.09a9.53,9.53,0,0,1,.18-19.05h0a9.36,9.36,0,0,1,6.66,2.81,9.52,9.52,0,0,1-6.75,16.24Zm0-16.59a7.06,7.06,0,0,0-.06,14.12,7.18,7.18,0,0,0,5-2,7.07,7.07,0,0,0-4.87-12.12h-.08Z" transform="translate(-31.45 -14.46)"/><path class="cls-1" d="M1307.68,118.18a4.68,4.68,0,0,1-1.48-.24,7.92,7.92,0,0,1-3.22-2l-.45-.47-10.89-12.14a5.5,5.5,0,0,1-.74-1.11,4.34,4.34,0,0,1-.33-.87,7.76,7.76,0,0,1-.46-1.12,9.55,9.55,0,0,1-.33-1.5l-.84-6-5.25,4.49-1.21,15.34a4.75,4.75,0,0,1-2.49,3.82,8.48,8.48,0,0,1-3.15.92,5.61,5.61,0,0,1-3.35-.48,5.16,5.16,0,0,1-2-2.11,8.32,8.32,0,0,1-.82-3.68v-.59l1.28-16.4a4.73,4.73,0,0,1,.46-1.73,6.48,6.48,0,0,1,.82-1.3,6.75,6.75,0,0,1,.69-1,9.53,9.53,0,0,1,1.15-1.14L1282,83a80.89,80.89,0,0,1-2.36-7.92l-.63,1a10.05,10.05,0,0,1-1,1.29,7.13,7.13,0,0,1-1.15.9,6,6,0,0,1-.93.66,4.85,4.85,0,0,1-1.47.51l-13.85,2.49a.81.81,0,0,1-.22,0h-.52a7,7,0,0,1-3.25-.44,4.36,4.36,0,0,1-2.79-3.31q0-.35,0-.69a8.16,8.16,0,0,1,.48-3.63,4.41,4.41,0,0,1,3.36-2.67l12.76-2.21,6.93-11.13a9.08,9.08,0,0,1,2.29-3.22,8.91,8.91,0,0,1,3.68-2h.2a7.08,7.08,0,0,1,1.84,0,7.4,7.4,0,0,1,1.63,0h.93a1,1,0,0,1,.41.07l.46.15,15.63,5a7.17,7.17,0,0,1,1.52.69,6.15,6.15,0,0,1,1.14.83,4.79,4.79,0,0,1,1.72,2l5.94,12.79a4.06,4.06,0,0,1,.27.65,6.88,6.88,0,0,1,.42,3.3,4.36,4.36,0,0,1-2.46,3.53,1.11,1.11,0,0,1-.5.12,7.91,7.91,0,0,1-3.76.46,4.33,4.33,0,0,1-3.43-2.56l-5.38-11.73-3.6-1.09,2.77,10.8a14.77,14.77,0,0,1,.37,3,2.59,2.59,0,0,0,.07.7c0,.42.09.83.09,1.2l2,14,10.77,12a4.63,4.63,0,0,1,1,4.42,9.06,9.06,0,0,1-2.34,3.79l-.22.19A4.72,4.72,0,0,1,1307.68,118.18Zm-17.81-29a1.32,1.32,0,0,1,.44.08,1.23,1.23,0,0,1,.78,1l1.15,8.23a8.25,8.25,0,0,0,.24,1.12,5.86,5.86,0,0,0,.36.85,1.36,1.36,0,0,1,.11.28,2.3,2.3,0,0,0,.18.5,2.76,2.76,0,0,0,.38.58l11.26,12.5a5.56,5.56,0,0,0,2.23,1.32,2.22,2.22,0,0,0,2.17-.41l.18-.16a6.55,6.55,0,0,0,1.66-2.68,2.24,2.24,0,0,0-.51-2.07l-11-12.23a1.26,1.26,0,0,1-.35-.7l-2-14.59a10.19,10.19,0,0,0-.09-1.1c0-.29-.06-.58-.08-.87a13,13,0,0,0-.29-2.56l-3.3-12.87a1.22,1.22,0,0,1,.88-1.49,1.18,1.18,0,0,1,.67,0l6.21,1.88a1.19,1.19,0,0,1,.76.66l5.61,12.25a1.91,1.91,0,0,0,1.51,1.13,5.26,5.26,0,0,0,2.74-.38,1.37,1.37,0,0,1,.35-.08,2,2,0,0,0,.88-1.45,4.64,4.64,0,0,0-.31-2.24,1.51,1.51,0,0,0-.14-.35l-5.94-12.87a2.17,2.17,0,0,0-.4-.6,2.93,2.93,0,0,0-.52-.41c-.07,0-.13-.09-.19-.14a3.77,3.77,0,0,0-.75-.58,4.93,4.93,0,0,0-1-.45l-16.15-5.07h-.7a6.18,6.18,0,0,0-1.36,0h-.35a5.58,5.58,0,0,0-1.29-.06A6.46,6.46,0,0,0,1279.7,59l-.1.18-7.38,11.65a1.29,1.29,0,0,1-.85.56l-13.32,2.3a2,2,0,0,0-1.47,1.16,5.63,5.63,0,0,0-.32,2.54.67.67,0,0,1,0,.2,2.16,2.16,0,0,0,0,.36,1.87,1.87,0,0,0,1.2,1.3,4.75,4.75,0,0,0,2.27.29h.51L1274,77a1.84,1.84,0,0,0,.67-.23,3.43,3.43,0,0,0,.58-.42,1.33,1.33,0,0,1,.19-.14,4.5,4.5,0,0,0,.78-.6,7.51,7.51,0,0,0,.7-.88l2.18-3.57a1.23,1.23,0,0,1,1.71-.38,1.22,1.22,0,0,1,.55.79A76.26,76.26,0,0,0,1284.62,83a1.23,1.23,0,0,1-.36,1.36l-7.59,6.49a6.46,6.46,0,0,0-1.42,1.66,5,5,0,0,0-.61,1,2.34,2.34,0,0,0-.23.86l-1.3,16.24v.51a5.84,5.84,0,0,0,.56,2.57,2.61,2.61,0,0,0,1,1,3.1,3.1,0,0,0,1.85.21,6,6,0,0,0,2.33-.66,2.26,2.26,0,0,0,1.18-1.83l1.26-15.84a1.17,1.17,0,0,1,.43-.84l7.34-6.28a1.31,1.31,0,0,1,.88-.26Zm-11.44-30.67" transform="translate(-31.45 -14.46)"/><rect class="cls-4" x="379.13" y="10.13" width="102.98" height="2.86"/><rect class="cls-1" x="473.82" y="11.67" width="2.86" height="98.29"/><rect class="cls-1" x="464.66" y="11.67" width="2.86" height="98.29"/><rect class="cls-1" x="455.52" y="11.67" width="2.86" height="98.29"/><rect class="cls-1" x="402.87" y="11.67" width="2.86" height="98.29"/><rect class="cls-1" x="393.73" y="11.67" width="2.86" height="98.29"/><rect class="cls-1" x="384.57" y="11.67" width="2.86" height="98.29"/><circle class="cls-4" cx="482.82" cy="11.56" r="3.06"/><circle class="cls-4" cx="377.57" cy="11.56" r="3.06"/><line class="cls-5" x1="439.28" y1="50.11" x2="439.28" y2="77.8"/><line class="cls-5" x1="424.74" y1="50.11" x2="424.74" y2="77.8"/><path class="cls-6" d="M279.06,108.07H260.81a6,6,0,0,1-6-5.13,26.18,26.18,0,0,0-6.94-14,30.64,30.64,0,1,1,44.12,0,25.48,25.48,0,0,0-6.89,14A6,6,0,0,1,279.06,108.07Z" transform="translate(-31.45 -14.46)"/><line class="cls-6" x1="250.31" y1="98.68" x2="226.34" y2="98.68"/><line class="cls-6" x1="250.31" y1="103.41" x2="226.34" y2="103.41"/><path class="cls-6" d="M273.8,131.06h-8.06a1.5,1.5,0,0,1-1.08-.45L259,125a1.59,1.59,0,0,1-.32-1.7,1.57,1.57,0,0,1,1.43-1h19.24A1.57,1.57,0,0,1,280.5,125l-5.6,5.59A1.61,1.61,0,0,1,273.8,131.06Z" transform="translate(-31.45 -14.46)"/><line class="cls-7" x1="270.76" y1="77.98" x2="280.27" y2="87.49"/><line class="cls-7" x1="275.52" y1="51.82" x2="289.78" y2="51.82"/><line class="cls-7" x1="270.76" y1="28.03" x2="280.27" y2="18.52"/><line class="cls-7" x1="239.85" y1="16.14" x2="239.85" y2="1.86"/><line class="cls-7" x1="206.54" y1="28.03" x2="197.03" y2="18.52"/><line class="cls-7" x1="201.78" y1="54.19" x2="187.52" y2="54.19"/><line class="cls-7" x1="206.54" y1="77.98" x2="197.03" y2="87.49"/><polyline class="cls-6" points="225.78 59.42 238.65 44.13 251.53 59.42"/><g id="Layer_1-4" data-name="Layer 1"><path class="cls-8" d="M827.23,123.51a49.82,49.82,0,1,1,49.82-49.82A49.82,49.82,0,0,1,827.23,123.51Zm0-96.55a46.73,46.73,0,1,0,46.71,46.75v0A46.77,46.77,0,0,0,827.23,27Z" transform="translate(-31.45 -14.46)"/><path class="cls-9" d="M831.44,45.07h0a1.3,1.3,0,0,0,1.06,1.26,27.59,27.59,0,1,1-10.54,0A1.29,1.29,0,0,0,823,45.07h0a1.3,1.3,0,0,0-1.31-1.28,1,1,0,0,0-.24,0,30.18,30.18,0,1,0,11.51,0,1.29,1.29,0,0,0-1.53,1A1.09,1.09,0,0,0,831.44,45.07Z" transform="translate(-31.45 -14.46)"/><path class="cls-9" d="M828.52,37.18V65.39a1.29,1.29,0,0,1-1.41,1.17,1.3,1.3,0,0,1-1.18-1.17V37.18a1.3,1.3,0,0,1,2.59,0Z" transform="translate(-31.45 -14.46)"/><path class="cls-9" d="M828.52,37.18V65.39a1.29,1.29,0,0,1-1.41,1.17,1.3,1.3,0,0,1-1.18-1.17V37.18a1.3,1.3,0,0,1,2.59,0Z" transform="translate(-31.45 -14.46)"/></g></svg>