<?xml version="1.0" encoding="UTF-8"?><svg id="Layer_2" xmlns="http://www.w3.org/2000/svg" viewBox="0 0 205.13 28.28"><defs><style>.cls-1{fill:#231f20;}</style></defs><g id="Layer_2-2"><g><g><path class="cls-1" d="M14.78,10.33c-3.65,0-6.61,2.96-6.61,6.61,0,2.36,1.13,4.52,3.02,5.64,.51,.25,.62,.66,.62,1.1v4.22c.91,.23,1.9,.38,2.96,.38s2.05-.15,2.96-.38v-4.22c0-.44,.11-.84,.62-1.1,1.9-1.12,3.02-3.28,3.02-5.64,0-3.65-2.96-6.61-6.61-6.61m-5.51,6.61c0-3,2.51-5.51,5.51-5.51s5.51,2.51,5.51,5.51c0,1.92-.95,3.76-2.52,4.65-.4,.24-1.12,.88-1.12,2.1v3.15c-.62,.12-1.23,.24-1.87,.24s-1.25-.12-1.87-.24v-3.15c0-1.22-.72-1.86-1.12-2.1-1.57-.88-2.53-2.73-2.53-4.65"/><path class="cls-1" d="M6.51,13.03L.32,9.44c-.73-.42-.09-1.52,.64-1.09l6.19,3.59c.73,.42,.09,1.52-.63,1.09"/><path class="cls-1" d="M9.79,9.19L6.01,3.11c-.45-.72,.63-1.38,1.07-.67l3.78,6.08c.45,.72-.63,1.38-1.07,.67"/><path class="cls-1" d="M23.03,13.03l6.19-3.59c.73-.42,.09-1.52-.63-1.09l-6.19,3.59c-.73,.42-.09,1.52,.63,1.09"/><path class="cls-1" d="M19.76,9.19l3.78-6.08c.45-.72-.63-1.38-1.07-.67l-3.78,6.08c-.44,.72,.63,1.38,1.08,.67"/><path class="cls-1" d="M15.39,7.79l-.02-7.16c0-.84-1.27-.84-1.27,0l.02,7.16c0,.84,1.27,.84,1.26,0"/></g><g><path class="cls-1" d="M51.12,18.11c-.15-.28-.29-.57-.41-.87-.08-.2-.15-.4-.22-.6l-3.48,1.41c-.41,.16-.61,.63-.44,1.04s.63,.61,1.04,.44l3.49-1.41h.02m1.14,1.61l-1.09,1.1c-.21,.21-.21,.56,0,.77,.16,.16,.39,.2,.58,.12,.07-.03,.13-.07,.18-.12l1.11-1.11c-.27-.23-.53-.48-.78-.75m5.77,2.72v1.55c0,.3,.25,.54,.54,.54,.07,0,.14,0,.2-.04,.2-.08,.34-.27,.34-.5v-1.56c-.36,.03-.72,.03-1.08,.02m-9.47-8.71c-.3,0-.54,.24-.54,.54s.24,.54,.54,.54h1.56c-.03-.36-.04-.72-.02-1.08h-1.54Zm4.57,11.25c-.17,.41,.02,.88,.43,1.05,.2,.08,.42,.08,.61,0s.35-.23,.44-.43l1.47-3.47v-.02c-.51-.15-1.01-.35-1.49-.6l-1.46,3.46h0Zm-6.18-14.66l3.47,1.47h.02c.15-.51,.35-1.01,.6-1.49l-3.46-1.46c-.41-.17-.88,.02-1.05,.43s.02,.88,.43,1.05m7.47-3.51v.02c.28-.15,.57-.29,.87-.41,.2-.08,.4-.15,.61-.22l-1.41-3.48c-.17-.41-.63-.61-1.05-.44-.41,.17-.61,.63-.44,1.04l1.41,3.49h.01Zm-2.35,1.94c.23-.27,.48-.54,.75-.78l-1.09-1.09c-.21-.21-.56-.21-.77,0s-.21,.55,0,.76l1.11,1.11Zm6.75-2.93v-1.55c0-.3-.25-.54-.54-.54s-.54,.24-.54,.54v1.56c.37-.03,.73-.04,1.08-.02"/><path class="cls-1" d="M52.22,14.12c0,3.41,2.76,6.18,6.16,6.2v1.26c-4.1-.02-7.42-3.35-7.42-7.46s3.32-7.44,7.42-7.46v1.26c-3.41,.02-6.16,2.79-6.16,6.2"/><path class="cls-1" d="M72.95,16l-4.95,1.2,2.83,1.77c.72,.45,.05,1.52-.67,1.07l-2.79-1.75,1.22,5.05c.2,.82-1.03,1.12-1.23,.3l-1.53-6.3-3.76-2.35v4.42l4.53,4.43c.6,.59-.28,1.49-.88,.9l-3.64-3.56v3.35c0,.84-1.26,.84-1.26,0V3.45c0-.84,1.26-.84,1.26,0v2.99l3.63-3.71c.59-.6,1.49,.28,.9,.89l-4.54,4.64v4.55l3.99-2.12,1.78-6.07c.24-.81,1.45-.45,1.21,.36l-1.43,4.89,2.95-1.57c.74-.4,1.34,.72,.59,1.12l-2.91,1.55,4.98,1.46c.81,.24,.45,1.45-.36,1.21l-6.22-1.83-3.95,2.1,3.79,2.37,6.15-1.49c.82-.2,1.12,1.03,.3,1.23"/></g><path class="cls-1" d="M104.56,.98c-2.58,0-4.89,.71-6.93,2.05-3.74,2.31-6.23,6.4-6.23,11.12s2.49,8.89,6.23,11.21c2.05,1.25,4.36,1.96,6.94,1.96,7.14,0,13.16-5.87,13.16-13.16,0-3.46-1.43-6.76-3.92-9.25-2.31-2.48-5.88-3.91-9.25-3.91m-7.3,3.9c2.06-1.59,4.58-2.53,7.3-2.53h.89l-.6,1.78-3.09,9.17-4.55-5.14-1.56-1.77,.57-.57,.48-.46c.18-.17,.37-.33,.56-.47m15.63,17.6c-.94,.94-2.07,1.69-3.17,2.33-1.59,.75-3.38,1.13-5.16,1.13h-.89l.59-1.78,3.09-9.17,2.46,2.78,3.6,4.08c-.1,.21-.17,.35-.36,.51l-.16,.13h0Zm1.36-1.72l-4.92-5.6-2.63-3.05c4.53-.91,2.74-.55,9-1.8,.43,1.29,.65,2.47,.65,3.83,0,2.51-.74,4.54-2.1,6.62m1-11.68l-11.34,2.19,.35-1.06,2.55-7.64c1.07,.21,1.95,.46,2.91,1,2.62,1.31,4.14,2.98,5.53,5.52m-20.38-1.57l2.82,3.23,4.73,5.43-4.91,.92-4.1,.88c-.43-1.29-.65-2.46-.65-3.83,0-2.51,.75-4.54,2.1-6.63m-1.01,11.78l3.53-.73,7.83-1.57-.36,1.06-2.55,7.64c-1.94-.41-3.46-1.13-5.05-2.3-1.48-1.16-2.45-2.52-3.41-4.11m9.55-6.52l1.09-.22,.64-.13,1.15,1.37-.57,1.71c-1.27,.26-.74,.15-1.73,.35l-1.14-1.37,.57-1.71h0Z"/><path class="cls-1" d="M152.13,26.57h-14.33c-.26,0-.5-.23-.5-.5V14.78h-3.18c-.57,0-.76-.49-.33-.87L148.36,.8c.17-.15,.5-.15,.67,0l3.79,3.4v-1.34c0-.26,.23-.5,.5-.5h3.31c.26,0,.5,.23,.5,.5v5.22l6.56,5.87c.43,.38,.24,.87-.33,.87h-2.9v11.33c0,.26-.23,.5-.5,.5h-4.1c-1.79,0-1.41-5.01-1.39-5.29,.36-4.33-.4-7.51-4.72-10.14-1.68-1.02-3.01-1.46-4.71-1.89,.69,2.7,.49,5.57,.92,8.31,.56,3.59,2.95,5.39,5.74,5.34,.11-3.69-1.26-7.07-4.15-10.16-.45-.49,.27-1.17,.73-.68,3.17,3.39,4.66,7.18,4.4,11.35-.02,.21-.24,.45-.45,.47-3.53,.31-6.57-1.89-7.24-6.15-.47-2.95-.18-6.16-1.14-9-.15-.45,.13-.76,.59-.64,16.27,4,8.98,14.83,11.61,17.51h3.42V14.35c0-.27,.23-.5,.5-.5h2.09l-5.75-5.15s-.17-.31-.17-.37V3.38h-2.32v1.96c0,.54-.43,.73-.83,.37l-4.28-3.84-13.27,11.94h2.38c.27,0,.5,.23,.5,.5v11.29h13.83c.66,0,.66,1,0,1"/><g><path class="cls-1" d="M203.86,4.34h-21.34V25.68h21.34V4.34Zm-22.61-1.27h23.88V26.95h-23.88V3.07Z"/><path class="cls-1" d="M193.82,7.02v7.65c0,.85-1.27,.85-1.27,0V7.02c0-.85,1.27-.85,1.27,0"/><path class="cls-1" d="M198.93,15.67c0-2.4-1.47-4.45-3.55-5.31l.56-1.14c2.51,1.07,4.27,3.56,4.27,6.46,0,3.87-3.14,7.01-7.01,7.01s-7.01-3.14-7.01-7.01c0-2.9,1.76-5.39,4.27-6.46l.55,1.14c-2.09,.86-3.55,2.92-3.55,5.31,0,3.17,2.57,5.74,5.75,5.74s5.74-2.57,5.74-5.74"/></g></g></g></svg>