<svg id="Layer_1" data-name="Layer 1" xmlns="http://www.w3.org/2000/svg" viewBox="0 0 111.82 38.41"><defs><style>.cls-1,.cls-2{fill:#fff;}.cls-2{fill-rule:evenodd;}</style></defs><polyline class="cls-1" points="42.45 31.95 43.88 31.95 43.88 31.34 40.4 31.34 40.4 31.95 41.81 31.95 41.81 37.17 42.45 37.17 42.45 31.95"/><path class="cls-2" d="M47.29,31.84a2.42,2.42,0,1,1-2.39,2.42,2.41,2.41,0,0,1,2.39-2.42m0-.6a3,3,0,1,0,3,3A3,3,0,0,0,47.29,31.24Z"/><path class="cls-1" d="M51.84,31.34h-.65V35a2.06,2.06,0,0,0,.57,1.69,2.22,2.22,0,0,0,1.51.59,2.15,2.15,0,0,0,1.57-.66A2.07,2.07,0,0,0,55.35,35V31.34H54.7v3.47a2,2,0,0,1-.29,1.34,1.51,1.51,0,0,1-1.14.52,1.48,1.48,0,0,1-1.17-.56,2.09,2.09,0,0,1-.26-1.3V31.34"/><path class="cls-2" d="M61,31.81a2.86,2.86,0,0,0-1.74-.57A3,3,0,1,0,61,36.7v-.8a2.59,2.59,0,0,1-1.77.77,2.42,2.42,0,0,1,0-4.83,2.52,2.52,0,0,1,1.78.78v-.81"/><polyline class="cls-1" points="62.72 33.71 62.72 31.34 62.07 31.34 62.07 37.17 62.72 37.17 62.72 34.31 65.71 34.31 65.71 37.17 66.36 37.17 66.36 31.34 65.71 31.34 65.71 33.71 62.72 33.71"/><polyline class="cls-1" points="71.49 31.95 72.91 31.95 72.91 31.34 69.43 31.34 69.43 31.95 70.84 31.95 70.84 37.17 71.49 37.17 71.49 31.95"/><polyline class="cls-1" points="74.26 33.71 74.26 31.34 73.61 31.34 73.61 37.17 74.26 37.17 74.26 34.31 77.24 34.31 77.24 37.17 77.89 37.17 77.89 31.34 77.24 31.34 77.24 33.71 74.26 33.71"/><polyline class="cls-1" points="79.09 37.17 82.12 37.17 82.12 36.57 79.74 36.57 79.74 34.28 82.05 34.28 82.05 33.68 79.74 33.68 79.74 31.95 82.12 31.95 82.12 31.34 79.09 31.34 79.09 37.17"/><polyline class="cls-1" points="88.25 31.95 88.25 31.34 85.6 31.34 85.6 37.17 86.25 37.17 86.25 34.28 88.19 34.28 88.19 33.68 86.25 33.68 86.25 31.95 88.25 31.95"/><path class="cls-1" d="M89.93,31.34h-.65V35a2.06,2.06,0,0,0,.57,1.69,2.22,2.22,0,0,0,1.51.59,2.15,2.15,0,0,0,1.57-.66A2,2,0,0,0,93.44,35V31.34h-.65v3.47a2,2,0,0,1-.28,1.34,1.53,1.53,0,0,1-1.15.52,1.48,1.48,0,0,1-1.17-.56,2.16,2.16,0,0,1-.26-1.3V31.34"/><polyline class="cls-1" points="96.14 31.95 97.56 31.95 97.56 31.34 94.08 31.34 94.08 31.95 95.49 31.95 95.49 37.17 96.14 37.17 96.14 31.95"/><path class="cls-1" d="M98.86,31.34h-.65V35a2.06,2.06,0,0,0,.57,1.69,2.22,2.22,0,0,0,1.51.59,2.15,2.15,0,0,0,1.57-.66,2.07,2.07,0,0,0,.51-1.62V31.34h-.65v3.47a2,2,0,0,1-.29,1.34,1.52,1.52,0,0,1-2.32,0,2.15,2.15,0,0,1-.25-1.3V31.34"/><path class="cls-2" d="M104.17,32h.19c.78,0,1.49.09,1.49,1.05s-.74,1-1.48,1h-.2V32m0,2.66h.16l1.76,2.56h.8L105,34.56A1.53,1.53,0,0,0,106.5,33c0-1.31-1-1.61-2.14-1.61h-.84v5.83h.65Z"/><polyline class="cls-1" points="107.71 37.17 110.73 37.17 110.73 36.57 108.36 36.57 108.36 34.28 110.67 34.28 110.67 33.68 108.36 33.68 108.36 31.95 110.73 31.95 110.73 31.34 107.71 31.34 107.71 37.17"/><path class="cls-1" d="M19.46,3.88C17.53,2.13,13.64,1,10.83,1,5.52,1,1.62,4.46,1.62,8.74c0,4,3,5.69,7,7.06,2.47.78,5.48,1.54,5.48,4.21a3.79,3.79,0,0,1-4.06,3.73A6.33,6.33,0,0,1,4.39,20l-4,3.19a11.61,11.61,0,0,0,9.71,5c6.45,0,10.39-3.66,10.39-8.83C20.51,10.69,8,12.51,8,8.16c0-1.68,1.88-2.91,3.85-2.91a6.07,6.07,0,0,1,4.73,2.12l2.89-3.49"/><path class="cls-2" d="M79.42,5.42h1.09c3.43,0,5.78.48,5.78,3.8s-2,4-5.61,4H79.42V5.42m0,12h3.06c6.45,0,10.09-2.67,10.09-8.15,0-5.86-4.31-8-10.93-8H73.27V27.07h6.15Z"/><polyline class="cls-1" points="110.95 6.12 110.95 1.74 93.42 1.74 93.42 27.56 110.95 27.56 110.95 23.18 99.58 23.18 99.58 16.19 109.37 16.19 109.37 11.81 99.58 11.81 99.58 6.12 110.95 6.12"/><path class="cls-1" d="M34.42,6.71a7.8,7.8,0,0,0-8,8,7.7,7.7,0,0,0,8,7.78A8.78,8.78,0,0,0,40.51,20c2.07-1.9,4.18-7.34,5.58-10a16.07,16.07,0,0,1,6.25-6.91A13.63,13.63,0,0,1,59,1.4,13.1,13.1,0,0,1,72.29,14.45,13.14,13.14,0,0,1,58.86,27.91c-4.38,0-7.07-1.82-9.94-4.68l-.14-.14,3-4.58a8.37,8.37,0,0,0,6.93,4,7.79,7.79,0,0,0,8.11-7.94,7.73,7.73,0,0,0-8-7.76C55,6.78,52.49,9.05,50.9,12c-3,5.54-3.94,11.26-10.19,14.4a14.24,14.24,0,0,1-6.47,1.5A12.94,12.94,0,0,1,20.92,14.85C20.92,7.72,26,1.4,34.35,1.4a14.86,14.86,0,0,1,5.77,1.19l-2,4.83a9.56,9.56,0,0,0-3.7-.71"/></svg>