<svg id="Layer_1" data-name="Layer 1" xmlns="http://www.w3.org/2000/svg" viewBox="0 0 133.15 48.99"><defs><style>.cls-1{fill:#fff;}</style></defs><path class="cls-1" d="M133,8.38C122.37,8.38,114,0,114,0s-8.35,8.38-18.92,8.38c-.44.47-.32,7.54,1.8,15.79h2.8A62,62,0,0,1,97.61,11C105,10.15,111.09,6,114,3.61,117,6,123,10.15,130.44,11a62.7,62.7,0,0,1-2.73,15.42C125.63,33.12,121.58,41.84,114,46c-5-2.74-8.51-7.53-10.88-12.42v5.53A26.25,26.25,0,0,0,114,49C132.27,40.55,133.88,9.39,133,8.38Z"/><path class="cls-1" d="M26.87,37.18A8.61,8.61,0,0,0,29.22,34a8.89,8.89,0,0,0,.51-4.46,8.86,8.86,0,0,0-1-3.3,7.4,7.4,0,0,0-1.9-2.26,11,11,0,0,0-4.2-2,28.89,28.89,0,0,0-5-.78l-7-.46c-.61,0-1.26-.11-2-.21a5.19,5.19,0,0,1-2-.68A3.85,3.85,0,0,1,5.44,19a2.55,2.55,0,0,1-.6-1.47A3.89,3.89,0,0,1,6.2,14a7.59,7.59,0,0,1,3.2-1.65,22.6,22.6,0,0,1,4.69-.81,24.43,24.43,0,0,1,4.91.1,28.07,28.07,0,0,1,5.39,1.27l1.36-4A30.11,30.11,0,0,0,19,7.31a30.89,30.89,0,0,0-6.45,0A25,25,0,0,0,6.83,8.64,12,12,0,0,0,2.6,11.19,8,8,0,0,0,.52,14.13,7.73,7.73,0,0,0,.07,18a9,9,0,0,0,.85,3.12,6.64,6.64,0,0,0,1.63,2.08,8.92,8.92,0,0,0,3.19,1.58,19.14,19.14,0,0,0,4.19.66l7.6.45a25,25,0,0,1,2.9.4,9.31,9.31,0,0,1,2.44.85l0,0a4.41,4.41,0,0,1,1.26,1.21,3.88,3.88,0,0,1,.64,1.84,4.09,4.09,0,0,1-1.16,3.56,9.86,9.86,0,0,1-3.62,2,21.91,21.91,0,0,1-5.13,1h-.06a32.36,32.36,0,0,1-11.74-1L2.06,40a34.71,34.71,0,0,0,13.4,1.29A34.35,34.35,0,0,0,22,39.94,13.46,13.46,0,0,0,26.87,37.18Z"/><path class="cls-1" d="M32,7.87l5.2,7.62,5.18-7.62h3.46V23.74h-3.4V13.3h-.12L37.81,20H36.44L31.9,13.3h-.12V23.74H28.51V7.87Z"/><path class="cls-1" d="M56.45,7.87l7,15.87H59.81l-1.23-2.82H50.77l-1.24,2.82H45.94L53,7.87Zm-4.38,10h5.17l-2.47-6.22h-.23Z"/><path class="cls-1" d="M77.55,13.71a5.84,5.84,0,0,1-.29,1.83,5.64,5.64,0,0,1-.82,1.6,5.81,5.81,0,0,1-.91.95,7.2,7.2,0,0,1-1.09.77l2.85,4.88H73.42l-2.26-4.15H66.94v4.15h-3.4V7.87h7.91a6.56,6.56,0,0,1,2.7.56A5.53,5.53,0,0,1,76.21,10a5.33,5.33,0,0,1,1,1.68A5.93,5.93,0,0,1,77.55,13.71ZM66.94,16.54h4.37a2.72,2.72,0,0,0,2.17-.94,2.9,2.9,0,0,0,.67-1.89,2.85,2.85,0,0,0-.77-2,2.71,2.71,0,0,0-2.07-.78H66.94Z"/><path class="cls-1" d="M77.59,7.87H92.32v3.05H86.64V23.74h-3.4V10.92H77.59Z"/><path class="cls-1" d="M31.3,25.36H43.94v3.05H34.7v3.17H43v3.05H34.7v3.56h9.56v3.05h-13Z"/><path class="cls-1" d="M47.17,33.27a5.71,5.71,0,0,0,.38,2.14,4.85,4.85,0,0,0,1,1.57,4.55,4.55,0,0,0,1.63,1.11,5.22,5.22,0,0,0,2,.38A5.43,5.43,0,0,0,54.63,38a9.75,9.75,0,0,0,2.13-1.44l2.1,2.25a12.37,12.37,0,0,1-3.07,2.05,8.65,8.65,0,0,1-3.57.71,8.76,8.76,0,0,1-3.37-.63,8.08,8.08,0,0,1-2.62-1.75,8.18,8.18,0,0,1-1.79-2.63,7.93,7.93,0,0,1-.67-3.24,7.69,7.69,0,0,1,.67-3.21,8.53,8.53,0,0,1,1.76-2.6,7.81,7.81,0,0,1,2.64-1.75,8.84,8.84,0,0,1,3.38-.63,9.16,9.16,0,0,1,3.57.66,10.52,10.52,0,0,1,3.07,2.1l-2.1,2.25a8.9,8.9,0,0,0-2.13-1.46,5.56,5.56,0,0,0-2.41-.51,4.87,4.87,0,0,0-3.59,1.4,5.13,5.13,0,0,0-1.08,1.65A5.72,5.72,0,0,0,47.17,33.27Z"/><path class="cls-1" d="M73.4,34.51a7.27,7.27,0,0,1-.56,2.84A6.5,6.5,0,0,1,69.11,41a7.25,7.25,0,0,1-2.73.49A7.34,7.34,0,0,1,63.49,41a7.06,7.06,0,0,1-2.19-1.46,7.85,7.85,0,0,1-1.46-2.25,6.93,6.93,0,0,1-.54-2.73V25.36h3.4v9.28a3.64,3.64,0,0,0,1,2.69,3.52,3.52,0,0,0,2.67,1.11,3.73,3.73,0,0,0,1.49-.28A3.47,3.47,0,0,0,69,37.37a3.84,3.84,0,0,0,.71-1.16A4.23,4.23,0,0,0,70,34.64V25.36h3.4Z"/><path class="cls-1" d="M88,31.2A5.84,5.84,0,0,1,87.7,33a5.51,5.51,0,0,1-.82,1.6,5.81,5.81,0,0,1-.91.95,6.55,6.55,0,0,1-1.09.77l2.86,4.89H83.86l-2.25-4.16H77.38v4.16H74V25.36h7.9a6.56,6.56,0,0,1,2.7.56,5.9,5.9,0,0,1,3,3.25A5.93,5.93,0,0,1,88,31.2ZM77.38,34h4.37a2.71,2.71,0,0,0,2.17-.94,3,3,0,0,0-.1-3.9,2.68,2.68,0,0,0-2.07-.78H77.38Z"/><path class="cls-1" d="M92.32,25.36V41.24H88.93V25.36Z"/><path class="cls-1" d="M92.84,25.36h14.74v3.05h-5.69V41.24H98.5V28.41H92.84Z"/><path class="cls-1" d="M114.91,41.24V37.68l-6.73-12.32H112L116.59,34h.19l4.48-8.64H125L118.3,37.68v3.56Z"/></svg>