<svg id="Layer_1" data-name="Layer 1" xmlns="http://www.w3.org/2000/svg" viewBox="0 0 142.82 47.05"><defs><style>.cls-1{fill:#fff;}</style></defs><path class="cls-1" d="M0,40l1.48-1.16a6.81,6.81,0,0,0,5.72,2.7c2.49,0,4.37-1.36,4.37-3.24,0-1.34-.89-2.13-3.56-3.17-3.19-1.26-4.75-2.37-4.75-4.62,0-2.87,2.65-5,6.38-5a7.9,7.9,0,0,1,6.14,2.62l-1.44,1.28a6.3,6.3,0,0,0-4.87-2.15c-2.6,0-4.15,1.46-4.15,3,0,1.41,1.11,2.13,3.83,3.19,3,1.14,4.48,2.35,4.48,4.58,0,3-2.87,5.24-6.56,5.24A8.28,8.28,0,0,1,0,40Z"/><path class="cls-1" d="M17.06,30.26H19l-.54,2.08C19.58,31,20.79,30,22.67,30a3.57,3.57,0,0,1,3.64,2.89A5.92,5.92,0,0,1,31.45,30a3.74,3.74,0,0,1,3.91,3.95,10,10,0,0,1-.35,2L33.11,43H31.2l2-7.24a7.08,7.08,0,0,0,.17-1.44,2.45,2.45,0,0,0-2.65-2.67c-1.88,0-3.78,1.76-4.42,4.13L24.35,43h-1.9l1.93-7.24a5.93,5.93,0,0,0,.19-1.44,2.47,2.47,0,0,0-2.67-2.67c-1.88,0-3.78,1.76-4.42,4.13L15.55,43H13.64Z"/><path class="cls-1" d="M35.07,39.78c0-2.87,2.4-4.62,5.69-4.62a17,17,0,0,1,4.55.69l.08-.3a5.6,5.6,0,0,0,.17-1.19c0-1.65-1.14-2.59-3.46-2.59a10.4,10.4,0,0,0-3.61.67l-.33-1.59a11.69,11.69,0,0,1,4.23-.76c3.22,0,5,1.48,5,3.95a6.55,6.55,0,0,1-.27,1.76L45.21,43H43.36l.54-2a6.16,6.16,0,0,1-4.77,2.28C37,43.32,35.07,42.06,35.07,39.78ZM44.74,38l.25-.89a15.37,15.37,0,0,0-4.15-.56c-2.28,0-3.84,1.23-3.84,3,0,1.36,1.07,2.27,2.72,2.27A5.38,5.38,0,0,0,44.74,38Z"/><path class="cls-1" d="M49.77,30.26h1.9L50.8,33.6c1.56-2.23,3.54-3.71,6.09-3.56l-.55,2.05h-.12c-2.79,0-5.59,2-6.6,5.91l-1.36,5H46.35Z"/><path class="cls-1" d="M56.89,40.74a5.7,5.7,0,0,1,.17-1.33l2-7.47H57.31l.44-1.68h1.78l1-3.86h1.88l-1,3.86h4L65,31.94H61l-2,7.37a6.4,6.4,0,0,0-.1.94c0,.89.67,1.31,1.76,1.31a4.83,4.83,0,0,0,1.85-.4L62,42.9a5.12,5.12,0,0,1-2,.37C58.17,43.27,56.89,42.4,56.89,40.74Z"/><path class="cls-1" d="M76.05,43.29a5.08,5.08,0,0,1-4.13-2V43H68.16V25h3.76v6.7a4.87,4.87,0,0,1,4.13-2.15c3.09,0,6,2.43,6,6.85v0C82.08,40.87,79.19,43.29,76.05,43.29Zm2.27-6.9a3.25,3.25,0,1,0-6.45,0v0a3.25,3.25,0,1,0,6.45,0Z"/><path class="cls-1" d="M90.77,33.47c-2.5,0-4,1.51-4,4.68V43H83V29.79h3.76v2.67c.77-1.83,2-3,4.23-2.92v3.93Z"/><path class="cls-1" d="M91.69,28.33V25h4v3.34ZM91.79,43V29.79h3.76V43Z"/><path class="cls-1" d="M106.73,43v-1.9a4.87,4.87,0,0,1-4.13,2.15c-3.09,0-6-2.42-6-6.85v0c0-4.42,2.9-6.85,6-6.85a5.11,5.11,0,0,1,4.13,2V25h3.76V43Zm0-6.65a3.26,3.26,0,1,0-6.46,0v0a3.26,3.26,0,1,0,6.46,0Z"/><path class="cls-1" d="M117.8,47.05a12.57,12.57,0,0,1-5.86-1.38l1.29-2.82a8.72,8.72,0,0,0,4.48,1.21c2.57,0,3.78-1.24,3.78-3.61V39.8A5.18,5.18,0,0,1,117.16,42a5.82,5.82,0,0,1-5.88-6.19v-.05a5.83,5.83,0,0,1,5.88-6.18,5.38,5.38,0,0,1,4.28,2V29.79h3.76V40.05C125.2,45.05,122.73,47.05,117.8,47.05Zm3.69-11.33a3.23,3.23,0,0,0-6.46,0v.05a3.23,3.23,0,0,0,6.46,0Z"/><path class="cls-1" d="M138.84,37.73h-9.22a3.07,3.07,0,0,0,3.24,2.59A4.32,4.32,0,0,0,136.07,39l2.15,1.91a7,7,0,0,1-12.34-4.38v-.05a6.61,6.61,0,0,1,6.56-6.9c4.42,0,6.45,3.44,6.45,7.2v0C138.89,37.16,138.87,37.38,138.84,37.73Zm-6.4-5.17c-1.56,0-2.58,1.11-2.87,2.82h5.66C135,33.7,134,32.56,132.44,32.56Z"/><path class="cls-1" d="M140.14,30.17a2.68,2.68,0,1,1,2.68-2.68A2.66,2.66,0,0,1,140.14,30.17Zm0-5.05a2.38,2.38,0,1,0,2.36,2.37A2.35,2.35,0,0,0,140.15,25.12Zm.66,2.7.7,1h-.74l-.6-.91h-.5v.91H139V26h1.27c.68,0,1.11.34,1.11.94A.88.88,0,0,1,140.81,27.82Zm-.52-1.27h-.62v.84h.63c.32,0,.49-.17.49-.42S140.6,26.55,140.29,26.55Z"/><path class="cls-1" d="M115.31,18.81h-2.43V15.23a24.36,24.36,0,0,0,4.68.88.41.41,0,0,0,.44-.38.43.43,0,0,0-.39-.45,27.6,27.6,0,0,1-6.82-1.6A26.78,26.78,0,0,1,98.57,5V.43a.42.42,0,0,0-.19-.35A.43.43,0,0,0,98,0l-6.3,2.39a.42.42,0,0,0-.28.4V4.38a28.51,28.51,0,0,1-7.78,6A36.07,36.07,0,0,1,77.23,13h0A.38.38,0,0,0,77,13c-.49.14-1,.28-1.48.4a38.7,38.7,0,0,1-8.86,1.24c-.92-.17-1.91-.37-2.95-.63A37.15,37.15,0,0,1,55.49,11a28.89,28.89,0,0,1-7.55-5.66V2.82a.42.42,0,0,0-.28-.4L41.36,0a.44.44,0,0,0-.4.05.42.42,0,0,0-.19.35v4a25,25,0,0,1-5.85,5.47,28.46,28.46,0,0,1-6.18,3.13,27.5,27.5,0,0,1-6.8,1.61.42.42,0,0,0-.39.44.43.43,0,0,0,.44.39,27.9,27.9,0,0,0,7-1.65q1-.37,2-.81v1.69a22.42,22.42,0,0,1-3.25.54.43.43,0,0,0-.39.45.41.41,0,0,0,.44.38A22,22,0,0,0,31,15.6v3.21H24a.42.42,0,0,0,0,.84H40.77v8a.44.44,0,0,0,.44.44.44.44,0,0,0,.43-.44v-8h5.43V29.1a.44.44,0,0,0,.44.44.44.44,0,0,0,.43-.44V19.65H91.4v3.91a.44.44,0,0,0,.44.43.43.43,0,0,0,.43-.43V19.65H97.7v9a.44.44,0,0,0,.44.43.43.43,0,0,0,.43-.43v-9h16.74a.42.42,0,0,0,0-.84Zm-3.26,0h-2.7V15.28c1.06.18,1.7.22,1.76.23a.42.42,0,0,0,.3-.73l.64.2ZM49.42,11.26c.87.45,1.77.86,2.7,1.25v6.3h-2.7ZM53,12.84c.88.33,1.77.64,2.69.92v5H53ZM56.48,14l1,.26c.6.15,1.18.28,1.74.4v4.15H56.48Zm3.52.82c1,.19,1.89.32,2.69.42v3.57H60Zm3.53.52c1.28.13,2.22.16,2.69.17v3.3H63.53Zm3.52.26c1,.16,1.92.28,2.69.35v2.86H67.05Zm3.53.43c1,.08,1.76.09,2,.09h.68v2.7H70.58Zm3.52,0c.69,0,1.61-.11,2.69-.25v3H74.1Zm3.53-.36c.82-.13,1.73-.28,2.69-.49v3.59H77.63Zm0-.85V13.71c.92-.29,1.82-.6,2.69-.94v1.6C79.36,14.57,78.45,14.73,77.63,14.86Zm3.52.18.72-.18c.67-.17,1.33-.35,2-.55v4.5h-2.7Zm3.53-1c.92-.31,1.82-.64,2.69-1v5.76H84.68Zm0-3.33c.93-.53,1.83-1.09,2.69-1.69v3.11c-.87.38-1.77.72-2.69,1Zm3.52,2c.7-.31,1.39-.64,2.06-1l.64-.35v7.46H88.2Zm4.07-7A25.9,25.9,0,0,0,94.43,8q-1,.81-2.16,1.53ZM97.7,9.6c-.66-.47-1.33-1-2-1.55.7-.59,1.36-1.2,2-1.84Zm1.08,1.71a27.71,27.71,0,0,0,2.69,1.45v6H98.78Zm3.52,1.83q.89.39,1.8.72l.9.31v4.64h-2.7Zm3.53,1.3c1,.3,1.92.52,2.69.68v3.69h-2.69Zm5.25.23c-.21,0-.82-.08-1.73-.24V14l1.16.44Zm-7-3.42a29.15,29.15,0,0,0,4.44,2.42v.6a31.32,31.32,0,0,1-4.13-1.19c-.68-.24-1.4-.54-2.17-.89a.42.42,0,0,0-.33-.17h0a26.89,26.89,0,0,1-3.29-1.83V6.31A26,26,0,0,0,104.08,11.25ZM97.7,1.06V5a28,28,0,0,1-2.61,2.49,23.49,23.49,0,0,1-2.82-3.1V3.12Zm-6.8,5v4.29l-1,.56c-.55.29-1.11.56-1.68.83V8.42A27.45,27.45,0,0,0,90.9,6.1Zm-7.05,5.07v2.27c-.71.22-1.43.42-2.16.61l-.54.13V12.44C82.08,12.05,83,11.63,83.85,11.17Zm-8.18,3.09L76.79,14v1c-1.08.14-2,.21-2.69.25v-.61Zm-2.4.53v.48h-.59s-.73,0-1.93-.08C71.52,15.1,72.36,15,73.27,14.79ZM55.11,11.7A36.91,36.91,0,0,0,61,14.16c-1-.17-2.19-.4-3.4-.71a36.31,36.31,0,0,1-8.15-3.09c-.53-.28-1-.58-1.55-.88v-3A29.9,29.9,0,0,0,55.11,11.7ZM42.37,6.27c.58.55,1.19,1.09,1.82,1.6-.57.54-1.18,1.06-1.82,1.56Zm0,4.21a26.47,26.47,0,0,0,2.49-2.09l.21.15V18.81h-2.7ZM45.46,7.8C46,7.22,46.56,6.61,47.07,6V8.93C46.52,8.57,46,8.19,45.46,7.8Zm1.61-4.68V4.73a.52.52,0,0,0-.19.14,23.9,23.9,0,0,1-2.09,2.41,26.82,26.82,0,0,1-3.15-3V1.06ZM40.77,5.8v4.79c-.62.41-1.26.8-1.92,1.16V7.85A26.47,26.47,0,0,0,40.77,5.8ZM38,8.61v3.58a27.38,27.38,0,0,1-2.7,1.21V10.67l0,0A28.11,28.11,0,0,0,38,8.61Zm-2.7,5.69q1.4-.53,2.7-1.17v5.68h-2.7Zm-3.48-1.64a29.33,29.33,0,0,0,2.65-1.45v2.51c-1,.34-1.84.6-2.65.81Zm0,2.74c.81-.21,1.7-.47,2.65-.8v4.21H31.84Zm7,3.41V12.7c.66-.35,1.3-.72,1.92-1.12v7.23Zm7,0V9.14q.57.4,1.17.78v8.89Zm2-8.36.65.37v8h-.65Zm44.33.09c.74-.46,1.46-.95,2.15-1.47v9.74H92.27Zm3,8.27V8.75a26.39,26.39,0,0,0,2.45,1.87v8.19Z"/></svg>