<?xml version="1.0" encoding="UTF-8"?><svg id="Layer_2" xmlns="http://www.w3.org/2000/svg" viewBox="0 0 175.7 24.23"><defs><style>.cls-1{fill:#fff;}</style></defs><g id="Layer_1-2"><g><g><path class="cls-1" d="M12.66,8.85c-3.13,0-5.66,2.53-5.66,5.66,0,2.02,.97,3.88,2.59,4.84,.44,.22,.53,.57,.53,.94v3.62c.78,.2,1.63,.33,2.54,.33s1.75-.13,2.54-.33v-3.62c0-.37,.1-.72,.53-.94,1.62-.96,2.59-2.81,2.59-4.84,0-3.13-2.53-5.66-5.66-5.66m-4.72,5.66c0-2.57,2.15-4.72,4.72-4.72s4.72,2.15,4.72,4.72c0,1.64-.82,3.22-2.16,3.98-.34,.2-.96,.75-.96,1.8v2.7c-.53,.11-1.06,.21-1.6,.21s-1.07-.1-1.6-.21v-2.7c0-1.05-.62-1.59-.96-1.8-1.35-.76-2.16-2.34-2.16-3.98"/><path class="cls-1" d="M5.58,11.16L.28,8.09c-.62-.36-.08-1.3,.54-.94l5.3,3.08c.62,.36,.08,1.3-.54,.94"/><path class="cls-1" d="M8.39,7.87L5.15,2.67c-.38-.61,.54-1.19,.92-.57l3.24,5.21c.38,.61-.54,1.19-.92,.57"/><path class="cls-1" d="M19.73,11.16l5.3-3.08c.62-.36,.08-1.3-.54-.94l-5.3,3.08c-.62,.36-.08,1.3,.54,.94"/><path class="cls-1" d="M16.92,7.87l3.24-5.21c.38-.61-.54-1.19-.92-.57l-3.24,5.21c-.38,.61,.54,1.19,.92,.57"/><path class="cls-1" d="M13.18,6.67V.54c-.02-.72-1.1-.72-1.1,0l.02,6.13c0,.72,1.08,.72,1.08,0"/></g><g><path class="cls-1" d="M43.79,15.52c-.13-.24-.25-.49-.35-.74-.07-.17-.13-.34-.19-.52l-2.98,1.21c-.35,.14-.52,.54-.38,.89,.14,.35,.54,.52,.89,.38l2.99-1.21s0,0,.02,0m.98,1.38l-.94,.94c-.18,.18-.18,.48,0,.66,.14,.13,.33,.17,.5,.1,.06-.02,.11-.06,.15-.1l.95-.95c-.24-.2-.46-.41-.67-.64m4.94,2.33v1.33c0,.26,.21,.46,.47,.46,.06,0,.12-.01,.17-.03,.17-.07,.29-.24,.29-.43v-1.34c-.31,.03-.62,.03-.93,.01m-8.11-7.46c-.26,0-.46,.21-.46,.46s.21,.46,.46,.46h1.34c-.03-.31-.03-.62-.02-.93h-1.33Zm3.92,9.64c-.15,.35,.01,.75,.36,.9,.17,.07,.36,.07,.52,0,.16-.07,.3-.19,.37-.37l1.26-2.97s0-.01,0-.02c-.44-.13-.87-.3-1.27-.51l-1.25,2.96Zm-5.3-12.57l2.97,1.26s0,0,.02,0c.13-.44,.3-.87,.51-1.27l-2.96-1.25c-.35-.15-.75,.02-.9,.36-.15,.35,.02,.75,.37,.9m6.4-3s0,0,0,.01c.24-.13,.49-.25,.74-.35,.17-.07,.35-.13,.52-.19l-1.21-2.98c-.14-.35-.54-.52-.9-.38-.35,.14-.52,.54-.38,.89l1.21,2.99Zm-2.01,1.66c.2-.23,.41-.46,.64-.67l-.94-.94c-.18-.18-.48-.18-.66,0-.18,.18-.18,.47,0,.65l.95,.95Zm5.78-2.51v-1.33c0-.25-.21-.46-.47-.46-.26,0-.46,.21-.46,.46v1.34c.31-.03,.62-.03,.93-.02"/><path class="cls-1" d="M44.73,12.1c0,2.93,2.36,5.3,5.28,5.31v1.08c-3.51-.02-6.35-2.87-6.35-6.39s2.84-6.37,6.35-6.39v1.08c-2.92,.02-5.28,2.39-5.28,5.31"/><path class="cls-1" d="M62.48,13.71l-4.24,1.03,2.43,1.52c.61,.38,.04,1.3-.57,.92l-2.39-1.5,1.05,4.33c.17,.7-.88,.96-1.05,.26l-1.31-5.4-3.22-2.01v3.79l3.88,3.79c.52,.51-.24,1.28-.76,.77l-3.12-3.05v2.87c0,.72-1.08,.72-1.08,0V2.95c0-.72,1.08-.72,1.08,0v2.56l3.11-3.18c.51-.52,1.28,.24,.77,.76l-3.89,3.97v3.9l3.41-1.82,1.53-5.21c.2-.69,1.24-.39,1.04,.31l-1.23,4.19,2.53-1.35c.64-.34,1.15,.62,.51,.96l-2.49,1.33,4.27,1.25c.69,.2,.39,1.24-.3,1.04l-5.33-1.57-3.39,1.8,3.25,2.03,5.27-1.28c.7-.17,.96,.88,.26,1.05"/></g><path class="cls-1" d="M89.56,.83c-2.21,0-4.19,.61-5.94,1.75-3.2,1.98-5.34,5.49-5.34,9.53s2.13,7.62,5.33,9.6c1.75,1.07,3.73,1.68,5.94,1.68,6.12,0,11.28-5.03,11.28-11.28,0-2.97-1.22-5.79-3.36-7.93-1.98-2.12-5.03-3.35-7.92-3.35m-6.25,3.34c1.76-1.36,3.92-2.16,6.25-2.16h.77l-.51,1.53-2.64,7.86-3.9-4.41-1.34-1.52,.49-.49,.41-.4c.15-.14,.31-.28,.48-.41m13.38,15.08c-.8,.8-1.77,1.45-2.72,2-1.36,.64-2.9,.97-4.42,.97h-.77l.51-1.53,2.65-7.86,2.11,2.38,3.09,3.49c-.09,.18-.15,.3-.31,.44l-.14,.11Zm1.17-1.46l-4.21-4.8-2.25-2.62c3.88-.78,2.34-.47,7.71-1.54,.37,1.1,.56,2.12,.56,3.28,0,2.15-.64,3.89-1.8,5.68m.85-10.01l-9.71,1.88,.3-.91,2.18-6.55c.92,.18,1.67,.39,2.49,.85,2.24,1.12,3.55,2.56,4.74,4.73m-17.46-1.34l2.42,2.77,4.06,4.65-4.21,.79-3.51,.75c-.37-1.11-.56-2.11-.56-3.28,0-2.15,.64-3.89,1.8-5.68m-.87,10.09l3.03-.62,6.7-1.34-.31,.91-2.18,6.55c-1.67-.35-2.96-.97-4.32-1.97-1.27-1-2.1-2.16-2.92-3.53m8.18-5.59l.93-.19,.55-.11,.98,1.18-.49,1.46c-1.09,.22-.64,.13-1.48,.3l-.98-1.18,.49-1.46Z"/><path class="cls-1" d="M130.31,22.77h-12.27c-.23,0-.43-.2-.43-.43V12.66h-2.72c-.49,0-.65-.42-.29-.74L127.08,.69c.15-.13,.43-.13,.57,0l3.24,2.91v-1.15c0-.23,.2-.43,.43-.43h2.84c.23,0,.43,.2,.43,.43V6.92l5.62,5.03c.36,.33,.21,.74-.28,.74h-2.48v9.71c0,.23-.2,.42-.43,.42h-3.51c-1.53,0-1.21-4.29-1.19-4.54,.31-3.71-.35-6.44-4.05-8.69-1.44-.87-2.58-1.25-4.03-1.62,.59,2.31,.42,4.77,.79,7.12,.48,3.08,2.52,4.62,4.92,4.57,.1-3.16-1.08-6.06-3.56-8.71-.39-.42,.23-1,.62-.58,2.72,2.9,3.99,6.15,3.77,9.72-.01,.18-.21,.38-.39,.4-3.02,.26-5.63-1.62-6.2-5.27-.4-2.53-.15-5.27-.97-7.72-.13-.39,.11-.65,.51-.55,13.93,3.43,7.69,12.71,9.95,15h2.93V12.27c0-.23,.2-.43,.43-.43h1.79l-4.93-4.41s-.14-.27-.14-.32V2.88h-1.98v1.68c0,.46-.37,.63-.71,.32l-3.67-3.29-11.37,10.23h2.04c.23,0,.43,.2,.43,.43v9.67h11.85c.57,0,.57,.85,0,.85"/><g><path class="cls-1" d="M174.61,3.71h-18.28V22h18.28V3.71Zm1.09-1.09h0Zm-20.45,0h20.45V23.09h-20.45V2.63Z"/><path class="cls-1" d="M166.01,6.01v6.56c0,.73-1.09,.73-1.09,0V6.01c0-.73,1.09-.73,1.09,0"/><path class="cls-1" d="M170.39,13.42c0-2.05-1.26-3.81-3.04-4.55l.48-.98c2.15,.91,3.66,3.05,3.66,5.53,0,3.32-2.69,6.01-6.01,6.01s-6.01-2.69-6.01-6.01c0-2.49,1.51-4.62,3.66-5.53l.47,.98c-1.79,.74-3.04,2.5-3.04,4.55,0,2.72,2.2,4.92,4.92,4.92s4.92-2.2,4.92-4.92"/></g></g></g></svg>