<svg id="Layer_1" data-name="Layer 1" xmlns="http://www.w3.org/2000/svg" viewBox="0 0 188.2 36.35"><defs><style>.cls-1{fill:#fff;}</style></defs><path class="cls-1" d="M13.54,11.78a4.59,4.59,0,1,1,9.17,0v7.08a4.59,4.59,0,1,1-9.17,0Z"/><path class="cls-1" d="M24.32,28.36H19.53V26.93A7.9,7.9,0,0,0,26,19.17a.37.37,0,0,0-.74,0,7.15,7.15,0,1,1-14.29,0,.38.38,0,0,0-.75,0,7.9,7.9,0,0,0,6.48,7.76v1.43H11.93a.38.38,0,1,0,0,.75H24.32a.38.38,0,0,0,0-.75Z"/><path class="cls-1" d="M18.12,36.24A18.12,18.12,0,1,1,36.25,18.12,18.14,18.14,0,0,1,18.12,36.24Zm0-34A15.91,15.91,0,1,0,34,18.12,15.91,15.91,0,0,0,18.12,2.22Z"/><path class="cls-1" d="M55.77.26h2.61L61,7.06h0L63.59.26H66L61.75,10.64H59.92Z"/><path class="cls-1" d="M66.56,5.45A5.78,5.78,0,0,1,67,3.2a5.11,5.11,0,0,1,1.16-1.73A5.27,5.27,0,0,1,69.92.38a6.79,6.79,0,0,1,4.48,0,5.27,5.27,0,0,1,1.78,1.09A5.11,5.11,0,0,1,77.34,3.2a5.78,5.78,0,0,1,.42,2.25,5.83,5.83,0,0,1-.42,2.26,5.07,5.07,0,0,1-1.16,1.72,5,5,0,0,1-1.78,1.09,6.79,6.79,0,0,1-4.48,0,5,5,0,0,1-1.78-1.09A5.07,5.07,0,0,1,67,7.71,5.83,5.83,0,0,1,66.56,5.45Zm2.38,0a3.81,3.81,0,0,0,.22,1.34,3,3,0,0,0,.66,1.06,3,3,0,0,0,1,.7,3.81,3.81,0,0,0,2.66,0,3.15,3.15,0,0,0,1-.7,3.09,3.09,0,0,0,.65-1.06,3.8,3.8,0,0,0,.23-1.34,3.83,3.83,0,0,0-.23-1.33,3,3,0,0,0-.65-1.06,3.15,3.15,0,0,0-1-.7,3.66,3.66,0,0,0-2.66,0,3,3,0,0,0-1,.7,2.88,2.88,0,0,0-.66,1.06A3.83,3.83,0,0,0,68.94,5.45Z"/><path class="cls-1" d="M79.28.26h2.29V10.64H79.28Z"/><path class="cls-1" d="M90.44,3a2.35,2.35,0,0,0-.83-.63,2.73,2.73,0,0,0-1.14-.22,2.82,2.82,0,0,0-2.14,1,3.11,3.11,0,0,0-.63,1.06,3.61,3.61,0,0,0-.23,1.33,3.59,3.59,0,0,0,.23,1.34,3.19,3.19,0,0,0,.62,1.06,2.68,2.68,0,0,0,2.08.94,2.56,2.56,0,0,0,1.25-.29,2.41,2.41,0,0,0,.89-.82L92.45,9.1a4,4,0,0,1-1.68,1.37,5.17,5.17,0,0,1-2.08.43,6.24,6.24,0,0,1-2.24-.38,5,5,0,0,1-1.77-1.09,5,5,0,0,1-1.17-1.72,5.83,5.83,0,0,1-.42-2.26,5.78,5.78,0,0,1,.42-2.25,5,5,0,0,1,1.17-1.73A5.32,5.32,0,0,1,86.45.38,6.46,6.46,0,0,1,88.69,0a5.92,5.92,0,0,1,.92.08,4.53,4.53,0,0,1,.94.26,3.75,3.75,0,0,1,.88.47,3.44,3.44,0,0,1,.77.71Z"/><path class="cls-1" d="M93.78.26h7V2.37H96.07V4.31h4.5V6.42h-4.5V8.53h5v2.11H93.78Z"/><path class="cls-1" d="M114.05,3a2.35,2.35,0,0,0-.83-.63,2.71,2.71,0,0,0-1.13-.22,2.82,2.82,0,0,0-2.15,1,3.11,3.11,0,0,0-.63,1.06,3.83,3.83,0,0,0-.23,1.33,3.8,3.8,0,0,0,.23,1.34,3.37,3.37,0,0,0,.62,1.06,2.68,2.68,0,0,0,2.08.94,2.54,2.54,0,0,0,1.25-.29,2.41,2.41,0,0,0,.89-.82l1.91,1.42a4,4,0,0,1-1.67,1.37,5.24,5.24,0,0,1-2.08.43,6.29,6.29,0,0,1-2.25-.38,5,5,0,0,1-1.77-1.09,5,5,0,0,1-1.17-1.72,6,6,0,0,1-.41-2.26,6,6,0,0,1,.41-2.25,5,5,0,0,1,1.17-1.73A5.32,5.32,0,0,1,110.06.38,6.52,6.52,0,0,1,112.31,0a5.9,5.9,0,0,1,.91.08,4.53,4.53,0,0,1,.94.26,3.81,3.81,0,0,1,.89.47,3.63,3.63,0,0,1,.76.71Z"/><path class="cls-1" d="M116.75,5.45a6,6,0,0,1,.41-2.25,5,5,0,0,1,1.17-1.73A5.32,5.32,0,0,1,120.1.38a6.82,6.82,0,0,1,4.49,0,5.32,5.32,0,0,1,1.77,1.09,5,5,0,0,1,1.17,1.73,6,6,0,0,1,.41,2.25,6,6,0,0,1-.41,2.26,5,5,0,0,1-1.17,1.72,5,5,0,0,1-1.77,1.09,6.82,6.82,0,0,1-4.49,0,5,5,0,0,1-1.77-1.09,5,5,0,0,1-1.17-1.72A6,6,0,0,1,116.75,5.45Zm2.37,0a3.8,3.8,0,0,0,.23,1.34A3.09,3.09,0,0,0,120,7.85a3,3,0,0,0,1,.7,3.78,3.78,0,0,0,2.65,0,3,3,0,0,0,1-.7,3.09,3.09,0,0,0,.65-1.06,3.8,3.8,0,0,0,.23-1.34,3.83,3.83,0,0,0-.23-1.33,3,3,0,0,0-.65-1.06,3,3,0,0,0-1-.7,3.64,3.64,0,0,0-2.65,0,3,3,0,0,0-1,.7,3,3,0,0,0-.65,1.06A3.83,3.83,0,0,0,119.12,5.45Z"/><path class="cls-1" d="M129.5.26h3.1L137,7.48h0V.26h2.28V10.64h-3l-4.53-7.39h0v7.39H129.5Z"/><path class="cls-1" d="M143.45,2.29h-3v-2h8.21v2h-3v8.35h-2.29Z"/><path class="cls-1" d="M149.86.26h4a7.19,7.19,0,0,1,1.5.16,3.5,3.5,0,0,1,1.25.51,2.51,2.51,0,0,1,.85,1,3.26,3.26,0,0,1,.31,1.52,3,3,0,0,1-.57,1.86,2.54,2.54,0,0,1-1.67,1l2.64,4.38h-2.74l-2.17-4.15h-1.13v4.15h-2.28Zm2.28,4.3h1.35l.65,0a2.08,2.08,0,0,0,.63-.14,1.09,1.09,0,0,0,.46-.34,1.08,1.08,0,0,0,.18-.66,1.09,1.09,0,0,0-.16-.63,1.08,1.08,0,0,0-.41-.36,2,2,0,0,0-.57-.17,4.64,4.64,0,0,0-.63,0h-1.5Z"/><path class="cls-1" d="M158.8,5.45a6,6,0,0,1,.41-2.25,5,5,0,0,1,1.17-1.73A5.32,5.32,0,0,1,162.15.38a6.82,6.82,0,0,1,4.49,0,5.32,5.32,0,0,1,1.77,1.09,5,5,0,0,1,1.17,1.73A6,6,0,0,1,170,5.45a6,6,0,0,1-.41,2.26,5,5,0,0,1-1.17,1.72,5,5,0,0,1-1.77,1.09,6.82,6.82,0,0,1-4.49,0,5,5,0,0,1-1.77-1.09,5,5,0,0,1-1.17-1.72A6,6,0,0,1,158.8,5.45Zm2.37,0a3.8,3.8,0,0,0,.23,1.34,3.09,3.09,0,0,0,.65,1.06,3,3,0,0,0,1,.7,3.78,3.78,0,0,0,2.65,0,3,3,0,0,0,1-.7,3.09,3.09,0,0,0,.65-1.06,3.8,3.8,0,0,0,.23-1.34,3.83,3.83,0,0,0-.23-1.33,3,3,0,0,0-.65-1.06,3,3,0,0,0-1-.7,3.64,3.64,0,0,0-2.65,0,3,3,0,0,0-1,.7,3,3,0,0,0-.65,1.06A3.83,3.83,0,0,0,161.17,5.45Z"/><path class="cls-1" d="M171.64.26h2.28V8.53h4.24v2.11h-6.52Z"/><path class="cls-1" d="M178.09,22.72a26.72,26.72,0,0,1,.35-4.3,27.3,27.3,0,0,1,0,8.59A26.67,26.67,0,0,1,178.09,22.72Z"/><path class="cls-1" d="M175.61,22.72a46.3,46.3,0,0,1,.6-7.41,46.06,46.06,0,0,1,0,14.82A46.46,46.46,0,0,1,175.61,22.72Z"/><path class="cls-1" d="M172.79,22.72a67.86,67.86,0,0,1,.87-10.79,67.35,67.35,0,0,1,0,21.58A67.86,67.86,0,0,1,172.79,22.72Z"/><path class="cls-1" d="M168.83,22.72a67.11,67.11,0,0,1,.88-10.79,67.35,67.35,0,0,1,0,21.58A67.11,67.11,0,0,1,168.83,22.72Z"/><path class="cls-1" d="M164.89,22.72A82.34,82.34,0,0,1,166,9.54a82.47,82.47,0,0,1,0,26.36A82.34,82.34,0,0,1,164.89,22.72Z"/><path class="cls-1" d="M162.36,22.9a50,50,0,0,1,.66-8.06A50.36,50.36,0,0,1,163,31,50,50,0,0,1,162.36,22.9Z"/><path class="cls-1" d="M159.41,22.9a50.71,50.71,0,0,1,.65-8.06,49.61,49.61,0,0,1,0,16.13A50.76,50.76,0,0,1,159.41,22.9Z"/><path class="cls-1" d="M156.46,22.9a61.52,61.52,0,0,1,.8-9.85,61.8,61.8,0,0,1,0,19.7A61.52,61.52,0,0,1,156.46,22.9Z"/><path class="cls-1" d="M151.24,22.72a69.62,69.62,0,0,1,.89-11,68.22,68.22,0,0,1,0,22.09A69.41,69.41,0,0,1,151.24,22.72Z"/><path class="cls-1" d="M149.12,22.87a42.2,42.2,0,0,1,.55-6.76,41.82,41.82,0,0,1,0,13.52A42,42,0,0,1,149.12,22.87Z"/><path class="cls-1" d="M146.65,22.87a43,43,0,0,1,.54-6.76,41.82,41.82,0,0,1,0,13.52A42.8,42.8,0,0,1,146.65,22.87Z"/><path class="cls-1" d="M144.17,22.87a51.47,51.47,0,0,1,.67-8.25,51.19,51.19,0,0,1,0,16.51A51.69,51.69,0,0,1,144.17,22.87Z"/><path class="cls-1" d="M141.08,22.87a41.23,41.23,0,0,1,.53-6.56,40.92,40.92,0,0,1,0,13.13A41.28,41.28,0,0,1,141.08,22.87Z"/><path class="cls-1" d="M138.67,22.87a41.23,41.23,0,0,1,.53-6.56,40.18,40.18,0,0,1,0,13.13A41.28,41.28,0,0,1,138.67,22.87Z"/><path class="cls-1" d="M136.27,22.87a50.18,50.18,0,0,1,.65-8,49.8,49.8,0,0,1,0,16A50.18,50.18,0,0,1,136.27,22.87Z"/><path class="cls-1" d="M134.83,23.12a32.52,32.52,0,0,1,.43-5.25,33.09,33.09,0,0,1,0,10.51A32.73,32.73,0,0,1,134.83,23.12Z"/><path class="cls-1" d="M132.91,23.12a33.27,33.27,0,0,1,.42-5.25,32.33,32.33,0,0,1,0,10.51A33.48,33.48,0,0,1,132.91,23.12Z"/><path class="cls-1" d="M131,23.12a40.3,40.3,0,0,1,.52-6.42,39.89,39.89,0,0,1,0,12.84A40.14,40.14,0,0,1,131,23.12Z"/><path class="cls-1" d="M129.62,23.12a21.49,21.49,0,0,1,.28-3.45,21.46,21.46,0,0,1,0,6.91A21.7,21.7,0,0,1,129.62,23.12Z"/><path class="cls-1" d="M128.36,23.12a21.49,21.49,0,0,1,.28-3.45,21.46,21.46,0,0,1,0,6.91A21.7,21.7,0,0,1,128.36,23.12Z"/><path class="cls-1" d="M127.09,23.12a25.84,25.84,0,0,1,.35-4.22,26.36,26.36,0,0,1,0,8.44A25.84,25.84,0,0,1,127.09,23.12Z"/><path class="cls-1" d="M125.27,23.12a19.27,19.27,0,0,1,.25-3.08,19.16,19.16,0,0,1,0,6.17A19.32,19.32,0,0,1,125.27,23.12Z"/><path class="cls-1" d="M124.14,23.12a24.05,24.05,0,0,1,.3-3.77,23.08,23.08,0,0,1,0,7.54A24.05,24.05,0,0,1,124.14,23.12Z"/><path class="cls-1" d="M123.34,23.12a13.07,13.07,0,0,1,.16-2,12.21,12.21,0,0,1,0,4.06A13.07,13.07,0,0,1,123.34,23.12Z"/><path class="cls-1" d="M122.59,23.12a12.33,12.33,0,0,1,.17-2,13,13,0,0,1,0,4.06A12.33,12.33,0,0,1,122.59,23.12Z"/><path class="cls-1" d="M121.85,23.12a15.59,15.59,0,0,1,.2-2.48,15.48,15.48,0,0,1,0,5A15.59,15.59,0,0,1,121.85,23.12Z"/><path class="cls-1" d="M120.85,23.08a12.33,12.33,0,0,1,.17-2,13,13,0,0,1,0,4.06A12.33,12.33,0,0,1,120.85,23.08Z"/><path class="cls-1" d="M120.42,23.08a6.78,6.78,0,0,1,.09-1.1,6.71,6.71,0,0,1,0,2.19A6.73,6.73,0,0,1,120.42,23.08Z"/><path class="cls-1" d="M120,23.08a6.78,6.78,0,0,1,.09-1.1,6.71,6.71,0,0,1,0,2.19A6.73,6.73,0,0,1,120,23.08Z"/><path class="cls-1" d="M119.62,23.08a8.28,8.28,0,0,1,.11-1.34,8.16,8.16,0,0,1,0,2.67A8.23,8.23,0,0,1,119.62,23.08Z"/><path class="cls-1" d="M118.78,23.24a7.72,7.72,0,0,1,.11-1.29,8.37,8.37,0,0,1,0,2.58A7.72,7.72,0,0,1,118.78,23.24Z"/><path class="cls-1" d="M118.26,23.22a6.27,6.27,0,0,1,.09-1.06,7,7,0,0,1,0,2.11A6.22,6.22,0,0,1,118.26,23.22Z"/><path class="cls-1" d="M118,23.22a4,4,0,0,1,0-.57,3.23,3.23,0,0,1,0,.57,3.18,3.18,0,0,1,0,.56A4,4,0,0,1,118,23.22Z"/><path class="cls-1" d="M117.83,23.22a3.23,3.23,0,0,1,0-.57,4,4,0,0,1,0,.57,4,4,0,0,1,0,.56A3.18,3.18,0,0,1,117.83,23.22Z"/><path class="cls-1" d="M117.62,23.22a4.1,4.1,0,0,1,.06-.7,4.1,4.1,0,0,1,.06.7,4,4,0,0,1-.06.69A4,4,0,0,1,117.62,23.22Z"/><path class="cls-1" d="M187.05,22.67a44.12,44.12,0,0,1,.58-7.1,44.5,44.5,0,0,1,0,14.2A44.12,44.12,0,0,1,187.05,22.67Z"/><path class="cls-1" d="M180.8,23.52a21.54,21.54,0,0,1-.29,3.51,22.14,22.14,0,0,1,0-7A21.54,21.54,0,0,1,180.8,23.52Z"/><path class="cls-1" d="M182.47,23.52a29.89,29.89,0,0,1-.38,4.73,29.69,29.69,0,0,1,0-9.47A30,30,0,0,1,182.47,23.52Z"/><path class="cls-1" d="M184.59,23.52a34,34,0,0,1-.44,5.44,33.91,33.91,0,0,1,0-10.89A34.24,34.24,0,0,1,184.59,23.52Z"/><path class="cls-1" d="M186.54,23.52a37.61,37.61,0,0,1-.48,6,36.61,36.61,0,0,1,0-11.94A37.61,37.61,0,0,1,186.54,23.52Z"/><path class="cls-1" d="M55.84,23.17a27.48,27.48,0,0,1-.34,4.3,26.53,26.53,0,0,1,0-8.59A27.43,27.43,0,0,1,55.84,23.17Z"/><path class="cls-1" d="M58.32,23.17a46.3,46.3,0,0,1-.6,7.41,46.06,46.06,0,0,1,0-14.82A46.46,46.46,0,0,1,58.32,23.17Z"/><path class="cls-1" d="M61.15,23.17A67.11,67.11,0,0,1,60.27,34a67.28,67.28,0,0,1,0-21.57A67.06,67.06,0,0,1,61.15,23.17Z"/><path class="cls-1" d="M65.1,23.17A67.11,67.11,0,0,1,64.22,34a67.28,67.28,0,0,1,0-21.57A67.06,67.06,0,0,1,65.1,23.17Z"/><path class="cls-1" d="M69,23.17A83.1,83.1,0,0,1,68,36.35,81.71,81.71,0,0,1,68,10,83.1,83.1,0,0,1,69,23.17Z"/><path class="cls-1" d="M71.57,23.17a50.76,50.76,0,0,1-.65,8.07,49.61,49.61,0,0,1,0-16.13A50.71,50.71,0,0,1,71.57,23.17Z"/><path class="cls-1" d="M74.52,23.17a50.76,50.76,0,0,1-.65,8.07,50.36,50.36,0,0,1,0-16.13A50.71,50.71,0,0,1,74.52,23.17Z"/><path class="cls-1" d="M77.47,23.17A62.49,62.49,0,0,1,76.68,33a61.1,61.1,0,0,1,0-19.71A62.28,62.28,0,0,1,77.47,23.17Z"/><path class="cls-1" d="M82.69,23.17a69.62,69.62,0,0,1-.89,11,68.22,68.22,0,0,1,0-22.09A69.41,69.41,0,0,1,82.69,23.17Z"/><path class="cls-1" d="M84.81,23.17a42,42,0,0,1-.55,6.76,41.82,41.82,0,0,1,0-13.52A42.2,42.2,0,0,1,84.81,23.17Z"/><path class="cls-1" d="M87.29,23.17a42,42,0,0,1-.55,6.76,41.82,41.82,0,0,1,0-13.52A42.2,42.2,0,0,1,87.29,23.17Z"/><path class="cls-1" d="M89.76,23.17a51.69,51.69,0,0,1-.67,8.26,51.19,51.19,0,0,1,0-16.51A51.47,51.47,0,0,1,89.76,23.17Z"/><path class="cls-1" d="M92.86,23.17a40.54,40.54,0,0,1-.54,6.57,40.92,40.92,0,0,1,0-13.13A40.49,40.49,0,0,1,92.86,23.17Z"/><path class="cls-1" d="M95.26,23.17a41.28,41.28,0,0,1-.53,6.57,40.92,40.92,0,0,1,0-13.13A41.23,41.23,0,0,1,95.26,23.17Z"/><path class="cls-1" d="M97.66,23.17a50.18,50.18,0,0,1-.65,8,49.8,49.8,0,0,1,0-16A50.18,50.18,0,0,1,97.66,23.17Z"/><path class="cls-1" d="M99.1,23.17a32.73,32.73,0,0,1-.43,5.26,33.09,33.09,0,0,1,0-10.51A32.52,32.52,0,0,1,99.1,23.17Z"/><path class="cls-1" d="M101,23.17a33.48,33.48,0,0,1-.42,5.26,32.33,32.33,0,0,1,0-10.51A33.27,33.27,0,0,1,101,23.17Z"/><path class="cls-1" d="M102.94,23.17a40.14,40.14,0,0,1-.52,6.42,40.6,40.6,0,0,1,0-12.83A40.08,40.08,0,0,1,102.94,23.17Z"/><path class="cls-1" d="M104.31,23.17a21.7,21.7,0,0,1-.28,3.46,21.46,21.46,0,0,1,0-6.91A21.65,21.65,0,0,1,104.31,23.17Z"/><path class="cls-1" d="M105.57,23.17a21.7,21.7,0,0,1-.28,3.46,21.46,21.46,0,0,1,0-6.91A21.65,21.65,0,0,1,105.57,23.17Z"/><path class="cls-1" d="M106.84,23.17a26.57,26.57,0,0,1-.34,4.22,25.62,25.62,0,0,1,0-8.44A26.57,26.57,0,0,1,106.84,23.17Z"/><path class="cls-1" d="M108.66,23.17a19.32,19.32,0,0,1-.25,3.09,19.16,19.16,0,0,1,0-6.17A19.27,19.27,0,0,1,108.66,23.17Z"/><path class="cls-1" d="M109.79,23.17a23.89,23.89,0,0,1-.3,3.77,23.08,23.08,0,0,1,0-7.54A24.05,24.05,0,0,1,109.79,23.17Z"/><path class="cls-1" d="M110.59,23.17a13.07,13.07,0,0,1-.16,2,13,13,0,0,1,0-4.06A13.07,13.07,0,0,1,110.59,23.17Z"/><path class="cls-1" d="M111.34,23.17a12.33,12.33,0,0,1-.17,2,13,13,0,0,1,0-4.06A12.33,12.33,0,0,1,111.34,23.17Z"/><path class="cls-1" d="M112.08,23.17a15.59,15.59,0,0,1-.2,2.48,15.48,15.48,0,0,1,0-5A15.59,15.59,0,0,1,112.08,23.17Z"/><path class="cls-1" d="M113.08,23.17a12.33,12.33,0,0,1-.17,2,13,13,0,0,1,0-4.06A12.33,12.33,0,0,1,113.08,23.17Z"/><path class="cls-1" d="M113.51,23.17a6.78,6.78,0,0,1-.09,1.1,6.71,6.71,0,0,1,0-2.19A6.73,6.73,0,0,1,113.51,23.17Z"/><path class="cls-1" d="M113.91,23.17a6.78,6.78,0,0,1-.09,1.1,6.71,6.71,0,0,1,0-2.19A6.73,6.73,0,0,1,113.91,23.17Z"/><path class="cls-1" d="M114.31,23.17a8.28,8.28,0,0,1-.11,1.34,8.16,8.16,0,0,1,0-2.67A8.23,8.23,0,0,1,114.31,23.17Z"/><path class="cls-1" d="M115.15,23.17a7.57,7.57,0,0,1-.11,1.29,8.31,8.31,0,0,1-.1-1.29,8.47,8.47,0,0,1,.1-1.29A7.72,7.72,0,0,1,115.15,23.17Z"/><path class="cls-1" d="M115.67,23.17a6.27,6.27,0,0,1-.09,1.06,7,7,0,0,1,0-2.11A6.22,6.22,0,0,1,115.67,23.17Z"/><path class="cls-1" d="M115.89,23.17a4,4,0,0,1,0,.57,3.23,3.23,0,0,1,0-.57,3.18,3.18,0,0,1,0-.56A4,4,0,0,1,115.89,23.17Z"/><path class="cls-1" d="M116.1,23.17a4,4,0,0,1,0,.57,3.23,3.23,0,0,1,0-.57,3.18,3.18,0,0,1,0-.56A4,4,0,0,1,116.1,23.17Z"/><path class="cls-1" d="M116.31,23.17a4.1,4.1,0,0,1-.06.7,4.89,4.89,0,0,1,0-.7,4.84,4.84,0,0,1,0-.69A4,4,0,0,1,116.31,23.17Z"/><path class="cls-1" d="M46.88,23.17a44.12,44.12,0,0,1-.58,7.1,44.5,44.5,0,0,1,0-14.2A44.12,44.12,0,0,1,46.88,23.17Z"/><path class="cls-1" d="M53.13,23.17a21.54,21.54,0,0,1,.29-3.51,22.2,22.2,0,0,1,0,7A21.75,21.75,0,0,1,53.13,23.17Z"/><path class="cls-1" d="M51.46,23.17a29.89,29.89,0,0,1,.38-4.73,29.69,29.69,0,0,1,0,9.47A30,30,0,0,1,51.46,23.17Z"/><path class="cls-1" d="M49.34,23.17a34.19,34.19,0,0,1,.44-5.44,33.91,33.91,0,0,1,0,10.89A34.24,34.24,0,0,1,49.34,23.17Z"/><path class="cls-1" d="M47.39,23.17a37.77,37.77,0,0,1,.48-6,37,37,0,0,1,.49,6,36.86,36.86,0,0,1-.49,6A37.61,37.61,0,0,1,47.39,23.17Z"/></svg>