<?xml version="1.0" encoding="UTF-8"?><svg id="Layer_2" xmlns="http://www.w3.org/2000/svg" xmlns:xlink="http://www.w3.org/1999/xlink" viewBox="0 0 1000 1000"><defs><style>.cls-1{fill:url(#linear-gradient);}.cls-2{fill:#fff;}</style><linearGradient id="linear-gradient" x1="0" y1="502" x2="1000" y2="502" gradientTransform="translate(0 1002) scale(1 -1)" gradientUnits="userSpaceOnUse"><stop offset="0" stop-color="#2ab25b"/><stop offset="1" stop-color="#0171b8"/></linearGradient></defs><g id="Layer_1-2"><g><rect class="cls-1" width="1000" height="1000" rx="177.96" ry="177.96"/><path class="cls-2" d="M560.8,909.44c0,7.35-5.95,13.3-13.3,13.3h-148.51c-7.17,0-12.98-5.81-12.99-12.98,0-.11,0-.21,0-.32V436.67h-80.11c-7.1-.17-12.82-5.88-12.98-12.98v-101.01c.33-6.98,6-12.51,12.98-12.67h79.8v-40.85c0-139.33,97.53-191.89,200.13-191.89,36.25,1.17,72.4,4.34,108.3,9.5,7.31,1.69,12.61,8.02,12.98,15.52v98.8c-.35,5.76-5.3,10.15-11.06,9.8-.65-.04-1.29-.14-1.92-.3-22.24-4.09-44.83-5.99-67.45-5.7-39.27,0-66.5,19-66.5,80.75v24.38h133.31c7.22,.17,12.98,6.08,12.98,13.3v100.06c-.17,7.1-5.88,12.82-12.98,12.98h-132.68v473.08Z"/></g></g></svg>