<svg xmlns="http://www.w3.org/2000/svg" viewBox="0 0 94.51 94.51"><defs><style>.cls-1{fill:#414142;}</style></defs><path class="cls-1" d="M93.42,94.51H1.08A1.09,1.09,0,0,1,0,93.42V1.08A1.09,1.09,0,0,1,1.08,0H93.42a1.09,1.09,0,0,1,1.09,1.08V93.42A1.09,1.09,0,0,1,93.42,94.51ZM2,92.54H92.54V2H2Z"/><path class="cls-1" d="M93.42,94.51H1.08A1.09,1.09,0,0,1,0,93.42V1.08A1.09,1.09,0,0,1,1.08,0H93.42a1.09,1.09,0,0,1,1.09,1.08V93.42A1.09,1.09,0,0,1,93.42,94.51ZM2,92.54H92.54V2H2Z"/><rect class="cls-1" x="4.5" y="4.97" width="41.06" height="40.81" transform="translate(-0.35 50.4) rotate(-90)"/><rect class="cls-1" x="48.95" y="4.97" width="41.06" height="40.81" transform="translate(44.1 94.85) rotate(-90)"/><rect class="cls-1" x="4.5" y="49.03" width="41.06" height="40.81" transform="translate(-44.41 94.46) rotate(-90)"/><rect class="cls-1" x="48.95" y="49.03" width="41.06" height="40.81" transform="translate(0.05 138.91) rotate(-90)"/></svg>