<svg viewBox="0 0 94.51 94.51" xmlns="http://www.w3.org/2000/svg">
  <defs>
    <style>.cls-1{fill:#414142;}</style>
  </defs>
  <path class="cls-1" d="M 94.51 1.08 L 94.51 93.42 C 94.51 94.022 94.022 94.51 93.42 94.51 L 1.08 94.51 C 0.482 94.505 0 94.018 0 93.42 L 0 1.08 C 0.005 0.486 0.486 0.005 1.08 0 L 93.42 0 C 94.018 0 94.505 0.482 94.51 1.08 Z M 92.51 92.54 L 92.51 2 L 2 2 L 2 92.54 L 92.51 92.54 Z" style="transform-origin: 47.255px 47.255px;" transform="matrix(0, -1, 1, 0, 0.000003000001, 0)"/>
  <path class="cls-1" d="M 94.51 1.08 L 94.51 93.42 C 94.51 94.022 94.022 94.51 93.42 94.51 L 1.08 94.51 C 0.482 94.505 0 94.018 0 93.42 L 0 1.08 C 0.005 0.486 0.486 0.005 1.08 0 L 93.42 0 C 94.018 0 94.505 0.482 94.51 1.08 Z M 92.51 92.54 L 92.51 2 L 2 2 L 2 92.54 L 92.51 92.54 Z" style="transform-origin: 47.255px 47.255px;" transform="matrix(0, -1, 1, 0, 0.000003000001, 0)"/>
  <rect class="cls-1" x="48.95" y="4.62" width="41.05" height="85.27" transform="matrix(0, -1, 1, 0, -22.220003128051, -22.220001220703)" style="transform-origin: 69.475px 47.255px;"/>
  <rect class="cls-1" x="4.35" y="4.62" width="41.05" height="85.27" transform="matrix(0, -1, 1, 0, 22.380001068115, 22.380004882813)" style="transform-origin: 24.875px 47.255px;"/>
</svg>