<svg id="Layer_1" data-name="Layer 1" xmlns="http://www.w3.org/2000/svg" viewBox="0 0 94.51 94.51"><defs><style>.cls-1{fill:#414142;}</style></defs><path class="cls-1" d="M94.51,1.08V93.42a1.09,1.09,0,0,1-1.09,1.09H1.08A1.09,1.09,0,0,1,0,93.42V1.08A1.09,1.09,0,0,1,1.08,0H93.42A1.09,1.09,0,0,1,94.51,1.08Zm-2,91.46V2H2V92.54Z"/><path class="cls-1" d="M94.51,1.08V93.42a1.09,1.09,0,0,1-1.09,1.09H1.08A1.09,1.09,0,0,1,0,93.42V1.08A1.09,1.09,0,0,1,1.08,0H93.42A1.09,1.09,0,0,1,94.51,1.08Zm-2,91.46V2H2V92.54Z"/><rect class="cls-1" x="48.95" y="4.62" width="41.05" height="85.27"/><rect class="cls-1" x="4.35" y="4.62" width="41.05" height="85.27"/></svg>