<svg id="Layer_1" data-name="Layer 1" xmlns="http://www.w3.org/2000/svg" viewBox="0 0 94.51 94.51"><defs><style>.cls-1{fill:#414142;}</style></defs><path class="cls-1" d="M93.42,94.51H1.08A1.09,1.09,0,0,1,0,93.42V1.08A1.09,1.09,0,0,1,1.08,0H93.42a1.09,1.09,0,0,1,1.09,1.08V93.42A1.09,1.09,0,0,1,93.42,94.51ZM2,92.54H92.54V2H2Z"/><path class="cls-1" d="M93.42,94.51H1.08A1.09,1.09,0,0,1,0,93.42V1.08A1.09,1.09,0,0,1,1.08,0H93.42a1.09,1.09,0,0,1,1.09,1.08V93.42A1.09,1.09,0,0,1,93.42,94.51ZM2,92.54H92.54V2H2Z"/><rect class="cls-1" x="37.87" y="15.69" width="18.76" height="85.26" transform="translate(-11.07 105.58) rotate(-90)"/><rect class="cls-1" x="37.87" y="37.99" width="18.76" height="85.26" transform="translate(-33.37 127.88) rotate(-90)"/><rect class="cls-1" x="37.87" y="-28.9" width="18.76" height="85.26" transform="translate(33.52 60.99) rotate(-90)"/><rect class="cls-1" x="37.87" y="-6.6" width="18.76" height="85.26" transform="translate(11.22 83.28) rotate(-90)"/></svg>