<svg id="Layer_1" data-name="Layer 1" xmlns="http://www.w3.org/2000/svg" viewBox="0 0 94.51 94.51"><defs><style>.cls-1{fill:#414142;}</style></defs><path class="cls-1" d="M93.42,94.51H1.08A1.09,1.09,0,0,1,0,93.42V1.08A1.09,1.09,0,0,1,1.08,0H93.42a1.09,1.09,0,0,1,1.09,1.08V93.42A1.09,1.09,0,0,1,93.42,94.51ZM2,92.54H92.54V2H2Z"/><path class="cls-1" d="M93.42,94.51H1.08A1.09,1.09,0,0,1,0,93.42V1.08A1.09,1.09,0,0,1,1.08,0H93.42a1.09,1.09,0,0,1,1.09,1.08V93.42A1.09,1.09,0,0,1,93.42,94.51ZM2,92.54H92.54V2H2Z"/><rect class="cls-1" x="4.5" y="4.47" width="41.06" height="40.81" transform="translate(0.15 49.9) rotate(-90)"/><rect class="cls-1" x="60.1" y="-6.68" width="18.76" height="40.81" transform="translate(55.75 83.21) rotate(-90)"/><rect class="cls-1" x="60.1" y="15.62" width="18.76" height="40.81" transform="translate(33.45 105.5) rotate(-90)"/><rect class="cls-1" x="4.62" y="48.95" width="85.26" height="41.06"/></svg>