<svg id="Layer_1" data-name="Layer 1" xmlns="http://www.w3.org/2000/svg" viewBox="0 0 94.51 94.51"><defs><style>.cls-1{fill:#414142;}</style></defs><path class="cls-1" d="M93.43,0H1.09A1.09,1.09,0,0,0,0,1.08V93.43a1.09,1.09,0,0,0,1.09,1.08H93.43a1.08,1.08,0,0,0,1.08-1.08V1.08A1.08,1.08,0,0,0,93.43,0Zm-.88,92.54H2V2H92.55Z"/><path class="cls-1" d="M93.43,0H1.09A1.09,1.09,0,0,0,0,1.08V93.43a1.09,1.09,0,0,0,1.09,1.08H93.43a1.08,1.08,0,0,0,1.08-1.08V1.08A1.08,1.08,0,0,0,93.43,0Zm-.88,92.54H2V2H92.55Z"/><rect class="cls-1" x="4.63" y="4.85" width="40.81" height="19.2"/><rect class="cls-1" x="4.63" y="27.09" width="40.81" height="18.82"/><rect class="cls-1" x="49.08" y="4.85" width="40.81" height="19.2"/><rect class="cls-1" x="49.08" y="27.09" width="40.81" height="18.82"/><rect class="cls-1" x="26.77" y="26.8" width="40.97" height="85.26" transform="translate(-22.18 116.69) rotate(-90)"/></svg>