<?xml version="1.0" encoding="UTF-8"?><svg id="Layer_1" xmlns="http://www.w3.org/2000/svg" viewBox="0 0 94.51 94.51"><defs><style>.cls-1{fill:#414142;}</style></defs><path class="cls-1" d="m93.42,94.51H1.08C.48,94.5,0,94.02,0,93.42V1.08C0,.49.49,0,1.08,0h92.34c.6,0,1.08.48,1.09,1.08v92.34c0,.6-.49,1.09-1.09,1.09h0ZM2,2v90.54h90.54V2H2Z"/><path class="cls-1" d="m93.42,94.51H1.08C.48,94.5,0,94.02,0,93.42V1.08C0,.49.49,0,1.08,0h92.34c.6,0,1.08.48,1.09,1.08v92.34c0,.6-.49,1.09-1.09,1.09h0ZM2,2v90.54h90.54V2H2Z"/><rect class="cls-1" x="4.47" y="26.73" width="40.81" height="18.69"/><rect class="cls-1" x="4.47" y="4.5" width="40.81" height="18.69"/><rect class="cls-1" x="4.47" y="71.2" width="40.81" height="18.69"/><rect class="cls-1" x="4.47" y="48.97" width="40.81" height="18.69"/><rect class="cls-1" x="48.95" y="4.62" width="41.06" height="40.8"/><rect class="cls-1" x="48.95" y="48.97" width="41.06" height="40.92"/></svg>