<?xml version="1.0" encoding="UTF-8"?><svg id="Layer_2" xmlns="http://www.w3.org/2000/svg" viewBox="0 0 1333.14 410.79"><defs><style>.cls-1{letter-spacing:0em;}.cls-2{letter-spacing:0em;}.cls-3{fill:#f0f0f0;}.cls-4{letter-spacing:-.02em;}.cls-5{letter-spacing:-.06em;}.cls-6{letter-spacing:0em;}.cls-7{letter-spacing:0em;}.cls-8{fill:none;stroke:#f0f0f0;stroke-miterlimit:10;}.cls-9{letter-spacing:-.02em;}.cls-10{fill:#fff;font-family:Usual-Light, Usual;font-size:12px;}.cls-11{letter-spacing:-.02em;}.cls-12{letter-spacing:-.03em;}.cls-13{letter-spacing:0em;}.cls-14{letter-spacing:-.01em;}.cls-15{letter-spacing:0em;}.cls-16{letter-spacing:0em;}</style></defs><g id="Layer_1-2"><g><g><text class="cls-10" transform="translate(1143.53 14.86)"><tspan x="0" y="0">Securit</tspan><tspan class="cls-9" x="39.46" y="0">y</tspan><tspan x="45.53" y="0" xml:space="preserve"> Co</tspan><tspan class="cls-13" x="64.08" y="0">n</tspan><tspan x="71.3" y="0">t</tspan><tspan class="cls-14" x="75.44" y="0">r</tspan><tspan x="79.69" y="0">ol</tspan></text><polyline class="cls-8" points="917.56 102.02 1188.75 102.02 1188.75 34.16"/><circle class="cls-3" cx="917.11" cy="102.06" r="1.36"/><circle class="cls-3" cx="1188.5" cy="34.44" r="2.25"/></g><g><text class="cls-10" transform="translate(1208.52 178.77)"><tspan x="0" y="0">I</tspan><tspan class="cls-16" x="2.88" y="0">n</tspan><tspan class="cls-6" x="10.1" y="0">t</tspan><tspan x="14.15" y="0">e</tspan><tspan class="cls-14" x="21.01" y="0">r</tspan><tspan x="25.26" y="0">com, El</tspan><tspan class="cls-7" x="66.07" y="0">e</tspan><tspan class="cls-9" x="72.84" y="0">v</tspan><tspan class="cls-16" x="78.91" y="0">a</tspan><tspan class="cls-6" x="85.45" y="0">t</tspan><tspan class="cls-15" x="89.49" y="0">or Call</tspan></text><circle class="cls-3" cx="917.11" cy="175.52" r="1.36"/><circle class="cls-3" cx="1191.75" cy="175.52" r="2.25"/><line class="cls-8" x1="915.75" y1="175.52" x2="1191" y2="175.52"/></g><g><text class="cls-10" transform="translate(1168.75 319.36)"><tspan x="0" y="0">Scenes</tspan></text><circle class="cls-3" cx="917.11" cy="249.02" r="1.36"/><circle class="cls-3" cx="1188.75" cy="300.02" r="2.25"/><polyline class="cls-8" points="917.11 249.02 1188.75 249.02 1188.75 300.02"/></g><g><text class="cls-10" transform="translate(1206.75 383.27)"><tspan class="cls-12" x="0" y="0">F</tspan><tspan class="cls-14" x="6.6" y="0">a</tspan><tspan class="cls-7" x="13.04" y="0">v</tspan><tspan x="19.28" y="0">ori</tspan><tspan class="cls-7" x="33.76" y="0">t</tspan><tspan x="37.8" y="0">e D</tspan><tspan class="cls-7" x="56.6" y="0">e</tspan><tspan x="63.37" y="0">vices</tspan></text><circle class="cls-3" cx="917.11" cy="381.02" r="1.36"/><circle class="cls-3" cx="1188.46" cy="381.02" r="2.25"/><line class="cls-8" x1="915.75" y1="381.02" x2="1188.5" y2="381.02"/></g><g><text class="cls-10" transform="translate(63.53 76.08)"><tspan x="0" y="0">Sma</tspan><tspan class="cls-2" x="25.24" y="0">r</tspan><tspan x="29.74" y="0">t Li</tspan><tspan class="cls-7" x="46.31" y="0">f</tspan><tspan class="cls-15" x="50.35" y="0">e Menu</tspan></text><polyline class="cls-8" points="340.38 169.44 110.25 169.44 110.25 89.54"/><circle class="cls-3" cx="340.38" cy="169.44" r="1.36"/><circle class="cls-3" cx="110.25" cy="89.54" r="2.25"/></g><g><text class="cls-10" transform="translate(0 262.27)"><tspan class="cls-5" x="0" y="0">W</tspan><tspan class="cls-15" x="11.94" y="0">e</tspan><tspan class="cls-13" x="18.8" y="0">a</tspan><tspan x="25.34" y="0">ther</tspan><tspan class="cls-4" x="48.04" y="0"> </tspan><tspan class="cls-15" x="50.6" y="0">Widg</tspan><tspan class="cls-7" x="80.99" y="0">e</tspan><tspan x="87.75" y="0">t</tspan></text><circle class="cls-3" cx="501.25" cy="258.02" r="1.36"/><circle class="cls-3" cx="108.72" cy="258.02" r="2.25"/><line class="cls-8" x1="501.25" y1="258.02" x2="110.25" y2="258.02"/></g><g><text class="cls-10" transform="translate(11.71 10.36)"><tspan class="cls-14" x="0" y="0">F</tspan><tspan x="6.86" y="0">ull HD Came</tspan><tspan class="cls-11" x="76.64" y="0">r</tspan><tspan class="cls-1" x="80.78" y="0">a</tspan></text><circle class="cls-3" cx="607.88" cy="6.02" r="1.36"/><circle class="cls-3" cx="110.5" cy="6.02" r="2.25"/><line class="cls-8" x1="609.25" y1="6.02" x2="110.97" y2="6.02"/></g><g><text class="cls-10" transform="translate(86.75 408.39)"><tspan x="0" y="0">Mic.</tspan></text><circle class="cls-3" cx="290.75" cy="404.02" r="1.36"/><circle class="cls-3" cx="127.5" cy="404.02" r="2.25"/><line class="cls-8" x1="290.75" y1="404.02" x2="129.75" y2="404.02"/></g></g></g></svg>